<?xml version="1.0" encoding="UTF-8" standalone="no"?>
<!-- Created with Inkscape (http://www.inkscape.org/) -->

<svg
   xmlns:dc="http://purl.org/dc/elements/1.1/"
   xmlns:cc="http://creativecommons.org/ns#"
   xmlns:rdf="http://www.w3.org/1999/02/22-rdf-syntax-ns#"
   xmlns:svg="http://www.w3.org/2000/svg"
   xmlns="http://www.w3.org/2000/svg"
   xmlns:sodipodi="http://sodipodi.sourceforge.net/DTD/sodipodi-0.dtd"
   xmlns:inkscape="http://www.inkscape.org/namespaces/inkscape"
   width="350"
   height="500"
   id="svg3690"
   version="1.1"
   inkscape:version="0.92.3 (2405546, 2018-03-11)"
   sodipodi:docname="Geo_coordinates_en.svg"
   inkscape:export-filename="/home/ondro/Vyuka/Beamer_Sources/StressModelling/figures/Geo_coordinates_en.png"
   inkscape:export-xdpi="300"
   inkscape:export-ydpi="300">
  <defs
     id="defs3692">
    <marker
       inkscape:stockid="Arrow1Mend"
       orient="auto"
       refY="0.0"
       refX="0.0"
       id="marker5252"
       style="overflow:visible;"
       inkscape:isstock="true">
      <path
         id="path5250"
         d="M 0.0,0.0 L 5.0,-5.0 L -12.5,0.0 L 5.0,5.0 L 0.0,0.0 z "
         style="fill-rule:evenodd;stroke:#000000;stroke-width:1pt;stroke-opacity:1;fill:#000000;fill-opacity:1"
         transform="scale(0.4) rotate(180) translate(10,0)" />
    </marker>
    <marker
       inkscape:stockid="Arrow1Mend"
       orient="auto"
       refY="0.0"
       refX="0.0"
       id="marker5194"
       style="overflow:visible;"
       inkscape:isstock="true">
      <path
         id="path5192"
         d="M 0.0,0.0 L 5.0,-5.0 L -12.5,0.0 L 5.0,5.0 L 0.0,0.0 z "
         style="fill-rule:evenodd;stroke:#000000;stroke-width:1pt;stroke-opacity:1;fill:#000000;fill-opacity:1"
         transform="scale(0.4) rotate(180) translate(10,0)" />
    </marker>
    <marker
       inkscape:stockid="Arrow1Mend"
       orient="auto"
       refY="0.0"
       refX="0.0"
       id="marker5142"
       style="overflow:visible;"
       inkscape:isstock="true">
      <path
         id="path5140"
         d="M 0.0,0.0 L 5.0,-5.0 L -12.5,0.0 L 5.0,5.0 L 0.0,0.0 z "
         style="fill-rule:evenodd;stroke:#000000;stroke-width:1pt;stroke-opacity:1;fill:#000000;fill-opacity:1"
         transform="scale(0.4) rotate(180) translate(10,0)" />
    </marker>
    <marker
       inkscape:isstock="true"
       style="overflow:visible;"
       id="marker4102"
       refX="0.0"
       refY="0.0"
       orient="auto"
       inkscape:stockid="Arrow1Mend">
      <path
         transform="scale(0.4) rotate(180) translate(10,0)"
         style="fill-rule:evenodd;stroke:#000000;stroke-width:1pt;stroke-opacity:1;fill:#000000;fill-opacity:1"
         d="M 0.0,0.0 L 5.0,-5.0 L -12.5,0.0 L 5.0,5.0 L 0.0,0.0 z "
         id="path4100" />
    </marker>
    <marker
       inkscape:stockid="Arrow1Mend"
       orient="auto"
       refY="0.0"
       refX="0.0"
       id="marker4022"
       style="overflow:visible;"
       inkscape:isstock="true"
       inkscape:collect="always">
      <path
         id="path4020"
         d="M 0.0,0.0 L 5.0,-5.0 L -12.5,0.0 L 5.0,5.0 L 0.0,0.0 z "
         style="fill-rule:evenodd;stroke:#000000;stroke-width:1pt;stroke-opacity:1;fill:#000000;fill-opacity:1"
         transform="scale(0.4) rotate(180) translate(10,0)" />
    </marker>
    <marker
       inkscape:stockid="Arrow1Send"
       orient="auto"
       refY="0.0"
       refX="0.0"
       id="Arrow1Send"
       style="overflow:visible;"
       inkscape:isstock="true">
      <path
         id="path879"
         d="M 0.0,0.0 L 5.0,-5.0 L -12.5,0.0 L 5.0,5.0 L 0.0,0.0 z "
         style="fill-rule:evenodd;stroke:#000000;stroke-width:1pt;stroke-opacity:1;fill:#000000;fill-opacity:1"
         transform="scale(0.2) rotate(180) translate(6,0)" />
    </marker>
    <marker
       inkscape:stockid="Arrow1Mend"
       orient="auto"
       refY="0.0"
       refX="0.0"
       id="marker1148"
       style="overflow:visible;"
       inkscape:isstock="true">
      <path
         id="path1146"
         d="M 0.0,0.0 L 5.0,-5.0 L -12.5,0.0 L 5.0,5.0 L 0.0,0.0 z "
         style="fill-rule:evenodd;stroke:#000000;stroke-width:1pt;stroke-opacity:1;fill:#000000;fill-opacity:1"
         transform="scale(0.4) rotate(180) translate(10,0)" />
    </marker>
    <marker
       inkscape:stockid="Arrow1Mend"
       orient="auto"
       refY="0.0"
       refX="0.0"
       id="Arrow1Mend"
       style="overflow:visible;"
       inkscape:isstock="true">
      <path
         id="path873"
         d="M 0.0,0.0 L 5.0,-5.0 L -12.5,0.0 L 5.0,5.0 L 0.0,0.0 z "
         style="fill-rule:evenodd;stroke:#000000;stroke-width:1pt;stroke-opacity:1;fill:#000000;fill-opacity:1"
         transform="scale(0.4) rotate(180) translate(10,0)" />
    </marker>
    <inkscape:perspective
       sodipodi:type="inkscape:persp3d"
       inkscape:vp_x="0 : 526.18109 : 1"
       inkscape:vp_y="0 : 1000 : 0"
       inkscape:vp_z="744.09448 : 526.18109 : 1"
       inkscape:persp3d-origin="372.04724 : 350.78739 : 1"
       id="perspective3698" />
    <inkscape:perspective
       id="perspective3675"
       inkscape:persp3d-origin="0.5 : 0.33333333 : 1"
       inkscape:vp_z="1 : 0.5 : 1"
       inkscape:vp_y="0 : 1000 : 0"
       inkscape:vp_x="0 : 0.5 : 1"
       sodipodi:type="inkscape:persp3d" />
    <inkscape:perspective
       id="perspective3763"
       inkscape:persp3d-origin="0.5 : 0.33333333 : 1"
       inkscape:vp_z="1 : 0.5 : 1"
       inkscape:vp_y="0 : 1000 : 0"
       inkscape:vp_x="0 : 0.5 : 1"
       sodipodi:type="inkscape:persp3d" />
    <inkscape:perspective
       id="perspective3784"
       inkscape:persp3d-origin="0.5 : 0.33333333 : 1"
       inkscape:vp_z="1 : 0.5 : 1"
       inkscape:vp_y="0 : 1000 : 0"
       inkscape:vp_x="0 : 0.5 : 1"
       sodipodi:type="inkscape:persp3d" />
  </defs>
  <sodipodi:namedview
     id="base"
     pagecolor="#ffffff"
     bordercolor="#666666"
     borderopacity="1.0"
     inkscape:pageopacity="0.0"
     inkscape:pageshadow="2"
     inkscape:zoom="1.2788039"
     inkscape:cx="118.77058"
     inkscape:cy="248.13531"
     inkscape:document-units="px"
     inkscape:current-layer="layer1"
     showgrid="false"
     objecttolerance="10000"
     inkscape:snap-nodes="true"
     inkscape:snap-global="false"
     inkscape:window-width="1920"
     inkscape:window-height="1043"
     inkscape:window-x="1920"
     inkscape:window-y="0"
     inkscape:window-maximized="1" />
  <metadata
     id="metadata3695">
    <rdf:RDF>
      <cc:Work
         rdf:about="">
        <dc:format>image/svg+xml</dc:format>
        <dc:type
           rdf:resource="http://purl.org/dc/dcmitype/StillImage" />
        <dc:title />
      </cc:Work>
    </rdf:RDF>
  </metadata>
  <g
     inkscape:label="Layer 1"
     inkscape:groupmode="layer"
     id="layer1"
     transform="translate(0,-552.36218)">
    <path
       style="color:#000000;clip-rule:nonzero;display:inline;overflow:visible;visibility:visible;opacity:1;isolation:auto;mix-blend-mode:normal;color-interpolation:sRGB;color-interpolation-filters:linearRGB;solid-color:#000000;solid-opacity:1;vector-effect:none;fill:#f9f9f9;fill-opacity:1;fill-rule:evenodd;stroke:none;stroke-width:1;stroke-linecap:square;stroke-linejoin:miter;stroke-miterlimit:4;stroke-dasharray:none;stroke-dashoffset:0;stroke-opacity:1;marker:none;marker-start:none;marker-mid:none;marker-end:none;color-rendering:auto;image-rendering:auto;shape-rendering:auto;text-rendering:auto;enable-background:accumulate"
       d="m 33.567623,733.74186 174.492507,-7.83129 v 128.92728 l -174.492507,7.8313 z"
       id="rect4944"
       inkscape:connector-curvature="0"
       sodipodi:nodetypes="ccccc" />
    <line
       x1="-6.1747255"
       y1="750.77942"
       x2="258.36548"
       y2="639.74323"
       id="line4"
       style="fill:#000000;fill-opacity:1;stroke:#000000;stroke-width:2.44430423;stroke-opacity:1;marker-end:url(#marker5252)" />
    <line
       x1="-30.890402"
       y1="707.32355"
       x2="273.22025"
       y2="833.6629"
       id="line6"
       style="color:#000000;display:inline;overflow:visible;visibility:visible;fill:#000000;fill-opacity:1;fill-rule:nonzero;stroke:#000000;stroke-width:1.86531723;stroke-linecap:butt;stroke-linejoin:miter;stroke-miterlimit:4;stroke-dasharray:none;stroke-dashoffset:0;stroke-opacity:1;marker:none;enable-background:accumulate;marker-end:url(#marker5194)" />
    <line
       x1="32.994255"
       y1="677.61554"
       x2="32.994255"
       y2="897.56812"
       id="line8"
       style="fill:#000000;fill-opacity:1;stroke:#000000;stroke-width:2.3397398;stroke-opacity:1;marker-end:url(#marker5142)" />
    <polygon
       transform="matrix(-0.14745237,1.0376825,-1.0423483,-0.14667618,355.57844,508.98242)"
       points="345.381,93.832 339.715,138.315 332.344,119.882 313.17,125.031 "
       id="polygon26"
       style="fill:#000000;fill-opacity:1;stroke:#000000;stroke-width:0.95205522;stroke-opacity:1"
       inkscape:transform-center-x="23.222455"
       inkscape:transform-center-y="-19.36746" />
    <path
       style="fill:#000000;fill-opacity:1;stroke:#000000;stroke-width:6;stroke-opacity:1"
       inkscape:transform-center-x="-61.249744"
       inkscape:transform-center-y="48.232697"
       d="M 33.219361,733.75843 185.15672,838.62482"
       id="line34"
       inkscape:connector-curvature="0"
       sodipodi:nodetypes="cc" />
    <g
       id="g38"
       style="fill:#000000;fill-opacity:1;stroke:none;stroke-width:0.68983716;stroke-opacity:1"
       transform="matrix(1.4503597,0,0,1.4488755,223.92553,114.60111)">
      <path
         d="M 6.987,352.53 C 6.841,351.759 6.689,351.016 6.533,350.303 6.377,349.59 6.216,348.926 6.05,348.311 5.884,347.696 5.747,347.293 5.64,347.102 5.533,346.913 5.418,346.78 5.296,346.707 c -0.122,-0.074 -0.276,-0.11 -0.461,-0.11 -0.205,0 -0.391,0.047 -0.557,0.14 -0.166,0.093 -0.347,0.254 -0.542,0.482 -0.195,0.23 -0.454,0.589 -0.776,1.077 l -0.952,-0.63 c 0.615,-0.928 1.206,-1.621 1.772,-2.08 0.566,-0.459 1.235,-0.688 2.007,-0.688 0.303,0 0.569,0.034 0.798,0.103 0.229,0.069 0.432,0.174 0.608,0.314 0.176,0.143 0.332,0.325 0.469,0.55 0.137,0.225 0.269,0.53 0.396,0.915 0.127,0.387 0.247,0.865 0.359,1.436 0.112,0.572 0.212,1.165 0.3,1.78 h 0.146 c 0.938,-1.318 1.648,-2.282 2.131,-2.894 0.483,-0.609 0.891,-1.063 1.223,-1.361 0.332,-0.298 0.652,-0.508 0.959,-0.631 0.308,-0.121 0.715,-0.183 1.223,-0.183 0.459,0 0.835,0.059 1.128,0.176 l -0.586,2.651 h -1.025 c -0.059,-0.41 -0.229,-0.615 -0.513,-0.615 -0.088,0 -0.181,0.015 -0.278,0.044 -0.097,0.029 -0.217,0.093 -0.359,0.19 -0.142,0.097 -0.349,0.288 -0.623,0.571 -0.274,0.283 -0.581,0.63 -0.923,1.04 -0.342,0.41 -0.693,0.84 -1.055,1.289 L 9.17,351.52 c 0.176,0.938 0.342,1.748 0.498,2.432 0.156,0.684 0.295,1.253 0.417,1.706 0.122,0.455 0.229,0.813 0.322,1.077 0.093,0.264 0.193,0.462 0.3,0.593 0.107,0.133 0.217,0.226 0.33,0.279 0.113,0.053 0.242,0.08 0.388,0.08 0.264,0 0.52,-0.103 0.769,-0.308 0.249,-0.205 0.608,-0.669 1.077,-1.392 l 0.952,0.63 c -0.684,1.016 -1.301,1.731 -1.853,2.146 -0.552,0.415 -1.208,0.623 -1.97,0.623 -0.42,0 -0.776,-0.076 -1.069,-0.227 -0.293,-0.151 -0.547,-0.394 -0.762,-0.726 -0.215,-0.332 -0.405,-0.85 -0.571,-1.553 -0.303,-1.25 -0.488,-2.207 -0.557,-2.871 H 7.295 c -1.035,1.455 -1.804,2.5 -2.307,3.135 -0.503,0.635 -0.918,1.104 -1.245,1.406 -0.327,0.302 -0.645,0.516 -0.952,0.638 -0.308,0.121 -0.715,0.183 -1.223,0.183 -0.459,0 -0.835,-0.059 -1.128,-0.176 l 0.586,-2.651 h 1.025 c 0.059,0.41 0.229,0.615 0.513,0.615 0.137,0 0.281,-0.037 0.432,-0.109 0.151,-0.074 0.369,-0.25 0.652,-0.527 0.283,-0.279 0.674,-0.716 1.172,-1.312 0.498,-0.596 1.22,-1.489 2.167,-2.681 z"
         id="path40"
         style="fill:#000000;fill-opacity:1;stroke:none;stroke-width:0.68983716;stroke-opacity:1"
         inkscape:connector-curvature="0" />
    </g>
    <g
       id="g76"
       style="fill:#000000;fill-opacity:1;stroke:none;stroke-width:0.68983716;stroke-opacity:1"
       transform="matrix(1.4503597,0,0,1.4488755,-454.12905,290.81543)">
      <path
         d="m 502.208,357.681 c -0.283,-1.709 -0.669,-3.77 -1.157,-6.182 -0.518,-2.578 -0.859,-4.175 -1.025,-4.79 -0.205,-0.742 -0.42,-1.216 -0.645,-1.421 -0.137,-0.127 -0.308,-0.19 -0.513,-0.19 -0.313,0 -0.605,0.127 -0.879,0.381 -0.274,0.254 -0.61,0.693 -1.011,1.318 l -0.952,-0.63 c 0.674,-1.006 1.304,-1.716 1.89,-2.131 0.586,-0.415 1.24,-0.623 1.963,-0.623 0.4,0 0.742,0.054 1.025,0.161 0.195,0.078 0.391,0.208 0.586,0.388 0.195,0.182 0.369,0.433 0.521,0.755 0.152,0.322 0.283,0.684 0.396,1.084 0.113,0.4 0.236,0.977 0.373,1.729 0.234,1.26 0.462,2.585 0.682,3.978 0.22,1.391 0.407,2.683 0.563,3.874 0.947,-1.367 1.751,-2.705 2.41,-4.014 0.659,-1.309 1.133,-2.446 1.421,-3.413 0.288,-0.967 0.432,-1.753 0.432,-2.358 0,-0.459 -0.098,-0.771 -0.293,-0.938 -0.195,-0.167 -0.527,-0.264 -0.996,-0.293 l 0.146,-0.718 h 3.853 l 0.396,0.732 c -0.742,2.031 -1.748,4.204 -3.018,6.519 -1.25,2.266 -2.681,4.521 -4.292,6.768 -1.543,2.139 -2.827,3.687 -3.853,4.644 -0.713,0.654 -1.401,1.123 -2.065,1.406 -0.527,0.215 -1.089,0.322 -1.685,0.322 -0.205,0 -0.441,-0.018 -0.71,-0.051 -0.269,-0.035 -0.477,-0.081 -0.623,-0.14 l 0.63,-2.842 h 1.157 c 0,0.625 0.215,0.938 0.645,0.938 0.566,0 1.226,-0.354 1.978,-1.062 0.751,-0.709 1.634,-1.776 2.65,-3.201 z"
         id="path78"
         style="fill:#000000;fill-opacity:1;stroke:none;stroke-width:0.68983716;stroke-opacity:1"
         inkscape:connector-curvature="0" />
    </g>
    <g
       id="g80"
       style="fill:#000000;fill-opacity:1;stroke:none;stroke-width:0.68983716;stroke-opacity:1"
       transform="matrix(1.4503597,0,0,1.4488755,-275.71832,859.07814)">
      <path
         d="m 229.854,20.882 -0.894,4.116 h -10.605 l -0.278,-0.718 8.013,-9.229 c 1.133,-1.299 1.963,-2.222 2.49,-2.769 l -0.088,-0.103 h -3.428 c -0.508,0 -0.879,0.034 -1.113,0.103 -0.234,0.069 -0.469,0.188 -0.703,0.359 -0.234,0.171 -0.486,0.424 -0.754,0.762 -0.269,0.336 -0.569,0.817 -0.901,1.442 h -1.304 l 0.864,-3.853 h 10.415 l 0.278,0.732 -6.987,8.027 c -1.357,1.553 -2.534,2.871 -3.53,3.955 l 0.088,0.103 h 3.311 c 0.586,0 1.035,-0.031 1.348,-0.095 0.313,-0.064 0.586,-0.184 0.82,-0.359 0.234,-0.175 0.476,-0.441 0.725,-0.799 0.249,-0.355 0.559,-0.915 0.93,-1.677 h 1.303 z"
         id="path82"
         style="fill:#000000;fill-opacity:1;stroke:none;stroke-width:0.68983716;stroke-opacity:1"
         inkscape:connector-curvature="0" />
    </g>
    <path
       style="color:#000000;display:inline;overflow:visible;visibility:visible;fill:#000000;fill-opacity:1;fill-rule:nonzero;stroke:#000000;stroke-width:0.99999988;stroke-linecap:butt;stroke-linejoin:miter;stroke-miterlimit:4;stroke-dasharray:0.99999995, 0.99999995;stroke-dashoffset:0;stroke-opacity:1;marker:none;marker-end:url(#marker4022);enable-background:accumulate"
       d="M 32.520063,733.54004 205.90765,726.60678"
       id="line6-7"
       sodipodi:nodetypes="cc"
       inkscape:connector-curvature="0" />
    <path
       style="fill:none;stroke:#000000;stroke-width:1;stroke-linecap:butt;stroke-linejoin:miter;stroke-miterlimit:4;stroke-dasharray:none;stroke-opacity:1;marker-end:url(#Arrow1Mend)"
       d="m 115.87792,699.07816 c 13.23581,8.26346 15.37308,15.68625 14.83641,30.04301"
       id="path862"
       inkscape:connector-curvature="0"
       sodipodi:nodetypes="cc" />
    <path
       style="fill:none;stroke:#000000;stroke-width:0.99999994px;stroke-linecap:butt;stroke-linejoin:miter;stroke-opacity:1;marker-end:url(#marker1148)"
       d="m 106.93774,730.50353 c -0.48286,19.63292 -1.62184,27.30772 -15.92083,42.6635"
       id="path4309"
       inkscape:connector-curvature="0"
       sodipodi:nodetypes="cc" />
    <text
       xml:space="preserve"
       style="font-style:normal;font-weight:normal;font-size:20.2946434px;font-family:'Times New Roman';-inkscape-font-specification:'Times New Roman';fill:#000000;fill-opacity:1;stroke:none"
       x="131.22604"
       y="711.82007"
       id="text4311"
       transform="scale(1.0005121,0.99948817)"><tspan
         sodipodi:role="line"
         id="tspan4313"
         x="131.22604"
         y="711.82007">azimuth (θ)</tspan></text>
    <text
       xml:space="preserve"
       style="font-style:normal;font-weight:normal;font-size:20.2946434px;font-family:'Times New Roman';-inkscape-font-specification:'Times New Roman';fill:#000000;fill-opacity:1;stroke:none"
       x="109.83389"
       y="759.97363"
       id="text4315"
       transform="scale(1.0005121,0.99948817)"><tspan
         sodipodi:role="line"
         id="tspan4317"
         x="109.83389"
         y="759.97363">inclination (φ)</tspan></text>
    <text
       xml:space="preserve"
       style="font-style:normal;font-weight:normal;font-size:20.2946434px;font-family:'Times New Roman';-inkscape-font-specification:'Times New Roman';fill:#000000;fill-opacity:1;stroke:none"
       x="117.05853"
       y="839.48413"
       id="text4362"
       transform="scale(1.0005121,0.99948817)"><tspan
         sodipodi:role="line"
         id="tspan4364"
         x="117.05853"
         y="839.48413"
         style="font-weight:bold;font-size:40.5892868px">u</tspan></text>
    <text
       xml:space="preserve"
       style="font-style:normal;font-weight:normal;font-size:20.2946434px;font-family:'Times New Roman';-inkscape-font-specification:'Times New Roman';fill:#000000;fill-opacity:1;stroke:none"
       x="237.45036"
       y="778.62103"
       id="text4370"
       transform="scale(1.0005121,0.99948817)"><tspan
         sodipodi:role="line"
         id="tspan4372"
         x="237.45036"
         y="778.62103">EAST</tspan></text>
    <text
       xml:space="preserve"
       style="font-style:normal;font-weight:normal;font-size:20.2946434px;font-family:'Times New Roman';-inkscape-font-specification:'Times New Roman';fill:#000000;fill-opacity:1;stroke:none"
       x="145.24075"
       y="631.11548"
       id="text4374"
       transform="scale(1.0005121,0.99948817)"><tspan
         sodipodi:role="line"
         id="tspan4376"
         x="145.24075"
         y="631.11548">NORTH</tspan></text>
    <text
       xml:space="preserve"
       style="font-style:normal;font-weight:normal;font-size:20.2946434px;font-family:'Times New Roman';-inkscape-font-specification:'Times New Roman';fill:#000000;fill-opacity:1;stroke:none"
       x="68.761642"
       y="892.22235"
       id="text4378"
       transform="scale(1.0005121,0.99948817)"><tspan
         sodipodi:role="line"
         id="tspan4380"
         x="68.761642"
         y="892.22235">DOWN</tspan></text>
  </g>
</svg>
