<?xml version="1.0" encoding="UTF-8" standalone="no"?>
<!-- Created with Inkscape (http://www.inkscape.org/) -->

<svg
   width="387.44214"
   height="342.37827"
   id="svg2797"
   sodipodi:version="0.32"
   inkscape:version="1.3 (1:1.3+202307231459+0e150ed6c4)"
   sodipodi:docname="Cauchy_tetrahedron.svg"
   inkscape:output_extension="org.inkscape.output.svg.inkscape"
   version="1.0"
   inkscape:export-filename="Cauchy_tetrahedron.png"
   inkscape:export-xdpi="300"
   inkscape:export-ydpi="300"
   xmlns:inkscape="http://www.inkscape.org/namespaces/inkscape"
   xmlns:sodipodi="http://sodipodi.sourceforge.net/DTD/sodipodi-0.dtd"
   xmlns:xlink="http://www.w3.org/1999/xlink"
   xmlns="http://www.w3.org/2000/svg"
   xmlns:svg="http://www.w3.org/2000/svg"
   xmlns:rdf="http://www.w3.org/1999/02/22-rdf-syntax-ns#"
   xmlns:cc="http://creativecommons.org/ns#"
   xmlns:dc="http://purl.org/dc/elements/1.1/"
   xmlns:ns0="http://www.iki.fi/pav/software/textext/">
  <sodipodi:namedview
     id="base"
     pagecolor="#ffffff"
     bordercolor="#666666"
     borderopacity="1.0"
     gridtolerance="10000"
     guidetolerance="10"
     objecttolerance="10"
     inkscape:pageopacity="0.0"
     inkscape:pageshadow="2"
     inkscape:zoom="1.3982094"
     inkscape:cx="110.14087"
     inkscape:cy="136.60329"
     inkscape:document-units="px"
     inkscape:current-layer="layer1"
     showgrid="false"
     inkscape:window-width="1862"
     inkscape:window-height="1016"
     inkscape:window-x="58"
     inkscape:window-y="27"
     inkscape:window-maximized="1"
     inkscape:showpageshadow="2"
     inkscape:pagecheckerboard="0"
     inkscape:deskcolor="#d1d1d1" />
  <defs
     id="defs2799"><linearGradient
   id="linearGradient3230">
  <stop
     id="stop3232"
     offset="0"
     style="stop-color:#7fddff;stop-opacity:0.44736841;" />
  <stop
     id="stop3234"
     offset="1"
     style="stop-color:#17a1dc;stop-opacity:0.78039217;" />
</linearGradient>
<marker
   style="overflow:visible"
   id="Arrow2Mend"
   refX="0"
   refY="0"
   orient="auto"
   inkscape:stockid="Arrow2Mend">
  <path
     transform="scale(-0.6,-0.6)"
     d="M 8.7185878,4.0337352 L -2.2072895,0.016013256 L 8.7185884,-4.0017078 C 6.97309,-1.6296469 6.9831476,1.6157441 8.7185878,4.0337352 z"
     style="font-size:12px;fill-rule:evenodd;stroke-width:0.625;stroke-linejoin:round"
     id="path3621" />
</marker>
<marker
   style="overflow:visible"
   id="Arrow2Mstart"
   refX="0"
   refY="0"
   orient="auto"
   inkscape:stockid="Arrow2Mstart">
  <path
     transform="scale(0.6,0.6)"
     d="M 8.7185878,4.0337352 L -2.2072895,0.016013256 L 8.7185884,-4.0017078 C 6.97309,-1.6296469 6.9831476,1.6157441 8.7185878,4.0337352 z"
     style="font-size:12px;fill-rule:evenodd;stroke-width:0.625;stroke-linejoin:round"
     id="path3618" />
</marker>
<inkscape:perspective
   id="perspective2805"
   inkscape:persp3d-origin="372.04724 : 350.78739 : 1"
   inkscape:vp_z="744.09448 : 526.18109 : 1"
   inkscape:vp_y="0 : 1000 : 0"
   inkscape:vp_x="0 : 526.18109 : 1"
   sodipodi:type="inkscape:persp3d" />
<marker
   style="overflow:visible"
   id="Arrow2Mendd"
   refX="0"
   refY="0"
   orient="auto"
   inkscape:stockid="Arrow2Mendd">
  <path
     transform="scale(-0.6,-0.6)"
     d="M 8.7185878,4.0337352 L -2.2072895,0.016013256 L 8.7185884,-4.0017078 C 6.97309,-1.6296469 6.9831476,1.6157441 8.7185878,4.0337352 z"
     style="font-size:12px;fill:#2374c1;fill-rule:evenodd;stroke:#2374c1;stroke-width:0.625;stroke-linejoin:round"
     id="path5415" />
</marker>
<marker
   style="overflow:visible"
   id="Arrow2MendC"
   refX="0"
   refY="0"
   orient="auto"
   inkscape:stockid="Arrow2MendC">
  <path
     transform="scale(-0.6,-0.6)"
     d="M 8.7185878,4.0337352 L -2.2072895,0.016013256 L 8.7185884,-4.0017078 C 6.97309,-1.6296469 6.9831476,1.6157441 8.7185878,4.0337352 z"
     style="font-size:12px;fill:#f1172a;fill-rule:evenodd;stroke:#f1172a;stroke-width:0.625;stroke-linejoin:round"
     id="path9148" />
</marker>
<linearGradient
   y2="836.4494"
   x2="240.93103"
   y1="999.04333"
   x1="75.306618"
   gradientUnits="userSpaceOnUse"
   id="linearGradient2709"
   xlink:href="#linearGradient3230"
   inkscape:collect="always" />
&#10;&#10;&#10;&#10;&#10;&#10;&#10;&#10;&#10;&#10;&#10;&#10;&#10;&#10;&#10;</defs>
  <metadata
     id="metadata2802">
    <rdf:RDF>
      <cc:Work
         rdf:about="">
        <dc:format>image/svg+xml</dc:format>
        <dc:type
           rdf:resource="http://purl.org/dc/dcmitype/StillImage" />
        <dc:title />
      </cc:Work>
    </rdf:RDF>
  </metadata>
  <g
     transform="translate(-23.7328, -697.923)"
     id="layer1"
     inkscape:groupmode="layer"
     inkscape:label="Layer 1">
    <path
       inkscape:transform-center-y="3.8414541e-05"
       inkscape:transform-center-x="-22.876865"
       id="path3161"
       d="M 264.74412,885.73452 C 264.74412,885.73452 270.44894,868.74854 286.94022,875.08623 C 303.4315,881.42391 309.0056,859.41012 309.0056,859.41012"
       style="fill:none;fill-rule:evenodd;stroke:#000000;stroke-width:1px;stroke-linecap:butt;stroke-linejoin:miter;stroke-opacity:1" />
    <path
       id="path3163"
       d="M 86.826931,905.91413 C 86.826931,905.91413 98.425111,903.13056 100.74474,914.72874 C 103.06438,926.32692 117.44612,921.68765 117.44612,921.68765"
       style="fill:none;fill-rule:evenodd;stroke:#000000;stroke-width:1px;stroke-linecap:butt;stroke-linejoin:miter;stroke-opacity:1" />
    <path
       id="path3157"
       d="M 156.82396,992.51638 C 156.82396,992.51638 154.57267,976.87641 163.95301,973.74843 C 173.33335,970.62043 169.58122,951.22687 169.58122,951.22687"
       style="fill:none;fill-rule:evenodd;stroke:#000000;stroke-width:1px;stroke-linecap:butt;stroke-linejoin:miter;stroke-opacity:1" />
    <g
       id="g2782"
       ns0:preamble=""
       ns0:text="\\begin{displaymath}\nO\n\\end{displaymath}"
       style="font-style:normal;font-variant:normal;font-weight:normal;font-stretch:normal;letter-spacing:normal;word-spacing:normal;text-anchor:start;fill:none;fill-opacity:1;fill-rule:evenodd;stroke:#000000;stroke-linecap:butt;stroke-linejoin:miter;stroke-miterlimit:10.43299961;stroke-dasharray:none;stroke-dashoffset:0;stroke-opacity:1"
       xml:space="preserve"
       transform="matrix(2.7198481,0,0,-3.1806825,-927.89077,3009.8484)">&#10;<path
   id="path2784"
   style="fill:#000000;stroke-width:0"
   d="M 398.72,661.58 L 398.72,661.72 L 398.71,661.87 L 398.69,662.01 L 398.67,662.15 L 398.65,662.29 L 398.61,662.42 L 398.58,662.55 L 398.53,662.67 L 398.49,662.79 L 398.43,662.91 L 398.37,663.02 L 398.31,663.13 L 398.24,663.23 L 398.17,663.33 L 398.09,663.43 L 398.01,663.52 L 397.92,663.6 L 397.83,663.68 L 397.74,663.76 L 397.64,663.83 L 397.54,663.9 L 397.43,663.96 L 397.32,664.01 L 397.2,664.06 L 397.09,664.11 L 396.97,664.15 L 396.84,664.18 L 396.72,664.21 L 396.59,664.23 L 396.46,664.24 L 396.32,664.25 L 396.18,664.26 L 396.12,664.01 C 396.94,664.01 397.84,663.45 397.84,661.97 C 397.84,661.25 397.57,659.69 396.58,658.47 C 396.1,657.86 395.29,657.27 394.45,657.27 L 394.45,657.27 C 393.46,657.27 392.77,658.08 392.77,659.39 C 392.77,659.83 392.9,661.29 393.67,662.45 C 394.36,663.49 395.33,664.01 396.12,664.01 L 396.18,664.26 C 394.03,664.26 391.84,661.99 391.84,659.67 C 391.84,658.02 392.95,657.01 394.39,657.01 C 396.5,657.01 398.72,659.2 398.72,661.58 z" />&#10;</g>
    <path
       style="fill:none;fill-rule:evenodd;stroke:#000000;stroke-width:4;stroke-linecap:butt;stroke-linejoin:miter;marker-end:url(#Arrow2Mend);stroke-miterlimit:4;stroke-dasharray:none;stroke-opacity:1"
       d="M 160.87748,916.15445 L 405.87747,916.15445"
       id="path11318" />
    <path
       id="path3589"
       d="M 216.40353,870.01882 L 323.73763,800.24632"
       style="fill:#0169c9;fill-rule:evenodd;stroke:#2374c1;stroke-width:3;stroke-linecap:butt;stroke-linejoin:miter;marker-start:none;marker-end:url(#Arrow2Mendd);stroke-miterlimit:4;stroke-dasharray:none;stroke-opacity:1" />
    <path
       id="path3587"
       d="M 182.52837,937.53102 L 215.31627,1017.0483"
       style="fill:none;fill-rule:evenodd;stroke:#2374c1;stroke-width:3;stroke-linecap:butt;stroke-linejoin:miter;marker-end:url(#Arrow2Mendd);stroke-miterlimit:4;stroke-dasharray:none;stroke-opacity:1" />
    <path
       id="path3585"
       d="M 133.18151,891.66893 L 56.676736,838.76844"
       style="fill:#0169c9;fill-rule:evenodd;stroke:#2374c1;stroke-width:3;stroke-linecap:butt;stroke-linejoin:miter;marker-start:none;marker-end:url(#Arrow2Mendd);stroke-miterlimit:4;stroke-dasharray:none;stroke-opacity:1" />
    <path
       id="path2809"
       d="M 162.12761,915.51485 L 27.642167,1036.7257"
       style="fill:none;fill-rule:evenodd;stroke:#000000;stroke-width:4;stroke-linecap:butt;stroke-linejoin:miter;marker-end:url(#Arrow2Mend);stroke-miterlimit:4;stroke-dasharray:none;stroke-opacity:1" />
    <path
       id="path10783"
       d="M 161.06736,916.14534 L 161.06736,705.72814"
       style="fill:none;fill-rule:evenodd;stroke:#000000;stroke-width:4;stroke-linecap:butt;stroke-linejoin:miter;marker-end:url(#Arrow2Mend);stroke-miterlimit:4;stroke-dasharray:none;stroke-opacity:1" />
    <path
       style="fill:none;fill-rule:evenodd;stroke:#000000;stroke-width:3;stroke-linecap:butt;stroke-linejoin:miter;marker-end:none;stroke-miterlimit:4;stroke-dasharray:6,3;stroke-opacity:1;stroke-dashoffset:0"
       d="M 161.09152,916.74151 L 186.35845,886.50584"
       id="path4433" />
    <path
       id="path2811"
       d="M 71.245707,997.04336 L 329.84476,916.23116 L 162.15944,765.71843 L 71.245707,997.04336 z"
       style="opacity:1;fill:url(#linearGradient2709);fill-opacity:1;fill-rule:evenodd;stroke:#000000;stroke-width:4;stroke-linecap:butt;stroke-linejoin:miter;stroke-miterlimit:4;stroke-dasharray:none;stroke-opacity:1" />
    <path
       style="fill:none;fill-rule:evenodd;stroke:#f1172a;stroke-width:4;stroke-linecap:butt;stroke-linejoin:miter;marker-start:none;marker-end:url(#Arrow2MendC);stroke-miterlimit:4;stroke-dasharray:none;stroke-opacity:1"
       d="M 185.91715,886.94767 L 217.96023,772.78331"
       id="path5444" />
    <g
       id="g3374"
       ns0:preamble=""
       ns0:text="\\begin{displaymath}\nx_1\n\\end{displaymath}"
       style="font-style:normal;font-variant:normal;font-weight:normal;font-stretch:normal;letter-spacing:normal;word-spacing:normal;text-anchor:start;fill:none;fill-opacity:1;fill-rule:evenodd;stroke:#000000;stroke-linecap:butt;stroke-linejoin:miter;stroke-miterlimit:10.43299961;stroke-dasharray:none;stroke-dashoffset:0;stroke-opacity:1"
       xml:space="preserve"
       transform="matrix(2.7198481,0,0,-3.1806825,-1037.7203,3098.1375)">&#10;<path
   id="path3376"
   style="fill:#000000;stroke-width:0"
   d="M 393.53,660.24 L 393.54,660.27 L 393.54,660.3 L 393.55,660.33 L 393.56,660.37 L 393.57,660.4 L 393.58,660.45 L 393.6,660.49 L 393.61,660.53 L 393.63,660.58 L 393.64,660.63 L 393.66,660.68 L 393.68,660.73 L 393.71,660.78 L 393.73,660.83 L 393.76,660.88 L 393.78,660.93 L 393.81,660.97 L 393.84,661.02 L 393.88,661.07 L 393.91,661.11 L 393.95,661.16 L 393.99,661.2 L 394.03,661.23 L 394.08,661.27 L 394.12,661.3 L 394.17,661.33 L 394.2,661.34 L 394.22,661.36 L 394.25,661.37 L 394.28,661.38 L 394.3,661.39 L 394.33,661.39 L 394.36,661.4 L 394.39,661.41 L 394.42,661.41 L 394.45,661.41 L 394.48,661.42 L 394.52,661.42 C 394.57,661.42 394.8,661.42 395.01,661.29 C 394.74,661.24 394.54,660.99 394.54,660.75 C 394.54,660.59 394.65,660.4 394.92,660.4 C 395.13,660.4 395.45,660.58 395.45,660.98 C 395.45,661.5 394.86,661.64 394.53,661.64 C 393.95,661.64 393.6,661.11 393.48,660.88 C 393.23,661.54 392.69,661.64 392.4,661.64 C 391.37,661.64 390.8,660.35 390.8,660.1 C 390.8,660 390.9,660 390.92,660 C 391,660 391.03,660.02 391.05,660.11 C 391.39,661.17 392.05,661.42 392.38,661.42 C 392.57,661.42 392.92,661.33 392.92,660.75 C 392.92,660.44 392.75,659.77 392.38,658.38 C 392.23,657.76 391.88,657.34 391.44,657.34 C 391.38,657.34 391.15,657.34 390.94,657.47 C 391.19,657.52 391.41,657.73 391.41,658.01 C 391.41,658.28 391.19,658.36 391.04,658.36 C 390.74,658.36 390.49,658.1 390.49,657.78 C 390.49,657.32 390.99,657.12 391.43,657.12 C 392.08,657.12 392.44,657.82 392.47,657.88 C 392.59,657.51 392.95,657.12 393.55,657.12 C 394.58,657.12 395.14,658.41 395.14,658.66 C 395.14,658.76 395.05,658.76 395.02,658.76 C 394.93,658.76 394.92,658.72 394.89,658.65 C 394.57,657.58 393.89,657.34 393.57,657.34 C 393.18,657.34 393.02,657.66 393.02,658 C 393.02,658.22 393.08,658.44 393.19,658.88 L 393.53,660.24 z" />&#10;<path
   id="path3378"
   style="fill:#000000;stroke-width:0"
   d="M 398.24,660.17 L 398.24,660.18 L 398.24,660.19 L 398.24,660.2 L 398.24,660.21 L 398.24,660.22 L 398.24,660.22 L 398.24,660.23 L 398.24,660.24 L 398.24,660.24 L 398.24,660.25 L 398.24,660.26 L 398.24,660.26 L 398.24,660.27 L 398.24,660.27 L 398.23,660.28 L 398.23,660.29 L 398.23,660.29 L 398.23,660.3 L 398.23,660.3 L 398.23,660.31 L 398.22,660.32 L 398.22,660.33 L 398.22,660.33 L 398.21,660.34 L 398.21,660.34 L 398.2,660.35 L 398.2,660.35 L 398.19,660.36 L 398.18,660.36 L 398.17,660.36 L 398.16,660.36 L 398.16,660.37 L 398.15,660.37 L 398.14,660.37 L 398.14,660.37 L 398.13,660.37 L 398.13,660.37 L 398.12,660.37 L 398.12,660.37 L 398.11,660.37 L 398.1,660.37 L 398.09,660.37 L 398.09,660.37 L 398.08,660.37 L 398.07,660.37 L 398.06,660.37 L 398.06,660.37 L 398.05,660.37 L 398.04,660.37 L 398.03,660.37 C 397.58,659.93 396.95,659.92 396.66,659.92 L 396.66,659.67 C 396.83,659.67 397.29,659.67 397.67,659.87 L 397.67,656.31 C 397.67,656.08 397.67,655.99 396.98,655.99 L 396.71,655.99 L 396.71,655.74 C 396.84,655.75 397.7,655.77 397.95,655.77 C 398.17,655.77 399.05,655.75 399.2,655.74 L 399.2,655.99 L 398.94,655.99 C 398.24,655.99 398.24,656.08 398.24,656.31 L 398.24,660.17 z" />&#10;</g>
    <g
       id="g3611"
       ns0:preamble=""
       ns0:text="\\begin{displaymath}\nx_3\n\\end{displaymath}"
       style="font-style:normal;font-variant:normal;font-weight:normal;font-stretch:normal;letter-spacing:normal;word-spacing:normal;text-anchor:start;fill:none;fill-opacity:1;fill-rule:evenodd;stroke:#000000;stroke-linecap:butt;stroke-linejoin:miter;stroke-miterlimit:10.43299961;stroke-dasharray:none;stroke-dashoffset:0;stroke-opacity:1"
       xml:space="preserve"
       transform="matrix(2.7198481,0,0,-3.1806825,-935.35721,2802.3894)">&#10;<path
   id="path3613"
   style="fill:#000000;stroke-width:0"
   d="M 393.53,660.24 L 393.54,660.27 L 393.54,660.3 L 393.55,660.33 L 393.56,660.37 L 393.57,660.4 L 393.58,660.45 L 393.6,660.49 L 393.61,660.53 L 393.63,660.58 L 393.64,660.63 L 393.66,660.68 L 393.68,660.73 L 393.71,660.78 L 393.73,660.83 L 393.76,660.88 L 393.78,660.93 L 393.81,660.97 L 393.84,661.02 L 393.88,661.07 L 393.91,661.11 L 393.95,661.16 L 393.99,661.2 L 394.03,661.23 L 394.08,661.27 L 394.12,661.3 L 394.17,661.33 L 394.2,661.34 L 394.22,661.36 L 394.25,661.37 L 394.28,661.38 L 394.3,661.39 L 394.33,661.39 L 394.36,661.4 L 394.39,661.41 L 394.42,661.41 L 394.45,661.41 L 394.48,661.42 L 394.52,661.42 C 394.57,661.42 394.8,661.42 395.01,661.29 C 394.74,661.24 394.54,660.99 394.54,660.75 C 394.54,660.59 394.65,660.4 394.92,660.4 C 395.13,660.4 395.45,660.58 395.45,660.98 C 395.45,661.5 394.86,661.64 394.53,661.64 C 393.95,661.64 393.6,661.11 393.48,660.88 C 393.23,661.54 392.69,661.64 392.4,661.64 C 391.37,661.64 390.8,660.35 390.8,660.1 C 390.8,660 390.9,660 390.92,660 C 391,660 391.03,660.02 391.05,660.11 C 391.39,661.17 392.05,661.42 392.38,661.42 C 392.57,661.42 392.92,661.33 392.92,660.75 C 392.92,660.44 392.75,659.77 392.38,658.38 C 392.23,657.76 391.88,657.34 391.44,657.34 C 391.38,657.34 391.15,657.34 390.94,657.47 C 391.19,657.52 391.41,657.73 391.41,658.01 C 391.41,658.28 391.19,658.36 391.04,658.36 C 390.74,658.36 390.49,658.1 390.49,657.78 C 390.49,657.32 390.99,657.12 391.43,657.12 C 392.08,657.12 392.44,657.82 392.47,657.88 C 392.59,657.51 392.95,657.12 393.55,657.12 C 394.58,657.12 395.14,658.41 395.14,658.66 C 395.14,658.76 395.05,658.76 395.02,658.76 C 394.93,658.76 394.92,658.72 394.89,658.65 C 394.57,657.58 393.89,657.34 393.57,657.34 C 393.18,657.34 393.02,657.66 393.02,658 C 393.02,658.22 393.08,658.44 393.19,658.88 L 393.53,660.24 z" />&#10;<path
   id="path3615"
   style="fill:#000000;stroke-width:0"
   d="M 397.81,658.07 L 397.86,658.07 L 397.91,658.06 L 397.95,658.06 L 398,658.05 L 398.05,658.04 L 398.09,658.03 L 398.14,658.02 L 398.18,658 L 398.22,657.98 L 398.26,657.96 L 398.3,657.94 L 398.34,657.91 L 398.38,657.88 L 398.41,657.85 L 398.45,657.82 L 398.48,657.79 L 398.51,657.75 L 398.54,657.71 L 398.56,657.67 L 398.59,657.63 L 398.61,657.58 L 398.63,657.54 L 398.65,657.49 L 398.67,657.44 L 398.69,657.38 L 398.7,657.33 L 398.71,657.27 L 398.72,657.21 L 398.73,657.15 L 398.74,657.08 L 398.74,657.01 L 398.74,656.95 C 398.74,656.08 398.24,655.82 397.83,655.82 C 397.55,655.82 396.94,655.9 396.65,656.31 C 396.98,656.33 397.05,656.56 397.05,656.7 C 397.05,656.93 396.89,657.09 396.67,657.09 C 396.47,657.09 396.28,656.97 396.28,656.68 C 396.28,656.03 397,655.6 397.85,655.6 C 398.82,655.6 399.49,656.25 399.49,656.95 C 399.49,657.49 399.04,658.03 398.27,658.2 C 399.01,658.46 399.27,658.98 399.27,659.41 C 399.27,659.96 398.64,660.37 397.86,660.37 C 397.09,660.37 396.49,659.99 396.49,659.44 C 396.49,659.2 396.65,659.07 396.86,659.07 C 397.07,659.07 397.21,659.23 397.21,659.42 C 397.21,659.62 397.07,659.77 396.86,659.78 C 397.1,660.09 397.58,660.17 397.84,660.17 C 398.15,660.17 398.59,660.02 398.59,659.41 C 398.59,659.11 398.5,658.79 398.32,658.58 C 398.08,658.31 397.89,658.3 397.54,658.28 C 397.37,658.27 397.35,658.27 397.32,658.26 C 397.3,658.26 397.25,658.24 397.25,658.17 C 397.25,658.07 397.31,658.07 397.43,658.07 L 397.81,658.07 z" />&#10;</g>
    <g
       transform="matrix(2.7198481,0,0,-3.1806825,-679.38352,2993.3511)"
       xml:space="preserve"
       style="font-style:normal;font-variant:normal;font-weight:normal;font-stretch:normal;letter-spacing:normal;word-spacing:normal;text-anchor:start;fill:none;fill-opacity:1;fill-rule:evenodd;stroke:#000000;stroke-linecap:butt;stroke-linejoin:miter;stroke-miterlimit:10.43299961;stroke-dasharray:none;stroke-dashoffset:0;stroke-opacity:1"
       ns0:text="\\begin{displaymath}\nx_2\n\\end{displaymath}"
       ns0:preamble=""
       id="g3946">&#10;<path
   d="M 393.53,660.24 L 393.54,660.27 L 393.54,660.3 L 393.55,660.33 L 393.56,660.37 L 393.57,660.4 L 393.58,660.45 L 393.6,660.49 L 393.61,660.53 L 393.63,660.58 L 393.64,660.63 L 393.66,660.68 L 393.68,660.73 L 393.71,660.78 L 393.73,660.83 L 393.76,660.88 L 393.78,660.93 L 393.81,660.97 L 393.84,661.02 L 393.88,661.07 L 393.91,661.11 L 393.95,661.16 L 393.99,661.2 L 394.03,661.23 L 394.08,661.27 L 394.12,661.3 L 394.17,661.33 L 394.2,661.34 L 394.22,661.36 L 394.25,661.37 L 394.28,661.38 L 394.3,661.39 L 394.33,661.39 L 394.36,661.4 L 394.39,661.41 L 394.42,661.41 L 394.45,661.41 L 394.48,661.42 L 394.52,661.42 C 394.57,661.42 394.8,661.42 395.01,661.29 C 394.74,661.24 394.54,660.99 394.54,660.75 C 394.54,660.59 394.65,660.4 394.92,660.4 C 395.13,660.4 395.45,660.58 395.45,660.98 C 395.45,661.5 394.86,661.64 394.53,661.64 C 393.95,661.64 393.6,661.11 393.48,660.88 C 393.23,661.54 392.69,661.64 392.4,661.64 C 391.37,661.64 390.8,660.35 390.8,660.1 C 390.8,660 390.9,660 390.92,660 C 391,660 391.03,660.02 391.05,660.11 C 391.39,661.17 392.05,661.42 392.38,661.42 C 392.57,661.42 392.92,661.33 392.92,660.75 C 392.92,660.44 392.75,659.77 392.38,658.38 C 392.23,657.76 391.88,657.34 391.44,657.34 C 391.38,657.34 391.15,657.34 390.94,657.47 C 391.19,657.52 391.41,657.73 391.41,658.01 C 391.41,658.28 391.19,658.36 391.04,658.36 C 390.74,658.36 390.49,658.1 390.49,657.78 C 390.49,657.32 390.99,657.12 391.43,657.12 C 392.08,657.12 392.44,657.82 392.47,657.88 C 392.59,657.51 392.95,657.12 393.55,657.12 C 394.58,657.12 395.14,658.41 395.14,658.66 C 395.14,658.76 395.05,658.76 395.02,658.76 C 394.93,658.76 394.92,658.72 394.89,658.65 C 394.57,657.58 393.89,657.34 393.57,657.34 C 393.18,657.34 393.02,657.66 393.02,658 C 393.02,658.22 393.08,658.44 393.19,658.88 L 393.53,660.24 z"
   style="fill:#000000;stroke-width:0"
   id="path3948" />&#10;<path
   d="M 399.42,657.01 L 399.19,657.01 C 399.17,656.86 399.1,656.44 399.01,656.38 C 398.95,656.33 398.41,656.33 398.32,656.33 L 397.03,656.33 C 397.76,656.98 398.01,657.18 398.43,657.5 C 398.94,657.92 399.42,658.35 399.42,659.01 C 399.42,659.85 398.68,660.37 397.79,660.37 C 396.93,660.37 396.34,659.76 396.34,659.12 C 396.34,658.77 396.64,658.73 396.71,658.73 C 396.88,658.73 397.08,658.85 397.08,659.1 C 397.08,659.23 397.03,659.47 396.67,659.47 C 396.89,659.97 397.36,660.12 397.69,660.12 C 398.39,660.12 398.75,659.58 398.75,659.01 C 398.75,658.4 398.32,657.92 398.09,657.67 L 396.41,656.01 C 396.34,655.95 396.34,655.93 396.34,655.74 L 399.21,655.74 L 399.42,657.01 z"
   style="fill:#000000;stroke-width:0"
   id="path3950" />&#10;</g>
    <path
       id="path2533"
       style="font-style:normal;font-variant:normal;font-weight:normal;font-stretch:normal;letter-spacing:normal;word-spacing:normal;text-anchor:start;fill:#000000;fill-opacity:1;fill-rule:evenodd;stroke:#000000;stroke-width:0;stroke-linecap:butt;stroke-linejoin:miter;stroke-miterlimit:10.433;stroke-dasharray:none;stroke-dashoffset:0;stroke-opacity:1"
       d="m 224.75727,898.41144 -0.0958,0.16805 -0.0718,0.16805 -0.0958,0.16804 -0.0958,0.14004 -0.0958,0.14004 -0.0719,0.11203 -0.0958,0.14004 -0.0958,0.11203 -0.0719,0.11203 -0.0958,0.11203 -0.0958,0.084 -0.0958,0.084 -0.0719,0.084 -0.0958,0.084 -0.0958,0.084 -0.0958,0.056 -0.0719,0.056 -0.0958,0.056 -0.0958,0.056 -0.0958,0.056 -0.0958,0.028 -0.0958,0.056 -0.0958,0.028 -0.0719,0.028 -0.0958,0.028 -0.0958,0.028 -0.0958,0.028 h -0.0958 l -0.19159,0.028 -0.21555,0.028 c -0.26345,0.028 -0.479,0.028 -0.479,0.56016 0,0.16804 0.11975,0.30808 0.31135,0.30808 0.62269,0 1.36513,-0.084 2.03573,-0.084 0.79034,0 1.62858,0.084 2.39497,0.084 0.1437,0 0.45504,0 0.45504,-0.53215 0,-0.30808 -0.21554,-0.33609 -0.38319,-0.33609 -0.55085,-0.056 -1.12564,-0.28007 -1.12564,-0.98026 0,-0.33609 0.1437,-0.64418 0.3353,-1.03628 0.16764,-0.3361 0.19159,-0.3361 1.82018,-3.55697 h 5.98743 l -0.0719,-0.86824 h -5.46054 l 4.69415,-9.2145 0.76639,9.2145 0.0719,0.86824 c 0.0479,0.56015 0.38319,4.36919 0.38319,4.64926 0,0.84023 -1.24538,0.92425 -1.72438,0.92425 -0.33529,0 -0.57479,0 -0.57479,0.56016 0,0.30808 0.28739,0.30808 0.33529,0.30808 0.98194,0 2.01178,-0.084 2.96977,-0.084 0.59874,0 2.10757,0.084 2.70632,0.084 0.1437,0 0.43109,0 0.43109,-0.56015 0,-0.30809 -0.23949,-0.30809 -0.55084,-0.30809 -1.48488,0 -1.48488,-0.19605 -1.55673,-1.00827 l -1.43699,-17.44874 c -0.0479,-0.56016 -0.0479,-0.67219 -0.45504,-0.67219 -0.3832,0 -0.47899,0.19606 -0.62269,0.47613 z" />
    <g
       id="g24"
       transform="translate(-12)">
      <path
         d="m 315.32109,852.27864 -0.0958,0.16805 -0.0958,0.16805 -0.0958,0.16804 -0.0718,0.14004 -0.0958,0.14004 -0.0958,0.11203 -0.0718,0.14004 -0.0958,0.11203 -0.0958,0.11203 -0.0958,0.11203 -0.0718,0.084 -0.0958,0.084 -0.0958,0.084 -0.0958,0.084 -0.0719,0.084 -0.0958,0.056 -0.0958,0.056 -0.0958,0.056 -0.0958,0.056 -0.0718,0.056 -0.0958,0.028 -0.0958,0.056 -0.0958,0.028 -0.0958,0.028 -0.0958,0.028 -0.0958,0.028 -0.0958,0.028 h -0.0958 l -0.1916,0.028 -0.1916,0.028 c -0.2874,0.028 -0.50294,0.028 -0.50294,0.56016 0,0.16804 0.11974,0.30808 0.31134,0.30808 0.64664,0 1.38909,-0.084 2.05968,-0.084 0.79034,0 1.60463,0.084 2.37102,0.084 0.1437,0 0.45505,0 0.45505,-0.53215 0,-0.30808 -0.21555,-0.33609 -0.3832,-0.33609 -0.55084,-0.056 -1.12564,-0.28007 -1.12564,-0.98026 0,-0.33609 0.1437,-0.64418 0.35925,-1.03628 0.16765,-0.3361 0.16765,-0.3361 1.79623,-3.55697 h 5.98743 l -0.0718,-0.86824 h -5.46054 l 4.69415,-9.2145 0.76639,9.2145 0.0718,0.86824 c 0.0479,0.56015 0.38319,4.36919 0.38319,4.64926 0,0.84023 -1.24538,0.92425 -1.72438,0.92425 -0.31134,0 -0.55084,0 -0.55084,0.56016 0,0.30808 0.26345,0.30808 0.3353,0.30808 0.95799,0 1.98782,-0.084 2.96976,-0.084 0.59874,0 2.10758,0.084 2.70632,0.084 0.1437,0 0.4311,0 0.4311,-0.56015 0,-0.30809 -0.2395,-0.30809 -0.55085,-0.30809 -1.48488,0 -1.48488,-0.19605 -1.55673,-1.00827 l -1.46093,-17.44874 c -0.0479,-0.56016 -0.0479,-0.67219 -0.45505,-0.67219 -0.38319,0 -0.47899,0.19606 -0.62269,0.47613 z"
         style="font-style:normal;font-variant:normal;font-weight:normal;font-stretch:normal;letter-spacing:normal;word-spacing:normal;text-anchor:start;fill:#000000;fill-opacity:1;fill-rule:evenodd;stroke:#000000;stroke-width:0;stroke-linecap:butt;stroke-linejoin:miter;stroke-miterlimit:10.433;stroke-dasharray:none;stroke-dashoffset:0;stroke-opacity:1"
         id="path2713" />
      <path
         d="m 334.52876,847.26528 v -0.028 -0.028 -0.028 -0.028 -0.028 0 -0.028 -0.028 0 -0.028 -0.028 0 -0.028 0 l -0.0239,-0.028 v -0.028 0 -0.028 0 -0.028 l -0.024,-0.028 v -0.028 0 l -0.024,-0.028 v 0 l -0.024,-0.028 v 0 l -0.0239,-0.028 h -0.024 -0.024 -0.024 v -0.028 h -0.0239 -0.024 v 0 h -0.0239 v 0 h -0.0239 v 0 h -0.024 -0.024 -0.024 v 0 h -0.0239 -0.024 -0.024 v 0 h -0.024 -0.0239 -0.024 c -1.07774,1.23233 -2.58657,1.26034 -3.28111,1.26034 v 0.70019 c 0.40714,0 1.50883,0 2.41892,-0.56015 v 9.97071 c 0,0.64418 0,0.89624 -1.65253,0.89624 h -0.64665 v 0.70019 c 0.31135,-0.028 2.34708,-0.084 2.96977,-0.084 0.52689,0 2.63447,0.056 2.99372,0.084 v -0.70019 h -0.6227 c -1.67648,0 -1.67648,-0.25206 -1.67648,-0.89624 z"
         style="font-style:normal;font-variant:normal;font-weight:normal;font-stretch:normal;letter-spacing:normal;word-spacing:normal;text-anchor:start;fill:#000000;fill-opacity:1;fill-rule:evenodd;stroke:#000000;stroke-width:0;stroke-linecap:butt;stroke-linejoin:miter;stroke-miterlimit:10.433;stroke-dasharray:none;stroke-dashoffset:0;stroke-opacity:1"
         id="path2715" />
    </g>
    <path
       id="path2888"
       style="font-style:normal;font-variant:normal;font-weight:normal;font-stretch:normal;letter-spacing:normal;word-spacing:normal;text-anchor:start;fill:#000000;fill-opacity:1;fill-rule:evenodd;stroke:#000000;stroke-width:0;stroke-linecap:butt;stroke-linejoin:miter;stroke-miterlimit:10.433;stroke-dasharray:none;stroke-dashoffset:0;stroke-opacity:1"
       d="m 61.875276,907.79794 -0.0958,0.16805 -0.0958,0.16805 -0.0958,0.16804 -0.07185,0.14004 -0.0958,0.14004 -0.0958,0.11203 -0.07185,0.14004 -0.0958,0.11203 -0.0958,0.11203 -0.0958,0.11203 -0.07185,0.084 -0.0958,0.084 -0.0958,0.084 -0.0958,0.084 -0.07185,0.084 -0.0958,0.056 -0.0958,0.056 -0.0958,0.056 -0.0958,0.056 -0.07185,0.056 -0.0958,0.028 -0.0958,0.056 -0.0958,0.028 -0.0958,0.028 -0.0958,0.028 -0.0958,0.028 -0.0958,0.028 h -0.0958 l -0.191598,0.028 -0.191598,0.028 c -0.287397,0.028 -0.502944,0.028 -0.502944,0.56016 0,0.16804 0.119749,0.30808 0.311346,0.30808 0.646643,0 1.389084,-0.084 2.059676,-0.084 0.790341,0 1.604632,0.084 2.371023,0.084 0.143698,0 0.455044,0 0.455044,-0.53215 0,-0.30808 -0.215547,-0.33609 -0.383195,-0.33609 -0.550844,-0.056 -1.125637,-0.28007 -1.125637,-0.98026 0,-0.33609 0.143698,-0.64418 0.359246,-1.03628 0.167648,-0.3361 0.167648,-0.3361 1.796229,-3.55697 h 5.98743 l -0.07185,-0.86824 h -5.460536 l 4.694145,-9.2145 0.766391,9.2145 0.07185,0.86824 c 0.0479,0.56015 0.383196,4.36919 0.383196,4.64926 0,0.84023 -1.245386,0.92425 -1.72438,0.92425 -0.311347,0 -0.550844,0 -0.550844,0.56016 0,0.30808 0.263447,0.30808 0.335296,0.30808 0.957989,0 1.987827,-0.084 2.969766,-0.084 0.598743,0 2.107575,0.084 2.706318,0.084 0.143698,0 0.431095,0 0.431095,-0.56015 0,-0.30809 -0.239497,-0.30809 -0.550843,-0.30809 -1.484883,0 -1.484883,-0.19605 -1.556732,-1.00827 l -1.460933,-17.44874 c -0.0479,-0.56016 -0.0479,-0.67219 -0.455045,-0.67219 -0.383196,0 -0.478994,0.19606 -0.622693,0.47613 z" />
    <path
       id="path2890"
       style="font-style:normal;font-variant:normal;font-weight:normal;font-stretch:normal;letter-spacing:normal;word-spacing:normal;text-anchor:start;fill:#000000;fill-opacity:1;fill-rule:evenodd;stroke:#000000;stroke-width:0;stroke-linecap:butt;stroke-linejoin:miter;stroke-miterlimit:10.433;stroke-dasharray:none;stroke-dashoffset:0;stroke-opacity:1"
       d="m 83.909019,911.63499 h -0.550843 c -0.0479,0.42011 -0.215548,1.59643 -0.431095,1.76448 -0.143699,0.14003 -1.436984,0.14003 -1.652531,0.14003 h -3.089514 c 1.748329,-1.82049 2.347072,-2.38064 3.352961,-3.27689 1.221435,-1.17632 2.371022,-2.38064 2.371022,-4.22915 0,-2.35264 -1.74833,-3.80903 -3.903804,-3.80903 -2.059676,0 -3.47271,1.70846 -3.47271,3.50095 0,0.98027 0.718492,1.0923 0.88614,1.0923 0.407145,0 0.886139,-0.33609 0.886139,-1.03628 0,-0.3641 -0.119748,-1.03629 -0.981938,-1.03629 0.526894,-1.40038 1.652531,-1.82049 2.442871,-1.82049 1.652531,0 2.538671,1.51241 2.538671,3.10884 0,1.70847 -1.029838,3.05283 -1.580682,3.75302 l -4.023553,4.64927 c -0.167648,0.16804 -0.167648,0.22406 -0.167648,0.7562 h 6.89752 z" />
    <path
       d="m 148.88641,1012.6087 -0.0958,0.1681 -0.0958,0.168 -0.0958,0.1681 -0.0718,0.14 -0.0958,0.1401 -0.0958,0.112 -0.0718,0.14 -0.0958,0.1121 -0.0958,0.112 -0.0958,0.112 -0.0718,0.084 -0.0958,0.084 -0.0958,0.084 -0.0958,0.084 -0.0719,0.084 -0.0958,0.056 -0.0958,0.056 -0.0958,0.056 -0.0958,0.056 -0.0718,0.056 -0.0958,0.028 -0.0958,0.056 -0.0958,0.028 -0.0958,0.028 -0.0958,0.028 -0.0958,0.028 -0.0958,0.028 h -0.0958 l -0.1916,0.028 -0.1916,0.028 c -0.2874,0.028 -0.50294,0.028 -0.50294,0.5601 0,0.1681 0.11974,0.3081 0.31134,0.3081 0.64664,0 1.38909,-0.084 2.05968,-0.084 0.79034,0 1.60463,0.084 2.37102,0.084 0.1437,0 0.45505,0 0.45505,-0.5321 0,-0.3081 -0.21555,-0.3361 -0.3832,-0.3361 -0.55084,-0.056 -1.12564,-0.2801 -1.12564,-0.9803 0,-0.3361 0.1437,-0.6442 0.35925,-1.0363 0.16765,-0.3361 0.16765,-0.3361 1.79623,-3.5569 h 5.98743 l -0.0719,-0.8683 h -5.46054 l 4.69415,-9.21447 0.76639,9.21447 0.0719,0.8683 c 0.0479,0.5601 0.38319,4.3692 0.38319,4.6492 0,0.8403 -1.24538,0.9243 -1.72438,0.9243 -0.31134,0 -0.55084,0 -0.55084,0.5601 0,0.3081 0.26345,0.3081 0.3353,0.3081 0.95799,0 1.98782,-0.084 2.96976,-0.084 0.59874,0 2.10758,0.084 2.70632,0.084 0.1437,0 0.4311,0 0.4311,-0.5601 0,-0.3081 -0.2395,-0.3081 -0.55085,-0.3081 -1.48488,0 -1.48488,-0.1961 -1.55673,-1.0083 l -1.46093,-17.44873 c -0.0479,-0.56016 -0.0479,-0.67219 -0.45505,-0.67219 -0.38319,0 -0.47899,0.19606 -0.62269,0.47613 z"
       style="font-style:normal;font-variant:normal;font-weight:normal;font-stretch:normal;letter-spacing:normal;word-spacing:normal;text-anchor:start;fill:#000000;fill-opacity:1;fill-rule:evenodd;stroke:#000000;stroke-width:0;stroke-linecap:butt;stroke-linejoin:miter;stroke-miterlimit:10.433;stroke-dasharray:none;stroke-dashoffset:0;stroke-opacity:1"
       id="path3065" />
    <path
       d="m 167.06424,1013.477 h 0.11975 l 0.11975,0.028 h 0.0958 l 0.11975,0.028 0.11975,0.028 0.0958,0.028 0.11974,0.028 0.0958,0.056 0.0958,0.056 0.0958,0.056 0.0958,0.056 0.0958,0.084 0.0958,0.084 0.0718,0.084 0.0958,0.084 0.0719,0.084 0.0718,0.112 0.0718,0.1121 0.0479,0.112 0.0719,0.112 0.0479,0.1401 0.0479,0.112 0.0479,0.14 0.0479,0.1401 0.0479,0.168 0.024,0.14 0.0239,0.1681 0.024,0.168 0.0239,0.1681 0.024,0.196 v 0.1961 0.168 c 0,2.4367 -1.19749,3.1649 -2.17943,3.1649 -0.64664,0 -2.13152,-0.2241 -2.82606,-1.3724 0.79034,-0.056 0.95799,-0.7002 0.95799,-1.0923 0,-0.6442 -0.3832,-1.0923 -0.91009,-1.0923 -0.479,0 -0.93404,0.3361 -0.93404,1.1483 0,1.8205 1.72438,3.0249 3.7601,3.0249 2.32313,0 3.92776,-1.8205 3.92776,-3.7811 0,-1.5124 -1.07774,-3.0248 -2.92187,-3.5009 1.77228,-0.7282 2.39497,-2.1846 2.39497,-3.3889 0,-1.5405 -1.50883,-2.6888 -3.37691,-2.6888 -1.84413,0 -3.25716,1.0643 -3.25716,2.6047 0,0.6722 0.35925,1.0363 0.86219,1.0363 0.50294,0 0.83824,-0.4481 0.83824,-0.9802 0,-0.5602 -0.3353,-0.9803 -0.83824,-1.0083 0.57479,-0.8683 1.72438,-1.0923 2.34707,-1.0923 0.76639,0 1.79623,0.4201 1.79623,2.1286 0,0.8402 -0.21555,1.7364 -0.64664,2.3246 -0.55084,0.7562 -1.02984,0.7842 -1.86808,0.8402 -0.40714,0.028 -0.45504,0.028 -0.52689,0.056 -0.0479,0 -0.16765,0.056 -0.16765,0.2521 0,0.2801 0.1437,0.2801 0.43109,0.2801 z"
       style="font-style:normal;font-variant:normal;font-weight:normal;font-stretch:normal;letter-spacing:normal;word-spacing:normal;text-anchor:start;fill:#000000;fill-opacity:1;fill-rule:evenodd;stroke:#000000;stroke-width:0;stroke-linecap:butt;stroke-linejoin:miter;stroke-miterlimit:10.433;stroke-dasharray:none;stroke-dashoffset:0;stroke-opacity:1"
       id="path3067" />
    <path
       style="fill:none;fill-rule:evenodd;stroke:#000000;stroke-width:3;stroke-linecap:butt;stroke-linejoin:miter;marker-end:url(#Arrow2Mend);stroke-miterlimit:4;stroke-dasharray:none;stroke-opacity:1"
       d="M 185.72485,887.19817 L 219.29627,847.19817"
       id="path5446" />
    <g
       transform="matrix(2.3949721,0,0,-2.8007615,-725.10606,2683.5334)"
       xml:space="preserve"
       style="font-style:normal;font-variant:normal;font-weight:normal;font-stretch:normal;letter-spacing:normal;word-spacing:normal;text-anchor:start;fill:none;fill-opacity:1;fill-rule:evenodd;stroke:#000000;stroke-linecap:butt;stroke-linejoin:miter;stroke-miterlimit:10.43299961;stroke-dasharray:none;stroke-dashoffset:0;stroke-opacity:1"
       ns0:text="\\begin{displaymath}\n\\mathbf n\n\\end{displaymath}"
       ns0:preamble=""
       id="g2643">&#10;<path
   d="M 392.56,657.7 L 392.56,657.23 C 392.83,657.24 393.43,657.26 393.81,657.26 C 394.2,657.26 394.79,657.24 395.07,657.23 L 395.07,657.7 L 394.38,657.7 L 394.38,659.78 C 394.38,660.87 395.24,661.36 395.86,661.36 C 396.2,661.36 396.41,661.15 396.41,660.39 L 396.41,657.7 L 395.72,657.7 L 395.72,657.23 C 396,657.24 396.6,657.26 396.98,657.26 C 397.37,657.26 397.96,657.24 398.23,657.23 L 398.23,657.7 L 397.55,657.7 L 397.55,660.28 C 397.55,661.33 397.01,661.72 396.01,661.72 C 395.06,661.72 394.53,661.15 394.27,660.64 L 394.27,661.72 L 392.56,661.64 L 392.56,661.17 C 393.17,661.17 393.24,661.17 393.24,660.78 L 393.24,657.7 L 392.56,657.7 z"
   style="fill:#000000;stroke-width:0"
   id="path2645" />&#10;</g>
    <g
       inkscape:label=""
       transform="matrix(1.7616697,0,0,1.7616697,308.28495,773.21268)"
       id="g1"
       style="stroke-width:0.567643">
      <g
         id="surface1"
         transform="matrix(1.33333,0,0,1.33333,-293.987,-11.7923)"
         style="stroke-width:0.567643">
        <g
           style="fill:#000000;fill-opacity:1;stroke-width:0.567643"
           id="g5">
          <g
             id="use4"
             transform="translate(220.24001,16.438)"
             style="stroke-width:0.567643">
            <path
               style="stroke:none;stroke-width:0.567643"
               d="M 2.515625,-4.796875 H 4.25 V -5.3125 H 2.515625 v -2.28125 h -0.5 c 0,1.1875 -0.578125,2.375 -1.765625,2.40625 v 0.390625 h 0.96875 v 3.328125 c 0,1.265625 0.984375,1.546875 1.84375,1.546875 0.875,0 1.40625,-0.671875 1.40625,-1.5625 v -0.625 h -0.5 V -1.5 c 0,0.796875 -0.359375,1.140625 -0.734375,1.140625 -0.71875,0 -0.71875,-0.796875 -0.71875,-1.078125 z m 0,0"
               id="path6" />
          </g>
        </g>
        <g
           style="fill:#000000;fill-opacity:1;stroke-width:0.567643"
           id="g6">
          <g
             id="use5"
             transform="translate(225.47,18.231001)"
             style="stroke-width:0.567643">
            <path
               style="stroke:none;stroke-width:0.567643"
               d="m 2.5,-5.078125 c 0,-0.21875 -0.015625,-0.21875 -0.234375,-0.21875 -0.328125,0.3125 -0.75,0.5 -1.5,0.5 v 0.265625 c 0.21875,0 0.640625,0 1.109375,-0.203125 v 4.078125 c 0,0.296875 -0.03125,0.390625 -0.78125,0.390625 H 0.8125 V 0 c 0.328125,-0.03125 1.015625,-0.03125 1.375,-0.03125 0.359375,0 1.046875,0 1.375,0.03125 V -0.265625 H 3.28125 c -0.75,0 -0.78125,-0.09375 -0.78125,-0.390625 z m 0,0"
               id="path7" />
          </g>
        </g>
      </g>
    </g>
    <g
       inkscape:label=""
       transform="matrix(1.7616697,0,0,1.7616697,52.831824,813.92158)"
       id="g9"
       style="stroke-width:0.567643">
      <g
         id="g8"
         transform="matrix(1.33333,0,0,1.33333,-293.987,-11.7923)"
         style="stroke-width:0.567643">
        <g
           style="fill:#000000;fill-opacity:1;stroke-width:0.567643"
           id="g3">
          <g
             id="g2"
             transform="translate(220.24001,16.438)"
             style="stroke-width:0.567643">
            <path
               style="stroke:none;stroke-width:0.567643"
               d="M 2.515625,-4.796875 H 4.25 V -5.3125 H 2.515625 v -2.28125 h -0.5 c 0,1.1875 -0.578125,2.375 -1.765625,2.40625 v 0.390625 h 0.96875 v 3.328125 c 0,1.265625 0.984375,1.546875 1.84375,1.546875 0.875,0 1.40625,-0.671875 1.40625,-1.5625 v -0.625 h -0.5 V -1.5 c 0,0.796875 -0.359375,1.140625 -0.734375,1.140625 -0.71875,0 -0.71875,-0.796875 -0.71875,-1.078125 z m 0,0"
               id="path1" />
          </g>
        </g>
        <g
           style="fill:#000000;fill-opacity:1;stroke-width:0.567643"
           id="g7">
          <g
             id="g4"
             transform="translate(225.47,18.231001)"
             style="stroke-width:0.567643">
            <path
               style="stroke:none;stroke-width:0.567643"
               d="m 2.25,-1.625 c 0.125,-0.125 0.453125,-0.390625 0.59375,-0.5 0.484375,-0.453125 0.953125,-0.890625 0.953125,-1.609375 0,-0.953125 -0.796875,-1.5625 -1.78125,-1.5625 -0.96875,0 -1.59375,0.71875 -1.59375,1.4375 0,0.390625 0.3125,0.4375 0.421875,0.4375 0.171875,0 0.421875,-0.109375 0.421875,-0.421875 0,-0.40625 -0.40625,-0.40625 -0.5,-0.40625 C 1,-4.84375 1.53125,-5.03125 1.921875,-5.03125 c 0.734375,0 1.125,0.625 1.125,1.296875 0,0.828125 -0.578125,1.4375 -1.53125,2.390625 l -1,1.046875 C 0.421875,-0.21875 0.421875,-0.203125 0.421875,0 H 3.5625 l 0.234375,-1.421875 h -0.25 C 3.53125,-1.265625 3.46875,-0.875 3.375,-0.71875 c -0.046875,0.0625 -0.65625,0.0625 -0.78125,0.0625 H 1.171875 Z m 0,0"
               id="path3" />
          </g>
        </g>
      </g>
    </g>
    <g
       inkscape:label=""
       transform="matrix(1.7616697,0,0,1.7616697,222.58639,1001.2107)"
       id="g15"
       style="stroke-width:0.567643">
      <g
         id="g14"
         transform="matrix(1.33333,0,0,1.33333,-293.987,-11.7923)"
         style="stroke-width:0.567643">
        <g
           style="fill:#000000;fill-opacity:1;stroke-width:0.567643"
           id="g11">
          <g
             id="g10"
             transform="translate(220.24001,16.438)"
             style="stroke-width:0.567643">
            <path
               style="stroke:none;stroke-width:0.567643"
               d="M 2.515625,-4.796875 H 4.25 V -5.3125 H 2.515625 v -2.28125 h -0.5 c 0,1.1875 -0.578125,2.375 -1.765625,2.40625 v 0.390625 h 0.96875 v 3.328125 c 0,1.265625 0.984375,1.546875 1.84375,1.546875 0.875,0 1.40625,-0.671875 1.40625,-1.5625 v -0.625 h -0.5 V -1.5 c 0,0.796875 -0.359375,1.140625 -0.734375,1.140625 -0.71875,0 -0.71875,-0.796875 -0.71875,-1.078125 z m 0,0"
               id="path9" />
          </g>
        </g>
        <g
           style="fill:#000000;fill-opacity:1;stroke-width:0.567643"
           id="g13">
          <g
             id="g12"
             transform="translate(225.47,18.231001)"
             style="stroke-width:0.567643">
            <path
               style="stroke:none;stroke-width:0.567643"
               d="m 2.015625,-2.65625 c 0.625,0 1.03125,0.453125 1.03125,1.296875 0,1 -0.5625,1.28125 -0.984375,1.28125 -0.4375,0 -1.046875,-0.15625 -1.328125,-0.578125 0.296875,0 0.5,-0.1875 0.5,-0.4375 0,-0.265625 -0.1875,-0.4375 -0.453125,-0.4375 -0.203125,0 -0.4375,0.125 -0.4375,0.453125 0,0.75 0.8125,1.25 1.734375,1.25 C 3.125,0.171875 3.875,-0.5625 3.875,-1.359375 3.875,-2.03125 3.34375,-2.625 2.53125,-2.8125 c 0.625,-0.21875 1.109375,-0.75 1.109375,-1.390625 0,-0.640625 -0.71875,-1.09375 -1.546875,-1.09375 -0.859375,0 -1.5,0.453125 -1.5,1.0625 0,0.296875 0.1875,0.421875 0.40625,0.421875 0.25,0 0.40625,-0.171875 0.40625,-0.40625 0,-0.296875 -0.265625,-0.40625 -0.4375,-0.40625 0.34375,-0.4375 0.953125,-0.46875 1.09375,-0.46875 0.203125,0 0.8125,0.0625 0.8125,0.890625 0,0.546875 -0.234375,0.890625 -0.34375,1.015625 -0.234375,0.25 -0.421875,0.265625 -0.90625,0.296875 -0.15625,0 -0.21875,0.015625 -0.21875,0.125 0,0.109375 0.078125,0.109375 0.21875,0.109375 z m 0,0"
               id="path11" />
          </g>
        </g>
      </g>
    </g>
    <g
       inkscape:label=""
       transform="matrix(1.7616697,0,0,1.7616697,205.67849,747.38757)"
       id="g23"
       style="stroke-width:0.567643">
      <g
         id="g22"
         transform="matrix(1.33333,0,0,1.33333,-293.987,-11.7923)"
         style="stroke-width:0.567643">
        <g
           style="fill:#000000;fill-opacity:1;stroke-width:0.567643"
           id="g19">
          <g
             id="g18"
             transform="translate(220.24001,16.438)"
             style="stroke-width:0.567643">
            <path
               style="stroke:none;stroke-width:0.567643"
               d="M 2.515625,-4.796875 H 4.25 V -5.3125 H 2.515625 v -2.28125 h -0.5 c 0,1.1875 -0.578125,2.375 -1.765625,2.40625 v 0.390625 h 0.96875 v 3.328125 c 0,1.265625 0.984375,1.546875 1.84375,1.546875 0.875,0 1.40625,-0.671875 1.40625,-1.5625 v -0.625 h -0.5 V -1.5 c 0,0.796875 -0.359375,1.140625 -0.734375,1.140625 -0.71875,0 -0.71875,-0.796875 -0.71875,-1.078125 z m 0,0"
               id="path18" />
          </g>
        </g>
        <g
           style="fill:#000000;fill-opacity:1;stroke-width:0.567643"
           id="g21">
          <g
             id="g20"
             transform="translate(225.47,18.231001)"
             style="stroke-width:0.567643" />
        </g>
      </g>
    </g>
  </g>
</svg>
