<?xml version="1.0" encoding="UTF-8" standalone="no"?>
<!-- Created with Inkscape (http://www.inkscape.org/) -->

<svg
   xmlns:dc="http://purl.org/dc/elements/1.1/"
   xmlns:cc="http://creativecommons.org/ns#"
   xmlns:rdf="http://www.w3.org/1999/02/22-rdf-syntax-ns#"
   xmlns:svg="http://www.w3.org/2000/svg"
   xmlns="http://www.w3.org/2000/svg"
   xmlns:sodipodi="http://sodipodi.sourceforge.net/DTD/sodipodi-0.dtd"
   xmlns:inkscape="http://www.inkscape.org/namespaces/inkscape"
   version="1.0"
   width="300"
   height="240"
   id="svg2"
   inkscape:version="0.47 r22583"
   sodipodi:docname="Dot_Product.svg"
   inkscape:export-filename="c:\Documents and Settings\ondro\My Documents\Vyuka\2010-Strukturni geologie_II\stress_koncept\Dot_Product.png"
   inkscape:export-xdpi="300"
   inkscape:export-ydpi="300">
  <metadata
     id="metadata37">
    <rdf:RDF>
      <cc:Work
         rdf:about="">
        <dc:format>image/svg+xml</dc:format>
        <dc:type
           rdf:resource="http://purl.org/dc/dcmitype/StillImage" />
        <dc:title></dc:title>
      </cc:Work>
    </rdf:RDF>
  </metadata>
  <sodipodi:namedview
     pagecolor="#ffffff"
     bordercolor="#666666"
     borderopacity="1"
     objecttolerance="10"
     gridtolerance="10"
     guidetolerance="10"
     inkscape:pageopacity="0"
     inkscape:pageshadow="2"
     inkscape:window-width="1280"
     inkscape:window-height="968"
     id="namedview35"
     showgrid="false"
     showguides="true"
     inkscape:guide-bbox="true"
     inkscape:zoom="2.9573556"
     inkscape:cx="150"
     inkscape:cy="120"
     inkscape:window-x="-4"
     inkscape:window-y="-4"
     inkscape:window-maximized="1"
     inkscape:current-layer="svg2" />
  <defs
     id="defs4">
    <inkscape:perspective
       sodipodi:type="inkscape:persp3d"
       inkscape:vp_x="0 : 120 : 1"
       inkscape:vp_y="0 : 1000 : 0"
       inkscape:vp_z="300 : 120 : 1"
       inkscape:persp3d-origin="150 : 80 : 1"
       id="perspective39" />
    <marker
       refX="0"
       refY="0"
       orient="auto"
       id="StopM"
       style="overflow:visible">
      <path
         d="M 0,5.65 L 0,-5.65"
         transform="scale(0.4,0.4)"
         id="path2870"
         style="fill:none;fill-opacity:0.75;fill-rule:evenodd;stroke:#000000;stroke-width:1pt" />
    </marker>
    <marker
       refX="0"
       refY="0"
       orient="auto"
       id="DistanceOut"
       style="overflow:visible">
      <g
         id="g2816">
        <path
           d="M 0,0 L -2,0"
           id="path2316"
           style="fill:none;stroke:#ffffff;stroke-width:1.14999998;stroke-linecap:square" />
        <path
           d="M 0,0 L -13,4 L -9,0 L -13,-4 L 0,0 z"
           id="path2312"
           style="fill:#000000;fill-rule:evenodd;stroke:none" />
        <path
           d="M 0,-4 L 0,40"
           id="path2314"
           style="fill:none;stroke:#000000;stroke-width:1;stroke-linecap:square" />
      </g>
    </marker>
    <marker
       refX="0"
       refY="0"
       orient="auto"
       id="DistanceIn"
       style="overflow:visible">
      <g
         id="g2300">
        <path
           d="M 0,0 L 2,0"
           id="path2306"
           style="fill:none;stroke:#ffffff;stroke-width:1.14999998;stroke-linecap:square" />
        <path
           d="M 0,0 L 13,4 L 9,0 L 13,-4 L 0,0 z"
           id="path2302"
           style="fill:#000000;fill-rule:evenodd;stroke:none" />
        <path
           d="M 0,-4 L 0,40"
           id="path2304"
           style="fill:none;stroke:#000000;stroke-width:1;stroke-linecap:square" />
      </g>
    </marker>
    <marker
       refX="0"
       refY="0"
       orient="auto"
       id="Arrow1Mend"
       style="overflow:visible">
      <path
         d="M 0,0 L 5,-5 L -12.5,0 L 5,5 L 0,0 z"
         transform="matrix(-0.4,0,0,-0.4,-4,0)"
         id="path2769"
         style="fill-rule:evenodd;stroke:#000000;stroke-width:1pt;marker-start:none" />
    </marker>
    <marker
       refX="0"
       refY="0"
       orient="auto"
       id="Arrow1Mstart"
       style="overflow:visible">
      <path
         d="M 0,0 L 5,-5 L -12.5,0 L 5,5 L 0,0 z"
         transform="matrix(0.4,0,0,0.4,4,0)"
         id="path2766"
         style="fill-rule:evenodd;stroke:#000000;stroke-width:1pt;marker-start:none" />
    </marker>
    <marker
       refX="0"
       refY="0"
       orient="auto"
       id="Arrow1Sstart"
       style="overflow:visible">
      <path
         d="M 0,0 L 5,-5 L -12.5,0 L 5,5 L 0,0 z"
         transform="matrix(0.2,0,0,0.2,1.2,0)"
         id="path2772"
         style="fill-rule:evenodd;stroke:#000000;stroke-width:1pt;marker-start:none" />
    </marker>
    <inkscape:perspective
       id="perspective2869"
       inkscape:persp3d-origin="0.5 : 0.33333333 : 1"
       inkscape:vp_z="1 : 0.5 : 1"
       inkscape:vp_y="0 : 1000 : 0"
       inkscape:vp_x="0 : 0.5 : 1"
       sodipodi:type="inkscape:persp3d" />
  </defs>
  <path
     style="fill-rule:evenodd;stroke:none;stroke-width:0.4pt;marker-start:none"
     id="path5344"
     d="m 112.35684,20.470637 1.99152,9.05199 6.83228,-22.8567671 -17.87437,15.7966081 9.05057,-1.991831 z" />
  <path
     style="fill-rule:evenodd;stroke:none;stroke-width:0.4pt;marker-start:none"
     id="path5346"
     d="m 273.75302,125.74642 -4.98817,7.81128 20.98596,-11.33919 -23.80784,-1.46106 7.81005,4.98897 z" />
  <path
     style="color:#000000;fill:none;stroke:#000000;stroke-width:3;stroke-linecap:round;stroke-linejoin:miter;stroke-miterlimit:4;stroke-opacity:1;stroke-dasharray:none;stroke-dashoffset:0;marker:none;visibility:visible;display:inline;overflow:visible;enable-background:accumulate"
     id="path5335"
     d="M 114.82513,16.211978 7.1699599,184.6074 277.20998,125.06759" />
  <path
     style="color:#000000;fill:none;stroke:#000000;stroke-width:3;stroke-linecap:round;stroke-linejoin:round;stroke-miterlimit:4;stroke-opacity:1;stroke-dashoffset:0;marker:none;visibility:visible;display:inline;overflow:visible;enable-background:accumulate"
     id="path6149"
     d="m 32.033597,147.58314 c 9.814274,6.4233 15.902415,15.43379 18.200635,26.93707" />
  <path
     style="color:#000000;fill:none;stroke:#000000;stroke-width:2;stroke-linecap:round;stroke-linejoin:miter;stroke-miterlimit:4;stroke-opacity:1;stroke-dasharray:2.99999995, 8.99999985;stroke-dashoffset:0;marker:none;visibility:visible;display:inline;overflow:visible;enable-background:accumulate"
     id="path6159"
     d="M 121.85842,7.0868551 150.27962,151.58582" />
  <path
     style="color:#000000;fill:none;stroke:#000000;stroke-width:2;stroke-linecap:butt;stroke-linejoin:miter;stroke-miterlimit:4;stroke-opacity:1;stroke-dashoffset:0;marker:none;visibility:visible;display:inline;overflow:visible;enable-background:accumulate"
     id="path6161"
     d="M 7.2394646,200.43651 154.20449,168.16016" />
  <path
     style="font-size:34.38301086px;font-style:normal;font-variant:normal;font-weight:normal;font-stretch:normal;text-indent:0;text-align:start;text-decoration:none;line-height:125%;letter-spacing:normal;word-spacing:normal;text-transform:none;direction:ltr;block-progression:tb;writing-mode:lr-tb;text-anchor:start;color:#000000;fill-opacity:1;fill-rule:evenodd;stroke:none;stroke-width:3;marker:none;visibility:visible;display:inline;overflow:visible;enable-background:accumulate;font-family:Arial"
     id="text2213"
     d="m 46.802911,149.53595 c -2e-6,-3.93326 0.961237,-7.71611 2.883722,-11.34856 1.922474,-3.6324 4.446431,-5.43747 7.571878,-5.41521 1.944952,-0.0556 3.535776,0.6045 4.772476,1.98057 1.236666,1.37611 1.855008,3.47366 1.855027,6.29268 -1.9e-5,4.18956 -0.958448,8.07826 -2.875291,11.66611 -1.916874,3.58785 -4.432399,5.38178 -7.546583,5.38178 -1.967459,0 -3.569525,-0.75768 -4.806204,-2.27306 -1.236687,-1.51536 -1.855027,-3.61013 -1.855025,-6.28431 l 0,0 z m 3.844962,-5.21466 9.915958,0 c 0.29229,-1.70477 0.438444,-3.08086 0.438461,-4.12826 -1.7e-5,-1.5042 -0.354158,-2.7048 -1.062425,-3.60179 -0.708297,-0.89694 -1.647052,-1.34542 -2.816267,-1.34544 -2.889353,2e-5 -5.047927,3.02518 -6.475727,9.07549 l 0,0 z m 9.426905,2.50705 -9.949685,0 c -0.213614,1.50423 -0.320418,2.66305 -0.320413,3.47643 -5e-6,1.60451 0.342893,2.89146 1.028696,3.86084 0.685791,0.9694 1.624545,1.45409 2.816267,1.45409 1.371584,0 2.627942,-0.78553 3.769076,-2.35662 1.141108,-1.57107 2.026459,-3.71598 2.656059,-6.43474 l 0,0 z" />
  <path
     style="fill:none;stroke:#000000;stroke-width:2"
     id="path2249"
     d="M 8.2090365,204.8513 6.2698927,196.02172" />
  <path
     style="fill:none;stroke:#000000;stroke-width:2"
     id="path2251"
     d="m 155.17406,172.57495 -1.93914,-8.82958" />
  <g
     style="font-size:14px;font-style:normal;font-variant:normal;font-weight:bold;font-stretch:normal;fill:#000000;fill-opacity:1;stroke:none;font-family:Times New Roman;-inkscape-font-specification:Times New Roman Bold"
     id="text2857">
    <path
       d="m 78.627403,37.249355 0,12.867188 c -1.7e-5,1.253908 0.117171,2.036134 0.351563,2.34668 0.234357,0.310547 0.708966,0.506836 1.423828,0.588867 l 0,0.632812 -6.697266,0 0,-2.197265 c -0.785167,0.937501 -1.570323,1.620117 -2.355468,2.047851 -0.785166,0.427734 -1.664071,0.641601 -2.636719,0.641602 -0.925788,-10e-7 -1.749029,-0.28418 -2.469727,-0.852539 -0.720707,-0.568359 -1.204105,-1.233397 -1.450195,-1.995118 -0.246097,-0.761715 -0.369144,-2.091792 -0.369141,-3.990234 l 0,-6.521484 c -3e-6,-1.242174 -0.11426,-2.01561 -0.342773,-2.320313 -0.228518,-0.304672 -0.706057,-0.50389 -1.432617,-0.597656 l 0,-0.650391 6.697265,0 0,11.232422 c -8e-6,1.171879 0.05566,1.927738 0.166992,2.267578 0.11132,0.339847 0.287102,0.597659 0.527344,0.773438 0.240226,0.175783 0.518546,0.263674 0.834961,0.263672 0.421865,2e-6 0.802724,-0.111326 1.142578,-0.333985 0.468739,-0.304685 1.031239,-0.919918 1.6875,-1.845703 l 0,-8.789062 c -1.2e-5,-1.242174 -0.11427,-2.01561 -0.342773,-2.320313 -0.228527,-0.304672 -0.706066,-0.50389 -1.432617,-0.597656 l 0,-0.650391 z"
       style="font-size:36px"
       id="path2930" />
  </g>
  <g
     style="font-size:14px;font-style:normal;font-variant:normal;font-weight:bold;font-stretch:normal;fill:#000000;fill-opacity:1;stroke:none;font-family:Times New Roman;-inkscape-font-specification:Times New Roman Bold"
     id="text2857-1">
    <path
       d="m 249.54631,156.15167 -5.53711,-12.74414 c -0.66797,-1.53514 -1.18945,-2.5078 -1.56445,-2.91797 -0.26953,-0.30467 -0.66797,-0.50975 -1.19531,-0.61523 l 0,-0.65039 8.73632,0 0,0.65039 c -0.55079,1e-5 -0.92579,0.0996 -1.125,0.29883 -0.28125,0.25782 -0.42188,0.56251 -0.42187,0.91406 -10e-6,0.43361 0.2578,1.24806 0.77344,2.44336 l 2.70703,6.16992 2.16211,-5.32617 c 0.62108,-1.52343 0.93162,-2.60155 0.93164,-3.23438 -2e-5,-0.36326 -0.13185,-0.65916 -0.39551,-0.88769 -0.26369,-0.2285 -0.72951,-0.35448 -1.39746,-0.37793 l 0,-0.65039 5.3789,0 0,0.65039 c -0.51564,0.0703 -0.93751,0.26369 -1.26562,0.58008 -0.32814,0.31642 -0.82033,1.24806 -1.47656,2.79492 l -5.48438,12.90234 z"
       style="font-size:36px"
       id="path2950" />
  </g>
  <g
     id="g2921"
     transform="translate(-144.38575,17.583276)">
    <path
       d="m 322.67475,193.31911 -9.94969,0 c -0.21361,1.50424 -0.32042,2.66305 -0.32041,3.47643 -1e-5,1.60452 0.34289,2.89146 1.0287,3.86085 0.68579,0.96939 1.62454,1.45409 2.81626,1.45409 1.37159,0 2.62794,-0.78554 3.76908,-2.35663 1.1411,-1.57107 2.02646,-3.71598 2.65606,-6.43474 l 0,0 z m -9.4269,-2.50704 9.91595,0 c 0.29229,-1.70478 0.43845,-3.08087 0.43846,-4.12827 -10e-6,-1.5042 -0.35415,-2.7048 -1.06243,-3.60179 -0.70829,-0.89693 -1.64704,-1.34541 -2.81626,-1.34544 -2.88935,3e-5 -5.04793,3.02518 -6.47572,9.0755 l 0,0 z m -3.84497,5.21465 c 0,-3.93326 0.96124,-7.7161 2.88373,-11.34855 1.92247,-3.6324 4.44643,-5.43748 7.57187,-5.41522 1.94496,-0.0557 3.53578,0.6045 4.77248,1.98057 1.23666,1.37611 1.855,3.47367 1.85502,6.29268 -2e-5,4.18956 -0.95845,8.07826 -2.87528,11.66611 -1.91688,3.58786 -4.4324,5.38178 -7.54659,5.38178 -1.96745,0 -3.56953,-0.75768 -4.8062,-2.27305 -1.23669,-1.51537 -1.85503,-3.61014 -1.85503,-6.28432 l 0,0 z"
       style="font-size:34.38300705px;font-style:normal;font-variant:normal;font-weight:normal;font-stretch:normal;text-indent:0;text-align:start;text-decoration:none;line-height:125%;letter-spacing:normal;word-spacing:normal;text-transform:none;direction:ltr;block-progression:tb;writing-mode:lr-tb;text-anchor:start;color:#000000;fill:#000000;fill-opacity:1;fill-rule:evenodd;stroke:none;stroke-width:3;marker:none;visibility:visible;display:inline;overflow:visible;enable-background:accumulate;font-family:Times New Roman"
       id="text9601" />
    <g
       style="font-size:14px;font-style:normal;font-weight:normal;fill:#000000;fill-opacity:1;stroke:none;font-family:Times New Roman;-inkscape-font-specification:Times New Roman"
       id="text2886">
      <path
         d="m 210.21628,174.76526 0,32.76562 -1.45899,0 0,-32.76562 z"
         style="font-size:36px"
         id="path2933" />
      <path
         d="m 230.25534,183.32581 0,12.86718 c -2e-5,1.25391 0.11717,2.03614 0.35156,2.34668 0.23436,0.31055 0.70897,0.50684 1.42383,0.58887 l 0,0.63281 -6.69726,0 0,-2.19726 c -0.78517,0.9375 -1.57033,1.62011 -2.35547,2.04785 -0.78517,0.42773 -1.66407,0.6416 -2.63672,0.6416 -0.92579,0 -1.74903,-0.28418 -2.46973,-0.85254 -0.72071,-0.56836 -1.2041,-1.2334 -1.45019,-1.99512 -0.2461,-0.76171 -0.36915,-2.09179 -0.36914,-3.99023 l 0,-6.52148 c -1e-5,-1.24218 -0.11427,-2.01562 -0.34278,-2.32032 -0.22852,-0.30467 -0.70605,-0.50389 -1.43262,-0.59765 l 0,-0.65039 6.69727,0 0,11.23242 c -1e-5,1.17188 0.0557,1.92774 0.16699,2.26758 0.11132,0.33984 0.2871,0.59765 0.52735,0.77343 0.24022,0.17579 0.51854,0.26368 0.83496,0.26368 0.42186,0 0.80272,-0.11133 1.14258,-0.33399 0.46873,-0.30468 1.03123,-0.91992 1.6875,-1.8457 l 0,-8.78906 c -2e-5,-1.24218 -0.11427,-2.01562 -0.34278,-2.32032 -0.22853,-0.30467 -0.70606,-0.50389 -1.43262,-0.59765 l 0,-0.65039 z"
         style="font-weight:bold"
         id="path2935" />
      <path
         d="m 237.49753,174.76526 0,32.76562 -1.45899,0 0,-32.76562 z"
         style="font-size:36px"
         id="path2937" />
      <path
         d="m 263.35495,195.92932 c -1.21876,1.46485 -2.44923,2.54004 -3.69141,3.22559 -1.24219,0.68554 -2.55469,1.02832 -3.9375,1.02832 -1.66406,0 -2.96191,-0.46875 -3.89355,-1.40625 -0.93164,-0.9375 -1.39746,-2.19726 -1.39746,-3.7793 0,-1.79296 0.50097,-3.55663 1.50293,-5.29101 1.00195,-1.73437 2.3496,-3.14355 4.04297,-4.22754 1.69335,-1.08397 3.35448,-1.62596 4.98339,-1.62598 1.27734,2e-5 2.23241,0.26662 2.86524,0.7998 0.6328,0.53322 0.9492,1.18654 0.94922,1.95997 -2e-5,0.72657 -0.22267,1.34766 -0.66797,1.86328 -0.32814,0.39844 -0.73244,0.59766 -1.21289,0.59765 -0.3633,1e-5 -0.66505,-0.11717 -0.90527,-0.35156 -0.24025,-0.23436 -0.36037,-0.52733 -0.36036,-0.87891 -1e-5,-0.22264 0.0439,-0.42772 0.13184,-0.61523 0.0879,-0.18749 0.26952,-0.41307 0.54492,-0.67676 0.27538,-0.26366 0.44237,-0.45409 0.50098,-0.57129 0.0586,-0.11717 0.0879,-0.24022 0.0879,-0.36914 -10e-6,-0.24608 -0.11134,-0.45116 -0.33399,-0.61523 -0.33985,-0.23436 -0.82032,-0.35155 -1.4414,-0.35156 -1.14845,1e-5 -2.28517,0.40431 -3.41016,1.21289 -1.12501,0.8086 -2.08594,1.95704 -2.88281,3.44531 -0.96094,1.80469 -1.44141,3.60938 -1.44141,5.41406 0,1.19532 0.33984,2.14161 1.01953,2.83887 0.67969,0.69726 1.60547,1.0459 2.77735,1.0459 0.90233,0 1.79589,-0.22559 2.68066,-0.67676 0.88476,-0.45117 1.87792,-1.26855 2.97949,-2.45215 z"
         style="font-style:italic;font-family:Times New Roman;-inkscape-font-specification:Times New Roman"
         id="path2939" />
      <path
         d="m 282.05807,189.3551 c -10e-6,1.75782 -0.46583,3.49806 -1.39746,5.22071 -0.93165,1.72266 -2.2295,3.08789 -3.89355,4.0957 -1.66407,1.00781 -3.28126,1.51172 -4.85156,1.51172 -1.60548,0 -2.91505,-0.5127 -3.92871,-1.53809 -1.01368,-1.02539 -1.52051,-2.35253 -1.52051,-3.98144 0,-1.72265 0.49511,-3.45117 1.48535,-5.18555 0.99023,-1.73436 2.31445,-3.10546 3.97266,-4.11328 1.65819,-1.0078 3.26073,-1.5117 4.80761,-1.51172 1.54687,2e-5 2.82128,0.50978 3.82325,1.5293 1.00193,1.01954 1.50291,2.34376 1.50292,3.97265 z m -2.91796,-1.21289 c -2e-5,-1.08983 -0.26662,-1.92479 -0.79981,-2.50488 -0.53321,-0.58006 -1.22169,-0.8701 -2.06543,-0.87012 -1.72266,2e-5 -3.30762,1.23341 -4.75488,3.7002 -1.44727,2.4668 -2.1709,4.91895 -2.1709,7.35644 0,1.11329 0.28125,1.97168 0.84375,2.5752 0.5625,0.60351 1.27148,0.90527 2.12695,0.90527 1.65234,0 3.20214,-1.22754 4.64942,-3.68262 1.44725,-2.45507 2.17088,-4.94823 2.1709,-7.47949 z"
         style="font-style:italic;font-family:Times New Roman;-inkscape-font-specification:Times New Roman"
         id="path2941" />
      <path
         d="m 296.47214,183.85315 -1.07227,5.39648 -0.65039,0 c -0.0586,-1.5703 -0.39259,-2.71287 -1.00195,-3.42773 -0.60939,-0.71483 -1.36525,-1.07225 -2.26758,-1.07227 -0.72657,2e-5 -1.30372,0.19924 -1.73145,0.59766 -0.42774,0.39845 -0.6416,0.87892 -0.6416,1.44141 0,0.38673 0.085,0.75587 0.25489,1.10742 0.16991,0.35157 0.54198,0.84376 1.11621,1.47656 1.52343,1.66407 2.5078,2.91798 2.95312,3.76172 0.4453,0.84376 0.66796,1.64063 0.66797,2.39062 -10e-6,1.21876 -0.50685,2.29981 -1.52051,3.24317 -1.01368,0.94336 -2.29395,1.41504 -3.84082,1.41504 -0.84375,0 -1.81641,-0.19922 -2.91797,-0.59766 -0.38672,-0.14062 -0.68554,-0.21094 -0.89648,-0.21094 -0.52735,0 -0.92578,0.26954 -1.19531,0.8086 l -0.65039,0 1.07226,-5.69531 0.65039,0 c 0.0703,1.78125 0.43945,3.04101 1.10742,3.77929 0.66797,0.73828 1.58203,1.10742 2.74219,1.10742 0.89062,0 1.59667,-0.24902 2.11817,-0.74707 0.52147,-0.49804 0.78221,-1.11035 0.78222,-1.83691 -10e-6,-0.46875 -0.0938,-0.90234 -0.28125,-1.30078 -0.32813,-0.70312 -1.01661,-1.67578 -2.06543,-2.91797 -1.04883,-1.24218 -1.72266,-2.17382 -2.02148,-2.79492 -0.29883,-0.62109 -0.44825,-1.24218 -0.44824,-1.86328 -10e-6,-1.13671 0.41308,-2.09765 1.23925,-2.88282 0.82617,-0.78514 1.88965,-1.17771 3.19043,-1.17773 0.375,2e-5 0.71484,0.0293 1.01953,0.0879 0.16406,0.0352 0.54785,0.16701 1.15137,0.39551 0.60351,0.22853 1.00487,0.34279 1.2041,0.34277 0.5039,2e-5 0.92577,-0.27537 1.26563,-0.82617 z"
         style="font-style:italic;font-family:Times New Roman;-inkscape-font-specification:Times New Roman"
         id="path2943" />
      <path
         d="m 308.58347,206.81018 0,0.65039 c -1.76955,-0.89063 -3.24611,-1.9336 -4.42969,-3.1289 -1.68751,-1.69923 -2.98829,-3.70313 -3.90235,-6.01172 -0.91406,-2.30859 -1.37109,-4.70508 -1.37109,-7.18946 0,-3.6328 0.89648,-6.94627 2.68945,-9.94043 1.79297,-2.99412 4.13085,-5.13572 7.01368,-6.4248 l 0,0.73828 c -1.44142,0.7969 -2.62501,1.88674 -3.55079,3.26953 -0.92578,1.38283 -1.61719,3.13478 -2.07421,5.25586 -0.45704,2.12111 -0.68556,4.33595 -0.68555,6.64453 -10e-6,2.50782 0.19335,4.78712 0.58008,6.83789 0.30468,1.61719 0.67382,2.91504 1.10742,3.89356 0.43359,0.97851 1.01659,1.91894 1.74902,2.82129 0.73241,0.90233 1.69042,1.76366 2.87403,2.58398 z"
         style="font-style:normal;font-family:Times New Roman;-inkscape-font-specification:Times New Roman"
         id="path2945" />
      <path
         d="m 328.23581,175.50354 0,-0.73828 c 1.78125,0.87893 3.26367,1.91604 4.44726,3.11133 1.67578,1.71095 2.9707,3.71779 3.88477,6.0205 0.91405,2.30275 1.37108,4.70216 1.37109,7.19825 -1e-5,3.63281 -0.89356,6.94629 -2.68066,9.94043 -1.78712,2.99413 -4.12793,5.13573 -7.02246,6.4248 l 0,-0.65039 c 1.4414,-0.8086 2.62793,-1.90137 3.55957,-3.27832 0.93163,-1.37696 1.62304,-3.12891 2.07422,-5.25586 0.45116,-2.12695 0.67675,-4.34472 0.67676,-6.65332 -10e-6,-2.49608 -0.19337,-4.77538 -0.58008,-6.83789 -0.29298,-1.61717 -0.65919,-2.91209 -1.09863,-3.88477 -0.43946,-0.97263 -1.02247,-1.91013 -1.74903,-2.8125 -0.72656,-0.90232 -1.6875,-1.76364 -2.88281,-2.58398 z"
         style="font-style:normal;font-family:Times New Roman;-inkscape-font-specification:Times New Roman"
         id="path2947" />
    </g>
  </g>
</svg>
