<?xml version="1.0" encoding="UTF-8" standalone="no"?>
<!-- Created with Inkscape (http://www.inkscape.org/) -->

<svg
   width="210mm"
   height="297mm"
   viewBox="0 0 210 297"
   version="1.1"
   id="svg1"
   xml:space="preserve"
   inkscape:version="1.3 (1:1.3+202307231459+0e150ed6c4)"
   sodipodi:docname="simple_stress.svg"
   inkscape:export-filename="simple_stress.png"
   inkscape:export-xdpi="200"
   inkscape:export-ydpi="200"
   xmlns:inkscape="http://www.inkscape.org/namespaces/inkscape"
   xmlns:sodipodi="http://sodipodi.sourceforge.net/DTD/sodipodi-0.dtd"
   xmlns="http://www.w3.org/2000/svg"
   xmlns:svg="http://www.w3.org/2000/svg"><sodipodi:namedview
     id="namedview1"
     pagecolor="#ffffff"
     bordercolor="#666666"
     borderopacity="1.0"
     inkscape:showpageshadow="2"
     inkscape:pageopacity="0.0"
     inkscape:pagecheckerboard="0"
     inkscape:deskcolor="#d1d1d1"
     inkscape:document-units="mm"
     inkscape:zoom="0.5253601"
     inkscape:cx="138.95231"
     inkscape:cy="548.19542"
     inkscape:window-width="1862"
     inkscape:window-height="1016"
     inkscape:window-x="58"
     inkscape:window-y="27"
     inkscape:window-maximized="1"
     inkscape:current-layer="layer1" /><defs
     id="defs1"><marker
       style="overflow:visible"
       id="DartArrow"
       refX="0"
       refY="0"
       orient="auto-start-reverse"
       inkscape:stockid="Dart arrow"
       markerWidth="1"
       markerHeight="1"
       viewBox="0 0 1 1"
       inkscape:isstock="true"
       inkscape:collect="always"
       preserveAspectRatio="xMidYMid"><path
         style="fill:context-stroke;fill-rule:evenodd;stroke:none"
         d="M 0,0 5,-5 -12.5,0 5,5 Z"
         transform="scale(-0.5)"
         id="path6" /></marker></defs><g
     inkscape:label="Layer 1"
     inkscape:groupmode="layer"
     id="layer1"><rect
       style="fill:none;stroke:none;stroke-width:0.499999"
       id="rect21"
       width="169.34453"
       height="40.18293"
       x="20.327736"
       y="9.9353781" /><g
       id="g21"
       transform="translate(6.4025447,-79.641382)"><path
         id="path1"
         style="fill:none;stroke:#000000;stroke-width:0.499999"
         d="m 46.629493,109.66823 a 1.7026165,6.8104658 0 0 1 -1.702617,6.81046 1.7026165,6.8104658 0 0 1 -1.702616,-6.81046 1.7026165,6.8104658 0 0 1 1.702616,-6.81047 1.7026165,6.8104658 0 0 1 1.702617,6.81047 z" /><path
         style="fill:none;stroke:#000000;stroke-width:0.499999"
         d="m 150.76021,102.85776 c 0.94033,1e-5 1.70261,3.04916 1.70261,6.81047 0,3.7613 -0.76228,6.81045 -1.70261,6.81046"
         id="path2" /><path
         id="ellipse2"
         style="fill:#e6e6e6;stroke:none;stroke-width:0.499999"
         d="m 99.54616,109.66823 a 1.7026165,6.8104658 0 0 1 -1.702616,6.81046 1.7026165,6.8104658 0 0 1 -1.702616,-6.81046 1.7026165,6.8104658 0 0 1 1.702616,-6.81047 1.7026165,6.8104658 0 0 1 1.702616,6.81047 z" /><path
         style="fill:none;stroke:#000000;stroke-width:0.5;stroke-linecap:butt;stroke-linejoin:miter;stroke-opacity:1"
         d="M 44.926876,102.85776 H 150.76021"
         id="path3" /><path
         style="fill:none;stroke:#000000;stroke-width:0.5;stroke-linecap:butt;stroke-linejoin:miter;stroke-opacity:1"
         d="M 44.926876,116.47869 H 150.76021"
         id="path4" /><path
         style="fill:none;stroke:#000000;stroke-width:0.5;stroke-linecap:butt;stroke-linejoin:miter;stroke-opacity:1;marker-end:url(#DartArrow)"
         d="M 152.46282,109.66823 H 167.7249"
         id="path5" /><path
         style="fill:none;stroke:#000000;stroke-width:0.5;stroke-linecap:butt;stroke-linejoin:miter;stroke-opacity:1;marker-end:url(#DartArrow)"
         d="M 44.90819,109.66823 H 29.646119"
         id="path7" /><g
         inkscape:label=""
         transform="matrix(2.6585193,0,0,2.6585193,87.117197,105.99575)"
         id="g12"
         style="stroke-width:0.376149"><g
   id="g11"
   transform="matrix(0.352778,0,0,0.352778,-78.0483,-2.78933)"
   style="stroke-width:0.376149">&#10;    <g
   style="fill:#000000;fill-opacity:1;stroke-width:0.376149"
   id="g10">&#10;      <g
   id="g9"
   transform="translate(220.83299,16.438)"
   style="stroke-width:0.376149">&#10;        <path
   style="stroke:none;stroke-width:0.376149"
   d="M 2.03125,-1.328125 C 1.609375,-0.625 1.203125,-0.375 0.640625,-0.34375 0.5,-0.328125 0.40625,-0.328125 0.40625,-0.125 c 0,0.078125 0.0625,0.125 0.140625,0.125 0.21875,0 0.75,-0.03125 0.96875,-0.03125 C 1.859375,-0.03125 2.25,0 2.578125,0 c 0.078125,0 0.21875,0 0.21875,-0.234375 0,-0.09375 -0.09375,-0.109375 -0.171875,-0.109375 -0.265625,-0.03125 -0.5,-0.125 -0.5,-0.40625 0,-0.171875 0.078125,-0.296875 0.234375,-0.5625 l 0.90625,-1.515625 H 6.3125 c 0.015625,0.109375 0.015625,0.203125 0.015625,0.3125 0.046875,0.3125 0.1875,1.5625 0.1875,1.78125 0,0.359375 -0.609375,0.390625 -0.796875,0.390625 -0.140625,0 -0.265625,0 -0.265625,0.21875 C 5.453125,0 5.5625,0 5.625,0 5.828125,0 6.078125,-0.03125 6.28125,-0.03125 H 6.953125 C 7.6875,-0.03125 8.21875,0 8.21875,0 8.3125,0 8.4375,0 8.4375,-0.234375 8.4375,-0.34375 8.328125,-0.34375 8.15625,-0.34375 7.5,-0.34375 7.484375,-0.453125 7.453125,-0.8125 L 6.71875,-8.265625 c -0.03125,-0.25 -0.078125,-0.265625 -0.203125,-0.265625 -0.125,0 -0.1875,0.015625 -0.296875,0.203125 z M 3.46875,-3.171875 5.875,-7.1875 6.28125,-3.171875 Z m 0,0"
   id="path9" />&#10;      </g>&#10;    </g>&#10;  </g>&#10;</g><g
         inkscape:label=""
         transform="matrix(2.6585193,0,0,2.6585193,20.250563,105.74824)"
         id="g16"
         style="stroke-width:0.376149"><g
   id="g15"
   transform="matrix(0.352778,0,0,0.352778,-78.6775,-2.84996)"
   style="stroke-width:0.376149">&#10;    <g
   style="fill:#000000;fill-opacity:1;stroke-width:0.376149"
   id="g14">&#10;      <g
   id="g13"
   transform="translate(222.554,16.438)"
   style="stroke-width:0.376149">&#10;        <path
   style="stroke:none;stroke-width:0.376149"
   d="M 2.59375,-4.796875 H 3.953125 V -5.3125 H 2.53125 v -1.21875 c 0,-1.25 0.796875,-1.4375 1.1875,-1.4375 0.125,0 0.15625,0.015625 0.21875,0.03125 -0.171875,0.125 -0.28125,0.328125 -0.28125,0.578125 0,0.46875 0.390625,0.6875 0.6875,0.6875 0.265625,0 0.703125,-0.171875 0.703125,-0.703125 0,-0.484375 -0.4375,-0.984375 -1.28125,-0.984375 -1.09375,0 -2.421875,0.453125 -2.421875,1.828125 v 1.21875 h -0.875 v 0.515625 h 0.875 v 4.28125 H 0.53125 V 0 c 0.265625,-0.03125 1.171875,-0.03125 1.5,-0.03125 0.34375,0 1.3125,0 1.609375,0.03125 V -0.515625 H 2.59375 Z m 0,0"
   id="path12" />&#10;      </g>&#10;    </g>&#10;  </g>&#10;</g><g
         inkscape:label=""
         transform="matrix(2.6585193,0,0,2.6585193,172.65057,105.74824)"
         id="g20"
         style="stroke-width:0.376149"><g
   id="g19"
   transform="matrix(0.352778,0,0,0.352778,-78.6775,-2.84996)"
   style="stroke-width:0.376149">&#10;    <g
   style="fill:#000000;fill-opacity:1;stroke-width:0.376149"
   id="g18">&#10;      <g
   id="g17"
   transform="translate(222.554,16.438)"
   style="stroke-width:0.376149">&#10;        <path
   style="stroke:none;stroke-width:0.376149"
   d="M 2.59375,-4.796875 H 3.953125 V -5.3125 H 2.53125 v -1.21875 c 0,-1.25 0.796875,-1.4375 1.1875,-1.4375 0.125,0 0.15625,0.015625 0.21875,0.03125 -0.171875,0.125 -0.28125,0.328125 -0.28125,0.578125 0,0.46875 0.390625,0.6875 0.6875,0.6875 0.265625,0 0.703125,-0.171875 0.703125,-0.703125 0,-0.484375 -0.4375,-0.984375 -1.28125,-0.984375 -1.09375,0 -2.421875,0.453125 -2.421875,1.828125 v 1.21875 h -0.875 v 0.515625 h 0.875 v 4.28125 H 0.53125 V 0 c 0.265625,-0.03125 1.171875,-0.03125 1.5,-0.03125 0.34375,0 1.3125,0 1.609375,0.03125 V -0.515625 H 2.59375 Z m 0,0"
   id="path16" />&#10;      </g>&#10;    </g>&#10;  </g>&#10;</g></g></g></svg>
