<?xml version="1.0" encoding="UTF-8" standalone="no"?>
<svg
   xmlns:dc="http://purl.org/dc/elements/1.1/"
   xmlns:cc="http://creativecommons.org/ns#"
   xmlns:rdf="http://www.w3.org/1999/02/22-rdf-syntax-ns#"
   xmlns:svg="http://www.w3.org/2000/svg"
   xmlns="http://www.w3.org/2000/svg"
   xmlns:xlink="http://www.w3.org/1999/xlink"
   xmlns:sodipodi="http://sodipodi.sourceforge.net/DTD/sodipodi-0.dtd"
   xmlns:inkscape="http://www.inkscape.org/namespaces/inkscape"
   height="297mm"
   version="1.1"
   viewBox="0 0 595.27561 841.88975"
   width="210mm"
   id="svg926"
   sodipodi:docname="def_tensor_eigens.svg"
   inkscape:version="1.0.1 (1.0.1+r73)"
   inkscape:export-filename="/home/ondro/Vyuka/Beamer_Sources/StrainModelling/figures/def_tensors_eigens.png"
   inkscape:export-xdpi="150"
   inkscape:export-ydpi="150">
  <sodipodi:namedview
     pagecolor="#ffffff"
     bordercolor="#666666"
     borderopacity="1"
     objecttolerance="10"
     gridtolerance="10"
     guidetolerance="10"
     inkscape:pageopacity="0"
     inkscape:pageshadow="2"
     inkscape:window-width="1862"
     inkscape:window-height="1016"
     id="namedview928"
     showgrid="false"
     inkscape:zoom="0.6066785"
     inkscape:cx="169.06847"
     inkscape:cy="441.79855"
     inkscape:window-x="58"
     inkscape:window-y="27"
     inkscape:window-maximized="1"
     inkscape:current-layer="svg926"
     inkscape:document-rotation="0"
     units="mm" />
  <metadata
     id="metadata2">
    <rdf:RDF>
      <cc:Work>
        <dc:type
           rdf:resource="http://purl.org/dc/dcmitype/StillImage" />
        <dc:date>2020-10-25T10:09:58.973801</dc:date>
        <dc:format>image/svg+xml</dc:format>
        <dc:creator>
          <cc:Agent>
            <dc:title>Matplotlib v3.3.2, https://matplotlib.org/</dc:title>
          </cc:Agent>
        </dc:creator>
        <dc:title></dc:title>
      </cc:Work>
    </rdf:RDF>
  </metadata>
  <defs
     id="defs6">
    <style
       type="text/css"
       id="style4">*{stroke-linecap:butt;stroke-linejoin:round;}</style>
    <g
       id="g7668">
      <symbol
         overflow="visible"
         id="symbol9166">
        <path
           style="stroke:none"
           d=""
           id="path1709" />
      </symbol>
      <symbol
         overflow="visible"
         id="symbol3158">
        <path
           style="stroke:none"
           d="M 3.71875,-3.765625 C 3.53125,-4.140625 3.25,-4.40625 2.796875,-4.40625 c -1.15625,0 -2.390625,1.46875 -2.390625,2.921875 0,0.9375 0.546875,1.59375 1.3125,1.59375 0.203125,0 0.703125,-0.046875 1.296875,-0.75 0.078125,0.421875 0.4375,0.75 0.90625,0.75 0.359375,0 0.578125,-0.234375 0.75,-0.546875 0.15625,-0.359375 0.296875,-0.96875 0.296875,-0.984375 0,-0.109375 -0.09375,-0.109375 -0.125,-0.109375 -0.09375,0 -0.109375,0.046875 -0.140625,0.1875 -0.171875,0.640625 -0.34375,1.234375 -0.75,1.234375 -0.28125,0 -0.296875,-0.265625 -0.296875,-0.453125 0,-0.21875 0.015625,-0.3125 0.125,-0.75 C 3.890625,-1.71875 3.90625,-1.828125 4,-2.203125 L 4.359375,-3.59375 c 0.0625,-0.28125 0.0625,-0.296875 0.0625,-0.34375 0,-0.171875 -0.109375,-0.265625 -0.28125,-0.265625 -0.25,0 -0.390625,0.21875 -0.421875,0.4375 z M 3.078125,-1.1875 C 3.015625,-1 3.015625,-0.984375 2.875,-0.8125 2.4375,-0.265625 2.03125,-0.109375 1.75,-0.109375 c -0.5,0 -0.640625,-0.546875 -0.640625,-0.9375 0,-0.5 0.3125,-1.71875 0.546875,-2.1875 0.3125,-0.578125 0.75,-0.953125 1.15625,-0.953125 0.640625,0 0.78125,0.8125 0.78125,0.875 0,0.0625 -0.015625,0.125 -0.03125,0.171875 z m 0,0"
           id="path7624" />
      </symbol>
    </g>
    <g
       id="g4107">
      <symbol
         overflow="visible"
         id="symbol797">
        <path
           style="stroke:none"
           d=""
           id="path3345" />
      </symbol>
      <symbol
         overflow="visible"
         id="symbol4892">
        <path
           style="stroke:none"
           d="m 3.5625,-2.90625 c 0.40625,1.046875 0.890625,2.5625 1.046875,2.796875 0.15625,0.21875 0.25,0.21875 0.53125,0.21875 h 0.21875 c 0.09375,-0.015625 0.109375,-0.0625 0.109375,-0.09375 0,-0.03125 -0.03125,-0.0625 -0.0625,-0.09375 C 5.3125,-0.1875 5.25,-0.34375 5.1875,-0.53125 L 3.15625,-6.203125 c -0.21875,-0.578125 -0.75,-0.71875 -1.21875,-0.71875 -0.046875,0 -0.1875,0 -0.1875,0.109375 0,0.078125 0.078125,0.109375 0.09375,0.109375 C 2.171875,-6.65625 2.25,-6.59375 2.5,-5.90625 l 0.953125,2.703125 -2.75,2.734375 c -0.109375,0.125 -0.171875,0.171875 -0.171875,0.3125 0,0.171875 0.140625,0.28125 0.296875,0.28125 0.15625,0 0.25,-0.109375 0.328125,-0.203125 z m 0,0"
           id="path5375" />
      </symbol>
      <symbol
         overflow="visible"
         id="symbol3659">
        <path
           style="stroke:none"
           d=""
           id="path9579" />
      </symbol>
      <symbol
         overflow="visible"
         id="symbol4724">
        <path
           style="stroke:none"
           d="m 2.328125,-4.4375 c 0,-0.1875 0,-0.1875 -0.203125,-0.1875 -0.453125,0.4375 -1.078125,0.4375 -1.359375,0.4375 v 0.25 c 0.15625,0 0.625,0 1,-0.1875 v 3.546875 c 0,0.234375 0,0.328125 -0.6875,0.328125 H 0.8125 V 0 c 0.125,0 0.984375,-0.03125 1.234375,-0.03125 0.21875,0 1.09375,0.03125 1.25,0.03125 V -0.25 H 3.03125 c -0.703125,0 -0.703125,-0.09375 -0.703125,-0.328125 z m 0,0"
           id="path3122" />
      </symbol>
    </g>
    <g
       id="g7495">
      <symbol
         overflow="visible"
         id="symbol4542">
        <path
           style="stroke:none"
           d=""
           id="path6502" />
      </symbol>
      <symbol
         overflow="visible"
         id="symbol12">
        <path
           style="stroke:none"
           d="m 3.5625,-2.90625 c 0.40625,1.046875 0.890625,2.5625 1.046875,2.796875 0.15625,0.21875 0.25,0.21875 0.53125,0.21875 h 0.21875 c 0.09375,-0.015625 0.109375,-0.0625 0.109375,-0.09375 0,-0.03125 -0.03125,-0.0625 -0.0625,-0.09375 C 5.3125,-0.1875 5.25,-0.34375 5.1875,-0.53125 L 3.15625,-6.203125 c -0.21875,-0.578125 -0.75,-0.71875 -1.21875,-0.71875 -0.046875,0 -0.1875,0 -0.1875,0.109375 0,0.078125 0.078125,0.109375 0.09375,0.109375 C 2.171875,-6.65625 2.25,-6.59375 2.5,-5.90625 l 0.953125,2.703125 -2.75,2.734375 c -0.109375,0.125 -0.171875,0.171875 -0.171875,0.3125 0,0.171875 0.140625,0.28125 0.296875,0.28125 0.15625,0 0.25,-0.109375 0.328125,-0.203125 z m 0,0"
           id="path6304" />
      </symbol>
      <symbol
         overflow="visible"
         id="symbol4480">
        <path
           style="stroke:none"
           d=""
           id="path9973" />
      </symbol>
      <symbol
         overflow="visible"
         id="symbol2622">
        <path
           style="stroke:none"
           d="M 3.515625,-1.265625 H 3.28125 c -0.015625,0.15625 -0.09375,0.5625 -0.1875,0.625 C 3.046875,-0.59375 2.515625,-0.59375 2.40625,-0.59375 H 1.125 c 0.734375,-0.640625 0.984375,-0.84375 1.390625,-1.171875 0.515625,-0.40625 1,-0.84375 1,-1.5 0,-0.84375 -0.734375,-1.359375 -1.625,-1.359375 -0.859375,0 -1.453125,0.609375 -1.453125,1.25 0,0.34375 0.296875,0.390625 0.375,0.390625 0.15625,0 0.359375,-0.125 0.359375,-0.375 0,-0.125 -0.046875,-0.375 -0.40625,-0.375 C 0.984375,-4.21875 1.453125,-4.375 1.78125,-4.375 c 0.703125,0 1.0625,0.546875 1.0625,1.109375 0,0.609375 -0.4375,1.078125 -0.65625,1.328125 L 0.515625,-0.265625 C 0.4375,-0.203125 0.4375,-0.1875 0.4375,0 h 2.875 z m 0,0"
           id="path7750" />
      </symbol>
    </g>
  </defs>
  <g
     id="g3622"
     transform="matrix(0.82499788,0,0,0.82502456,-38.57623,-8.8337989)"
     style="stroke-width:1.21211">
    <path
       clip-path="url(#p76da2bbaad)"
       d="m 106.42337,283.29921 -12.501615,2.82997 0.803409,0.98087 -5.905881,-0.4072 5.154749,-2.91098 -0.302654,1.23125 12.501612,-2.82997 0.25038,1.10606"
       id="path18"
       style="stroke-width:1.21211" />
    <path
       clip-path="url(#p76da2bbaad)"
       d="m 122.62989,283.3045 -11.17336,1.98083 0.75628,1.01766 -5.88012,-0.68516 5.28624,-2.66475 -0.36036,1.21561 11.17336,-1.98083 0.19796,1.11664"
       id="path20"
       style="stroke-width:1.21211" />
    <path
       clip-path="url(#p76da2bbaad)"
       d="m 138.83106,283.30918 -9.85053,1.17977 0.69786,1.05857 -5.83229,-1.01471 5.42771,-2.36329 -0.42814,1.19343 9.85054,-1.17977 0.13485,1.126"
       id="path22"
       style="stroke-width:1.21211" />
    <path
       clip-path="url(#p76da2bbaad)"
       d="m 155.0255,283.31246 -8.54039,0.43939 0.62454,1.10342 -5.75015,-1.40748 5.57535,-1.99017 -0.50801,1.16168 8.54039,-0.43939 0.0583,1.13255"
       id="path24"
       style="stroke-width:1.21211" />
    <path
       clip-path="url(#p76da2bbaad)"
       d="m 171.2115,283.31293 -7.25542,-0.22513 0.53158,1.15108 -5.61475,-1.87611 5.72027,-1.52439 -0.60193,1.11591 7.25543,0.22514 -0.0352,1.1335"
       id="path26"
       style="stroke-width:1.21211" />
    <path
       clip-path="url(#p76da2bbaad)"
       d="m 187.38729,283.30829 -6.01656,-0.7977 0.41306,1.19873 -5.39748,-2.43157 5.84463,-0.94105 -0.71115,1.04968 6.01655,0.7977 -0.14905,1.12421"
       id="path28"
       style="stroke-width:1.21211" />
    <path
       clip-path="url(#p76da2bbaad)"
       d="m 203.55151,283.29487 -4.85666,-1.2661 0.26261,1.24041 -5.05774,-3.07645 5.91597,-0.21567 -0.83476,0.95433 4.85665,1.26611 -0.28607,1.09737"
       id="path30"
       style="stroke-width:1.21211" />
    <path
       clip-path="url(#p76da2bbaad)"
       d="m 219.70445,283.26759 -3.82147,-1.63308 0.0758,1.26563 -4.54562,-3.79243 5.88255,0.66398 -0.96706,0.82 3.82147,1.63308 -0.44564,1.04282"
       id="path32"
       style="stroke-width:1.21211" />
    <path
       clip-path="url(#p76da2bbaad)"
       d="m 235.84998,283.22095 -2.96059,-1.93328 -0.14528,1.25955 -3.81758,-4.52453 5.67772,1.67594 -1.09481,0.63951 2.96058,1.93328 -0.62004,0.94953"
       id="path34"
       style="stroke-width:1.21211" />
    <path
       clip-path="url(#p76da2bbaad)"
       d="m 251.99673,283.15202 -2.30028,-2.24453 -0.38616,1.20767 -2.87035,-5.17749 5.24634,2.74248 -1.19783,0.41567 2.30028,2.24453 -0.792,0.81167"
       id="path36"
       style="stroke-width:1.21211" />
    <path
       clip-path="url(#p76da2bbaad)"
       d="m 268.15608,283.0643 -1.80902,-2.66914 -0.62063,1.10562 -1.77308,-5.64813 4.58934,3.73941 -1.25687,0.16686 1.80901,2.66914 -0.93875,0.63624"
       id="path38"
       style="stroke-width:1.21211" />
    <path
       clip-path="url(#p76da2bbaad)"
       d="m 284.33634,282.968 -1.39508,-3.28202 -0.82186,0.96547 -0.65265,-5.88382 3.78368,4.55292 -1.26549,-0.0782 1.39508,3.28203 -1.04368,0.44363"
       id="path40"
       style="stroke-width:1.21211" />
    <path
       clip-path="url(#p76da2bbaad)"
       d="m 300.53866,282.87479 -0.95327,-4.09336 -0.97588,0.80947 0.37065,-5.90829 2.94282,5.13664 -1.2331,-0.29503 0.95327,4.09335 -1.10449,0.25722"
       id="path42"
       style="stroke-width:1.21211" />
    <path
       clip-path="url(#p76da2bbaad)"
       d="m 316.7585,282.7924 -0.41406,-5.06236 -1.08405,0.65759 1.23318,-5.79004 2.15764,5.5127 -1.1765,-0.47269 0.41406,5.06236 -1.13027,0.0924"
       id="path44"
       style="stroke-width:1.21211" />
    <path
       clip-path="url(#p76da2bbaad)"
       d="m 332.9898,282.72345 0.24607,-6.13449 -1.15587,0.52111 1.92697,-5.5975 1.47244,5.73386 -1.11041,-0.61202 -0.24607,6.1345 -1.13313,-0.0455"
       id="path46"
       style="stroke-width:1.21211" />
    <path
       clip-path="url(#p76da2bbaad)"
       d="m 349.22758,282.66727 1.02106,-7.26509 -1.20193,0.40368 2.47367,-5.37831 0.89536,5.8518 -1.04409,-0.71933 -1.02105,7.26508 -1.12302,-0.15783"
       id="path48"
       style="stroke-width:1.21211" />
    <path
       clip-path="url(#p76da2bbaad)"
       d="m 365.46859,282.62187 1.89311,-8.4246 -1.23077,0.30459 2.90286,-5.15933 0.41651,5.90523 -0.98214,-0.80186 -1.89311,8.4246 -1.10646,-0.24863"
       id="path50"
       style="stroke-width:1.21211" />
    <path
       clip-path="url(#p76da2bbaad)"
       d="m 106.4482,269.76573 -11.653343,3.19697 0.846849,0.94363 -5.91824,-0.14032 5.018154,-3.1406 -0.246791,1.24365 11.653341,-3.19697 0.30003,1.09364"
       id="path60"
       style="stroke-width:1.21211" />
    <path
       clip-path="url(#p76da2bbaad)"
       d="m 122.6561,269.77194 -10.31676,2.33538 0.80341,0.98088 -5.90588,-0.40721 5.15475,-2.91098 -0.30265,1.23125 10.31675,-2.33538 0.25038,1.10606"
       id="path62"
       style="stroke-width:1.21211" />
    <path
       clip-path="url(#p76da2bbaad)"
       d="m 138.85846,269.77795 -8.98201,1.5236 0.7487,1.02325 -5.87487,-0.72883 5.30589,-2.6254 -0.36938,1.21291 8.98202,-1.52361 0.18965,1.11808"
       id="path64"
       style="stroke-width:1.21211" />
    <path
       clip-path="url(#p76da2bbaad)"
       d="m 155.05361,269.78304 -7.65554,0.77684 0.67862,1.07101 -5.81301,-1.11994 5.46954,-2.26482 -0.44964,1.18549 7.65554,-0.77684 0.11449,1.12826"
       id="path66"
       style="stroke-width:1.21211" />
    <path
       clip-path="url(#p76da2bbaad)"
       d="m 171.23934,269.78584 -6.34962,0.11478 0.58743,1.12362 -5.70006,-1.59831 5.63857,-1.80328 -0.54644,1.14411 6.34962,-0.11478 0.0205,1.13386"
       id="path68"
       style="stroke-width:1.21211" />
    <path
       clip-path="url(#p76da2bbaad)"
       d="m 187.41305,269.78383 -5.08701,-0.43911 0.46739,1.17861 -5.50293,-2.18242 5.79552,-1.20712 -0.66245,1.08108 5.08701,0.43912 -0.0975,1.12984"
       id="path70"
       style="stroke-width:1.21211" />
    <path
       clip-path="url(#p76da2bbaad)"
       d="m 203.57229,269.7726 -3.90744,-0.86275 0.30918,1.22963 -5.17013,-2.88359 5.90364,-0.43854 -0.79819,0.98512 3.90745,0.86275 -0.24451,1.10738"
       id="path72"
       style="stroke-width:1.21211" />
    <path
       clip-path="url(#p76da2bbaad)"
       d="m 219.71644,269.74528 -2.87261,-1.15058 0.10471,1.26358 -4.63123,-3.68741 5.8962,0.52918 -0.94802,0.84191 2.87261,1.15058 -0.42166,1.05274"
       id="path74"
       style="stroke-width:1.21211" />
    <path
       clip-path="url(#p76da2bbaad)"
       d="m 235.84998,269.69367 -2.05641,-1.34284 -0.14528,1.25955 -3.81757,-4.52453 5.67771,1.67595 -1.09481,0.6395 2.0564,1.34284 -0.62004,0.94953"
       id="path76"
       style="stroke-width:1.21211" />
    <path
       clip-path="url(#p76da2bbaad)"
       d="m 251.98522,269.61318 -1.50014,-1.55049 -0.42074,1.19606 -2.72022,-5.25792 5.16527,2.89227 -1.20929,0.38104 1.50014,1.55049 -0.81502,0.78855"
       id="path78"
       style="stroke-width:1.21211" />
    <path
       clip-path="url(#p76da2bbaad)"
       d="m 268.13876,269.50985 -1.14946,-1.92286 -0.68245,1.06857 -1.44932,-5.73975 4.36948,3.99411 -1.26433,0.0952 1.14947,1.92286 -0.97339,0.58188"
       id="path80"
       style="stroke-width:1.21211" />
    <path
       clip-path="url(#p76da2bbaad)"
       d="m 284.32079,269.39982 -0.85901,-2.55162 -0.89386,0.89922 -0.19698,-5.91663 3.4213,4.83114 -1.25569,-0.17556 0.85902,2.55163 -1.07478,0.36182"
       id="path82"
       style="stroke-width:1.21211" />
    <path
       clip-path="url(#p76da2bbaad)"
       d="m 300.52955,269.29885 -0.48713,-3.42089 -1.04279,0.72123 0.88471,-5.85342 2.48346,5.3738 -1.20266,-0.40149 0.48713,3.42089 -1.12272,0.15988"
       id="path84"
       style="stroke-width:1.21211" />
    <path
       clip-path="url(#p76da2bbaad)"
       d="m 316.75663,269.21451 0.0345,-4.45509 -1.13841,0.55821 1.74499,-5.65688 1.65705,5.68326 -1.12961,-0.5758 -0.0345,4.4551 -1.13401,-0.009"
       id="path86"
       style="stroke-width:1.21211" />
    <path
       clip-path="url(#p76da2bbaad)"
       d="m 332.99388,269.14731 0.71039,-5.58081 -1.19657,0.41929 2.40346,-5.41006 0.97145,5.83966 -1.05337,-0.70569 -0.71039,5.58081 -1.12497,-0.1432"
       id="path88"
       style="stroke-width:1.21211" />
    <path
       clip-path="url(#p76da2bbaad)"
       d="m 349.23586,269.09459 1.51662,-6.74914 -1.23077,0.30459 2.90285,-5.15933 0.41651,5.90524 -0.98214,-0.80187 -1.51661,6.74915 -1.10646,-0.24864"
       id="path90"
       style="stroke-width:1.21211" />
    <path
       clip-path="url(#p76da2bbaad)"
       d="m 365.47956,269.05317 2.42454,-7.93285 -1.25025,0.2108 3.28412,-4.92543 -0.0306,5.91983 -0.91879,-0.87373 -2.42455,7.93285 -1.08452,-0.33147"
       id="path92"
       style="stroke-width:1.21211" />
    <path
       clip-path="url(#p76da2bbaad)"
       d="m 106.47483,256.23044 -10.821278,3.54773 0.892098,0.90096 -5.918001,0.15005 4.858125,-3.38288 -0.185514,1.25425 10.82128,-3.54772 0.35329,1.07761"
       id="path102"
       style="stroke-width:1.21211" />
    <path
       clip-path="url(#p76da2bbaad)"
       d="m 122.68462,256.23743 -9.47772,2.66915 0.85321,0.93787 -5.91905,-0.10029 4.9968,-3.17446 -0.23838,1.24529 9.47772,-2.66915 0.30742,1.09159"
       id="path104"
       style="stroke-width:1.21211" />
    <path
       clip-path="url(#p76da2bbaad)"
       d="m 138.88882,256.24467 -8.13189,1.8408 0.80341,0.98087 -5.90588,-0.4072 5.15475,-2.91099 -0.30265,1.23126 8.13189,-1.84081 0.25037,1.10607"
       id="path106"
       style="stroke-width:1.21211" />
    <path
       clip-path="url(#p76da2bbaad)"
       d="m 155.08548,256.25161 -6.7887,1.08041 0.73821,1.03084 -5.86712,-0.78874 5.33241,-2.57113 -0.38174,1.20908 6.7887,-1.08041 0.17824,1.11995"
       id="path108"
       style="stroke-width:1.21211" />
    <path
       clip-path="url(#p76da2bbaad)"
       d="m 171.27184,256.25705 -5.45913,0.41273 0.65091,1.08807 -5.78235,-1.26875 5.52586,-2.12371 -0.47991,1.17357 5.45912,-0.41273 0.0855,1.13082"
       id="path110"
       style="stroke-width:1.21211" />
    <path
       clip-path="url(#p76da2bbaad)"
       d="m 187.44423,256.25839 -4.16638,-0.12929 0.53158,1.15109 -5.61475,-1.87611 5.72027,-1.52439 -0.60192,1.11591 4.16638,0.12928 -0.0352,1.13351"
       id="path112"
       style="stroke-width:1.21211" />
    <path
       clip-path="url(#p76da2bbaad)"
       d="m 203.5985,256.25047 -2.95698,-0.5082 0.36675,1.21371 -5.30018,-2.63692 5.87643,-0.71607 -0.75091,1.02162 2.95698,0.5082 -0.19209,1.11766"
       id="path114"
       style="stroke-width:1.21211" />
    <path
       clip-path="url(#p76da2bbaad)"
       d="m 219.73215,256.22403 -1.91421,-0.70154 0.14216,1.25991 -4.73861,-3.54836 5.90931,0.35399 -0.92263,0.86967 1.91422,0.70154 -0.39024,1.06479"
       id="path116"
       style="stroke-width:1.21211" />
    <path
       clip-path="url(#p76da2bbaad)"
       d="m 235.84998,256.1664 -1.15222,-0.75241 -0.14529,1.25956 -3.81757,-4.52453 5.67772,1.67594 -1.09482,0.63951 1.15222,0.7524 -0.62004,0.94953"
       id="path118"
       style="stroke-width:1.21211" />
    <path
       clip-path="url(#p76da2bbaad)"
       d="m 251.97033,256.06992 -0.73984,-0.8261 -0.4665,1.17896 -2.51568,-5.35878 5.05004,3.08906 -1.22307,0.33418 0.73984,0.82611 -0.84479,0.75657"
       id="path120"
       style="stroke-width:1.21211" />
    <path
       clip-path="url(#p76da2bbaad)"
       d="m 268.11856,255.94574 -0.57678,-1.15057 -0.75969,1.01511 -1.02038,-5.8313 4.06177,4.30666 -1.26791,0.001 0.57678,1.15058 -1.01379,0.50821"
       id="path122"
       style="stroke-width:1.21211" />
    <path
       clip-path="url(#p76da2bbaad)"
       d="m 284.30594,255.82024 -0.42559,-1.82746 -0.97588,0.80946 0.37065,-5.90828 2.94282,5.13663 -1.2331,-0.29503 0.42559,1.82747 -1.10449,0.25721"
       id="path124"
       style="stroke-width:1.21211" />
    <path
       clip-path="url(#p76da2bbaad)"
       d="m 300.5243,255.71337 -0.10676,-2.78323 -1.11148,0.61007 1.48247,-5.73127 1.91717,5.60086 -1.15495,-0.52313 0.10677,2.78323 -1.13322,0.0435"
       id="path126"
       style="stroke-width:1.21211" />
    <path
       clip-path="url(#p76da2bbaad)"
       d="m 316.75996,255.63014 0.42486,-3.8946 -1.18885,0.4407 2.30596,-5.45232 1.07612,5.82127 -1.06587,-0.68666 -0.42486,3.8946 -1.12736,-0.12299"
       id="path128"
       style="stroke-width:1.21211" />
    <path
       clip-path="url(#p76da2bbaad)"
       d="m 333.00314,255.56732 1.14012,-5.07369 -1.23078,0.3046 2.90286,-5.15933 0.41651,5.90523 -0.98214,-0.80186 -1.14012,5.07368 -1.10645,-0.24863"
       id="path130"
       style="stroke-width:1.21211" />
    <path
       clip-path="url(#p76da2bbaad)"
       d="m 349.2487,255.5199 1.994,-6.27425 -1.25252,0.19691 3.33857,-4.88868 -0.0962,5.91912 -0.90904,-0.88387 -1.994,6.27425 -1.08078,-0.34348"
       id="path132"
       style="stroke-width:1.21211" />
    <path
       clip-path="url(#p76da2bbaad)"
       d="m 365.49433,255.48361 2.9481,-7.47541 -1.263,0.11144 3.66272,-4.65078 -0.4978,5.89893 -0.84695,-0.94353 -2.9481,7.4754 -1.05497,-0.41605"
       id="path134"
       style="stroke-width:1.21211" />
    <path
       clip-path="url(#p76da2bbaad)"
       d="m 106.50325,242.69301 -10.008557,3.88239 0.938774,0.85222 -5.901634,0.46472 4.671244,-3.63658 -0.118514,1.26235 10.008557,-3.88239 0.41013,1.05729"
       id="path144"
       style="stroke-width:1.21211" />
    <path
       clip-path="url(#p76da2bbaad)"
       d="m 122.7155,242.7005 -8.66043,2.98168 0.90531,0.88769 -5.91514,0.23745 4.80762,-3.45427 -0.16696,1.25686 8.66042,-2.98168 0.36918,1.07227"
       id="path146"
       style="stroke-width:1.21211" />
    <path
       clip-path="url(#p76da2bbaad)"
       d="m 138.92233,242.70873 -7.30571,2.12972 0.86175,0.93004 -5.91972,-0.0462 4.96757,-3.22 -0.22698,1.24742 7.30571,-2.12972 0.31738,1.08873"
       id="path148"
       style="stroke-width:1.21211" />
    <path
       clip-path="url(#p76da2bbaad)"
       d="m 155.12155,242.71739 -5.94703,1.34622 0.80341,0.98088 -5.90588,-0.40721 5.15475,-2.91098 -0.30265,1.23125 5.94702,-1.34622 0.25038,1.10606"
       id="path150"
       style="stroke-width:1.21211" />
    <path
       clip-path="url(#p76da2bbaad)"
       d="m 171.30986,242.7256 -4.59246,0.66094 0.72279,1.04171 -5.85473,-0.87599 5.37009,-2.49145 -0.39969,1.20325 4.59246,-0.66094 0.16154,1.12248"
       id="path152"
       style="stroke-width:1.21211" />
    <path
       clip-path="url(#p76da2bbaad)"
       d="m 187.48234,242.73102 -3.26308,0.11817 0.60769,1.11279 -5.72809,-1.49474 5.60496,-1.90518 -0.52561,1.15383 3.26309,-0.11818 0.041,1.13331"
       id="path154"
       style="stroke-width:1.21211" />
    <path
       clip-path="url(#p76da2bbaad)"
       d="m 203.6323,242.72796 -2.00989,-0.22197 0.43911,1.18944 -5.44925,-2.31321 5.8227,-1.06837 -0.68808,1.06495 2.0099,0.22197 -0.12449,1.12719"
       id="path156"
       style="stroke-width:1.21211" />
    <path
       clip-path="url(#p76da2bbaad)"
       d="m 219.75356,242.70412 -0.94377,-0.30374 0.19233,1.25324 -4.87644,-3.35642 5.91873,0.11786 -0.88719,0.90581 0.94377,0.30373 -0.34743,1.07952"
       id="path158"
       style="stroke-width:1.21211" />
    <path
       clip-path="url(#p76da2bbaad)"
       d="m 235.86478,242.61645 -0.45209,-0.29521 -0.13835,1.1994 -3.63526,-4.30846 5.40657,1.59591 -1.04252,0.60896 0.45209,0.29522 -0.59044,0.90418"
       id="path160"
       style="stroke-width:1.21211" />
    <path
       clip-path="url(#p76da2bbaad)"
       d="m 251.98901,242.48839 -0.32403,-0.40372 -0.48341,1.05176 -2.02908,-5.00927 4.4514,3.06513 -1.13147,0.24433 0.32403,0.40372 -0.80744,0.64805"
       id="path162"
       style="stroke-width:1.21211" />
    <path
       clip-path="url(#p76da2bbaad)"
       d="m 268.11323,242.36032 -0.19595,-0.51222 -0.82849,0.90413 -0.42289,-5.71009 3.49622,4.53436 -1.2204,-0.12031 0.19596,0.51222 -1.02445,0.39191"
       id="path164"
       style="stroke-width:1.21211" />
    <path
       clip-path="url(#p76da2bbaad)"
       d="m 284.29452,242.22601 -0.12406,-1.13428 -1.06567,0.68696 1.07451,-5.82157 2.30746,5.45169 -1.18897,-0.44037 0.12406,1.13428 -1.12733,0.12329"
       id="path166"
       style="stroke-width:1.21211" />
    <path
       clip-path="url(#p76da2bbaad)"
       d="m 300.52581,242.11773 0.18208,-2.20634 -1.17685,0.47183 2.16167,-5.51112 1.22895,5.79094 -1.08357,-0.65838 -0.18208,2.20634 -1.1302,-0.0933"
       id="path168"
       style="stroke-width:1.21211" />
    <path
       clip-path="url(#p76da2bbaad)"
       d="m 316.77041,242.04005 0.76362,-3.39823 -1.23077,0.30459 2.90286,-5.15933 0.41651,5.90523 -0.98214,-0.80186 -0.76363,3.39823 -1.10645,-0.24863"
       id="path170"
       style="stroke-width:1.21211" />
    <path
       clip-path="url(#p76da2bbaad)"
       d="m 333.01859,241.98459 1.54521,-4.62236 -1.25531,0.17823 3.41103,-4.8384 -0.1844,5.91703 -0.89577,-0.89731 -1.54522,4.62236 -1.07554,-0.35955"
       id="path172"
       style="stroke-width:1.21211" />
    <path
       clip-path="url(#p76da2bbaad)"
       d="m 349.26655,241.94421 2.46242,-5.84448 -1.26524,0.0822 3.7692,-4.56491 -0.63396,5.88586 -0.82492,-0.96285 -2.46242,5.84447 -1.04508,-0.44031"
       id="path174"
       style="stroke-width:1.21211" />
    <path
       clip-path="url(#p76da2bbaad)"
       d="m 365.51306,241.91399 3.4712,-7.05354 -1.26788,0.008 4.02995,-4.33644 -0.97742,5.83866 -0.76714,-1.0095 -3.4712,7.05355 -1.01751,-0.50074"
       id="path176"
       style="stroke-width:1.21211" />
    <path
       clip-path="url(#p76da2bbaad)"
       d="m 106.53336,229.15305 -9.218577,4.20185 0.986302,0.79673 -5.865069,0.80387 4.454027,-3.8996 -0.04561,1.26709 9.218577,-4.20185 0.47035,1.03191"
       id="path186"
       style="stroke-width:1.21211" />
    <path
       clip-path="url(#p76da2bbaad)"
       d="m 122.74868,229.16063 -7.86965,3.27345 0.95908,0.82931 -5.88869,0.60709 4.58207,-3.74832 -0.088,1.26485 7.86965,-3.27346 0.43554,1.04708"
       id="path188"
       style="stroke-width:1.21211" />
    <path
       clip-path="url(#p76da2bbaad)"
       d="m 138.95903,229.16938 -6.51017,2.3898 0.92309,0.86919 -5.90912,0.35709 4.73674,-3.55085 -0.1415,1.25998 6.51017,-2.38979 0.39079,1.06458"
       id="path190"
       style="stroke-width:1.21211" />
    <path
       clip-path="url(#p76da2bbaad)"
       d="m 155.16214,229.17934 -5.13989,1.57137 0.87381,0.91872 -5.91983,0.031 4.92517,-3.28451 -0.2107,1.25028 5.13989,-1.57137 0.33155,1.0845"
       id="path192"
       style="stroke-width:1.21211" />
    <path
       clip-path="url(#p76da2bbaad)"
       d="m 171.35428,229.19012 -3.76217,0.85164 0.80341,0.98087 -5.90588,-0.40721 5.15475,-2.91098 -0.30265,1.23125 3.76216,-0.85163 0.25038,1.10606"
       id="path194"
       style="stroke-width:1.21211" />
    <path
       clip-path="url(#p76da2bbaad)"
       d="m 187.52925,229.20009 -2.39177,0.28646 0.69786,1.05857 -5.83229,-1.01472 5.42771,-2.36329 -0.42814,1.19343 2.39177,-0.28645 0.13486,1.126"
       id="path196"
       style="stroke-width:1.21211" />
    <path
       clip-path="url(#p76da2bbaad)"
       d="m 203.67696,229.20384 -1.07733,-0.0334 0.53158,1.15109 -5.61476,-1.87612 5.72027,-1.52439 -0.60192,1.11592 1.07733,0.0334 -0.0352,1.1335"
       id="path198"
       style="stroke-width:1.21211" />
    <path
       clip-path="url(#p76da2bbaad)"
       d="m 219.7996,229.12683 -0.48974,-0.12767 0.23439,1.10715 -4.51439,-2.74595 5.28043,-0.19249 -0.74509,0.85181 0.48974,0.12767 -0.25534,0.97948"
       id="path200"
       style="stroke-width:1.21211" />
    <path
       clip-path="url(#p76da2bbaad)"
       d="m 235.92382,228.99876 -0.36167,-0.23617 -0.11067,0.95952 -2.90821,-3.44677 4.32525,1.27673 -0.83402,0.48717 0.36167,0.23618 -0.47235,0.72334"
       id="path202"
       style="stroke-width:1.21211" />
    <path
       clip-path="url(#p76da2bbaad)"
       d="m 252.04805,228.8707 -0.23361,-0.34468 -0.45574,0.81189 -1.30203,-4.14759 3.37009,2.74595 -0.92296,0.12254 0.2336,0.34468 -0.68935,0.46721"
       id="path204"
       style="stroke-width:1.21211" />
    <path
       clip-path="url(#p76da2bbaad)"
       d="m 268.17228,228.74263 -0.10554,-0.45318 -0.80082,0.66425 0.30416,-4.8484 2.41491,4.21518 -1.01189,-0.24211 0.10553,0.45318 -0.90635,0.21108"
       id="path206"
       style="stroke-width:1.21211" />
    <path
       clip-path="url(#p76da2bbaad)"
       d="m 284.2965,228.61456 0.0225,-0.56168 -1.14589,0.51662 1.91035,-5.54922 1.45973,5.6844 -1.10083,-0.60674 -0.0225,0.56168 -1.12336,-0.0451"
       id="path208"
       style="stroke-width:1.21211" />
    <path
       clip-path="url(#p76da2bbaad)"
       d="m 300.53768,228.51277 0.38713,-1.72277 -1.23077,0.30459 2.90285,-5.15933 0.41651,5.90524 -0.98213,-0.80187 -0.38713,1.72278 -1.10646,-0.24864"
       id="path210"
       style="stroke-width:1.21211" />
    <path
       clip-path="url(#p76da2bbaad)"
       d="m 316.78977,228.44604 1.06717,-2.98204 -1.25878,0.15176 3.51214,-4.76552 -0.30894,5.91184 -0.87668,-0.91597 -1.06718,2.98203 -1.06773,-0.3821"
       id="path212"
       style="stroke-width:1.21211" />
    <path
       clip-path="url(#p76da2bbaad)"
       d="m 333.04093,228.40079 1.9406,-4.23293 -1.26718,0.0428 3.90936,-4.44546 -0.81674,5.86329 -0.79457,-0.98805 -1.9406,4.23292 -1.03087,-0.4726"
       id="path214"
       style="stroke-width:1.21211" />
    <path
       clip-path="url(#p76da2bbaad)"
       d="m 349.28956,228.36878 2.93327,-5.46113 -1.26736,-0.0371 4.18164,-4.19036 -1.18447,5.80019 -0.73075,-1.03614 -2.93327,5.46114 -0.99906,-0.53662"
       id="path216"
       style="stroke-width:1.21211" />
    <path
       clip-path="url(#p76da2bbaad)"
       d="m 365.53567,228.34524 4.00208,-6.66655 -1.26415,-0.0975 4.37692,-3.98595 -1.46002,5.73703 -0.68045,-1.06984 -4.00208,6.66656 -0.9723,-0.5837"
       id="path218"
       style="stroke-width:1.21211" />
    <path
       clip-path="url(#p76da2bbaad)"
       d="m 106.56495,215.61017 -8.454843,4.50789 1.033893,0.73393 -5.803801,1.16668 4.203167,-4.16877 0.0332,1.26747 8.454844,-4.5079 0.53354,1.0007"
       id="path228"
       style="stroke-width:1.21211" />
    <path
       clip-path="url(#p76da2bbaad)"
       d="m 122.78397,215.61724 -7.11053,3.54624 1.01355,0.76177 -5.83338,1.0084 4.31499,-4.05291 -0.001,1.2679 7.11053,-3.54624 0.50613,1.01484"
       id="path230"
       style="stroke-width:1.21211" />
    <path
       clip-path="url(#p76da2bbaad)"
       d="m 138.99881,215.62577 -5.75303,2.62225 0.9863,0.79674 -5.86507,0.80387 4.45403,-3.8996 -0.0456,1.26708 5.75303,-2.62225 0.47035,1.03191"
       id="path232"
       style="stroke-width:1.21211" />
    <path
       clip-path="url(#p76da2bbaad)"
       d="m 155.20732,215.63614 -4.37906,1.75518 0.94823,0.84169 -5.89607,0.5306 4.63034,-3.68853 -0.10441,1.2636 4.37906,-1.75518 0.42191,1.05264"
       id="path234"
       style="stroke-width:1.21211" />
    <path
       clip-path="url(#p76da2bbaad)"
       d="m 171.40574,215.64862 -2.98601,0.97896 0.8921,0.90097 -5.91801,0.15004 4.85813,-3.38288 -0.18551,1.25426 2.986,-0.97896 0.3533,1.07761"
       id="path236"
       style="stroke-width:1.21211" />
    <path
       clip-path="url(#p76da2bbaad)"
       d="m 187.58701,215.66285 -1.57731,0.35705 0.80341,0.98087 -5.90588,-0.4072 5.15475,-2.91098 -0.30265,1.23125 1.5773,-0.35705 0.25038,1.10606"
       id="path238"
       style="stroke-width:1.21211" />
    <path
       clip-path="url(#p76da2bbaad)"
       d="m 203.73442,215.63721 -0.52739,0.0399 0.60713,1.01491 -5.39352,-1.18344 5.15429,-1.9809 -0.44765,1.09465 0.52739,-0.0399 0.0797,1.05478"
       id="path240"
       style="stroke-width:1.21211" />
    <path
       clip-path="url(#p76da2bbaad)"
       d="m 219.85864,215.50914 -0.39932,-0.0686 0.26207,0.86728 -3.78735,-1.88426 4.19912,-0.51168 -0.53658,0.73002 0.39932,0.0686 -0.13726,0.79865"
       id="path242"
       style="stroke-width:1.21211" />
    <path
       clip-path="url(#p76da2bbaad)"
       d="m 235.98287,215.38107 -0.27126,-0.17713 -0.083,0.71964 -2.18116,-2.58507 3.24394,0.95754 -0.62551,0.36538 0.27125,0.17713 -0.35426,0.54251"
       id="path244"
       style="stroke-width:1.21211" />
    <path
       clip-path="url(#p76da2bbaad)"
       d="m 252.10709,215.253 -0.14318,-0.28563 -0.42808,0.57201 -0.57497,-3.28589 2.28877,2.42677 -0.71446,7.4e-4 0.14319,0.28563 -0.57127,0.28637"
       id="path246"
       style="stroke-width:1.21211" />
    <path
       clip-path="url(#p76da2bbaad)"
       d="m 268.23132,215.12494 -0.0151,-0.39414 -0.77315,0.42438 1.03121,-3.98671 1.3336,3.89599 -0.80339,-0.3639 0.0151,0.39414 -0.78827,0.0302"
       id="path248"
       style="stroke-width:1.21211" />
    <path
       clip-path="url(#p76da2bbaad)"
       d="m 284.35554,214.99687 0.11295,-0.50264 -1.11822,0.27674 2.6374,-4.68752 0.37842,5.36521 -0.89232,-0.72853 -0.11295,0.50264 -1.00528,-0.2259"
       id="path250"
       style="stroke-width:1.21211" />
    <path
       clip-path="url(#p76da2bbaad)"
       d="m 300.56342,214.90179 0.53793,-1.36402 -1.26299,0.11144 3.66272,-4.65078 -0.49781,5.89893 -0.84694,-0.94353 -0.53793,1.36401 -1.05498,-0.41605"
       id="path252"
       style="stroke-width:1.21211" />
    <path
       clip-path="url(#p76da2bbaad)"
       d="m 316.8191,214.85105 1.36197,-2.65557 -1.26783,-0.013 4.10124,-4.26908 -1.07402,5.82166 -0.75031,-1.02207 -1.36198,2.65558 -1.00907,-0.51753"
       id="path254"
       style="stroke-width:1.21211" />
    <path
       clip-path="url(#p76da2bbaad)"
       d="m 333.07021,214.81797 2.34491,-3.90608 -1.26415,-0.0975 4.37692,-3.98596 -1.46002,5.73704 -0.68045,-1.06985 -2.34491,3.90608 -0.9723,-0.58369"
       id="path256"
       style="stroke-width:1.21211" />
    <path
       clip-path="url(#p76da2bbaad)"
       d="m 349.31748,214.79501 3.41897,-5.12197 -1.25802,-0.158 4.56286,-3.77167 -1.73321,5.6605 -0.62841,-1.10122 -3.41897,5.12197 -0.94322,-0.62961"
       id="path258"
       style="stroke-width:1.21211" />
    <path
       clip-path="url(#p76da2bbaad)"
       d="m 365.56182,214.77828 4.54901,-6.31151 -1.25153,-0.20309 4.6954,-3.60533 -1.93543,5.59458 -0.58845,-1.12308 -4.54901,6.31151 -0.91999,-0.66308"
       id="path260"
       style="stroke-width:1.21211" />
    <path
       clip-path="url(#p76da2bbaad)"
       d="m 106.59772,202.064 -7.720747,4.80347 1.080521,0.66336 -5.713112,1.551 3.915902,-4.4397 0.117619,1.26243 7.720747,-4.80347 0.59907,0.96291"
       id="path270"
       style="stroke-width:1.21211" />
    <path
       clip-path="url(#p76da2bbaad)"
       d="m 122.82099,202.06975 -6.38827,3.80355 1.06737,0.68433 -5.7423,1.43918 4.00182,-4.36242 0.093,1.26449 6.38827,-3.80354 0.58016,0.97441"
       id="path272"
       style="stroke-width:1.21211" />
    <path
       clip-path="url(#p76da2bbaad)"
       d="m 139.04122,202.07698 -5.04255,2.83099 1.0496,0.71128 -5.77708,1.29254 4.11157,-4.25914 0.0607,1.26645 5.04255,-2.83099 0.55517,0.98887"
       id="path274"
       style="stroke-width:1.21211" />
    <path
       clip-path="url(#p76da2bbaad)"
       d="m 155.25671,202.08627 -3.67827,1.9011 1.02442,0.7471 -5.81826,1.0923 4.25618,-4.11463 0.017,1.26779 3.67827,-1.90111 0.52069,1.00745"
       id="path276"
       style="stroke-width:1.21211" />
    <path
       clip-path="url(#p76da2bbaad)"
       d="m 171.46426,202.0985 -2.28749,1.04264 0.98631,0.79674 -5.86507,0.80387 4.45403,-3.8996 -0.0456,1.26708 2.28749,-1.04264 0.47034,1.03191"
       id="path278"
       style="stroke-width:1.21211" />
    <path
       clip-path="url(#p76da2bbaad)"
       d="m 187.65722,202.11484 -0.85977,0.31561 0.92309,0.86919 -5.90913,0.35709 4.73674,-3.55085 -0.1415,1.25998 0.85977,-0.31561 0.3908,1.06459"
       id="path280"
       style="stroke-width:1.21211" />
    <path
       clip-path="url(#p76da2bbaad)"
       d="m 203.79346,202.01952 -0.43697,0.0989 0.6348,0.77503 -4.66647,-0.32175 4.07297,-2.30008 -0.23913,0.97286 0.43697,-0.0989 0.19783,0.87395"
       id="path282"
       style="stroke-width:1.21211" />
    <path
       clip-path="url(#p76da2bbaad)"
       d="m 219.91769,201.89145 -0.30891,-0.01 0.28974,0.6274 -3.06029,-1.02257 3.1178,-0.83086 -0.32808,0.60823 0.30891,0.01 -0.0192,0.61781"
       id="path284"
       style="stroke-width:1.21211" />
    <path
       clip-path="url(#p76da2bbaad)"
       d="m 236.04191,201.76338 -0.18083,-0.11809 -0.0553,0.47976 -1.45411,-1.72338 2.16263,0.63837 -0.41701,0.24358 0.18084,0.11809 -0.23618,0.36167"
       id="path286"
       style="stroke-width:1.21211" />
    <path
       clip-path="url(#p76da2bbaad)"
       d="m 252.16614,201.63531 -0.0528,-0.22659 -0.40041,0.33213 0.15208,-2.4242 1.20745,2.10759 -0.50594,-0.12105 0.0528,0.22659 -0.45318,0.10553"
       id="path288"
       style="stroke-width:1.21211" />
    <path
       clip-path="url(#p76da2bbaad)"
       d="m 268.29036,201.50725 0.0753,-0.3351 -0.74548,0.1845 1.75827,-3.12502 0.25228,3.57681 -0.59489,-0.48569 -0.0753,0.33509 -0.67019,-0.15059"
       id="path290"
       style="stroke-width:1.21211" />
    <path
       clip-path="url(#p76da2bbaad)"
       d="m 284.41459,201.37918 0.20337,-0.4436 -1.09056,0.0369 3.36445,-3.82583 -0.70289,5.04604 -0.68382,-0.85033 -0.20336,0.44359 -0.88719,-0.40673"
       id="path292"
       style="stroke-width:1.21211" />
    <path
       clip-path="url(#p76da2bbaad)"
       d="m 300.60476,201.2907 0.68773,-1.14561 -1.26415,-0.0975 4.37692,-3.98596 -1.46002,5.73704 -0.68045,-1.06984 -0.68773,1.1456 -0.9723,-0.58369"
       id="path294"
       style="stroke-width:1.21211" />
    <path
       clip-path="url(#p76da2bbaad)"
       d="m 316.85815,201.25876 1.68095,-2.41659 -1.25476,-0.18209 4.63433,-3.68351 -1.84141,5.62623 -0.60719,-1.11306 -1.68095,2.41659 -0.93097,-0.64757"
       id="path296"
       style="stroke-width:1.21211" />
    <path
       clip-path="url(#p76da2bbaad)"
       d="m 333.10578,201.23831 2.77764,-3.63577 -1.24539,-0.23789 4.79404,-3.4731 -2.09056,5.53849 -0.55693,-1.13904 -2.77764,3.63578 -0.90116,-0.68847"
       id="path298"
       style="stroke-width:1.21211" />
    <path
       clip-path="url(#p76da2bbaad)"
       d="m 349.34965,201.2242 3.93132,-4.82105 -1.23722,-0.27724 4.90173,-3.31938 -2.26509,5.46943 -0.52054,-1.15612 -3.93132,4.82105 -0.87888,-0.71669"
       id="path300"
       style="stroke-width:1.21211" />
    <path
       clip-path="url(#p76da2bbaad)"
       d="m 365.59097,201.21391 5.1194,-5.98342 -1.23032,-0.30641 4.97883,-3.20257 -2.39376,5.41435 -0.49306,-1.16811 -5.1194,5.98343 -0.86169,-0.73727"
       id="path302"
       style="stroke-width:1.21211" />
    <path
       clip-path="url(#p76da2bbaad)"
       d="m 106.63118,188.51422 -7.019106,5.09278 1.124936,0.5849 -5.588445,1.95309 3.590482,-4.70677 0.20704,1.25089 7.019103,-5.09278 0.66599,0.91789"
       id="path312"
       style="stroke-width:1.21211" />
    <path
       clip-path="url(#p76da2bbaad)"
       d="m 122.8591,188.51766 -5.70741,4.05097 1.11877,0.59659 -5.60849,1.89475 3.63934,-4.6691 0.19399,1.25298 5.70742,-4.05097 0.65638,0.92478"
       id="path314"
       style="stroke-width:1.21211" />
    <path
       clip-path="url(#p76da2bbaad)"
       d="m 139.08543,188.52214 -4.38648,3.02349 1.11046,0.61193 -5.63403,1.81739 3.70324,-4.61857 0.17673,1.25553 4.38649,-3.0235 0.64359,0.93373"
       id="path316"
       style="stroke-width:1.21211" />
    <path
       clip-path="url(#p76da2bbaad)"
       d="m 155.30923,188.52817 -3.05151,2.01887 1.09862,0.63292 -5.66756,1.70997 3.79037,-4.54734 0.15283,1.25865 3.05152,-2.01886 0.62573,0.94579"
       id="path318"
       style="stroke-width:1.21211" />
    <path
       clip-path="url(#p76da2bbaad)"
       d="m 171.52863,188.53672 -1.69385,1.05383 1.08052,0.66337 -5.71311,1.551 3.9159,-4.43971 0.11762,1.26244 1.69385,-1.05383 0.59907,0.9629"
       id="path320"
       style="stroke-width:1.21211" />
    <path
       clip-path="url(#p76da2bbaad)"
       d="m 187.72828,188.52989 -0.47462,0.26647 1.00754,0.68278 -5.5456,1.24076 3.94683,-4.08849 0.0583,1.2157 0.47463,-0.26646 0.53292,0.94924"
       id="path322"
       style="stroke-width:1.21211" />
    <path
       clip-path="url(#p76da2bbaad)"
       d="m 203.85251,188.40183 -0.34656,0.15796 0.66248,0.53514 -3.93943,0.53995 2.99166,-2.61927 -0.0306,0.85107 0.34655,-0.15796 0.31593,0.69311"
       id="path324"
       style="stroke-width:1.21211" />
    <path
       clip-path="url(#p76da2bbaad)"
       d="m 219.97673,188.27376 -0.21849,0.0495 0.31741,0.38751 -2.33324,-0.16087 2.03649,-1.15005 -0.11957,0.48643 0.21848,-0.0494 0.0989,0.43697"
       id="path326"
       style="stroke-width:1.21211" />
    <path
       clip-path="url(#p76da2bbaad)"
       d="m 235.68524,187.74525 -0.0311,0.56617 0.47476,0.31002 0.50587,-0.25614 0.0311,-0.56617 -0.47476,-0.31003 -0.50587,0.25615 -0.0311,0.56617"
       id="path328"
       style="stroke-width:1.21211" />
    <path
       clip-path="url(#p76da2bbaad)"
       d="m 252.22518,188.01762 0.0377,-0.16754 -0.37274,0.0922 0.87913,-1.5625 0.12614,1.7884 -0.29744,-0.24284 -0.0376,0.16754 -0.33509,-0.0753"
       id="path330"
       style="stroke-width:1.21211" />
    <path
       clip-path="url(#p76da2bbaad)"
       d="m 268.34941,187.88955 0.16571,-0.27604 -0.71781,-0.0554 2.48532,-2.26332 -0.82903,3.25762 -0.38638,-0.60748 -0.16572,0.27605 -0.55209,-0.33144"
       id="path332"
       style="stroke-width:1.21211" />
    <path
       clip-path="url(#p76da2bbaad)"
       d="m 284.47363,187.76149 0.29379,-0.38455 -1.06289,-0.20302 4.09151,-2.96414 -1.78421,4.72685 -0.47531,-0.97212 -0.29379,0.38455 -0.7691,-0.58757"
       id="path334"
       style="stroke-width:1.21211" />
    <path
       clip-path="url(#p76da2bbaad)"
       d="m 300.66006,187.68664 0.90087,-1.0529 -1.23033,-0.30642 4.97884,-3.20256 -2.39376,5.41434 -0.49306,-1.1681 -0.90087,1.0529 -0.86169,-0.73726"
       id="path336"
       style="stroke-width:1.21211" />
    <path
       clip-path="url(#p76da2bbaad)"
       d="m 316.90513,187.67269 2.05596,-2.249 -1.21959,-0.34666 5.08135,-3.03729 -2.57032,5.33279 -0.45443,-1.18367 -2.05596,2.249 -0.83701,-0.76517"
       id="path338"
       style="stroke-width:1.21211" />
    <path
       clip-path="url(#p76da2bbaad)"
       d="m 333.14626,187.66369 3.25568,-3.40966 -1.21178,-0.37306 5.14609,-2.92625 -2.68549,5.27573 -0.42862,-1.19326 -3.25568,3.40966 -0.8202,-0.78316"
       id="path340"
       style="stroke-width:1.21211" />
    <path
       clip-path="url(#p76da2bbaad)"
       d="m 349.38507,187.65742 4.47993,-4.5494 -1.20589,-0.39168 5.19055,-2.84664 -2.76644,5.23374 -0.41018,-1.19972 -4.47993,4.5494 -0.80804,-0.7957"
       id="path342"
       style="stroke-width:1.21211" />
    <path
       clip-path="url(#p76da2bbaad)"
       d="m 365.6224,187.65281 5.71906,-5.67581 -1.20131,-0.40551 5.22292,-2.78681 -2.82639,5.20161 -0.39638,-1.20435 -5.71906,5.6758 -0.79884,-0.80493"
       id="path344"
       style="stroke-width:1.21211" />
    <path
       clip-path="url(#p76da2bbaad)"
       d="m 106.66472,174.96063 -6.35177,5.38135 1.1657,0.49873 -5.425901,2.36745 3.2267,-4.96323 0.300438,1.23179 6.351763,-5.38135 0.73307,0.86526"
       id="path354"
       style="stroke-width:1.21211" />
    <path
       clip-path="url(#p76da2bbaad)"
       d="m 122.89744,174.96063 -5.07108,4.29633 1.1657,0.49873 -5.42591,2.36745 3.22671,-4.96323 0.30043,1.23179 5.07109,-4.29633 0.73306,0.86526"
       id="path356"
       style="stroke-width:1.21211" />
    <path
       clip-path="url(#p76da2bbaad)"
       d="m 139.13017,174.96063 -3.7904,3.21131 1.16569,0.49873 -5.4259,2.36745 3.2267,-4.96323 0.30044,1.23179 3.7904,-3.21131 0.73307,0.86526"
       id="path358"
       style="stroke-width:1.21211" />
    <path
       clip-path="url(#p76da2bbaad)"
       d="m 155.3629,174.96063 -2.50973,2.12629 1.1657,0.49873 -5.4259,2.36745 3.2267,-4.96323 0.30044,1.23179 2.50972,-2.12629 0.73307,0.86526"
       id="path360"
       style="stroke-width:1.21211" />
    <path
       clip-path="url(#p76da2bbaad)"
       d="m 171.59562,174.96063 -1.22904,1.04127 1.1657,0.49873 -5.42591,2.36745 3.2267,-4.96323 0.30044,1.23179 1.22905,-1.04127 0.73306,0.86526"
       id="path362"
       style="stroke-width:1.21211" />
    <path
       clip-path="url(#p76da2bbaad)"
       d="m 187.78732,174.9122 -0.3842,0.32551 1.03522,0.4429 -4.81856,2.10245 2.86552,-4.40767 0.26681,1.09391 0.3842,-0.3255 0.65101,0.7684"
       id="path364"
       style="stroke-width:1.21211" />
    <path
       clip-path="url(#p76da2bbaad)"
       d="m 203.91155,174.78414 -0.25614,0.217 0.69015,0.29527 -3.21237,1.40163 1.91034,-2.93845 0.17788,0.72928 0.25613,-0.21701 0.43401,0.51228"
       id="path366"
       style="stroke-width:1.21211" />
    <path
       clip-path="url(#p76da2bbaad)"
       d="m 220.03577,174.65607 -0.12806,0.1085 0.34507,0.14763 -1.60619,0.70082 0.95518,-1.46922 0.0889,0.36463 0.12807,-0.1085 0.217,0.25614"
       id="path368"
       style="stroke-width:1.21211" />
    <path
       clip-path="url(#p76da2bbaad)"
       d="m 236.72702,174.528 -0.28351,-0.49106 h -0.56702 l -0.28351,0.49106 0.28351,0.49106 h 0.56702 l 0.28351,-0.49106 -0.28351,-0.49106"
       id="path370"
       style="stroke-width:1.21211" />
    <path
       clip-path="url(#p76da2bbaad)"
       d="m 252.28422,174.39993 0.12807,-0.1085 -0.34507,-0.14763 1.60619,-0.70082 -0.95518,1.46922 -0.0889,-0.36463 -0.12807,0.1085 -0.21701,-0.25614"
       id="path372"
       style="stroke-width:1.21211" />
    <path
       clip-path="url(#p76da2bbaad)"
       d="m 268.40845,174.27186 0.25614,-0.217 -0.69015,-0.29527 3.21237,-1.40163 -1.91034,2.93845 -0.17788,-0.72928 -0.25613,0.21701 -0.43401,-0.51228"
       id="path374"
       style="stroke-width:1.21211" />
    <path
       clip-path="url(#p76da2bbaad)"
       d="m 284.53268,174.1438 0.3842,-0.32551 -1.03522,-0.4429 4.81856,-2.10245 -2.86552,4.40767 -0.26681,-1.09391 -0.3842,0.3255 -0.65101,-0.7684"
       id="path376"
       style="stroke-width:1.21211" />
    <path
       clip-path="url(#p76da2bbaad)"
       d="m 300.72437,174.09537 1.22905,-1.04127 -1.1657,-0.49873 5.42591,-2.36745 -3.22671,4.96323 -0.30043,-1.23179 -1.22905,1.04127 -0.73307,-0.86526"
       id="path378"
       style="stroke-width:1.21211" />
    <path
       clip-path="url(#p76da2bbaad)"
       d="m 316.9571,174.09537 2.50973,-2.12629 -1.1657,-0.49873 5.4259,-2.36745 -3.2267,4.96323 -0.30044,-1.23179 -2.50972,2.12629 -0.73307,-0.86526"
       id="path380"
       style="stroke-width:1.21211" />
    <path
       clip-path="url(#p76da2bbaad)"
       d="m 333.18983,174.09537 3.7904,-3.21131 -1.1657,-0.49873 5.42591,-2.36745 -3.2267,4.96323 -0.30044,-1.23179 -3.7904,3.21131 -0.73307,-0.86526"
       id="path382"
       style="stroke-width:1.21211" />
    <path
       clip-path="url(#p76da2bbaad)"
       d="m 349.42256,174.09537 5.07108,-4.29633 -1.1657,-0.49873 5.4259,-2.36745 -3.22669,4.96323 -0.30044,-1.23179 -5.07109,4.29633 -0.73306,-0.86526"
       id="path384"
       style="stroke-width:1.21211" />
    <path
       clip-path="url(#p76da2bbaad)"
       d="m 365.65528,174.09537 6.35177,-5.38135 -1.1657,-0.49873 5.4259,-2.36745 -3.2267,4.96323 -0.30044,-1.23179 -6.35176,5.38135 -0.73307,-0.86526"
       id="path386"
       style="stroke-width:1.21211" />
    <path
       clip-path="url(#p76da2bbaad)"
       d="m 106.6976,161.40319 -5.71906,5.6758 1.20131,0.40552 -5.222918,2.78681 2.826391,-5.20161 0.396377,1.20435 5.71906,-5.6758 0.79884,0.80493"
       id="path396"
       style="stroke-width:1.21211" />
    <path
       clip-path="url(#p76da2bbaad)"
       d="m 122.93493,161.39858 -4.47993,4.5494 1.20589,0.39168 -5.19055,2.84664 2.76644,-5.23374 0.41018,1.19972 4.47993,-4.5494 0.80804,0.7957"
       id="path398"
       style="stroke-width:1.21211" />
    <path
       clip-path="url(#p76da2bbaad)"
       d="m 139.17374,161.39231 -3.25568,3.40966 1.21178,0.37305 -5.1461,2.92626 2.6855,-5.27573 0.42862,1.19326 3.25568,-3.40966 0.8202,0.78316"
       id="path400"
       style="stroke-width:1.21211" />
    <path
       clip-path="url(#p76da2bbaad)"
       d="m 155.41487,161.38331 -2.05596,2.249 1.21959,0.34666 -5.08135,3.03729 2.57032,-5.33279 0.45443,1.18367 2.05596,-2.249 0.83701,0.76517"
       id="path402"
       style="stroke-width:1.21211" />
    <path
       clip-path="url(#p76da2bbaad)"
       d="m 171.65994,161.36936 -0.90087,1.0529 1.23032,0.30642 -4.97883,3.20256 2.39376,-5.41434 0.49306,1.1681 0.90086,-1.0529 0.8617,0.73726"
       id="path404"
       style="stroke-width:1.21211" />
    <path
       clip-path="url(#p76da2bbaad)"
       d="m 187.84637,161.29451 -0.29379,0.38455 1.06289,0.20302 -4.09151,2.96414 1.78421,-4.72685 0.47531,0.97212 0.29379,-0.38455 0.7691,0.58757"
       id="path406"
       style="stroke-width:1.21211" />
    <path
       clip-path="url(#p76da2bbaad)"
       d="m 203.97059,161.16644 -0.16571,0.27605 0.71781,0.0554 -2.48532,2.26332 0.82903,-3.25763 0.38638,0.60749 0.16572,-0.27605 0.55209,0.33143"
       id="path408"
       style="stroke-width:1.21211" />
    <path
       clip-path="url(#p76da2bbaad)"
       d="m 220.09482,161.03838 -0.0376,0.16754 0.37274,-0.0922 -0.87913,1.5625 -0.12614,-1.7884 0.29744,0.24284 0.0376,-0.16754 0.33509,0.0753"
       id="path410"
       style="stroke-width:1.21211" />
    <path
       clip-path="url(#p76da2bbaad)"
       d="m 236.63476,161.31075 0.0311,-0.56617 -0.47476,-0.31002 -0.50587,0.25614 -0.0311,0.56617 0.47476,0.31003 0.50587,-0.25615 0.0311,-0.56617"
       id="path412"
       style="stroke-width:1.21211" />
    <path
       clip-path="url(#p76da2bbaad)"
       d="m 252.34327,160.78224 0.21848,-0.0495 -0.3174,-0.38751 2.33324,0.16087 -2.03649,1.15005 0.11957,-0.48644 -0.21848,0.0495 -0.0989,-0.43697"
       id="path414"
       style="stroke-width:1.21211" />
    <path
       clip-path="url(#p76da2bbaad)"
       d="m 268.46749,160.65417 0.34656,-0.15796 -0.66248,-0.53515 3.93943,-0.53994 -2.99167,2.61927 0.0306,-0.85107 -0.34656,0.15796 -0.31592,-0.69311"
       id="path416"
       style="stroke-width:1.21211" />
    <path
       clip-path="url(#p76da2bbaad)"
       d="m 284.59172,160.5261 0.47462,-0.26646 -1.00755,-0.68278 5.54561,-1.24076 -3.94683,4.08849 -0.0583,-1.2157 -0.47463,0.26646 -0.53292,-0.94925"
       id="path418"
       style="stroke-width:1.21211" />
    <path
       clip-path="url(#p76da2bbaad)"
       d="m 300.79137,160.51928 1.69385,-1.05383 -1.08052,-0.66337 5.71311,-1.551 -3.9159,4.43971 -0.11762,-1.26244 -1.69385,1.05383 -0.59907,-0.9629"
       id="path420"
       style="stroke-width:1.21211" />
    <path
       clip-path="url(#p76da2bbaad)"
       d="m 317.01077,160.52783 3.05151,-2.01887 -1.09862,-0.63292 5.66755,-1.70998 -3.79036,4.54735 -0.15284,-1.25865 -3.05151,2.01886 -0.62573,-0.94579"
       id="path422"
       style="stroke-width:1.21211" />
    <path
       clip-path="url(#p76da2bbaad)"
       d="m 333.23456,160.53386 4.38649,-3.0235 -1.11046,-0.61193 5.63403,-1.81739 -3.70324,4.61858 -0.17674,-1.25553 -4.38648,3.0235 -0.6436,-0.93373"
       id="path424"
       style="stroke-width:1.21211" />
    <path
       clip-path="url(#p76da2bbaad)"
       d="m 349.4609,160.53834 5.70741,-4.05097 -1.11877,-0.59659 5.60849,-1.89476 -3.63934,4.6691 -0.19399,-1.25297 -5.70742,4.05097 -0.65638,-0.92478"
       id="path426"
       style="stroke-width:1.21211" />
    <path
       clip-path="url(#p76da2bbaad)"
       d="m 365.68882,160.54178 7.01911,-5.09278 -1.12494,-0.5849 5.58844,-1.9531 -3.59048,4.70678 -0.20704,-1.25089 -7.0191,5.09278 -0.66599,-0.91789"
       id="path428"
       style="stroke-width:1.21211" />
    <path
       clip-path="url(#p76da2bbaad)"
       d="m 106.72903,147.84208 -5.1194,5.98343 1.23032,0.30641 -4.978835,3.20257 2.393765,-5.41435 0.49306,1.16811 5.1194,-5.98343 0.86169,0.73726"
       id="path438"
       style="stroke-width:1.21211" />
    <path
       clip-path="url(#p76da2bbaad)"
       d="m 122.97035,147.8318 -3.93132,4.82105 1.23722,0.27724 -4.90173,3.31938 2.26509,-5.46943 0.52054,1.15612 3.93132,-4.82105 0.87888,0.71669"
       id="path440"
       style="stroke-width:1.21211" />
    <path
       clip-path="url(#p76da2bbaad)"
       d="m 139.21422,147.81768 -2.77764,3.63578 1.24539,0.23789 -4.79404,3.4731 2.09056,-5.53849 0.55693,1.13904 2.77764,-3.63578 0.90116,0.68846"
       id="path442"
       style="stroke-width:1.21211" />
    <path
       clip-path="url(#p76da2bbaad)"
       d="m 155.46185,147.79724 -1.68095,2.41659 1.25476,0.18209 -4.63433,3.68351 1.84141,-5.62623 0.60719,1.11306 1.68095,-2.41659 0.93097,0.64757"
       id="path444"
       style="stroke-width:1.21211" />
    <path
       clip-path="url(#p76da2bbaad)"
       d="m 171.71524,147.7653 -0.68773,1.14561 1.26414,0.0975 -4.37691,3.98596 1.46002,-5.73704 0.68045,1.06984 0.68773,-1.1456 0.9723,0.58369"
       id="path446"
       style="stroke-width:1.21211" />
    <path
       clip-path="url(#p76da2bbaad)"
       d="m 187.90541,147.67682 -0.20337,0.44359 1.09056,-0.0368 -3.36445,3.82583 0.70289,-5.04604 0.68382,0.85033 0.20336,-0.44359 0.88719,0.40673"
       id="path448"
       style="stroke-width:1.21211" />
    <path
       clip-path="url(#p76da2bbaad)"
       d="m 204.02964,147.54875 -0.0753,0.33509 0.74548,-0.18449 -1.75827,3.12502 -0.25228,-3.57681 0.59488,0.48569 0.0753,-0.3351 0.67019,0.1506"
       id="path450"
       style="stroke-width:1.21211" />
    <path
       clip-path="url(#p76da2bbaad)"
       d="m 220.15386,147.42069 0.0528,0.22658 0.40041,-0.33212 -0.15208,2.4242 -1.20746,-2.10759 0.50595,0.12105 -0.0528,-0.22659 0.45318,-0.10553"
       id="path452"
       style="stroke-width:1.21211" />
    <path
       clip-path="url(#p76da2bbaad)"
       d="m 236.27809,147.29262 0.18083,0.11808 0.0553,-0.47976 1.45411,1.72339 -2.16263,-0.63837 0.41701,-0.24358 -0.18084,-0.11809 0.23618,-0.36167"
       id="path454"
       style="stroke-width:1.21211" />
    <path
       clip-path="url(#p76da2bbaad)"
       d="m 252.40231,147.16455 0.30891,0.01 -0.28974,-0.62739 3.06029,1.02257 -3.1178,0.83086 0.32808,-0.60823 -0.30891,-0.01 0.0192,-0.61781"
       id="path456"
       style="stroke-width:1.21211" />
    <path
       clip-path="url(#p76da2bbaad)"
       d="m 268.52654,147.03648 0.43697,-0.0989 -0.6348,-0.77502 4.66647,0.32175 -4.07297,2.30008 0.23913,-0.97286 -0.43697,0.0989 -0.19783,-0.87395"
       id="path458"
       style="stroke-width:1.21211" />
    <path
       clip-path="url(#p76da2bbaad)"
       d="m 284.66278,146.94116 0.85977,-0.31561 -0.92309,-0.86919 5.90913,-0.35709 -4.73674,3.55085 0.1415,-1.25998 -0.85977,0.31561 -0.3908,-1.06459"
       id="path460"
       style="stroke-width:1.21211" />
    <path
       clip-path="url(#p76da2bbaad)"
       d="m 300.85573,146.9575 2.28749,-1.04264 -0.9863,-0.79674 5.86507,-0.80387 -4.45403,3.8996 0.0456,-1.26708 -2.28749,1.04264 -0.47035,-1.03191"
       id="path462"
       style="stroke-width:1.21211" />
    <path
       clip-path="url(#p76da2bbaad)"
       d="m 317.06329,146.96973 3.67827,-1.9011 -1.02442,-0.7471 5.81826,-1.0923 -4.25618,4.11463 -0.017,-1.26779 -3.67827,1.90111 -0.52069,-1.00745"
       id="path464"
       style="stroke-width:1.21211" />
    <path
       clip-path="url(#p76da2bbaad)"
       d="m 333.27878,146.97902 5.04255,-2.83099 -1.0496,-0.71128 5.77708,-1.29254 -4.11157,4.25914 -0.0607,-1.26645 -5.04255,2.83099 -0.55517,-0.98887"
       id="path466"
       style="stroke-width:1.21211" />
    <path
       clip-path="url(#p76da2bbaad)"
       d="m 349.49901,146.98625 6.38827,-3.80355 -1.06737,-0.68433 5.7423,-1.43918 -4.00182,4.36242 -0.0929,-1.26449 -6.38827,3.80354 -0.58016,-0.97441"
       id="path468"
       style="stroke-width:1.21211" />
    <path
       clip-path="url(#p76da2bbaad)"
       d="m 365.72228,146.992 7.72075,-4.80347 -1.08052,-0.66336 5.71311,-1.551 -3.9159,4.4397 -0.11762,-1.26243 -7.72075,4.80346 -0.59907,-0.9629"
       id="path470"
       style="stroke-width:1.21211" />
    <path
       clip-path="url(#p76da2bbaad)"
       d="m 106.75818,134.27772 -4.54901,6.31151 1.25153,0.20309 -4.695402,3.60533 1.935432,-5.59458 0.58845,1.12307 4.54901,-6.3115 0.91999,0.66308"
       id="path480"
       style="stroke-width:1.21211" />
    <path
       clip-path="url(#p76da2bbaad)"
       d="m 123.00252,134.26099 -3.41897,5.12197 1.25802,0.158 -4.56286,3.77167 1.73321,-5.6605 0.62841,1.10122 3.41897,-5.12197 0.94322,0.62961"
       id="path482"
       style="stroke-width:1.21211" />
    <path
       clip-path="url(#p76da2bbaad)"
       d="m 139.24979,134.23803 -2.34491,3.90608 1.26415,0.0975 -4.37692,3.98596 1.46002,-5.73704 0.68045,1.06985 2.34491,-3.90609 0.9723,0.5837"
       id="path484"
       style="stroke-width:1.21211" />
    <path
       clip-path="url(#p76da2bbaad)"
       d="m 155.5009,134.20494 -1.36197,2.65558 1.26783,0.013 -4.10124,4.26908 1.07402,-5.82166 0.75031,1.02206 1.36198,-2.65557 1.00907,0.51752"
       id="path486"
       style="stroke-width:1.21211" />
    <path
       clip-path="url(#p76da2bbaad)"
       d="m 171.75658,134.15421 -0.53794,1.36402 1.263,-0.11144 -3.66272,4.65078 0.49781,-5.89894 0.84694,0.94354 0.53793,-1.36401 1.05498,0.41605"
       id="path488"
       style="stroke-width:1.21211" />
    <path
       clip-path="url(#p76da2bbaad)"
       d="m 187.96445,134.05913 -0.11294,0.50264 1.11822,-0.27674 -2.6374,4.68752 -0.37842,-5.36522 0.89232,0.72854 0.11295,-0.50264 1.00527,0.2259"
       id="path490"
       style="stroke-width:1.21211" />
    <path
       clip-path="url(#p76da2bbaad)"
       d="m 204.08868,133.93106 0.0151,0.39414 0.77315,-0.42438 -1.03121,3.98671 -1.3336,-3.89599 0.80339,0.3639 -0.0151,-0.39414 0.78827,-0.0302"
       id="path492"
       style="stroke-width:1.21211" />
    <path
       clip-path="url(#p76da2bbaad)"
       d="m 220.21291,133.80299 0.14318,0.28564 0.42808,-0.57201 0.57497,3.28589 -2.28877,-2.42677 0.71446,-7.4e-4 -0.14319,-0.28563 0.57127,-0.28638"
       id="path494"
       style="stroke-width:1.21211" />
    <path
       clip-path="url(#p76da2bbaad)"
       d="m 236.33713,133.67493 0.27126,0.17713 0.083,-0.71964 2.18116,2.58507 -3.24394,-0.95754 0.62551,-0.36538 -0.27125,-0.17713 0.35426,-0.54251"
       id="path496"
       style="stroke-width:1.21211" />
    <path
       clip-path="url(#p76da2bbaad)"
       d="m 252.46136,133.54686 0.39932,0.0686 -0.26207,-0.86728 3.78735,1.88426 -4.19912,0.51168 0.53658,-0.73002 -0.39932,-0.0686 0.13726,-0.79864"
       id="path498"
       style="stroke-width:1.21211" />
    <path
       clip-path="url(#p76da2bbaad)"
       d="m 268.58558,133.41879 0.52739,-0.0399 -0.60713,-1.01491 5.39352,1.18344 -5.15429,1.9809 0.44765,-1.09465 -0.52739,0.0399 -0.0797,-1.05478"
       id="path500"
       style="stroke-width:1.21211" />
    <path
       clip-path="url(#p76da2bbaad)"
       d="m 284.73299,133.39315 1.57731,-0.35705 -0.80341,-0.98088 5.90588,0.40721 -5.15475,2.91098 0.30265,-1.23125 -1.5773,0.35705 -0.25038,-1.10606"
       id="path502"
       style="stroke-width:1.21211" />
    <path
       clip-path="url(#p76da2bbaad)"
       d="m 300.91426,133.40738 2.98601,-0.97896 -0.8921,-0.90097 5.918,-0.15004 -4.85812,3.38288 0.18551,-1.25426 -2.986,0.97896 -0.3533,-1.07761"
       id="path504"
       style="stroke-width:1.21211" />
    <path
       clip-path="url(#p76da2bbaad)"
       d="m 317.11268,133.41986 4.37906,-1.75518 -0.94823,-0.84169 5.89607,-0.5306 -4.63034,3.68853 0.10441,-1.2636 -4.37906,1.75518 -0.42191,-1.05264"
       id="path506"
       style="stroke-width:1.21211" />
    <path
       clip-path="url(#p76da2bbaad)"
       d="m 333.32119,133.43023 5.75303,-2.62225 -0.9863,-0.79674 5.86507,-0.80387 -4.45403,3.8996 0.0456,-1.26708 -5.75303,2.62225 -0.47035,-1.03191"
       id="path508"
       style="stroke-width:1.21211" />
    <path
       clip-path="url(#p76da2bbaad)"
       d="m 349.53603,133.43876 7.11053,-3.54624 -1.01355,-0.76177 5.83338,-1.0084 -4.31499,4.05291 10e-4,-1.2679 -7.11053,3.54624 -0.50613,-1.01484"
       id="path510"
       style="stroke-width:1.21211" />
    <path
       clip-path="url(#p76da2bbaad)"
       d="m 365.75505,133.44583 8.45484,-4.50789 -1.03389,-0.73393 5.8038,-1.16668 -4.20317,4.16877 -0.0332,-1.26747 -8.45485,4.5079 -0.53354,-1.0007"
       id="path512"
       style="stroke-width:1.21211" />
    <path
       clip-path="url(#p76da2bbaad)"
       d="m 106.78433,120.71076 -4.00208,6.66655 1.26415,0.0976 -4.376919,3.98595 1.460019,-5.73703 0.68045,1.06984 4.00208,-6.66656 0.9723,0.5837"
       id="path522"
       style="stroke-width:1.21211" />
    <path
       clip-path="url(#p76da2bbaad)"
       d="m 123.03044,120.68721 -2.93327,5.46114 1.26736,0.0371 -4.18164,4.19036 1.18447,-5.80019 0.73075,1.03614 2.93327,-5.46114 0.99906,0.53661"
       id="path524"
       style="stroke-width:1.21211" />
    <path
       clip-path="url(#p76da2bbaad)"
       d="m 139.27907,120.65521 -1.9406,4.23293 1.26718,-0.0428 -3.90936,4.44546 0.81674,-5.86329 0.79457,0.98805 1.9406,-4.23293 1.03087,0.47261"
       id="path526"
       style="stroke-width:1.21211" />
    <path
       clip-path="url(#p76da2bbaad)"
       d="m 155.53023,120.60996 -1.06718,2.98204 1.25879,-0.15176 -3.51214,4.76551 0.30894,-5.91183 0.87668,0.91597 1.06718,-2.98203 1.06773,0.3821"
       id="path528"
       style="stroke-width:1.21211" />
    <path
       clip-path="url(#p76da2bbaad)"
       d="m 171.78232,120.54323 -0.38713,1.72277 1.23077,-0.30459 -2.90285,5.15932 -0.41652,-5.90523 0.98214,0.80186 0.38713,-1.72277 1.10646,0.24864"
       id="path530"
       style="stroke-width:1.21211" />
    <path
       clip-path="url(#p76da2bbaad)"
       d="m 188.0235,120.44144 -0.0225,0.56168 1.14589,-0.51662 -1.91035,5.54921 -1.45973,-5.68439 1.10083,0.60674 0.0225,-0.56168 1.12336,0.0451"
       id="path532"
       style="stroke-width:1.21211" />
    <path
       clip-path="url(#p76da2bbaad)"
       d="m 204.14772,120.31337 0.10554,0.45318 0.80082,-0.66425 -0.30416,4.84839 -2.41491,-4.21517 1.01189,0.24211 -0.10553,-0.45318 0.90635,-0.21108"
       id="path534"
       style="stroke-width:1.21211" />
    <path
       clip-path="url(#p76da2bbaad)"
       d="m 220.27195,120.1853 0.2336,0.34468 0.45575,-0.81189 1.30203,4.14758 -3.37009,-2.74594 0.92296,-0.12254 -0.2336,-0.34468 0.68935,-0.46721"
       id="path536"
       style="stroke-width:1.21211" />
    <path
       clip-path="url(#p76da2bbaad)"
       d="m 236.39617,120.05724 0.36168,0.23617 0.11067,-0.95952 2.90821,3.44676 -4.32525,-1.27672 0.83402,-0.48717 -0.36168,-0.23618 0.47235,-0.72334"
       id="path538"
       style="stroke-width:1.21211" />
    <path
       clip-path="url(#p76da2bbaad)"
       d="m 252.5204,119.92917 0.48974,0.12767 -0.2344,-1.10715 4.5144,2.74595 -5.28043,0.19249 0.74509,-0.85181 -0.48975,-0.12767 0.25535,-0.97948"
       id="path540"
       style="stroke-width:1.21211" />
    <path
       clip-path="url(#p76da2bbaad)"
       d="m 268.64304,119.85216 1.07733,0.0334 -0.53158,-1.15109 5.61476,1.87612 -5.72027,1.52439 0.60192,-1.11592 -1.07733,-0.0334 0.0352,-1.1335"
       id="path542"
       style="stroke-width:1.21211" />
    <path
       clip-path="url(#p76da2bbaad)"
       d="m 284.79075,119.85591 2.39177,-0.28646 -0.69786,-1.05857 5.83229,1.01472 -5.42772,2.36329 0.42815,-1.19344 -2.39177,0.28646 -0.13486,-1.126"
       id="path544"
       style="stroke-width:1.21211" />
    <path
       clip-path="url(#p76da2bbaad)"
       d="m 300.96572,119.86588 3.76217,-0.85164 -0.80341,-0.98087 5.90588,0.40721 -5.15475,2.91098 0.30265,-1.23125 -3.76216,0.85163 -0.25038,-1.10606"
       id="path546"
       style="stroke-width:1.21211" />
    <path
       clip-path="url(#p76da2bbaad)"
       d="m 317.15786,119.87666 5.13989,-1.57137 -0.87381,-0.91872 5.91983,-0.031 -4.92517,3.28451 0.2107,-1.25028 -5.13989,1.57137 -0.33155,-1.0845"
       id="path548"
       style="stroke-width:1.21211" />
    <path
       clip-path="url(#p76da2bbaad)"
       d="m 333.36097,119.88662 6.51017,-2.3898 -0.92309,-0.86919 5.90912,-0.35709 -4.73674,3.55085 0.1415,-1.25998 -6.51017,2.38979 -0.39079,-1.06458"
       id="path550"
       style="stroke-width:1.21211" />
    <path
       clip-path="url(#p76da2bbaad)"
       d="m 349.57132,119.89537 7.86965,-3.27345 -0.95908,-0.82931 5.88869,-0.60709 -4.58207,3.74832 0.088,-1.26485 -7.86965,3.27346 -0.43554,-1.04708"
       id="path552"
       style="stroke-width:1.21211" />
    <path
       clip-path="url(#p76da2bbaad)"
       d="m 365.78665,119.90295 9.21857,-4.20185 -0.98631,-0.79673 5.86507,-0.80387 -4.45402,3.8996 0.0456,-1.26709 -9.21857,4.20185 -0.47034,-1.03191"
       id="path554"
       style="stroke-width:1.21211" />
    <path
       clip-path="url(#p76da2bbaad)"
       d="m 106.80694,107.142 -3.4712,7.05355 1.26788,-0.008 -4.02995,4.33644 0.97742,-5.83866 0.76714,1.0095 3.4712,-7.05355 1.01751,0.50073"
       id="path564"
       style="stroke-width:1.21211" />
    <path
       clip-path="url(#p76da2bbaad)"
       d="m 123.05345,107.11179 -2.46242,5.84448 1.26524,-0.0822 -3.7692,4.56491 0.63397,-5.88586 0.82491,0.96285 2.46242,-5.84447 1.04508,0.44031"
       id="path566"
       style="stroke-width:1.21211" />
    <path
       clip-path="url(#p76da2bbaad)"
       d="m 139.30141,107.07141 -1.54521,4.62236 1.25531,-0.17823 -3.41103,4.8384 0.1844,-5.91703 0.89577,0.89731 1.54521,-4.62236 1.07555,0.35955"
       id="path568"
       style="stroke-width:1.21211" />
    <path
       clip-path="url(#p76da2bbaad)"
       d="m 155.54959,107.01595 -0.76362,3.39823 1.23077,-0.30459 -2.90286,5.15933 -0.41651,-5.90523 0.98214,0.80186 0.76363,-3.39823 1.10645,0.24863"
       id="path570"
       style="stroke-width:1.21211" />
    <path
       clip-path="url(#p76da2bbaad)"
       d="m 171.79419,106.93827 -0.18208,2.20634 1.17684,-0.47183 -2.16166,5.51112 -1.22895,-5.79094 1.08357,0.65838 0.18208,-2.20634 1.1302,0.0933"
       id="path572"
       style="stroke-width:1.21211" />
    <path
       clip-path="url(#p76da2bbaad)"
       d="m 188.02548,106.82999 0.12405,1.13428 1.06568,-0.68696 -1.07451,5.82157 -2.30746,-5.45169 1.18897,0.44037 -0.12406,-1.13428 1.12733,-0.12329"
       id="path574"
       style="stroke-width:1.21211" />
    <path
       clip-path="url(#p76da2bbaad)"
       d="m 204.20677,106.69568 0.19595,0.51222 0.82849,-0.90413 0.42289,5.71009 -3.49622,-4.53436 1.2204,0.12031 -0.19596,-0.51222 1.02445,-0.39191"
       id="path576"
       style="stroke-width:1.21211" />
    <path
       clip-path="url(#p76da2bbaad)"
       d="m 220.33099,106.56761 0.32403,0.40372 0.48341,-1.05176 2.02908,5.00927 -4.4514,-3.06513 1.13147,-0.24433 -0.32403,-0.40372 0.80744,-0.64805"
       id="path578"
       style="stroke-width:1.21211" />
    <path
       clip-path="url(#p76da2bbaad)"
       d="m 236.45522,106.43954 0.45209,0.29522 0.13834,-1.1994 3.63527,4.30846 -5.40658,-1.59591 1.04253,-0.60896 -0.45209,-0.29522 0.59044,-0.90419"
       id="path580"
       style="stroke-width:1.21211" />
    <path
       clip-path="url(#p76da2bbaad)"
       d="m 252.56644,106.35188 0.94377,0.30374 -0.19233,-1.25324 4.87644,3.35642 -5.91873,-0.11786 0.88719,-0.90581 -0.94377,-0.30374 0.34743,-1.07951"
       id="path582"
       style="stroke-width:1.21211" />
    <path
       clip-path="url(#p76da2bbaad)"
       d="m 268.6877,106.32804 2.00989,0.22197 -0.43911,-1.18944 5.44925,2.31321 -5.8227,1.06837 0.68808,-1.06495 -2.0099,-0.22197 0.12449,-1.12719"
       id="path584"
       style="stroke-width:1.21211" />
    <path
       clip-path="url(#p76da2bbaad)"
       d="m 284.83766,106.32498 3.26308,-0.11817 -0.6077,-1.11279 5.72809,1.49474 -5.60495,1.90518 0.52561,-1.15383 -3.26309,0.11818 -0.041,-1.13331"
       id="path586"
       style="stroke-width:1.21211" />
    <path
       clip-path="url(#p76da2bbaad)"
       d="m 301.01014,106.33039 4.59246,-0.66093 -0.72279,-1.04171 5.85473,0.87599 -5.37009,2.49145 0.39969,-1.20325 -4.59246,0.66094 -0.16154,-1.12249"
       id="path588"
       style="stroke-width:1.21211" />
    <path
       clip-path="url(#p76da2bbaad)"
       d="m 317.19845,106.33861 5.94703,-1.34622 -0.80341,-0.98088 5.90588,0.40721 -5.15475,2.91098 0.30265,-1.23125 -5.94703,1.34622 -0.25037,-1.10606"
       id="path590"
       style="stroke-width:1.21211" />
    <path
       clip-path="url(#p76da2bbaad)"
       d="m 333.39767,106.34727 7.30571,-2.12972 -0.86175,-0.93004 5.91972,0.0462 -4.96758,3.22 0.22699,-1.24742 -7.30571,2.12972 -0.31738,-1.08873"
       id="path592"
       style="stroke-width:1.21211" />
    <path
       clip-path="url(#p76da2bbaad)"
       d="m 349.60451,106.3555 8.66042,-2.98168 -0.90531,-0.88769 5.91514,-0.23745 -4.80762,3.45427 0.16696,-1.25686 -8.66042,2.98168 -0.36917,-1.07227"
       id="path594"
       style="stroke-width:1.21211" />
    <path
       clip-path="url(#p76da2bbaad)"
       d="m 365.81675,106.36299 10.00856,-3.88239 -0.93878,-0.85222 5.90164,-0.46472 -4.67125,3.63658 0.11852,-1.26235 -10.00856,3.88239 -0.41013,-1.05729"
       id="path596"
       style="stroke-width:1.21211" />
    <path
       clip-path="url(#p76da2bbaad)"
       d="m 106.82567,93.57239 -2.9481,7.47541 1.263,-0.11144 -3.66272,4.65078 0.4978,-5.898934 0.84695,0.943534 2.9481,-7.475402 1.05497,0.416052"
       id="path606"
       style="stroke-width:1.21211" />
    <path
       clip-path="url(#p76da2bbaad)"
       d="m 123.0713,93.536103 -1.994,6.274247 1.25252,-0.196911 -3.33857,4.888681 0.0962,-5.919119 0.90904,0.88387 1.994,-6.274247 1.08078,0.343479"
       id="path608"
       style="stroke-width:1.21211" />
    <path
       clip-path="url(#p76da2bbaad)"
       d="m 139.31686,93.488681 -1.14012,5.073686 1.23078,-0.304594 -2.90286,5.159327 -0.41651,-5.90523 0.98214,0.801863 1.14012,-5.073687 1.10645,0.248635"
       id="path610"
       style="stroke-width:1.21211" />
    <path
       clip-path="url(#p76da2bbaad)"
       d="m 155.56004,93.425856 -0.42486,3.894602 1.18885,-0.440695 -2.30596,5.452317 -1.07612,-5.821271 1.06587,0.686664 0.42486,-3.894602 1.12736,0.122985"
       id="path612"
       style="stroke-width:1.21211" />
    <path
       clip-path="url(#p76da2bbaad)"
       d="m 171.7957,93.342628 0.10676,2.783235 1.11148,-0.610077 -1.48247,5.731274 -1.91717,-5.600863 1.15495,0.523137 -0.10677,-2.783235 1.13322,-0.04347"
       id="path614"
       style="stroke-width:1.21211" />
    <path
       clip-path="url(#p76da2bbaad)"
       d="m 188.01406,93.235755 0.42559,1.827463 0.97588,-0.809463 -0.37065,5.908285 -2.94282,-5.136634 1.2331,0.295029 -0.42559,-1.827463 1.10449,-0.257217"
       id="path616"
       style="stroke-width:1.21211" />
    <path
       clip-path="url(#p76da2bbaad)"
       d="m 204.20144,93.110257 0.57678,1.150575 0.75969,-1.015112 1.02038,5.831303 -4.06177,-4.306662 1.26791,-0.0013 -0.57678,-1.150576 1.01379,-0.508213"
       id="path618"
       style="stroke-width:1.21211" />
    <path
       clip-path="url(#p76da2bbaad)"
       d="m 220.34966,92.986077 0.73985,0.826106 0.4665,-1.178965 2.51568,5.358785 -5.05004,-3.089067 1.22307,-0.33418 -0.73984,-0.826106 0.84478,-0.756573"
       id="path620"
       style="stroke-width:1.21211" />
    <path
       clip-path="url(#p76da2bbaad)"
       d="m 236.47002,92.889599 1.15222,0.752406 0.14529,-1.259553 3.81757,4.524531 -5.67772,-1.675944 1.09481,-0.639506 -1.15221,-0.752405 0.62004,-0.949529"
       id="path622"
       style="stroke-width:1.21211" />
    <path
       clip-path="url(#p76da2bbaad)"
       d="m 252.58784,92.831968 1.91422,0.701541 -0.14216,-1.259909 4.73861,3.548363 -5.90931,-0.353989 0.92263,-0.869674 -1.91422,-0.701541 0.39023,-1.064791"
       id="path624"
       style="stroke-width:1.21211" />
    <path
       clip-path="url(#p76da2bbaad)"
       d="m 268.7215,92.805533 2.95698,0.508197 -0.36675,-1.213705 5.30018,2.636918 -5.87643,0.716067 0.75091,-1.021619 -2.95698,-0.508197 0.19209,-1.117661"
       id="path626"
       style="stroke-width:1.21211" />
    <path
       clip-path="url(#p76da2bbaad)"
       d="m 284.87577,92.797613 4.16637,0.129283 -0.53157,-1.151089 5.61475,1.876117 -5.72027,1.524389 0.60192,-1.115915 -4.16638,-0.129283 0.0352,-1.133502"
       id="path628"
       style="stroke-width:1.21211" />
    <path
       clip-path="url(#p76da2bbaad)"
       d="m 301.04816,92.798953 5.45913,-0.412733 -0.65091,-1.088073 5.78235,1.268757 -5.52587,2.123705 0.47992,-1.173568 -5.45912,0.412733 -0.0855,-1.130821"
       id="path630"
       style="stroke-width:1.21211" />
    <path
       clip-path="url(#p76da2bbaad)"
       d="m 317.23452,92.804387 6.7887,-1.080408 -0.73821,-1.030834 5.86712,0.788739 -5.33241,2.571121 0.38174,-1.209073 -6.78871,1.080408 -0.17823,-1.119953"
       id="path632"
       style="stroke-width:1.21211" />
    <path
       clip-path="url(#p76da2bbaad)"
       d="m 333.43117,92.811332 8.1319,-1.840801 -0.80341,-0.980874 5.90588,0.407207 -5.15475,2.910982 0.30265,-1.231252 -8.13189,1.840801 -0.25038,-1.106063"
       id="path634"
       style="stroke-width:1.21211" />
    <path
       clip-path="url(#p76da2bbaad)"
       d="m 349.63538,92.818571 9.47772,-2.669147 -0.85321,-0.937878 5.91905,0.100298 -4.9968,3.174459 0.23838,-1.245293 -9.47772,2.669147 -0.30742,-1.091586"
       id="path636"
       style="stroke-width:1.21211" />
    <path
       clip-path="url(#p76da2bbaad)"
       d="m 365.84517,92.825557 10.82128,-3.547724 -0.8921,-0.900967 5.918,-0.150042 -4.85812,3.38288 0.18551,-1.254259 -10.82128,3.547725 -0.35329,-1.077613"
       id="path638"
       style="stroke-width:1.21211" />
    <path
       clip-path="url(#p76da2bbaad)"
       d="m 106.84044,80.002825 -2.42454,7.932854 1.25025,-0.210795 -3.28412,4.925422 0.0306,-5.919824 0.91879,0.873729 2.42455,-7.932854 1.08452,0.331468"
       id="path648"
       style="stroke-width:1.21211" />
    <path
       clip-path="url(#p76da2bbaad)"
       d="m 123.08414,79.961408 -1.51662,6.749143 1.23077,-0.304594 -2.90285,5.159329 -0.41651,-5.905232 0.98214,0.801862 1.51661,-6.749142 1.10646,0.248634"
       id="path650"
       style="stroke-width:1.21211" />
    <path
       clip-path="url(#p76da2bbaad)"
       d="m 139.32612,79.908691 -0.71039,5.580809 1.19657,-0.419285 -2.40346,5.410051 -0.97145,-5.839651 1.05337,0.705685 0.71039,-5.580809 1.12497,0.1432"
       id="path652"
       style="stroke-width:1.21211" />
    <path
       clip-path="url(#p76da2bbaad)"
       d="m 155.56337,79.841487 -0.0345,4.455094 1.13841,-0.558213 -1.74499,5.656878 -1.65706,-5.683257 1.12962,0.575799 0.0345,-4.455094 1.13401,0.0088"
       id="path654"
       style="stroke-width:1.21211" />
    <path
       clip-path="url(#p76da2bbaad)"
       d="m 171.79045,79.757154 0.48713,3.420887 1.04279,-0.721236 -0.88471,5.853421 -2.48346,-5.373797 1.20266,0.401486 -0.48713,-3.420887 1.12272,-0.159874"
       id="path656"
       style="stroke-width:1.21211" />
    <path
       clip-path="url(#p76da2bbaad)"
       d="m 187.99921,79.656177 0.85901,2.551622 0.89386,-0.899217 0.19698,5.916624 -3.4213,-4.831138 1.25569,0.175559 -0.85902,-2.551622 1.07478,-0.361828"
       id="path658"
       style="stroke-width:1.21211" />
    <path
       clip-path="url(#p76da2bbaad)"
       d="m 204.18124,79.546151 1.14946,1.922859 0.68245,-1.068572 1.44932,5.739749 -4.36948,-3.99411 1.26433,-0.09519 -1.14947,-1.922859 0.97339,-0.58188"
       id="path660"
       style="stroke-width:1.21211" />
    <path
       clip-path="url(#p76da2bbaad)"
       d="m 220.33478,79.442817 1.50014,1.550492 0.42074,-1.196058 2.72022,5.257916 -5.16527,-2.892271 1.20929,-0.381039 -1.50014,-1.550492 0.81502,-0.788548"
       id="path662"
       style="stroke-width:1.21211" />
    <path
       clip-path="url(#p76da2bbaad)"
       d="m 236.47002,79.362326 2.05641,1.342842 0.14528,-1.259552 3.81757,4.524531 -5.67771,-1.675945 1.09481,-0.639505 -2.0564,-1.342842 0.62004,-0.949529"
       id="path664"
       style="stroke-width:1.21211" />
    <path
       clip-path="url(#p76da2bbaad)"
       d="m 252.60356,79.310719 2.87261,1.150576 -0.10471,-1.263572 4.63123,3.687404 -5.89621,-0.529174 0.94803,-0.841915 -2.87261,-1.150575 0.42166,-1.052744"
       id="path666"
       style="stroke-width:1.21211" />
    <path
       clip-path="url(#p76da2bbaad)"
       d="m 268.74771,79.283403 3.90744,0.862748 -0.30918,-1.229628 5.17012,2.883584 -5.90363,0.438544 0.79819,-0.985124 -3.90745,-0.862748 0.24451,-1.107376"
       id="path668"
       style="stroke-width:1.21211" />
    <path
       clip-path="url(#p76da2bbaad)"
       d="m 284.90695,79.272168 5.08701,0.439115 -0.4674,-1.178611 5.50294,2.182415 -5.79552,1.207123 0.66245,-1.081081 -5.08701,-0.439115 0.0975,-1.129846"
       id="path670"
       style="stroke-width:1.21211" />
    <path
       clip-path="url(#p76da2bbaad)"
       d="m 301.08066,79.27016 6.34962,-0.114785 -0.58743,-1.123614 5.70006,1.598307 -5.63857,1.80328 0.54644,-1.144111 -6.34962,0.114785 -0.0205,-1.133862"
       id="path672"
       style="stroke-width:1.21211" />
    <path
       clip-path="url(#p76da2bbaad)"
       d="m 317.26639,79.272964 7.65554,-0.776842 -0.67862,-1.071009 5.813,1.119935 -5.46953,2.264826 0.44964,-1.185499 -7.65554,0.776843 -0.11449,-1.128254"
       id="path674"
       style="stroke-width:1.21211" />
    <path
       clip-path="url(#p76da2bbaad)"
       d="m 333.46154,79.278053 8.98201,-1.523605 -0.7487,-1.023247 5.87487,0.728827 -5.30589,2.625401 0.36938,-1.212905 -8.98202,1.523605 -0.18965,-1.118076"
       id="path676"
       style="stroke-width:1.21211" />
    <path
       clip-path="url(#p76da2bbaad)"
       d="m 349.6639,79.284059 10.31676,-2.335384 -0.80341,-0.980874 5.90588,0.407207 -5.15475,2.910982 0.30265,-1.231252 -10.31675,2.335384 -0.25038,-1.106063"
       id="path678"
       style="stroke-width:1.21211" />
    <path
       clip-path="url(#p76da2bbaad)"
       d="m 365.8718,79.290271 11.65334,-3.196973 -0.84685,-0.943625 5.91824,0.140315 -5.01815,3.140603 0.24679,-1.243654 -11.65334,3.196974 -0.30003,-1.09364"
       id="path680"
       style="stroke-width:1.21211" />
    <path
       clip-path="url(#p76da2bbaad)"
       d="m 106.85141,66.434135 -1.89311,8.424599 1.23077,-0.304593 -2.90286,5.159328 -0.41651,-5.905232 0.98214,0.801863 1.89311,-8.424599 1.10646,0.248634"
       id="path690"
       style="stroke-width:1.21211" />
    <path
       clip-path="url(#p76da2bbaad)"
       d="m 123.09242,66.388733 -1.02106,7.265082 1.20193,-0.403675 -2.47367,5.37831 -0.89536,-5.851801 1.04409,0.719336 1.02105,-7.265082 1.12302,0.15783"
       id="path692"
       style="stroke-width:1.21211" />
    <path
       clip-path="url(#p76da2bbaad)"
       d="m 139.3302,66.332545 -0.24607,6.134497 1.15587,-0.521115 -1.92697,5.597503 -1.47244,-5.733862 1.11041,0.612021 0.24607,-6.134497 1.13313,0.04545"
       id="path694"
       style="stroke-width:1.21211" />
    <path
       clip-path="url(#p76da2bbaad)"
       d="m 155.5615,66.263595 0.41406,5.062362 1.08405,-0.657584 -1.23318,5.790037 -2.15764,-5.512696 1.1765,0.47269 -0.41406,-5.062362 1.13027,-0.09245"
       id="path696"
       style="stroke-width:1.21211" />
    <path
       clip-path="url(#p76da2bbaad)"
       d="m 171.78134,66.18121 0.95327,4.093356 0.97588,-0.809464 -0.37065,5.908288 -2.94283,-5.136636 1.23311,0.295029 -0.95328,-4.093356 1.1045,-0.257217"
       id="path698"
       style="stroke-width:1.21211" />
    <path
       clip-path="url(#p76da2bbaad)"
       d="m 187.98365,66.088002 1.39509,3.282021 0.82185,-0.965469 0.65266,5.883816 -3.78368,-4.552919 1.26549,0.0782 -1.39508,-3.282021 1.04367,-0.443632"
       id="path700"
       style="stroke-width:1.21211" />
    <path
       clip-path="url(#p76da2bbaad)"
       d="m 204.16392,65.991697 1.80902,2.669139 0.62063,-1.10562 1.77308,5.648134 -4.58934,-3.739406 1.25687,-0.166866 -1.80901,-2.669138 0.93875,-0.636243"
       id="path702"
       style="stroke-width:1.21211" />
    <path
       clip-path="url(#p76da2bbaad)"
       d="m 220.32327,65.903984 2.30028,2.244528 0.38616,-1.207667 2.87035,5.177486 -5.24634,-2.74248 1.19783,-0.415671 -2.30028,-2.244528 0.792,-0.811668"
       id="path704"
       style="stroke-width:1.21211" />
    <path
       clip-path="url(#p76da2bbaad)"
       d="m 236.47002,65.835054 2.96059,1.933278 0.14528,-1.259552 3.81758,4.524531 -5.67772,-1.675945 1.09481,-0.639505 -2.96058,-1.933278 0.62004,-0.949529"
       id="path706"
       style="stroke-width:1.21211" />
    <path
       clip-path="url(#p76da2bbaad)"
       d="m 252.61555,65.78841 3.82147,1.633083 -0.0758,-1.265638 4.54562,3.792436 -5.88255,-0.663985 0.96705,-0.819996 -3.82146,-1.633083 0.44564,-1.042817"
       id="path708"
       style="stroke-width:1.21211" />
    <path
       clip-path="url(#p76da2bbaad)"
       d="m 268.76849,65.761133 4.85666,1.266101 -0.26261,-1.240411 5.05774,3.076448 -5.91598,0.215666 0.83477,-0.954332 -4.85666,-1.266101 0.28608,-1.097371"
       id="path710"
       style="stroke-width:1.21211" />
    <path
       clip-path="url(#p76da2bbaad)"
       d="m 284.93271,65.747713 6.01656,0.797699 -0.41306,-1.198736 5.39748,2.431575 -5.84463,0.941054 0.71115,-1.049683 -6.01655,-0.797699 0.14905,-1.12421"
       id="path712"
       style="stroke-width:1.21211" />
    <path
       clip-path="url(#p76da2bbaad)"
       d="m 301.10849,65.743067 7.25543,0.225136 -0.53158,-1.151088 5.61475,1.876116 -5.72027,1.52439 0.60193,-1.115915 -7.25543,-0.225137 0.0352,-1.133502"
       id="path714"
       style="stroke-width:1.21211" />
    <path
       clip-path="url(#p76da2bbaad)"
       d="m 317.2945,65.743543 8.54039,-0.439396 -0.62454,-1.103416 5.75015,1.407481 -5.57535,1.990168 0.50801,-1.161684 -8.54039,0.439397 -0.0583,-1.13255"
       id="path716"
       style="stroke-width:1.21211" />
    <path
       clip-path="url(#p76da2bbaad)"
       d="m 333.48894,65.746818 9.85053,-1.179768 -0.69786,-1.058572 5.83229,1.014714 -5.42771,2.363288 0.42814,-1.193429 -9.85054,1.179768 -0.13485,-1.126001"
       id="path718"
       style="stroke-width:1.21211" />
    <path
       clip-path="url(#p76da2bbaad)"
       d="m 349.69011,65.7515 11.17336,-1.980831 -0.75628,-1.017656 5.88012,0.685159 -5.28624,2.664749 0.36036,-1.215615 -11.17336,1.98083 -0.19796,-1.116636"
       id="path720"
       style="stroke-width:1.21211" />
    <path
       clip-path="url(#p76da2bbaad)"
       d="m 365.89663,65.756787 12.50161,-2.829968 -0.8034,-0.980874 5.90588,0.407207 -5.15475,2.910982 0.30265,-1.231252 -12.50161,2.829968 -0.25038,-1.106063"
       id="path722"
       style="stroke-width:1.21211" />
    <path
       clip-path="url(#p76da2bbaad)"
       d="m 236.69925,175.75383 -71.13026,31.29032 2.30433,1.91243 -13.87608,1.71496 10.6406,-9.06997 -0.14734,2.99092 71.13025,-31.29032 1.0785,2.45166"
       id="path729"
       style="stroke-width:1.21211" />
    <path
       clip-path="url(#p76da2bbaad)"
       d="m 234.93417,175.06725 -7.25099,-16.48319 -1.91242,2.30432 -1.71496,-13.87608 9.06996,10.6406 -2.99091,-0.14734 7.25098,16.48319 -2.45166,1.0785"
       id="path731"
       style="stroke-width:1.21211" />
    <path
       clip-path="url(#p76da2bbaad)"
       d="m 235.62075,173.30217 71.13026,-31.29033 -2.30433,-1.91242 13.87608,-1.71496 -10.6406,9.06997 0.14734,-2.99092 -71.13025,31.29032 -1.0785,-2.45166"
       id="path733"
       style="stroke-width:1.21211" />
    <path
       clip-path="url(#p76da2bbaad)"
       d="m 237.38583,173.98875 7.25099,16.48319 1.91242,-2.30432 1.71496,13.87608 -9.06997,-10.6406 2.99092,0.14734 -7.25098,-16.48319 2.45166,-1.0785"
       id="path735"
       style="stroke-width:1.21211" />
    <path
       clip-path="url(#p76da2bbaad)"
       d="m 290.26909,174.528 -0.13328,-3.79551 -0.3992,-3.77681 -0.66313,-3.73951 -0.92381,-3.68378 -1.17994,-3.60991 -1.43025,-3.51824 -1.67352,-3.40926 -1.90854,-3.28346 -2.13415,-3.14151 -2.34927,-2.98406 -2.55279,-2.81192 -2.74375,-2.62593 -2.92119,-2.427 -3.08424,-2.21611 -3.23209,-1.99431 -3.36402,-1.76268 -3.47938,-1.52237 -3.57759,-1.27455 -3.65819,-1.02046 -3.72075,-0.76134 -3.765,-0.49847 -3.79069,-0.23315 -3.7977,0.0333 -3.78602,0.29963 -3.75566,0.56447 -3.70682,0.82653 -3.63972,1.0845 -3.55467,1.33715 -3.45213,1.58319 -3.33257,1.82145 -3.19659,2.05072 -3.04487,2.2699 -2.87814,2.47789 -2.69725,2.67368 -2.50305,2.85629 -2.29653,3.02483 -2.0787,3.17847 -1.85062,3.31646 -1.61342,3.4381 -1.36829,3.5428 -1.1164,3.63006 -0.85902,3.69943 -0.59741,3.75057 -0.33285,3.78323 -0.0667,3.79727 0.19988,3.79259 0.46541,3.76922 0.72866,3.7273 0.98832,3.667 1.24311,3.58864 1.49178,3.4926 1.73309,3.37936 1.96587,3.24947 2.18896,3.10356 2.40127,2.94237 2.60175,2.76669 2.78941,2.57738 2.96334,2.37535 3.12265,2.16165 3.26659,1.93727 3.39444,1.70337 3.50556,1.46107 3.59941,1.21157 3.67553,0.95611 3.73355,0.69592 3.77316,0.43232 3.7942,0.16659 3.79653,-0.1 3.78017,-0.36604 3.74518,-0.6303 3.69175,-0.89145 3.62012,-1.14821 3.53066,-1.39932 3.42381,-1.64354 3.30009,-1.87965 3.16011,-2.10651 3.00456,-2.32298 2.83422,-2.52802 2.6499,-2.7206 2.45254,-2.89978 2.24309,-3.06467 2.0226,-3.21447 1.79213,-3.34842 1.55284,-3.46589 1.3059,-3.56627 1.05252,-3.64909 0.79396,-3.71393 0.5315,-3.76048 0.2664,-3.7885 0.0333,-1.89892 v 0"
       style="fill:none;stroke:#ff0000;stroke-width:1.81816;stroke-linecap:square"
       id="path901" />
    <path
       clip-path="url(#p76da2bbaad)"
       d="m 316.24145,152.52364 1.34625,-2.73339 0.9451,-2.61153 0.53929,-2.47678 0.13083,-2.32985 -0.27828,-2.17143 -0.68602,-2.00232 -1.09037,-1.82335 -1.48936,-1.63538 -1.88101,-1.43937 -2.26339,-1.23626 -2.63462,-1.02707 -2.99287,-0.8128 -3.33638,-0.59455 -3.66346,-0.37335 -3.97247,-0.15033 -4.26193,0.0734 -4.53038,0.29685 -4.77652,0.5188 -4.99913,0.73819 -5.19711,0.95394 -5.36948,1.165 -5.51541,1.37031 -5.63415,1.56888 -5.72515,1.75971 -5.78794,1.94188 -5.82222,2.11448 -5.82781,2.27666 -5.80469,2.42762 -8.6012,3.89815 -5.62238,2.75124 -5.5006,2.85748 -5.35171,2.94966 -5.17646,3.0273 -4.97571,3.09002 -4.75045,3.13753 -4.50178,3.16957 -4.23093,3.18601 -3.93925,3.18674 -3.62815,3.17178 -3.29919,3.14119 -2.95396,3.09512 -2.59418,3.03382 -2.22163,2.95755 -1.83814,2.86673 -1.44557,2.76177 -1.0459,2.64322 -0.64107,2.51164 -0.23309,2.36769 0.17606,2.21207 0.58432,2.04556 0.98971,1.86897 1.39022,1.68316 1.78389,1.48908 2.16877,1.28765 2.54296,1.07988 2.90462,0.86679 3.25198,0.64942 3.58332,0.42887 3.89699,0.2062 4.19148,-0.0175 4.46532,-0.24109 4.71714,-0.46351 4.94575,-0.68365 5.14998,-0.9004 5.32883,-1.11273 5.48145,-1.31958 5.60705,-1.51992 5.70503,-1.71278 5.7749,-1.8972 5.81634,-2.07227 5.8291,-2.23714 5.81316,-2.39098 8.62725,-3.84896 5.64852,-2.72253 5.53361,-2.83222 5.39143,-2.92797 5.22271,-3.00927 5.02823,-3.07576 4.80901,-3.12709 4.56607,-3.16302 4.30066,-3.18337 4.01404,-3.18803 3.70766,-3.17699 3.38302,-3.15029 3.0417,-3.10808 2.6854,-3.05056 2.31586,-2.978 1.93493,-2.89077 0.82156,-1.40821 v 0"
       style="fill:none;stroke:#008000;stroke-width:1.81816;stroke-linecap:square"
       id="path904" />
  </g>
  <defs
     id="defs924">
    <clipPath
       id="p76da2bbaad">
      <rect
         height="266.112"
         width="357.12"
         x="57.599998"
         y="41.472"
         id="rect921" />
    </clipPath>
  </defs>
  <path
     style="font-variation-settings:normal;opacity:1;vector-effect:none;fill:none;fill-opacity:1;stroke:#0000ff;stroke-width:0.750002;stroke-linecap:butt;stroke-linejoin:miter;stroke-miterlimit:4;stroke-dasharray:none;stroke-dashoffset:0;stroke-opacity:1;marker:none;marker-start:none;marker-mid:none;marker-end:none;stop-color:#000000;stop-opacity:1"
     d="M 34.811159,188.68837 278.7363,80.926929"
     id="path3624"
     sodipodi:nodetypes="cc" />
  <path
     style="font-variation-settings:normal;opacity:1;vector-effect:none;fill:none;fill-opacity:1;stroke:#0000ff;stroke-width:0.750002;stroke-linecap:butt;stroke-linejoin:miter;stroke-miterlimit:4;stroke-dasharray:none;stroke-dashoffset:0;stroke-opacity:1;marker:none;marker-start:none;marker-mid:none;marker-end:none;stop-color:#000000;stop-opacity:1"
     d="M 197.1812,227.99973 114.83983,41.602551"
     id="path3626"
     sodipodi:nodetypes="cc" />
  <g
     id="g4680"
     transform="matrix(1.1718964,0,0,1.1719729,-65.691924,-44.728665)"
     style="stroke-width:0.85329">
    <rect
       style="fill:#ffffff;fill-rule:evenodd;stroke:#000000;stroke-width:0.319983;stop-color:#000000"
       id="rect4660"
       width="16.260958"
       height="17.726341"
       x="252.31047"
       y="113.72934"
       rx="1.5"
       ry="1.5" />
    <g
       inkscape:label=""
       transform="matrix(1.4156872,0,0,1.4156872,-172.30568,-6.5239119)"
       id="g4281"
       style="stroke-width:0.602739">
      <g
         id="g6851"
         style="stroke-width:0.602739">
        <g
           style="fill:#000000;fill-opacity:1;stroke-width:0.602739"
           id="g8496">
          <use
             xlink:href="#symbol4892"
             x="300.85999"
             y="93.917999"
             id="use5765"
             width="100%"
             height="100%"
             style="stroke-width:0.602739" />
        </g>
        <g
           style="fill:#000000;fill-opacity:1;stroke-width:0.602739"
           id="g1799">
          <use
             xlink:href="#symbol4724"
             x="306.67099"
             y="95.412003"
             id="use7457"
             width="100%"
             height="100%"
             style="stroke-width:0.602739" />
        </g>
      </g>
    </g>
  </g>
  <g
     id="g4671"
     transform="matrix(1.1718964,0,0,1.1719729,-124.02149,2.4254809)"
     style="stroke-width:0.85329">
    <rect
       style="fill:#ffffff;fill-rule:evenodd;stroke:#000000;stroke-width:0.319983;stop-color:#000000"
       id="rect4662"
       width="16.260958"
       height="17.726341"
       x="244.80229"
       y="135.34129"
       rx="1.5"
       ry="1.5" />
    <g
       inkscape:label=""
       transform="matrix(1.4156872,0,0,1.4156872,-179.96869,15.08804)"
       id="g4642"
       style="stroke-width:0.602739">
      <g
         id="g3819"
         style="stroke-width:0.602739">
        <g
           style="fill:#000000;fill-opacity:1;stroke-width:0.602739"
           id="g4193">
          <use
             xlink:href="#symbol12"
             x="300.85999"
             y="93.917999"
             id="use6554"
             width="100%"
             height="100%"
             style="stroke-width:0.602739" />
        </g>
        <g
           style="fill:#000000;fill-opacity:1;stroke-width:0.602739"
           id="g5824">
          <use
             xlink:href="#symbol2622"
             x="306.67099"
             y="95.412003"
             id="use6850"
             width="100%"
             height="100%"
             style="stroke-width:0.602739" />
        </g>
      </g>
    </g>
  </g>
</svg>
