<?xml version="1.0" encoding="UTF-8" standalone="no"?>
<!-- Created with Inkscape (http://www.inkscape.org/) -->

<svg
   xmlns:dc="http://purl.org/dc/elements/1.1/"
   xmlns:cc="http://creativecommons.org/ns#"
   xmlns:rdf="http://www.w3.org/1999/02/22-rdf-syntax-ns#"
   xmlns:svg="http://www.w3.org/2000/svg"
   xmlns="http://www.w3.org/2000/svg"
   xmlns:xlink="http://www.w3.org/1999/xlink"
   xmlns:sodipodi="http://sodipodi.sourceforge.net/DTD/sodipodi-0.dtd"
   xmlns:inkscape="http://www.inkscape.org/namespaces/inkscape"
   id="svg2"
   version="1.1"
   inkscape:version="0.91 r13725"
   width="960"
   height="693"
   sodipodi:docname="displacement_simple.svg">
  <sodipodi:namedview
     pagecolor="#ffffff"
     bordercolor="#666666"
     borderopacity="1"
     objecttolerance="10"
     gridtolerance="10"
     guidetolerance="10"
     inkscape:pageopacity="0"
     inkscape:pageshadow="2"
     inkscape:window-width="1867"
     inkscape:window-height="1176"
     id="namedview4"
     showgrid="false"
     inkscape:zoom="1.3881674"
     inkscape:cx="414.81237"
     inkscape:cy="311.18252"
     inkscape:window-x="53"
     inkscape:window-y="24"
     inkscape:window-maximized="1"
     inkscape:current-layer="layer1"
     inkscape:snap-bbox="true"
     inkscape:object-nodes="true"
     inkscape:snap-object-midpoints="true" />
  <metadata
     id="metadata8">
    <rdf:RDF>
      <cc:Work
         rdf:about="">
        <dc:format>image/svg+xml</dc:format>
        <dc:type
           rdf:resource="http://purl.org/dc/dcmitype/StillImage" />
        <dc:title />
      </cc:Work>
    </rdf:RDF>
  </metadata>
  <defs
     id="defs6">
    <marker
       inkscape:stockid="TriangleOutL"
       orient="auto"
       refY="0.0"
       refX="0.0"
       id="TriangleOutL"
       style="overflow:visible">
      <path
         id="path5334"
         d="M 5.77,0.0 L -2.88,5.0 L -2.88,-5.0 L 5.77,0.0 z "
         style="fill-rule:evenodd;stroke:#000000;stroke-width:1.0pt;marker-start:none"
         transform="scale(0.8)" />
    </marker>
    <inkscape:perspective
       sodipodi:type="inkscape:persp3d"
       inkscape:vp_x="0 : 0.5 : 1"
       inkscape:vp_y="0 : 1000 : 0"
       inkscape:vp_z="1 : 0.5 : 1"
       inkscape:persp3d-origin="0.5 : 0.33333333 : 1"
       id="perspective10" />
    <inkscape:perspective
       sodipodi:type="inkscape:persp3d"
       inkscape:vp_x="0 : 0.5 : 1"
       inkscape:vp_y="0 : 1000 : 0"
       inkscape:vp_z="1 : 0.5 : 1"
       inkscape:persp3d-origin="0.5 : 0.33333333 : 1"
       id="perspective3964" />
    <inkscape:perspective
       sodipodi:type="inkscape:persp3d"
       inkscape:vp_x="0 : 0.5 : 1"
       inkscape:vp_y="0 : 1000 : 0"
       inkscape:vp_z="1 : 0.5 : 1"
       inkscape:persp3d-origin="0.5 : 0.33333333 : 1"
       id="perspective3936" />
    <inkscape:perspective
       sodipodi:type="inkscape:persp3d"
       inkscape:vp_x="0 : 0.5 : 1"
       inkscape:vp_y="0 : 1000 : 0"
       inkscape:vp_z="1 : 0.5 : 1"
       inkscape:persp3d-origin="0.5 : 0.33333333 : 1"
       id="perspective3875" />
    <inkscape:perspective
       sodipodi:type="inkscape:persp3d"
       inkscape:vp_x="0 : 0.5 : 1"
       inkscape:vp_y="0 : 1000 : 0"
       inkscape:vp_z="1 : 0.5 : 1"
       inkscape:persp3d-origin="0.5 : 0.33333333 : 1"
       id="perspective3850" />
    <inkscape:perspective
       sodipodi:type="inkscape:persp3d"
       inkscape:vp_x="0 : 0.5 : 1"
       inkscape:vp_y="0 : 1000 : 0"
       inkscape:vp_z="1 : 0.5 : 1"
       inkscape:persp3d-origin="0.5 : 0.33333333 : 1"
       id="perspective3817-4" />
    <inkscape:perspective
       sodipodi:type="inkscape:persp3d"
       inkscape:vp_x="0 : 0.5 : 1"
       inkscape:vp_y="0 : 1000 : 0"
       inkscape:vp_z="1 : 0.5 : 1"
       inkscape:persp3d-origin="0.5 : 0.33333333 : 1"
       id="perspective3817" />
    <inkscape:perspective
       sodipodi:type="inkscape:persp3d"
       inkscape:vp_x="0 : 0.5 : 1"
       inkscape:vp_y="0 : 1000 : 0"
       inkscape:vp_z="1 : 0.5 : 1"
       inkscape:persp3d-origin="0.5 : 0.33333333 : 1"
       id="perspective3784-4" />
    <inkscape:perspective
       sodipodi:type="inkscape:persp3d"
       inkscape:vp_x="0 : 0.5 : 1"
       inkscape:vp_y="0 : 1000 : 0"
       inkscape:vp_z="1 : 0.5 : 1"
       inkscape:persp3d-origin="0.5 : 0.33333333 : 1"
       id="perspective3784" />
    <inkscape:perspective
       sodipodi:type="inkscape:persp3d"
       inkscape:vp_x="0 : 0.5 : 1"
       inkscape:vp_y="0 : 1000 : 0"
       inkscape:vp_z="1 : 0.5 : 1"
       inkscape:persp3d-origin="0.5 : 0.33333333 : 1"
       id="perspective3759" />
    <inkscape:perspective
       sodipodi:type="inkscape:persp3d"
       inkscape:vp_x="0 : 0.5 : 1"
       inkscape:vp_y="0 : 1000 : 0"
       inkscape:vp_z="1 : 0.5 : 1"
       inkscape:persp3d-origin="0.5 : 0.33333333 : 1"
       id="perspective3733" />
    <inkscape:perspective
       sodipodi:type="inkscape:persp3d"
       inkscape:vp_x="0 : 0.5 : 1"
       inkscape:vp_y="0 : 1000 : 0"
       inkscape:vp_z="1 : 0.5 : 1"
       inkscape:persp3d-origin="0.5 : 0.33333333 : 1"
       id="perspective3711" />
    <inkscape:perspective
       sodipodi:type="inkscape:persp3d"
       inkscape:vp_x="0 : 0.5 : 1"
       inkscape:vp_y="0 : 1000 : 0"
       inkscape:vp_z="1 : 0.5 : 1"
       inkscape:persp3d-origin="0.5 : 0.33333333 : 1"
       id="perspective3657" />
    <inkscape:perspective
       sodipodi:type="inkscape:persp3d"
       inkscape:vp_x="0 : 0.5 : 1"
       inkscape:vp_y="0 : 1000 : 0"
       inkscape:vp_z="1 : 0.5 : 1"
       inkscape:persp3d-origin="0.5 : 0.33333333 : 1"
       id="perspective3632" />
    <inkscape:perspective
       sodipodi:type="inkscape:persp3d"
       inkscape:vp_x="0 : 0.5 : 1"
       inkscape:vp_y="0 : 1000 : 0"
       inkscape:vp_z="1 : 0.5 : 1"
       inkscape:persp3d-origin="0.5 : 0.33333333 : 1"
       id="perspective3610" />
    <inkscape:perspective
       sodipodi:type="inkscape:persp3d"
       inkscape:vp_x="0 : 0.5 : 1"
       inkscape:vp_y="0 : 1000 : 0"
       inkscape:vp_z="1 : 0.5 : 1"
       inkscape:persp3d-origin="0.5 : 0.33333333 : 1"
       id="perspective3588" />
    <inkscape:perspective
       sodipodi:type="inkscape:persp3d"
       inkscape:vp_x="0 : 0.5 : 1"
       inkscape:vp_y="0 : 1000 : 0"
       inkscape:vp_z="1 : 0.5 : 1"
       inkscape:persp3d-origin="0.5 : 0.33333333 : 1"
       id="perspective3549-2" />
    <inkscape:perspective
       sodipodi:type="inkscape:persp3d"
       inkscape:vp_x="0 : 0.5 : 1"
       inkscape:vp_y="0 : 1000 : 0"
       inkscape:vp_z="1 : 0.5 : 1"
       inkscape:persp3d-origin="0.5 : 0.33333333 : 1"
       id="perspective3549" />
    <inkscape:perspective
       sodipodi:type="inkscape:persp3d"
       inkscape:vp_x="0 : 0.5 : 1"
       inkscape:vp_y="0 : 1000 : 0"
       inkscape:vp_z="1 : 0.5 : 1"
       inkscape:persp3d-origin="0.5 : 0.33333333 : 1"
       id="perspective3527" />
    <inkscape:perspective
       sodipodi:type="inkscape:persp3d"
       inkscape:vp_x="0 : 0.5 : 1"
       inkscape:vp_y="0 : 1000 : 0"
       inkscape:vp_z="1 : 0.5 : 1"
       inkscape:persp3d-origin="0.5 : 0.33333333 : 1"
       id="perspective3437" />
    <inkscape:perspective
       sodipodi:type="inkscape:persp3d"
       inkscape:vp_x="0 : 0.5 : 1"
       inkscape:vp_y="0 : 1000 : 0"
       inkscape:vp_z="1 : 0.5 : 1"
       inkscape:persp3d-origin="0.5 : 0.33333333 : 1"
       id="perspective3396" />
    <inkscape:perspective
       sodipodi:type="inkscape:persp3d"
       inkscape:vp_x="0 : 0.5 : 1"
       inkscape:vp_y="0 : 1000 : 0"
       inkscape:vp_z="1 : 0.5 : 1"
       inkscape:persp3d-origin="0.5 : 0.33333333 : 1"
       id="perspective3374" />
    <inkscape:perspective
       sodipodi:type="inkscape:persp3d"
       inkscape:vp_x="0 : 0.5 : 1"
       inkscape:vp_y="0 : 1000 : 0"
       inkscape:vp_z="1 : 0.5 : 1"
       inkscape:persp3d-origin="0.5 : 0.33333333 : 1"
       id="perspective3352" />
    <inkscape:perspective
       sodipodi:type="inkscape:persp3d"
       inkscape:vp_x="0 : 0.5 : 1"
       inkscape:vp_y="0 : 1000 : 0"
       inkscape:vp_z="1 : 0.5 : 1"
       inkscape:persp3d-origin="0.5 : 0.33333333 : 1"
       id="perspective3330" />
    <inkscape:perspective
       sodipodi:type="inkscape:persp3d"
       inkscape:vp_x="0 : 0.5 : 1"
       inkscape:vp_y="0 : 1000 : 0"
       inkscape:vp_z="1 : 0.5 : 1"
       inkscape:persp3d-origin="0.5 : 0.33333333 : 1"
       id="perspective3308" />
    <inkscape:perspective
       sodipodi:type="inkscape:persp3d"
       inkscape:vp_x="0 : 0.5 : 1"
       inkscape:vp_y="0 : 1000 : 0"
       inkscape:vp_z="1 : 0.5 : 1"
       inkscape:persp3d-origin="0.5 : 0.33333333 : 1"
       id="perspective3286" />
    <inkscape:perspective
       sodipodi:type="inkscape:persp3d"
       inkscape:vp_x="0 : 0.5 : 1"
       inkscape:vp_y="0 : 1000 : 0"
       inkscape:vp_z="1 : 0.5 : 1"
       inkscape:persp3d-origin="0.5 : 0.33333333 : 1"
       id="perspective3194" />
    <inkscape:perspective
       sodipodi:type="inkscape:persp3d"
       inkscape:vp_x="0 : 0.5 : 1"
       inkscape:vp_y="0 : 1000 : 0"
       inkscape:vp_z="1 : 0.5 : 1"
       inkscape:persp3d-origin="0.5 : 0.33333333 : 1"
       id="perspective3145" />
    <inkscape:perspective
       sodipodi:type="inkscape:persp3d"
       inkscape:vp_x="0 : 0.5 : 1"
       inkscape:vp_y="0 : 1000 : 0"
       inkscape:vp_z="1 : 0.5 : 1"
       inkscape:persp3d-origin="0.5 : 0.33333333 : 1"
       id="perspective3109-4" />
    <inkscape:perspective
       sodipodi:type="inkscape:persp3d"
       inkscape:vp_x="0 : 0.5 : 1"
       inkscape:vp_y="0 : 1000 : 0"
       inkscape:vp_z="1 : 0.5 : 1"
       inkscape:persp3d-origin="0.5 : 0.33333333 : 1"
       id="perspective3109" />
    <inkscape:perspective
       sodipodi:type="inkscape:persp3d"
       inkscape:vp_x="0 : 0.5 : 1"
       inkscape:vp_y="0 : 1000 : 0"
       inkscape:vp_z="1 : 0.5 : 1"
       inkscape:persp3d-origin="0.5 : 0.33333333 : 1"
       id="perspective3084" />
    <inkscape:perspective
       sodipodi:type="inkscape:persp3d"
       inkscape:vp_x="0 : 0.5 : 1"
       inkscape:vp_y="0 : 1000 : 0"
       inkscape:vp_z="1 : 0.5 : 1"
       inkscape:persp3d-origin="0.5 : 0.33333333 : 1"
       id="perspective3066" />
    <linearGradient
       gradientUnits="userSpaceOnUse"
       xlink:href="#linearGradient3378"
       id="linearGradient3384"
       y2="128.5"
       x2="578.5"
       y1="128.5"
       x1="522.5" />
    <radialGradient
       gradientTransform="matrix(1,0,0,1.6153,0,-243.658)"
       gradientUnits="userSpaceOnUse"
       xlink:href="#linearGradient3360"
       id="radialGradient3374"
       fy="396"
       fx="390"
       r="73.135193"
       cy="396"
       cx="390" />
    <radialGradient
       gradientTransform="matrix(1,0,0,1.39821,0,-178.808)"
       gradientUnits="userSpaceOnUse"
       xlink:href="#linearGradient3360"
       id="radialGradient3366"
       fy="449.03214"
       fx="772.62878"
       r="130.44501"
       cy="449.03214"
       cx="772.62878" />
    <linearGradient
       id="linearGradient3360">
      <stop
         offset="0"
         style="stop-color: rgb(208, 245, 252); stop-opacity: 1;"
         id="stop3362" />
      <stop
         offset="1"
         style="stop-color: rgb(115, 181, 194); stop-opacity: 1;"
         id="stop3364" />
    </linearGradient>
    <linearGradient
       id="linearGradient3378">
      <stop
         offset="0"
         style="stop-color: rgb(170, 169, 169); stop-opacity: 1;"
         id="stop3380" />
      <stop
         offset="1"
         style="stop-color: rgb(255, 255, 255); stop-opacity: 1;"
         id="stop3382" />
    </linearGradient>
    <inkscape:perspective
       id="perspective132"
       inkscape:persp3d-origin="455 : 290.33333 : 1"
       inkscape:vp_z="910 : 435.5 : 1"
       inkscape:vp_y="0 : 1000 : 0"
       inkscape:vp_x="0 : 435.5 : 1"
       sodipodi:type="inkscape:persp3d" />
    <inkscape:perspective
       id="perspective3584"
       inkscape:persp3d-origin="0.5 : 0.33333333 : 1"
       inkscape:vp_z="1 : 0.5 : 1"
       inkscape:vp_y="0 : 1000 : 0"
       inkscape:vp_x="0 : 0.5 : 1"
       sodipodi:type="inkscape:persp3d" />
    <radialGradient
       inkscape:collect="always"
       xlink:href="#linearGradient3360-0"
       id="radialGradient3574-2"
       gradientUnits="userSpaceOnUse"
       gradientTransform="matrix(1,0,0,1.39821,-1348.485,-172.98678)"
       cx="772.62878"
       cy="449.03214"
       fx="772.62878"
       fy="449.03214"
       r="130.44501" />
    <linearGradient
       id="linearGradient3360-0">
      <stop
         offset="0"
         style="stop-color: rgb(208, 245, 252); stop-opacity: 1;"
         id="stop3362-7" />
      <stop
         offset="1"
         style="stop-color: rgb(115, 181, 194); stop-opacity: 1;"
         id="stop3364-3" />
    </linearGradient>
    <inkscape:perspective
       id="perspective4394"
       inkscape:persp3d-origin="0.5 : 0.33333333 : 1"
       inkscape:vp_z="1 : 0.5 : 1"
       inkscape:vp_y="0 : 1000 : 0"
       inkscape:vp_x="0 : 0.5 : 1"
       sodipodi:type="inkscape:persp3d" />
    <radialGradient
       inkscape:collect="always"
       xlink:href="#linearGradient3360-4"
       id="radialGradient3571-2"
       gradientUnits="userSpaceOnUse"
       gradientTransform="matrix(1.10756,-0.610282,0.77042703,1.7823866,-1730.5371,-93.952967)"
       cx="390"
       cy="396"
       fx="390"
       fy="396"
       r="73.135193" />
    <linearGradient
       id="linearGradient3360-4">
      <stop
         offset="0"
         style="stop-color: rgb(208, 245, 252); stop-opacity: 1;"
         id="stop3362-3" />
      <stop
         offset="1"
         style="stop-color: rgb(115, 181, 194); stop-opacity: 1;"
         id="stop3364-7" />
    </linearGradient>
    <inkscape:perspective
       id="perspective4432"
       inkscape:persp3d-origin="0.5 : 0.33333333 : 1"
       inkscape:vp_z="1 : 0.5 : 1"
       inkscape:vp_y="0 : 1000 : 0"
       inkscape:vp_x="0 : 0.5 : 1"
       sodipodi:type="inkscape:persp3d" />
    <inkscape:perspective
       id="perspective4666"
       inkscape:persp3d-origin="0.5 : 0.33333333 : 1"
       inkscape:vp_z="1 : 0.5 : 1"
       inkscape:vp_y="0 : 1000 : 0"
       inkscape:vp_x="0 : 0.5 : 1"
       sodipodi:type="inkscape:persp3d" />
    <inkscape:perspective
       id="perspective4666-8"
       inkscape:persp3d-origin="0.5 : 0.33333333 : 1"
       inkscape:vp_z="1 : 0.5 : 1"
       inkscape:vp_y="0 : 1000 : 0"
       inkscape:vp_x="0 : 0.5 : 1"
       sodipodi:type="inkscape:persp3d" />
    <inkscape:perspective
       id="perspective4729"
       inkscape:persp3d-origin="0.5 : 0.33333333 : 1"
       inkscape:vp_z="1 : 0.5 : 1"
       inkscape:vp_y="0 : 1000 : 0"
       inkscape:vp_x="0 : 0.5 : 1"
       sodipodi:type="inkscape:persp3d" />
    <inkscape:perspective
       id="perspective4858"
       inkscape:persp3d-origin="0.5 : 0.33333333 : 1"
       inkscape:vp_z="1 : 0.5 : 1"
       inkscape:vp_y="0 : 1000 : 0"
       inkscape:vp_x="0 : 0.5 : 1"
       sodipodi:type="inkscape:persp3d" />
    <inkscape:perspective
       id="perspective5020"
       inkscape:persp3d-origin="0.5 : 0.33333333 : 1"
       inkscape:vp_z="1 : 0.5 : 1"
       inkscape:vp_y="0 : 1000 : 0"
       inkscape:vp_x="0 : 0.5 : 1"
       sodipodi:type="inkscape:persp3d" />
    <inkscape:perspective
       id="perspective5020-2"
       inkscape:persp3d-origin="0.5 : 0.33333333 : 1"
       inkscape:vp_z="1 : 0.5 : 1"
       inkscape:vp_y="0 : 1000 : 0"
       inkscape:vp_x="0 : 0.5 : 1"
       sodipodi:type="inkscape:persp3d" />
    <inkscape:perspective
       id="perspective5020-7"
       inkscape:persp3d-origin="0.5 : 0.33333333 : 1"
       inkscape:vp_z="1 : 0.5 : 1"
       inkscape:vp_y="0 : 1000 : 0"
       inkscape:vp_x="0 : 0.5 : 1"
       sodipodi:type="inkscape:persp3d" />
    <inkscape:perspective
       id="perspective5667"
       inkscape:persp3d-origin="0.5 : 0.33333333 : 1"
       inkscape:vp_z="1 : 0.5 : 1"
       inkscape:vp_y="0 : 1000 : 0"
       inkscape:vp_x="0 : 0.5 : 1"
       sodipodi:type="inkscape:persp3d" />
    <inkscape:perspective
       id="perspective5700"
       inkscape:persp3d-origin="0.5 : 0.33333333 : 1"
       inkscape:vp_z="1 : 0.5 : 1"
       inkscape:vp_y="0 : 1000 : 0"
       inkscape:vp_x="0 : 0.5 : 1"
       sodipodi:type="inkscape:persp3d" />
    <inkscape:perspective
       id="perspective5744"
       inkscape:persp3d-origin="0.5 : 0.33333333 : 1"
       inkscape:vp_z="1 : 0.5 : 1"
       inkscape:vp_y="0 : 1000 : 0"
       inkscape:vp_x="0 : 0.5 : 1"
       sodipodi:type="inkscape:persp3d" />
    <inkscape:perspective
       id="perspective6592"
       inkscape:persp3d-origin="0.5 : 0.33333333 : 1"
       inkscape:vp_z="1 : 0.5 : 1"
       inkscape:vp_y="0 : 1000 : 0"
       inkscape:vp_x="0 : 0.5 : 1"
       sodipodi:type="inkscape:persp3d" />
    <inkscape:perspective
       id="perspective6614"
       inkscape:persp3d-origin="0.5 : 0.33333333 : 1"
       inkscape:vp_z="1 : 0.5 : 1"
       inkscape:vp_y="0 : 1000 : 0"
       inkscape:vp_x="0 : 0.5 : 1"
       sodipodi:type="inkscape:persp3d" />
    <inkscape:perspective
       id="perspective6636"
       inkscape:persp3d-origin="0.5 : 0.33333333 : 1"
       inkscape:vp_z="1 : 0.5 : 1"
       inkscape:vp_y="0 : 1000 : 0"
       inkscape:vp_x="0 : 0.5 : 1"
       sodipodi:type="inkscape:persp3d" />
    <marker
       inkscape:stockid="TriangleOutL"
       orient="auto"
       refY="0"
       refX="0"
       id="TriangleOutL-7"
       style="overflow:visible">
      <path
         inkscape:connector-curvature="0"
         id="path5334-5"
         d="m 5.77,0 -8.65,5 0,-10 8.65,5 z"
         style="fill-rule:evenodd;stroke:#000000;stroke-width:1pt;marker-start:none"
         transform="scale(0.8,0.8)" />
    </marker>
    <marker
       inkscape:stockid="TriangleOutL"
       orient="auto"
       refY="0"
       refX="0"
       id="TriangleOutL-7-3"
       style="overflow:visible">
      <path
         inkscape:connector-curvature="0"
         id="path5334-5-5"
         d="m 5.77,0 -8.65,5 0,-10 8.65,5 z"
         style="fill-rule:evenodd;stroke:#000000;stroke-width:1pt;marker-start:none"
         transform="scale(0.8,0.8)" />
    </marker>
    <marker
       inkscape:stockid="TriangleOutL-7K"
       orient="auto"
       refY="0"
       refX="0"
       id="TriangleOutL-7K"
       style="overflow:visible">
      <path
         inkscape:connector-curvature="0"
         id="path4320"
         d="m 5.77,0 -8.65,5 0,-10 8.65,5 z"
         style="marker-start:none;stroke:#008000;stroke-width:1pt;fill:#008000;fill-rule:evenodd"
         transform="scale(0.8,0.8)" />
    </marker>
    <marker
       inkscape:stockid="TriangleOutL-7-3Q"
       orient="auto"
       refY="0"
       refX="0"
       id="TriangleOutL-7-3Q"
       style="overflow:visible">
      <path
         inkscape:connector-curvature="0"
         id="path4522"
         d="m 5.77,0 -8.65,5 0,-10 8.65,5 z"
         style="marker-start:none;stroke:#008000;stroke-width:1pt;fill:#008000;fill-rule:evenodd"
         transform="scale(0.8,0.8)" />
    </marker>
    <marker
       inkscape:stockid="TriangleOutL"
       orient="auto"
       refY="0"
       refX="0"
       id="TriangleOutL-7-3-3"
       style="overflow:visible">
      <path
         inkscape:connector-curvature="0"
         id="path5334-5-5-6"
         d="m 5.77,0 -8.65,5 0,-10 8.65,5 z"
         style="fill-rule:evenodd;stroke:#000000;stroke-width:1pt;marker-start:none"
         transform="scale(0.8,0.8)" />
    </marker>
    <marker
       inkscape:stockid="TriangleOutL"
       orient="auto"
       refY="0"
       refX="0"
       id="TriangleOutL-7-3-5"
       style="overflow:visible">
      <path
         inkscape:connector-curvature="0"
         id="path5334-5-5-3"
         d="m 5.77,0 -8.65,5 0,-10 8.65,5 z"
         style="fill-rule:evenodd;stroke:#000000;stroke-width:1pt;marker-start:none"
         transform="scale(0.8,0.8)" />
    </marker>
    <marker
       inkscape:stockid="TriangleOutL"
       orient="auto"
       refY="0"
       refX="0"
       id="TriangleOutL-7-3-6"
       style="overflow:visible">
      <path
         inkscape:connector-curvature="0"
         id="path5334-5-5-2"
         d="m 5.77,0 -8.65,5 0,-10 8.65,5 z"
         style="fill-rule:evenodd;stroke:#000000;stroke-width:1pt;marker-start:none"
         transform="scale(0.8,0.8)" />
    </marker>
    <marker
       inkscape:stockid="TriangleOutL-7-3Q"
       orient="auto"
       refY="0"
       refX="0"
       id="TriangleOutL-7-3Q-1"
       style="overflow:visible">
      <path
         inkscape:connector-curvature="0"
         id="path4522-2"
         d="m 5.77,0 -8.65,5 0,-10 8.65,5 z"
         style="fill:#008000;fill-rule:evenodd;stroke:#008000;stroke-width:1pt;marker-start:none"
         transform="scale(0.8,0.8)" />
    </marker>
    <marker
       inkscape:stockid="TriangleOutL-7-3Q-1y"
       orient="auto"
       refY="0"
       refX="0"
       id="TriangleOutL-7-3Q-1y"
       style="overflow:visible">
      <path
         inkscape:connector-curvature="0"
         id="path8763"
         d="m 5.77,0 -8.65,5 0,-10 8.65,5 z"
         style="stroke-width:1pt;marker-start:none;stroke:#cccccc;fill-rule:evenodd;fill:#cccccc"
         transform="scale(0.8,0.8)" />
    </marker>
    <marker
       inkscape:stockid="TriangleOutL-7-3-5y"
       orient="auto"
       refY="0"
       refX="0"
       id="TriangleOutL-7-3-5y"
       style="overflow:visible">
      <path
         inkscape:connector-curvature="0"
         id="path9469"
         d="m 5.77,0 -8.65,5 0,-10 8.65,5 z"
         style="marker-start:none;stroke:#cccccc;stroke-width:1pt;fill:#cccccc;fill-rule:evenodd"
         transform="scale(0.8,0.8)" />
    </marker>
    <marker
       inkscape:stockid="TriangleOutL-7-3-5y"
       orient="auto"
       refY="0"
       refX="0"
       id="TriangleOutL-7-3-5y-9"
       style="overflow:visible">
      <path
         inkscape:connector-curvature="0"
         id="path9469-3"
         d="m 5.77,0 -8.65,5 0,-10 8.65,5 z"
         style="fill:#cccccc;fill-rule:evenodd;stroke:#cccccc;stroke-width:1pt;marker-start:none"
         transform="scale(0.8,0.8)" />
    </marker>
    <marker
       inkscape:stockid="TriangleOutL-7-3-5yh"
       orient="auto"
       refY="0"
       refX="0"
       id="TriangleOutL-7-3-5yh"
       style="overflow:visible">
      <path
         inkscape:connector-curvature="0"
         id="path9874"
         d="m 5.77,0 -8.65,5 0,-10 8.65,5 z"
         style="fill-rule:evenodd;marker-start:none;stroke:#808080;stroke-width:1pt;fill:#808080"
         transform="scale(0.8,0.8)" />
    </marker>
    <marker
       inkscape:stockid="TriangleOutL-7-3-5yt"
       orient="auto"
       refY="0"
       refX="0"
       id="TriangleOutL-7-3-5yt"
       style="overflow:visible">
      <path
         inkscape:connector-curvature="0"
         id="path9877"
         d="m 5.77,0 -8.65,5 0,-10 8.65,5 z"
         style="fill-rule:evenodd;marker-start:none;stroke:#808080;stroke-width:1pt;fill:#808080"
         transform="scale(0.8,0.8)" />
    </marker>
  </defs>
  <g
     style="font-size:29.35334778px;font-style:normal;font-variant:normal;font-weight:bold;font-stretch:normal;fill:#000000;fill-opacity:1;stroke:none;font-family:times;-inkscape-font-specification:Andale Mono"
     id="text3072-5-9"
     transform="translate(-1348.485,5.8212172)" />
  <g
     inkscape:groupmode="layer"
     id="layer1"
     inkscape:label="Layer 1">
    <path
       style="color:#000000;display:inline;overflow:visible;visibility:visible;fill:#e6e6e6;fill-rule:evenodd;stroke:#000000;stroke-width:0.5;stroke-linecap:butt;stroke-linejoin:miter;stroke-miterlimit:4;stroke-dasharray:none;stroke-dashoffset:0;stroke-opacity:1;marker:none;marker-start:none;marker-mid:none;marker-end:none;enable-background:accumulate"
       d="m 310.72271,393.48368 c 7.2628,-13.20726 -14.99918,-26.87638 -17.31897,-41.76928 -4.9828,-31.98927 28.77652,-71.82868 8.1501,-96.78248 C 274.79402,222.55795 201.78415,208.34187 176.246,241.688 c -16.60313,21.67934 24.13515,49.64156 29.54412,76.40722 4.50884,22.31148 -9.51704,48.6453 2.03753,68.25712 6.4152,10.88866 20.17076,17.07143 32.60041,19.3565 23.39127,4.30026 58.8345,8.61491 70.29465,-12.22516 z"
       id="path4646"
       inkscape:connector-curvature="0"
       sodipodi:nodetypes="aaaaaaaa" />
    <path
       style="fill:none;stroke:#000000;stroke-width:2;stroke-linecap:butt;stroke-linejoin:miter;stroke-miterlimit:4;stroke-dasharray:none;stroke-opacity:1;marker-start:none;marker-end:url(#TriangleOutL-7-3)"
       d="M 136.51424,463.77833 263.97993,384.44924"
       id="path6214"
       sodipodi:nodetypes="cc"
       inkscape:connector-curvature="0" />
    <circle
       r="5.2227125"
       cy="378.55649"
       cx="273.43155"
       id="circle4572"
       style="color:#000000;clip-rule:nonzero;display:inline;overflow:visible;visibility:visible;opacity:1;isolation:auto;mix-blend-mode:normal;color-interpolation:sRGB;color-interpolation-filters:linearRGB;solid-color:#000000;solid-opacity:1;fill:#000000;fill-opacity:1;fill-rule:nonzero;marker:none;marker-start:none;marker-mid:none;marker-end:none;color-rendering:auto;image-rendering:auto;shape-rendering:auto;text-rendering:auto;enable-background:accumulate" />
    <circle
       r="5.2227125"
       cy="282.79279"
       cx="228.60597"
       id="circle4574"
       style="color:#000000;clip-rule:nonzero;display:inline;overflow:visible;visibility:visible;opacity:1;isolation:auto;mix-blend-mode:normal;color-interpolation:sRGB;color-interpolation-filters:linearRGB;solid-color:#000000;solid-opacity:1;fill:#000000;fill-opacity:1;fill-rule:nonzero;marker:none;marker-start:none;marker-mid:none;marker-end:none;color-rendering:auto;image-rendering:auto;shape-rendering:auto;text-rendering:auto;enable-background:accumulate" />
    <path
       sodipodi:nodetypes="aaaaaaaa"
       inkscape:connector-curvature="0"
       id="path4658"
       d="m 547.23766,350.3867 c 11.42367,-19.24355 -0.38112,-39.16005 4.16177,-60.85965 9.75792,-46.60977 53.62055,-104.65751 47.95043,-141.01628 -7.35613,-47.17028 -59.19235,-67.883727 -93.74869,-19.29698 -22.46613,31.58775 -2.12777,72.32993 -9.30856,111.32864 -5.9858,32.5088 -28.40205,70.87833 -27.64028,99.4536 0.42293,15.86525 8.68716,24.87381 17.57001,28.20325 16.71658,6.26568 42.98962,12.55231 61.01532,-17.81258 z"
       style="color:#000000;display:inline;overflow:visible;visibility:visible;fill:#cccccc;fill-rule:evenodd;stroke:#000000;stroke-width:0.5;stroke-linecap:butt;stroke-linejoin:miter;stroke-miterlimit:4;stroke-dasharray:none;stroke-dashoffset:0;stroke-opacity:1;marker:none;marker-start:none;marker-mid:none;marker-end:none;enable-background:accumulate" />
    <circle
       r="5.2227125"
       cy="328.63712"
       cx="524.04724"
       id="circle4576"
       style="color:#000000;clip-rule:nonzero;display:inline;overflow:visible;visibility:visible;opacity:1;isolation:auto;mix-blend-mode:normal;color-interpolation:sRGB;color-interpolation-filters:linearRGB;solid-color:#000000;solid-opacity:1;fill:#000000;fill-opacity:1;fill-rule:nonzero;marker:none;marker-start:none;marker-mid:none;marker-end:none;color-rendering:auto;image-rendering:auto;shape-rendering:auto;text-rendering:auto;enable-background:accumulate" />
    <circle
       r="5.2227125"
       cy="188.04782"
       cx="530.15979"
       id="circle4578"
       style="color:#000000;clip-rule:nonzero;display:inline;overflow:visible;visibility:visible;opacity:1;isolation:auto;mix-blend-mode:normal;color-interpolation:sRGB;color-interpolation-filters:linearRGB;solid-color:#000000;solid-opacity:1;fill:#000000;fill-opacity:1;fill-rule:nonzero;marker:none;marker-start:none;marker-mid:none;marker-end:none;color-rendering:auto;image-rendering:auto;shape-rendering:auto;text-rendering:auto;enable-background:accumulate" />
    <path
       style="color:#000000;display:inline;overflow:visible;visibility:visible;fill:none;fill-rule:evenodd;stroke:#000000;stroke-width:2;stroke-linecap:square;stroke-linejoin:miter;stroke-miterlimit:4;stroke-dasharray:none;stroke-dashoffset:0;stroke-opacity:1;marker:none;marker-start:none;marker-mid:none;marker-end:url(#TriangleOutL-7);enable-background:accumulate"
       d="m 136.51424,463.77833 0,-169.11466"
       id="path4580"
       inkscape:connector-curvature="0" />
    <path
       style="color:#000000;display:inline;overflow:visible;visibility:visible;fill:none;fill-rule:evenodd;stroke:#000000;stroke-width:2;stroke-linecap:square;stroke-linejoin:miter;stroke-miterlimit:4;stroke-dasharray:none;stroke-dashoffset:0;stroke-opacity:1;marker:none;marker-start:none;marker-mid:none;marker-end:url(#TriangleOutL-7);enable-background:accumulate"
       d="m 136.51424,463.77833 169.11466,0"
       id="path4584"
       inkscape:connector-curvature="0" />
    <path
       inkscape:connector-curvature="0"
       sodipodi:nodetypes="cc"
       id="path4608"
       d="M 273.43155,378.55649 234.80145,292.6877"
       style="fill:none;stroke:#000000;stroke-width:2;stroke-linecap:butt;stroke-linejoin:miter;stroke-miterlimit:4;stroke-dasharray:none;stroke-opacity:1;marker-start:none;marker-end:url(#TriangleOutL-7-3)" />
    <path
       style="fill:none;stroke:#000000;stroke-width:2;stroke-linecap:butt;stroke-linejoin:miter;stroke-miterlimit:4;stroke-dasharray:none;stroke-opacity:1;marker-start:none;marker-end:url(#TriangleOutL-7-3)"
       d="m 524.04724,328.63712 5.58287,-129.36138"
       id="path4610"
       sodipodi:nodetypes="cc"
       inkscape:connector-curvature="0" />
    <path
       inkscape:connector-curvature="0"
       sodipodi:nodetypes="cc"
       id="path4614"
       d="M 228.60597,282.79279 508.72183,194.96465"
       style="fill:none;stroke:#008000;stroke-width:4;stroke-linecap:butt;stroke-linejoin:miter;stroke-miterlimit:4;stroke-dasharray:none;stroke-opacity:1;marker-start:none;marker-end:url(#TriangleOutL-7K)" />
    <g
       transform="translate(69.136231,111.9564)"
       id="g10252">
      <g
         style="font-style:normal;font-variant:normal;font-weight:normal;font-stretch:normal;letter-spacing:normal;word-spacing:normal;text-anchor:start;fill:none;fill-opacity:1;fill-rule:evenodd;stroke:#000000;stroke-linecap:butt;stroke-linejoin:miter;stroke-miterlimit:10.43299961;stroke-dasharray:none;stroke-dashoffset:0;stroke-opacity:1"
         id="content"
         transform="matrix(0.99,0,0,-0.99,-173.25,720)"
         xml:space="preserve"
         stroke-miterlimit="10.433"
         font-style="normal"
         font-variant="normal"
         font-weight="normal"
         font-stretch="normal"
         font-size-adjust="none"
         letter-spacing="normal"
         word-spacing="normal"><path
           style="fill:#000000;stroke-width:0"
           inkscape:connector-curvature="0"
           d="m 481.75,435.64 -0.07,-0.06 -0.07,-0.07 -0.08,-0.07 -0.08,-0.07 -0.09,-0.08 -0.09,-0.08 -0.09,-0.09 -0.09,-0.09 -0.1,-0.09 -0.09,-0.09 -0.2,-0.19 -0.19,-0.19 -0.19,-0.21 -0.09,-0.1 -0.09,-0.1 -0.09,-0.1 -0.08,-0.11 -0.08,-0.1 -0.08,-0.1 -0.07,-0.1 -0.06,-0.1 -0.06,-0.1 -0.05,-0.1 -0.05,-0.1 -0.04,-0.09 -0.03,-0.1 -0.02,-0.09 -0.02,-0.09 0,-0.08 c 0,-0.5 0.5,-1 1,-1 0.44,0 0.69,0.35 0.94,0.65 0.6,0.75 1.74,2.14 3.94,3.24 0.35,0.2 0.84,0.45 0.84,1.05 0,0.49 -0.34,0.74 -0.69,0.99 -1.1,0.75 -1.65,1.64 -2.05,2.84 -0.1,0.45 -0.3,1.1 -0.99,1.1 -0.7,0 -1,-0.65 -1,-1.05 0,-0.25 0.4,-1.84 1.2,-2.89 l -16.79,0 c -0.85,0 -1.74,0 -1.74,-0.99 0,-1 0.89,-1 1.74,-1 z"
           id="path10255" /><path
           style="fill:#000000;stroke-width:0"
           inkscape:connector-curvature="0"
           d="m 472.64,421.04 0.03,0.13 0.03,0.15 0.05,0.17 0.04,0.18 0.06,0.19 0.06,0.21 0.06,0.21 0.07,0.23 0.08,0.23 0.09,0.24 0.1,0.25 0.1,0.24 0.11,0.25 0.12,0.25 0.13,0.25 0.14,0.25 0.15,0.24 0.15,0.24 0.17,0.23 0.18,0.22 0.18,0.22 0.2,0.2 0.21,0.19 0.22,0.18 0.23,0.16 0.25,0.14 0.12,0.07 0.13,0.06 0.13,0.05 0.14,0.05 0.14,0.05 0.14,0.04 0.14,0.03 0.15,0.03 0.15,0.02 0.16,0.02 0.16,0.01 0.16,0 c 0.25,0 1.45,0 2.49,-0.65 -1.4,-0.25 -2.39,-1.49 -2.39,-2.68 0,-0.8 0.54,-1.75 1.89,-1.75 1.1,0 2.69,0.9 2.69,2.89 0,2.59 -2.94,3.29 -4.63,3.29 -2.89,0 -4.64,-2.64 -5.23,-3.79 -1.25,3.29 -3.94,3.79 -5.38,3.79 -5.18,0 -8.02,-6.43 -8.02,-7.67 0,-0.5 0.5,-0.5 0.6,-0.5 0.39,0 0.54,0.1 0.64,0.54 1.7,5.29 4.98,6.53 6.68,6.53 0.95,0 2.69,-0.45 2.69,-3.33 0,-1.55 -0.85,-4.89 -2.69,-11.86 -0.8,-3.09 -2.54,-5.18 -4.73,-5.18 -0.3,0 -1.45,0 -2.49,0.65 1.24,0.25 2.34,1.29 2.34,2.69 0,1.34 -1.1,1.74 -1.85,1.74 -1.49,0 -2.73,-1.3 -2.73,-2.89 0,-2.29 2.48,-3.29 4.68,-3.29 3.28,0 5.08,3.49 5.23,3.79 0.6,-1.85 2.39,-3.79 5.38,-3.79 5.13,0 7.97,6.43 7.97,7.67 0,0.5 -0.45,0.5 -0.6,0.5 -0.45,0 -0.55,-0.2 -0.65,-0.55 -1.64,-5.33 -5.03,-6.52 -6.62,-6.52 -1.95,0 -2.74,1.59 -2.74,3.29 0,1.09 0.29,2.19 0.85,4.38 z"
           id="path10257" /></g>    </g>
    <g
       id="g13097"
       transform="translate(249.60208,-12.202127)">
      <g
         word-spacing="normal"
         letter-spacing="normal"
         font-size-adjust="none"
         font-stretch="normal"
         font-weight="normal"
         font-variant="normal"
         font-style="normal"
         stroke-miterlimit="10.433"
         xml:space="preserve"
         transform="matrix(0.99,0,0,-0.99,-173.25,720)"
         id="g13099"
         style="font-style:normal;font-variant:normal;font-weight:normal;font-stretch:normal;letter-spacing:normal;word-spacing:normal;text-anchor:start;fill:none;fill-opacity:1;fill-rule:evenodd;stroke:#000000;stroke-linecap:butt;stroke-linejoin:miter;stroke-miterlimit:10.43299961;stroke-dasharray:none;stroke-dashoffset:0;stroke-opacity:1"><path
           id="path13101"
           d="m 481.7,440.02 0,0.01 0,0 0,0.01 0,0.01 0,0.01 0,0.01 0,0.02 0,0.02 -0.01,0.02 0,0.02 -0.01,0.02 0,0.02 -0.01,0.03 -0.01,0.02 -0.01,0.03 -0.01,0.02 -0.02,0.02 -0.01,0.03 -0.02,0.02 -0.02,0.03 -0.03,0.02 -0.01,0.01 -0.01,0.01 -0.01,0.01 -0.02,0.01 -0.01,0.01 -0.02,0.01 -0.01,0.01 -0.02,0.01 -0.02,0.01 -0.02,0.01 -0.01,0.01 -0.02,0 -0.03,0.01 -0.02,0.01 -0.02,0 -0.02,0.01 -0.02,0 -0.03,0.01 -0.02,0 -0.03,0 -0.03,0.01 -0.03,0 -0.03,0 -0.03,0 c -0.74,0 -5.47,-0.45 -6.32,-0.55 -0.4,-0.05 -0.7,-0.3 -0.7,-0.95 0,-0.59 0.45,-0.59 1.2,-0.59 2.39,0 2.49,-0.35 2.49,-0.85 l -0.15,-0.99 -2.99,-11.81 c -0.9,1.84 -2.34,3.19 -4.58,3.19 l 0.05,-1.1 c 3.24,0 3.93,-4.08 3.93,-4.38 0,-0.3 -0.1,-0.6 -0.15,-0.85 l -2.49,-9.76 c -0.25,-0.9 -0.25,-1 -0.99,-1.84 -2.19,-2.75 -4.24,-3.54 -5.63,-3.54 -2.49,0 -3.19,2.74 -3.19,4.68 0,2.49 1.59,8.62 2.74,10.91 1.54,2.94 3.78,4.78 5.78,4.78 l -0.05,1.1 c -5.83,0 -12.01,-7.32 -12.01,-14.6 0,-4.68 2.74,-7.97 6.63,-7.97 0.99,0 3.49,0.2 6.47,3.74 0.4,-2.09 2.14,-3.74 4.53,-3.74 1.75,0 2.9,1.15 3.69,2.74 0.85,1.79 1.5,4.83 1.5,4.93 0,0.5 -0.45,0.5 -0.6,0.5 -0.5,0 -0.55,-0.2 -0.7,-0.89 -0.85,-3.24 -1.74,-6.18 -3.78,-6.18 -1.35,0 -1.5,1.29 -1.5,2.29 0,1.2 0.1,1.54 0.3,2.39 z"
           inkscape:connector-curvature="0"
           style="fill:#000000;stroke-width:0" /><path
           id="path13103"
           d="m 507.75,435.64 -0.07,-0.06 -0.07,-0.07 -0.08,-0.07 -0.08,-0.07 -0.09,-0.08 -0.09,-0.08 -0.09,-0.09 -0.09,-0.09 -0.1,-0.09 -0.09,-0.09 -0.2,-0.19 -0.19,-0.19 -0.19,-0.21 -0.09,-0.1 -0.09,-0.1 -0.09,-0.1 -0.08,-0.11 -0.08,-0.1 -0.08,-0.1 -0.07,-0.1 -0.06,-0.1 -0.06,-0.1 -0.05,-0.1 -0.05,-0.1 -0.04,-0.09 -0.03,-0.1 -0.02,-0.09 -0.02,-0.09 0,-0.08 c 0,-0.5 0.5,-1 1,-1 0.44,0 0.69,0.35 0.94,0.65 0.6,0.75 1.74,2.14 3.94,3.24 0.35,0.2 0.84,0.45 0.84,1.05 0,0.49 -0.34,0.74 -0.69,0.99 -1.1,0.75 -1.65,1.64 -2.05,2.84 -0.1,0.45 -0.3,1.1 -0.99,1.1 -0.7,0 -1,-0.65 -1,-1.05 0,-0.25 0.4,-1.84 1.2,-2.89 l -16.79,0 c -0.85,0 -1.74,0 -1.74,-0.99 0,-1 0.89,-1 1.74,-1 z"
           inkscape:connector-curvature="0"
           style="fill:#000000;stroke-width:0" /><path
           id="path13105"
           d="m 497.64,421.04 0.03,0.13 0.03,0.15 0.05,0.17 0.04,0.18 0.06,0.19 0.06,0.21 0.06,0.21 0.07,0.23 0.08,0.23 0.09,0.24 0.1,0.25 0.1,0.24 0.11,0.25 0.12,0.25 0.13,0.25 0.14,0.25 0.15,0.24 0.15,0.24 0.17,0.23 0.18,0.22 0.18,0.22 0.2,0.2 0.21,0.19 0.22,0.18 0.23,0.16 0.25,0.14 0.12,0.07 0.13,0.06 0.13,0.05 0.14,0.05 0.14,0.05 0.14,0.04 0.14,0.03 0.15,0.03 0.15,0.02 0.16,0.02 0.16,0.01 0.16,0 c 0.25,0 1.45,0 2.49,-0.65 -1.4,-0.25 -2.39,-1.49 -2.39,-2.68 0,-0.8 0.54,-1.75 1.89,-1.75 1.1,0 2.69,0.9 2.69,2.89 0,2.59 -2.94,3.29 -4.63,3.29 -2.89,0 -4.64,-2.64 -5.23,-3.79 -1.25,3.29 -3.94,3.79 -5.38,3.79 -5.18,0 -8.02,-6.43 -8.02,-7.67 0,-0.5 0.5,-0.5 0.6,-0.5 0.39,0 0.54,0.1 0.64,0.54 1.7,5.29 4.98,6.53 6.68,6.53 0.95,0 2.69,-0.45 2.69,-3.33 0,-1.55 -0.85,-4.89 -2.69,-11.86 -0.8,-3.09 -2.54,-5.18 -4.73,-5.18 -0.3,0 -1.45,0 -2.49,0.65 1.24,0.25 2.34,1.29 2.34,2.69 0,1.34 -1.1,1.74 -1.85,1.74 -1.49,0 -2.73,-1.3 -2.73,-2.89 0,-2.29 2.48,-3.29 4.68,-3.29 3.28,0 5.08,3.49 5.23,3.79 0.6,-1.85 2.39,-3.79 5.38,-3.79 5.13,0 7.97,6.43 7.97,7.67 0,0.5 -0.45,0.5 -0.6,0.5 -0.45,0 -0.55,-0.2 -0.65,-0.55 -1.64,-5.33 -5.03,-6.52 -6.62,-6.52 -1.95,0 -2.74,1.59 -2.74,3.29 0,1.09 0.29,2.19 0.85,4.38 z"
           inkscape:connector-curvature="0"
           style="fill:#000000;stroke-width:0" /></g>    </g>
    <g
       id="g14301"
       transform="translate(-66.994802,185.13617)">
      <g
         word-spacing="normal"
         letter-spacing="normal"
         font-size-adjust="none"
         font-stretch="normal"
         font-weight="normal"
         font-variant="normal"
         font-style="normal"
         stroke-miterlimit="10.433"
         xml:space="preserve"
         transform="matrix(0.99,0,0,-0.99,-173.25,720)"
         id="g14303"
         style="font-style:normal;font-variant:normal;font-weight:normal;font-stretch:normal;letter-spacing:normal;word-spacing:normal;text-anchor:start;fill:none;fill-opacity:1;fill-rule:evenodd;stroke:#000000;stroke-linecap:butt;stroke-linejoin:miter;stroke-miterlimit:10.43299961;stroke-dasharray:none;stroke-dashoffset:0;stroke-opacity:1"><path
           id="path14305"
           d="m 480.75,435.64 -0.07,-0.06 -0.07,-0.07 -0.08,-0.07 -0.08,-0.07 -0.09,-0.08 -0.09,-0.08 -0.09,-0.09 -0.09,-0.09 -0.1,-0.09 -0.09,-0.09 -0.2,-0.19 -0.19,-0.19 -0.19,-0.21 -0.09,-0.1 -0.09,-0.1 -0.09,-0.1 -0.08,-0.11 -0.08,-0.1 -0.08,-0.1 -0.07,-0.1 -0.06,-0.1 -0.06,-0.1 -0.05,-0.1 -0.05,-0.1 -0.04,-0.09 -0.03,-0.1 -0.02,-0.09 -0.02,-0.09 0,-0.08 c 0,-0.5 0.5,-1 1,-1 0.44,0 0.69,0.35 0.94,0.65 0.6,0.75 1.74,2.14 3.94,3.24 0.35,0.2 0.84,0.45 0.84,1.05 0,0.49 -0.34,0.74 -0.69,0.99 -1.1,0.75 -1.65,1.64 -2.05,2.84 -0.1,0.45 -0.3,1.1 -0.99,1.1 -0.7,0 -1,-0.65 -1,-1.05 0,-0.25 0.4,-1.84 1.2,-2.89 l -16.79,0 c -0.85,0 -1.74,0 -1.74,-0.99 0,-1 0.89,-1 1.74,-1 z"
           inkscape:connector-curvature="0"
           style="fill:#000000;stroke-width:0" /><path
           id="path14307"
           d="m 465.32,417.51 0.14,0 0.15,0 0.17,0 0.18,0 0.18,0.01 0.2,0 0.21,0.01 0.21,0.01 0.23,0.01 0.23,0.01 0.24,0.02 0.24,0.01 0.25,0.02 0.26,0.03 0.52,0.05 0.54,0.06 0.54,0.08 0.55,0.09 0.54,0.11 0.53,0.13 0.27,0.07 0.25,0.07 0.26,0.08 0.25,0.09 0.24,0.09 0.24,0.09 c 3.48,1.5 3.73,4.44 3.73,5.14 0,2.19 -1.89,4.23 -5.33,4.23 l 0,-1.1 c 2.34,0 3.69,-1.44 3.69,-3.13 0,-5.19 -7.97,-5.19 -10.01,-5.19 l -2.05,0 c 1.95,7.58 7.08,8.32 8.37,8.32 l 0,1.1 c -5.53,0 -13.05,-4.84 -13.05,-13.55 0,-5.08 2.94,-9.02 7.82,-9.02 7.12,0 11.31,5.28 11.31,5.88 0,0.3 -0.3,0.65 -0.6,0.65 -0.25,0 -0.35,-0.1 -0.64,-0.5 -3.94,-4.93 -9.37,-4.93 -9.97,-4.93 -3.88,0 -4.33,4.18 -4.33,5.78 0,0.6 0.05,2.14 0.8,5.18 z"
           inkscape:connector-curvature="0"
           style="fill:#000000;stroke-width:0" /><path
           id="path14309"
           d="m 490.68,421.18 0,0.04 0,0.04 0,0.04 0,0.04 0,0.04 0,0.04 0,0.03 0,0.04 -0.01,0.03 0,0.03 0,0.04 0,0.03 -0.01,0.02 0,0.03 0,0.03 -0.01,0.03 0,0.02 0,0.02 -0.02,0.05 -0.01,0.04 -0.01,0.04 -0.02,0.03 -0.02,0.03 -0.02,0.03 -0.03,0.03 -0.02,0.02 -0.03,0.02 -0.04,0.02 -0.03,0.01 -0.04,0.01 -0.05,0.02 -0.05,0 -0.02,0.01 -0.03,0 -0.03,0.01 -0.02,0 -0.03,0 -0.03,0 -0.04,0 -0.03,0.01 -0.03,0 -0.04,0 -0.03,0 -0.04,0 -0.04,0 -0.04,0 -0.04,0 -0.04,0 -0.05,0 -0.04,0 c -2.24,-2.19 -5.41,-2.23 -6.84,-2.23 l 0,-1.25 c 0.84,0 3.14,0 5.06,0.97 l 0,-17.78 c 0,-1.15 0,-1.61 -3.49,-1.61 l -1.33,0 0,-1.25 12.45,0 0,1.25 -1.32,0 c -3.49,0 -3.49,0.46 -3.49,1.61 z"
           inkscape:connector-curvature="0"
           style="fill:#000000;stroke-width:0" /></g>    </g>
    <g
       transform="translate(-191.61954,27.37422)"
       id="g14617">
      <g
         style="font-style:normal;font-variant:normal;font-weight:normal;font-stretch:normal;letter-spacing:normal;word-spacing:normal;text-anchor:start;fill:none;fill-opacity:1;fill-rule:evenodd;stroke:#000000;stroke-linecap:butt;stroke-linejoin:miter;stroke-miterlimit:10.43299961;stroke-dasharray:none;stroke-dashoffset:0;stroke-opacity:1"
         id="g14619"
         transform="matrix(0.99,0,0,-0.99,-173.25,720)"
         xml:space="preserve"
         stroke-miterlimit="10.433"
         font-style="normal"
         font-variant="normal"
         font-weight="normal"
         font-stretch="normal"
         font-size-adjust="none"
         letter-spacing="normal"
         word-spacing="normal"><path
           style="fill:#000000;stroke-width:0"
           inkscape:connector-curvature="0"
           d="m 480.75,435.64 -0.07,-0.06 -0.07,-0.07 -0.08,-0.07 -0.08,-0.07 -0.09,-0.08 -0.09,-0.08 -0.09,-0.09 -0.09,-0.09 -0.1,-0.09 -0.09,-0.09 -0.2,-0.19 -0.19,-0.19 -0.19,-0.21 -0.09,-0.1 -0.09,-0.1 -0.09,-0.1 -0.08,-0.11 -0.08,-0.1 -0.08,-0.1 -0.07,-0.1 -0.06,-0.1 -0.06,-0.1 -0.05,-0.1 -0.05,-0.1 -0.04,-0.09 -0.03,-0.1 -0.02,-0.09 -0.02,-0.09 0,-0.08 c 0,-0.5 0.5,-1 1,-1 0.44,0 0.69,0.35 0.94,0.65 0.6,0.75 1.74,2.14 3.94,3.24 0.35,0.2 0.84,0.45 0.84,1.05 0,0.49 -0.34,0.74 -0.69,0.99 -1.1,0.75 -1.65,1.64 -2.05,2.84 -0.1,0.45 -0.3,1.1 -0.99,1.1 -0.7,0 -1,-0.65 -1,-1.05 0,-0.25 0.4,-1.84 1.2,-2.89 l -16.79,0 c -0.85,0 -1.74,0 -1.74,-0.99 0,-1 0.89,-1 1.74,-1 z"
           id="path14621" /><path
           style="fill:#000000;stroke-width:0"
           inkscape:connector-curvature="0"
           d="m 465.32,417.51 0.14,0 0.15,0 0.17,0 0.18,0 0.18,0.01 0.2,0 0.21,0.01 0.21,0.01 0.23,0.01 0.23,0.01 0.24,0.02 0.24,0.01 0.25,0.02 0.26,0.03 0.52,0.05 0.54,0.06 0.54,0.08 0.55,0.09 0.54,0.11 0.53,0.13 0.27,0.07 0.25,0.07 0.26,0.08 0.25,0.09 0.24,0.09 0.24,0.09 c 3.48,1.5 3.73,4.44 3.73,5.14 0,2.19 -1.89,4.23 -5.33,4.23 l 0,-1.1 c 2.34,0 3.69,-1.44 3.69,-3.13 0,-5.19 -7.97,-5.19 -10.01,-5.19 l -2.05,0 c 1.95,7.58 7.08,8.32 8.37,8.32 l 0,1.1 c -5.53,0 -13.05,-4.84 -13.05,-13.55 0,-5.08 2.94,-9.02 7.82,-9.02 7.12,0 11.31,5.28 11.31,5.88 0,0.3 -0.3,0.65 -0.6,0.65 -0.25,0 -0.35,-0.1 -0.64,-0.5 -3.94,-4.93 -9.37,-4.93 -9.97,-4.93 -3.88,0 -4.33,4.18 -4.33,5.78 0,0.6 0.05,2.14 0.8,5.18 z"
           id="path14623" /><path
           style="fill:#000000;stroke-width:0"
           inkscape:connector-curvature="0"
           d="m 496.61,405.35 -1.19,0 c -0.1,-0.77 -0.45,-2.83 -0.9,-3.18 -0.28,-0.21 -2.97,-0.21 -3.45,-0.21 l -6.42,0 c 3.66,3.25 4.88,4.22 6.97,5.86 2.58,2.06 4.99,4.22 4.99,7.54 0,4.21 -3.7,6.79 -8.16,6.79 -4.33,0 -7.25,-3.03 -7.25,-6.24 0,-1.78 1.5,-1.95 1.84,-1.95 0.84,0 1.85,0.59 1.85,1.85 0,0.62 -0.24,1.85 -2.05,1.85 1.08,2.47 3.45,3.24 5.09,3.24 3.48,0 5.3,-2.72 5.3,-5.54 0,-3.04 -2.16,-5.45 -3.28,-6.7 l -8.4,-8.3 c -0.35,-0.31 -0.35,-0.38 -0.35,-1.36 l 14.36,0 z"
           id="path14625" /></g>    </g>
    <g
       id="g14933"
       transform="translate(-181.5343,177.93243)">
      <g
         word-spacing="normal"
         letter-spacing="normal"
         font-size-adjust="none"
         font-stretch="normal"
         font-weight="normal"
         font-variant="normal"
         font-style="normal"
         stroke-miterlimit="10.433"
         xml:space="preserve"
         transform="matrix(0.99,0,0,-0.99,-173.25,720)"
         id="g14935"
         style="font-style:normal;font-variant:normal;font-weight:normal;font-stretch:normal;letter-spacing:normal;word-spacing:normal;text-anchor:start;fill:none;fill-opacity:1;fill-rule:evenodd;stroke:#000000;stroke-linecap:butt;stroke-linejoin:miter;stroke-miterlimit:10.43299961;stroke-dasharray:none;stroke-dashoffset:0;stroke-opacity:1"><path
           id="path14937"
           d="m 492.86,427.72 -0.01,0.74 -0.05,0.73 -0.07,0.71 -0.11,0.7 -0.13,0.67 -0.16,0.66 -0.19,0.64 -0.22,0.63 -0.24,0.6 -0.27,0.58 -0.29,0.56 -0.32,0.54 -0.34,0.52 -0.37,0.5 -0.38,0.47 -0.42,0.46 -0.43,0.42 -0.45,0.41 -0.48,0.38 -0.49,0.35 -0.51,0.33 -0.53,0.3 -0.56,0.28 -0.56,0.25 -0.59,0.22 -0.6,0.2 -0.62,0.16 -0.63,0.14 -0.65,0.11 -0.66,0.07 -0.68,0.05 -0.69,0.02 -0.3,-1.25 c 4.09,0 8.57,-2.79 8.57,-10.21 0,-3.59 -1.35,-11.36 -6.28,-17.48 -2.39,-3.04 -6.47,-5.98 -10.66,-5.98 l 0,0 c -4.93,0 -8.42,4.03 -8.42,10.61 0,2.19 0.7,9.46 4.54,15.29 3.43,5.18 8.32,7.77 12.25,7.77 l 0.3,1.25 c -10.76,0 -21.72,-11.31 -21.72,-22.92 0,-8.27 5.58,-13.3 12.75,-13.3 10.56,0 21.67,10.91 21.67,22.82 z"
           inkscape:connector-curvature="0"
           style="fill:#000000;stroke-width:0" /></g>    </g>
    <path
       style="color:#000000;display:inline;overflow:visible;visibility:visible;fill:none;fill-rule:evenodd;stroke:#000000;stroke-width:0.5;stroke-linecap:butt;stroke-linejoin:miter;stroke-miterlimit:4;stroke-dasharray:none;stroke-dashoffset:0;stroke-opacity:1;marker:none;marker-start:none;marker-mid:none;marker-end:none;enable-background:accumulate"
       d="m 136.51424,463.77833 494.53357,0"
       id="path15094"
       inkscape:connector-curvature="0" />
    <path
       style="color:#000000;display:inline;overflow:visible;visibility:visible;fill:none;fill-rule:evenodd;stroke:#000000;stroke-width:0.5;stroke-linecap:butt;stroke-linejoin:miter;stroke-miterlimit:4;stroke-dasharray:none;stroke-dashoffset:0;stroke-opacity:1;marker:none;marker-start:none;marker-mid:none;marker-end:none;enable-background:accumulate"
       d="m 136.51424,463.77833 0,-377.333418"
       id="path15096"
       inkscape:connector-curvature="0" />
    <path
       style="color:#000000;display:inline;overflow:visible;visibility:visible;fill:none;fill-rule:evenodd;stroke:#000000;stroke-width:1;stroke-linecap:butt;stroke-linejoin:miter;stroke-miterlimit:4;stroke-dasharray:2,2;stroke-dashoffset:0;stroke-opacity:1;marker:none;marker-start:none;marker-mid:none;marker-end:none;enable-background:accumulate"
       d="m 228.60597,282.79279 c 12.62012,-82.81585 82.6995,3.52088 107.58581,1.68325 24.88632,-1.83763 14.8028,-34.04546 37.69423,-37.69423 22.89143,-3.64877 32.9327,33.49919 57.05073,21.39403 24.11803,-12.10516 49.81797,-33.11199 99.22305,-80.12802"
       id="path15110"
       inkscape:connector-curvature="0"
       sodipodi:nodetypes="czzzc" />
    <path
       style="color:#000000;display:inline;overflow:visible;visibility:visible;fill:none;fill-rule:evenodd;stroke:#000000;stroke-width:1;stroke-linecap:butt;stroke-linejoin:miter;stroke-miterlimit:4;stroke-dasharray:2,2;stroke-dashoffset:0;stroke-opacity:1;marker:none;marker-start:none;marker-mid:none;marker-end:none;enable-background:accumulate"
       d="m 273.43155,379.35222 c 10.48834,-44.32968 60.57989,-1.17164 81.26244,-2.15528 20.68255,-0.98365 20.45243,-15.16757 39.47706,-17.12069 19.02464,-1.95311 25.33222,18.95021 45.37626,12.47056 20.04404,-6.47965 43.4403,-18.74295 84.49993,-43.90969"
       id="path15110-3"
       inkscape:connector-curvature="0"
       sodipodi:nodetypes="czzzc" />
    <g
       transform="translate(-124.28908,110.0264)"
       id="g4496">
      <g
         style="font-style:normal;font-variant:normal;font-weight:normal;font-stretch:normal;letter-spacing:normal;word-spacing:normal;text-anchor:start;fill:none;fill-opacity:1;fill-rule:evenodd;stroke:#000000;stroke-linecap:butt;stroke-linejoin:miter;stroke-miterlimit:10.43299961;stroke-dasharray:none;stroke-dashoffset:0;stroke-opacity:1"
         id="g4498"
         transform="matrix(0.99,0,0,-0.99,-173.25,720)"
         xml:space="preserve"
         stroke-miterlimit="10.433"
         font-style="normal"
         font-variant="normal"
         font-weight="normal"
         font-stretch="normal"
         font-size-adjust="none"
         letter-spacing="normal"
         word-spacing="normal"><path
           style="fill:#000000;stroke-width:0"
           inkscape:connector-curvature="0"
           d="m 492.75,448.64 -0.07,-0.06 -0.07,-0.07 -0.08,-0.07 -0.08,-0.07 -0.09,-0.08 -0.09,-0.08 -0.09,-0.09 -0.09,-0.09 -0.1,-0.09 -0.09,-0.09 -0.2,-0.19 -0.19,-0.19 -0.19,-0.21 -0.09,-0.1 -0.09,-0.1 -0.09,-0.1 -0.08,-0.11 -0.08,-0.1 -0.08,-0.1 -0.07,-0.1 -0.06,-0.1 -0.06,-0.1 -0.05,-0.1 -0.05,-0.1 -0.04,-0.09 -0.03,-0.1 -0.02,-0.09 -0.02,-0.09 0,-0.08 c 0,-0.5 0.5,-1 1,-1 0.44,0 0.69,0.35 0.94,0.65 0.6,0.75 1.74,2.14 3.94,3.24 0.35,0.2 0.84,0.45 0.84,1.05 0,0.49 -0.34,0.74 -0.69,0.99 -1.1,0.75 -1.65,1.64 -2.05,2.84 -0.1,0.45 -0.3,1.1 -0.99,1.1 -0.7,0 -1,-0.65 -1,-1.05 0,-0.25 0.4,-1.84 1.2,-2.89 l -16.79,0 c -0.85,0 -1.74,0 -1.74,-0.99 0,-1 0.89,-1 1.74,-1 z"
           id="path4500" /><path
           style="fill:#000000;stroke-width:0"
           inkscape:connector-curvature="0"
           d="m 480.16,426.47 -4.18,9.92 c -0.16,0.4 -0.25,0.59 -0.25,0.65 0,0.29 0.84,1.24 2.93,1.44 0.5,0.05 1,0.1 1,0.95 0,0.59 -0.6,0.59 -0.75,0.59 l -11.85,0 c -0.3,0 -0.9,0 -0.9,-0.99 0,-0.55 0.5,-0.55 1.15,-0.55 2.99,0 3.28,-0.5 3.73,-1.6 l 5.88,-13.9 -10.51,-11.3 -0.65,-0.55 c -2.44,-2.64 -4.78,-3.43 -7.32,-3.59 -0.65,-0.04 -1.1,-0.04 -1.1,-0.99 0,-0.05 0,-0.55 0.65,-0.55 l 10.26,0 c 0.3,0 0.9,0 0.9,1 0,0.5 -0.5,0.54 -0.6,0.54 -0.44,0.05 -1.99,0.16 -1.99,1.55 0,0.8 0.75,1.59 1.35,2.24 l 5.07,5.38 4.49,4.88 5.03,-11.9 c 0.2,-0.55 0.25,-0.6 0.25,-0.7 0,-0.4 -0.95,-1.25 -2.89,-1.45 -0.55,-0.04 -1,-0.09 -1,-0.94 0,-0.6 0.55,-0.6 0.75,-0.6 l 11.81,0 c 0.35,0 0.94,0 0.94,0.95 0,0.59 -0.49,0.59 -0.89,0.59 -3.34,0.05 -3.44,0.2 -4.29,2.19 -1.94,4.64 -5.28,12.41 -6.42,15.4 3.38,3.48 8.62,9.41 10.21,10.81 1.44,1.19 3.33,2.39 6.33,2.54 0.64,0.05 1.09,0.05 1.09,0.99 0,0.05 0,0.55 -0.65,0.55 l -10.21,0 c -0.3,0 -0.94,0 -0.94,-0.99 0,-0.35 0.25,-0.5 0.59,-0.55 0.45,-0.05 2,-0.15 2,-1.55 0,-0.69 -0.55,-1.34 -0.95,-1.79 z"
           id="path4502" /></g>    </g>
    <g
       id="g4848"
       transform="translate(-101.74997,46.918549)">
      <g
         word-spacing="normal"
         letter-spacing="normal"
         font-size-adjust="none"
         font-stretch="normal"
         font-weight="normal"
         font-variant="normal"
         font-style="normal"
         stroke-miterlimit="10.433"
         xml:space="preserve"
         transform="matrix(0.99,0,0,-0.99,-173.25,720)"
         id="g4850"
         style="font-style:normal;font-variant:normal;font-weight:normal;font-stretch:normal;letter-spacing:normal;word-spacing:normal;text-anchor:start;fill:none;fill-opacity:1;fill-rule:evenodd;stroke:#000000;stroke-linecap:butt;stroke-linejoin:miter;stroke-miterlimit:10.43299961;stroke-dasharray:none;stroke-dashoffset:0;stroke-opacity:1"><path
           id="path4852"
           d="m 481.7,440.02 0,0.01 0,0 0,0.01 0,0.01 0,0.01 0,0.01 0,0.02 0,0.02 -0.01,0.02 0,0.02 -0.01,0.02 0,0.02 -0.01,0.03 -0.01,0.02 -0.01,0.03 -0.01,0.02 -0.02,0.02 -0.01,0.03 -0.02,0.02 -0.02,0.03 -0.03,0.02 -0.01,0.01 -0.01,0.01 -0.01,0.01 -0.02,0.01 -0.01,0.01 -0.02,0.01 -0.01,0.01 -0.02,0.01 -0.02,0.01 -0.02,0.01 -0.01,0.01 -0.02,0 -0.03,0.01 -0.02,0.01 -0.02,0 -0.02,0.01 -0.02,0 -0.03,0.01 -0.02,0 -0.03,0 -0.03,0.01 -0.03,0 -0.03,0 -0.03,0 c -0.74,0 -5.47,-0.45 -6.32,-0.55 -0.4,-0.05 -0.7,-0.3 -0.7,-0.95 0,-0.59 0.45,-0.59 1.2,-0.59 2.39,0 2.49,-0.35 2.49,-0.85 l -0.15,-0.99 -2.99,-11.81 c -0.9,1.84 -2.34,3.19 -4.58,3.19 l 0.05,-1.1 c 3.24,0 3.93,-4.08 3.93,-4.38 0,-0.3 -0.1,-0.6 -0.15,-0.85 l -2.49,-9.76 c -0.25,-0.9 -0.25,-1 -0.99,-1.84 -2.19,-2.75 -4.24,-3.54 -5.63,-3.54 -2.49,0 -3.19,2.74 -3.19,4.68 0,2.49 1.59,8.62 2.74,10.91 1.54,2.94 3.78,4.78 5.78,4.78 l -0.05,1.1 c -5.83,0 -12.01,-7.32 -12.01,-14.6 0,-4.68 2.74,-7.97 6.63,-7.97 0.99,0 3.49,0.2 6.47,3.74 0.4,-2.09 2.14,-3.74 4.53,-3.74 1.75,0 2.9,1.15 3.69,2.74 0.85,1.79 1.5,4.83 1.5,4.93 0,0.5 -0.45,0.5 -0.6,0.5 -0.5,0 -0.55,-0.2 -0.7,-0.89 -0.85,-3.24 -1.74,-6.18 -3.78,-6.18 -1.35,0 -1.5,1.29 -1.5,2.29 0,1.2 0.1,1.54 0.3,2.39 z"
           inkscape:connector-curvature="0"
           style="fill:#000000;stroke-width:0" /><path
           id="path4854"
           d="m 518.75,448.64 -0.07,-0.06 -0.07,-0.07 -0.08,-0.07 -0.08,-0.07 -0.09,-0.08 -0.09,-0.08 -0.09,-0.09 -0.09,-0.09 -0.1,-0.09 -0.09,-0.09 -0.2,-0.19 -0.19,-0.19 -0.19,-0.21 -0.09,-0.1 -0.09,-0.1 -0.09,-0.1 -0.08,-0.11 -0.08,-0.1 -0.08,-0.1 -0.07,-0.1 -0.06,-0.1 -0.06,-0.1 -0.05,-0.1 -0.05,-0.1 -0.04,-0.09 -0.03,-0.1 -0.02,-0.09 -0.02,-0.09 0,-0.08 c 0,-0.5 0.5,-1 1,-1 0.44,0 0.69,0.35 0.94,0.65 0.6,0.75 1.74,2.14 3.93,3.24 0.36,0.2 0.85,0.45 0.85,1.05 0,0.49 -0.35,0.74 -0.69,0.99 -1.1,0.75 -1.65,1.64 -2.04,2.84 -0.11,0.45 -0.31,1.1 -1,1.1 -0.7,0 -1,-0.65 -1,-1.05 0,-0.25 0.4,-1.84 1.2,-2.89 l -16.79,0 c -0.85,0 -1.74,0 -1.74,-0.99 0,-1 0.89,-1 1.74,-1 z"
           inkscape:connector-curvature="0"
           style="fill:#000000;stroke-width:0" /><path
           id="path4856"
           d="m 505.16,426.47 -4.18,9.92 c -0.16,0.4 -0.25,0.59 -0.25,0.65 0,0.29 0.84,1.24 2.93,1.44 0.5,0.05 1,0.1 1,0.95 0,0.59 -0.6,0.59 -0.75,0.59 l -11.85,0 c -0.3,0 -0.9,0 -0.9,-0.99 0,-0.55 0.5,-0.55 1.15,-0.55 2.99,0 3.28,-0.5 3.73,-1.6 l 5.88,-13.9 -10.51,-11.3 -0.65,-0.55 c -2.44,-2.64 -4.78,-3.43 -7.32,-3.59 -0.65,-0.04 -1.1,-0.04 -1.1,-0.99 0,-0.05 0,-0.55 0.65,-0.55 l 10.26,0 c 0.3,0 0.9,0 0.9,1 0,0.5 -0.5,0.54 -0.6,0.54 -0.44,0.05 -1.99,0.16 -1.99,1.55 0,0.8 0.75,1.59 1.35,2.24 l 5.07,5.38 4.49,4.88 5.03,-11.9 c 0.2,-0.55 0.25,-0.6 0.25,-0.7 0,-0.4 -0.95,-1.25 -2.89,-1.45 -0.55,-0.04 -1,-0.09 -1,-0.94 0,-0.6 0.55,-0.6 0.75,-0.6 l 11.81,0 c 0.35,0 0.94,0 0.94,0.95 0,0.59 -0.49,0.59 -0.89,0.59 -3.34,0.05 -3.44,0.2 -4.29,2.19 -1.94,4.64 -5.28,12.41 -6.42,15.4 3.38,3.48 8.62,9.41 10.21,10.81 1.44,1.19 3.33,2.39 6.33,2.54 0.64,0.05 1.09,0.05 1.09,0.99 0,0.05 0,0.55 -0.65,0.55 l -10.21,0 c -0.3,0 -0.94,0 -0.94,-0.99 0,-0.35 0.25,-0.5 0.59,-0.55 0.45,-0.05 2,-0.15 2,-1.55 0,-0.69 -0.55,-1.34 -0.95,-1.79 z"
           inkscape:connector-curvature="0"
           style="fill:#000000;stroke-width:0" /></g>    </g>
    <path
       inkscape:connector-curvature="0"
       sodipodi:nodetypes="cc"
       id="path4608-5"
       d="m 524.04724,328.63712 -38.6301,-85.86879"
       style="stroke-linejoin:miter;marker-end:url(#TriangleOutL-7-3-5yt);stroke-opacity:1;marker-start:none;stroke:#808080;stroke-linecap:butt;stroke-miterlimit:4;stroke-dasharray:none;stroke-width:2;fill:none" />
    <path
       style="fill:none;stroke:#008000;stroke-width:4;stroke-linecap:butt;stroke-linejoin:miter;stroke-miterlimit:4;stroke-dasharray:none;stroke-opacity:1;marker-start:none;marker-end:url(#TriangleOutL-7-3Q)"
       d="M 273.43155,378.55649 503.26783,332.31224"
       id="path4612"
       sodipodi:nodetypes="cc"
       inkscape:connector-curvature="0" />
    <path
       inkscape:connector-curvature="0"
       sodipodi:nodetypes="cc"
       id="path4608-9"
       d="m 481.38535,233.7066 39.5305,-36.52316"
       style="fill:none;stroke:#000000;stroke-width:2;stroke-linecap:butt;stroke-linejoin:miter;stroke-miterlimit:4;stroke-dasharray:none;stroke-opacity:1;marker-start:none;marker-end:url(#TriangleOutL-7-3-6)" />
    <path
       style="stroke-linejoin:miter;text-rendering:auto;color-rendering:auto;fill-opacity:1;color:#000000;marker-start:none;shape-rendering:auto;solid-color:#000000;stroke:#808080;stroke-linecap:butt;stroke-width:2;color-interpolation-filters:linearRGB;fill:none;solid-opacity:1;filter-blend-mode:normal;fill-rule:nonzero;mix-blend-mode:normal;stroke-miterlimit:4;opacity:1;visibility:visible;clip-rule:nonzero;filter-gaussianBlur-deviation:0;image-rendering:auto;overflow:visible;marker-end:url(#TriangleOutL-7-3-5yh);stroke-opacity:1;isolation:auto;stroke-dashoffset:0;stroke-dasharray:none;enable-background:accumulate;display:inline;color-interpolation:sRGB"
       d="m 228.60597,282.79279 242.27554,-47.6232"
       id="path4612-7"
       sodipodi:nodetypes="cc"
       inkscape:connector-curvature="0" />
    <circle
       r="5.2227125"
       cy="233.7066"
       cx="481.38535"
       id="circle4576-0"
       style="color:#000000;clip-rule:nonzero;display:inline;overflow:visible;visibility:visible;opacity:1;isolation:auto;mix-blend-mode:normal;color-interpolation:sRGB;color-interpolation-filters:linearRGB;solid-color:#000000;solid-opacity:1;fill:#000000;fill-opacity:1;fill-rule:nonzero;marker:none;marker-start:none;marker-mid:none;marker-end:none;color-rendering:auto;image-rendering:auto;shape-rendering:auto;text-rendering:auto;enable-background:accumulate" />
    <g
       id="g9192"
       transform="translate(170.26217,-104.7896)">
      <g
         word-spacing="normal"
         letter-spacing="normal"
         font-size-adjust="none"
         font-stretch="normal"
         font-weight="normal"
         font-variant="normal"
         font-style="normal"
         stroke-miterlimit="10.433"
         xml:space="preserve"
         transform="matrix(0.99,0,0,-0.99,-173.25,720)"
         id="g9194"
         style="font-style:normal;font-variant:normal;font-weight:normal;font-stretch:normal;letter-spacing:normal;word-spacing:normal;text-anchor:start;fill:none;fill-opacity:1;fill-rule:evenodd;stroke:#000000;stroke-linecap:butt;stroke-linejoin:miter;stroke-miterlimit:10.43299961;stroke-dasharray:none;stroke-dashoffset:0;stroke-opacity:1"><path
           id="path9196"
           d="m 481.7,440.02 0,0.01 0,0 0,0.01 0,0.01 0,0.01 0,0.01 0,0.02 0,0.02 -0.01,0.02 0,0.02 -0.01,0.02 0,0.02 -0.01,0.03 -0.01,0.02 -0.01,0.03 -0.01,0.02 -0.02,0.02 -0.01,0.03 -0.02,0.02 -0.02,0.03 -0.03,0.02 -0.01,0.01 -0.01,0.01 -0.01,0.01 -0.02,0.01 -0.01,0.01 -0.02,0.01 -0.01,0.01 -0.02,0.01 -0.02,0.01 -0.02,0.01 -0.01,0.01 -0.02,0 -0.03,0.01 -0.02,0.01 -0.02,0 -0.02,0.01 -0.02,0 -0.03,0.01 -0.02,0 -0.03,0 -0.03,0.01 -0.03,0 -0.03,0 -0.03,0 c -0.74,0 -5.47,-0.45 -6.32,-0.55 -0.4,-0.05 -0.7,-0.3 -0.7,-0.95 0,-0.59 0.45,-0.59 1.2,-0.59 2.39,0 2.49,-0.35 2.49,-0.85 l -0.15,-0.99 -2.99,-11.81 c -0.9,1.84 -2.34,3.19 -4.58,3.19 l 0.05,-1.1 c 3.24,0 3.93,-4.08 3.93,-4.38 0,-0.3 -0.1,-0.6 -0.15,-0.85 l -2.49,-9.76 c -0.25,-0.9 -0.25,-1 -0.99,-1.84 -2.19,-2.75 -4.24,-3.54 -5.63,-3.54 -2.49,0 -3.19,2.74 -3.19,4.68 0,2.49 1.59,8.62 2.74,10.91 1.54,2.94 3.78,4.78 5.78,4.78 l -0.05,1.1 c -5.83,0 -12.01,-7.32 -12.01,-14.6 0,-4.68 2.74,-7.97 6.63,-7.97 0.99,0 3.49,0.2 6.47,3.74 0.4,-2.09 2.14,-3.74 4.53,-3.74 1.75,0 2.9,1.15 3.69,2.74 0.85,1.79 1.5,4.83 1.5,4.93 0,0.5 -0.45,0.5 -0.6,0.5 -0.5,0 -0.55,-0.2 -0.7,-0.89 -0.85,-3.24 -1.74,-6.18 -3.78,-6.18 -1.35,0 -1.5,1.29 -1.5,2.29 0,1.2 0.1,1.54 0.3,2.39 z"
           inkscape:connector-curvature="0"
           style="fill:#000000;stroke-width:0" /><path
           id="path9198"
           d="m 507.75,435.64 -0.07,-0.06 -0.07,-0.07 -0.08,-0.07 -0.08,-0.07 -0.09,-0.08 -0.09,-0.08 -0.09,-0.09 -0.09,-0.09 -0.1,-0.09 -0.09,-0.09 -0.2,-0.19 -0.19,-0.19 -0.19,-0.21 -0.09,-0.1 -0.09,-0.1 -0.09,-0.1 -0.08,-0.11 -0.08,-0.1 -0.08,-0.1 -0.07,-0.1 -0.06,-0.1 -0.06,-0.1 -0.05,-0.1 -0.05,-0.1 -0.04,-0.09 -0.03,-0.1 -0.02,-0.09 -0.02,-0.09 0,-0.08 c 0,-0.5 0.5,-1 1,-1 0.44,0 0.69,0.35 0.94,0.65 0.6,0.75 1.74,2.14 3.94,3.24 0.35,0.2 0.84,0.45 0.84,1.05 0,0.49 -0.34,0.74 -0.69,0.99 -1.1,0.75 -1.65,1.64 -2.05,2.84 -0.1,0.45 -0.3,1.1 -0.99,1.1 -0.7,0 -1,-0.65 -1,-1.05 0,-0.25 0.4,-1.84 1.2,-2.89 l -16.79,0 c -0.85,0 -1.74,0 -1.74,-0.99 0,-1 0.89,-1 1.74,-1 z"
           inkscape:connector-curvature="0"
           style="fill:#000000;stroke-width:0" /><path
           id="path9200"
           d="m 498.43,408.79 0.06,-0.19 0.06,-0.19 0.07,-0.18 0.07,-0.17 0.09,-0.17 0.08,-0.17 0.1,-0.16 0.1,-0.15 0.1,-0.15 0.11,-0.15 0.12,-0.14 0.12,-0.13 0.13,-0.13 0.13,-0.13 0.14,-0.11 0.14,-0.12 0.15,-0.1 0.15,-0.1 0.16,-0.09 0.16,-0.09 0.16,-0.08 0.17,-0.07 0.17,-0.07 0.18,-0.06 0.18,-0.06 0.18,-0.04 0.19,-0.04 0.18,-0.04 0.2,-0.02 0.19,-0.02 0.2,-0.01 0.2,-0.01 c 1.74,0 2.89,1.15 3.68,2.74 0.85,1.79 1.5,4.83 1.5,4.93 0,0.5 -0.45,0.5 -0.6,0.5 -0.5,0 -0.55,-0.2 -0.7,-0.89 -0.7,-2.8 -1.64,-6.18 -3.73,-6.18 -1.05,0 -1.55,0.65 -1.55,2.29 0,1.09 0.6,3.44 1,5.18 l 1.39,5.38 c 0.16,0.75 0.65,2.64 0.85,3.39 0.25,1.14 0.75,3.03 0.75,3.33 0,0.9 -0.7,1.35 -1.44,1.35 -0.25,0 -1.55,-0.05 -1.95,-1.74 -0.95,-3.64 -3.14,-12.36 -3.73,-15 -0.05,-0.2 -2.05,-4.18 -5.68,-4.18 -2.59,0 -3.09,2.24 -3.09,4.08 0,2.79 1.39,6.73 2.69,10.16 0.6,1.5 0.85,2.19 0.85,3.14 0,2.25 -1.6,4.09 -4.09,4.09 -4.73,0 -6.57,-7.23 -6.57,-7.67 0,-0.5 0.49,-0.5 0.59,-0.5 0.5,0 0.55,0.1 0.8,0.9 1.25,4.33 3.14,6.17 5.03,6.17 0.45,0 1.25,-0.05 1.25,-1.64 0,-1.2 -0.55,-2.64 -0.85,-3.39 -1.84,-4.93 -2.89,-8.02 -2.89,-10.46 0,-4.73 3.44,-5.98 6.13,-5.98 3.28,0 5.08,2.25 5.92,3.34 z"
           inkscape:connector-curvature="0"
           style="fill:#000000;stroke-width:0" /></g>    </g>
    <g
       transform="translate(59.070682,20.170477)"
       id="g10342">
      <g
         style="font-style:normal;font-variant:normal;font-weight:normal;font-stretch:normal;letter-spacing:normal;word-spacing:normal;text-anchor:start;fill:none;fill-opacity:1;fill-rule:evenodd;stroke:#000000;stroke-linecap:butt;stroke-linejoin:miter;stroke-miterlimit:10.43299961;stroke-dasharray:none;stroke-dashoffset:0;stroke-opacity:1"
         id="g10344"
         transform="matrix(0.99,0,0,-0.99,-173.25,720)"
         xml:space="preserve"
         stroke-miterlimit="10.433"
         font-style="normal"
         font-variant="normal"
         font-weight="normal"
         font-stretch="normal"
         font-size-adjust="none"
         letter-spacing="normal"
         word-spacing="normal"><path
           style="fill:#000000;stroke-width:0"
           inkscape:connector-curvature="0"
           d="m 481.75,435.64 -0.07,-0.06 -0.07,-0.07 -0.08,-0.07 -0.08,-0.07 -0.09,-0.08 -0.09,-0.08 -0.09,-0.09 -0.09,-0.09 -0.1,-0.09 -0.09,-0.09 -0.2,-0.19 -0.19,-0.19 -0.19,-0.21 -0.09,-0.1 -0.09,-0.1 -0.09,-0.1 -0.08,-0.11 -0.08,-0.1 -0.08,-0.1 -0.07,-0.1 -0.06,-0.1 -0.06,-0.1 -0.05,-0.1 -0.05,-0.1 -0.04,-0.09 -0.03,-0.1 -0.02,-0.09 -0.02,-0.09 0,-0.08 c 0,-0.5 0.5,-1 1,-1 0.44,0 0.69,0.35 0.94,0.65 0.6,0.75 1.74,2.14 3.94,3.24 0.35,0.2 0.84,0.45 0.84,1.05 0,0.49 -0.34,0.74 -0.69,0.99 -1.1,0.75 -1.65,1.64 -2.05,2.84 -0.1,0.45 -0.3,1.1 -0.99,1.1 -0.7,0 -1,-0.65 -1,-1.05 0,-0.25 0.4,-1.84 1.2,-2.89 l -16.79,0 c -0.85,0 -1.74,0 -1.74,-0.99 0,-1 0.89,-1 1.74,-1 z"
           id="path10346" /><path
           style="fill:#000000;stroke-width:0"
           inkscape:connector-curvature="0"
           d="m 473.43,408.79 0.06,-0.19 0.06,-0.19 0.07,-0.18 0.07,-0.17 0.09,-0.17 0.08,-0.17 0.1,-0.16 0.1,-0.15 0.1,-0.15 0.11,-0.15 0.12,-0.14 0.12,-0.13 0.13,-0.13 0.13,-0.13 0.14,-0.11 0.14,-0.12 0.15,-0.1 0.15,-0.1 0.16,-0.09 0.16,-0.09 0.16,-0.08 0.17,-0.07 0.17,-0.07 0.18,-0.06 0.18,-0.06 0.18,-0.04 0.19,-0.04 0.18,-0.04 0.2,-0.02 0.19,-0.02 0.2,-0.01 0.2,-0.01 c 1.74,0 2.89,1.15 3.68,2.74 0.85,1.79 1.5,4.83 1.5,4.93 0,0.5 -0.45,0.5 -0.6,0.5 -0.5,0 -0.55,-0.2 -0.7,-0.89 -0.7,-2.8 -1.64,-6.18 -3.73,-6.18 -1.05,0 -1.55,0.65 -1.55,2.29 0,1.09 0.6,3.44 1,5.18 l 1.39,5.38 c 0.16,0.75 0.65,2.64 0.85,3.39 0.25,1.14 0.75,3.03 0.75,3.33 0,0.9 -0.7,1.35 -1.44,1.35 -0.25,0 -1.55,-0.05 -1.95,-1.74 -0.95,-3.64 -3.14,-12.36 -3.73,-15 -0.05,-0.2 -2.05,-4.18 -5.68,-4.18 -2.59,0 -3.09,2.24 -3.09,4.08 0,2.79 1.39,6.73 2.69,10.16 0.6,1.5 0.85,2.19 0.85,3.14 0,2.25 -1.6,4.09 -4.09,4.09 -4.73,0 -6.57,-7.23 -6.57,-7.67 0,-0.5 0.49,-0.5 0.59,-0.5 0.5,0 0.55,0.1 0.8,0.9 1.25,4.33 3.14,6.17 5.03,6.17 0.45,0 1.25,-0.05 1.25,-1.64 0,-1.2 -0.55,-2.64 -0.85,-3.39 -1.84,-4.93 -2.89,-8.02 -2.89,-10.46 0,-4.73 3.44,-5.98 6.13,-5.98 3.28,0 5.08,2.25 5.92,3.34 z"
           id="path10348" /><path
           style="fill:#000000;stroke-width:0"
           inkscape:connector-curvature="0"
           d="m 500.49,394.04 0,0.03 0,0.03 -0.01,0.01 0,0.02 0,0.01 -0.01,0.02 0,0.02 -0.01,0.01 -0.01,0.02 -0.01,0.02 -0.01,0.03 -0.01,0.02 -0.02,0.02 -0.02,0.03 -0.02,0.03 -0.02,0.03 -0.03,0.03 -0.03,0.04 -0.01,0.02 -0.02,0.02 -0.02,0.02 -0.02,0.02 -0.02,0.02 -0.02,0.03 -0.02,0.02 -0.02,0.02 -0.02,0.03 -0.03,0.02 -0.02,0.03 -0.03,0.03 -0.02,0.03 -0.03,0.03 -0.03,0.03 -0.03,0.03 -0.03,0.03 -0.03,0.03 -0.04,0.04 -0.03,0.03 -0.04,0.04 -0.03,0.03 -0.04,0.04 -0.04,0.04 c -6.23,6.28 -7.82,15.69 -7.82,23.31 0,8.67 1.89,17.34 8.02,23.57 0.65,0.59 0.65,0.69 0.65,0.84 0,0.35 -0.2,0.5 -0.5,0.5 -0.5,0 -4.98,-3.39 -7.92,-9.72 -2.54,-5.47 -3.14,-11 -3.14,-15.19 0,-3.88 0.55,-9.91 3.29,-15.54 2.99,-6.12 7.27,-9.36 7.77,-9.36 0.3,0 0.5,0.15 0.5,0.49 z"
           id="path10350" /><path
           style="fill:#000000;stroke-width:0"
           inkscape:connector-curvature="0"
           d="m 540.75,448.64 -0.07,-0.06 -0.07,-0.07 -0.08,-0.07 -0.08,-0.07 -0.09,-0.08 -0.09,-0.08 -0.09,-0.09 -0.09,-0.09 -0.1,-0.09 -0.09,-0.09 -0.2,-0.19 -0.19,-0.19 -0.19,-0.21 -0.09,-0.1 -0.09,-0.1 -0.09,-0.1 -0.08,-0.11 -0.08,-0.1 -0.08,-0.1 -0.07,-0.1 -0.06,-0.1 -0.06,-0.1 -0.05,-0.1 -0.05,-0.1 -0.04,-0.09 -0.03,-0.1 -0.02,-0.09 -0.02,-0.09 0,-0.08 c 0,-0.5 0.5,-1 1,-1 0.44,0 0.69,0.35 0.94,0.65 0.6,0.75 1.74,2.14 3.93,3.24 0.36,0.2 0.85,0.45 0.85,1.05 0,0.49 -0.35,0.74 -0.69,0.99 -1.1,0.75 -1.65,1.64 -2.04,2.84 -0.11,0.45 -0.31,1.1 -1,1.1 -0.7,0 -1,-0.65 -1,-1.05 0,-0.25 0.4,-1.84 1.2,-2.89 l -16.79,0 c -0.85,0 -1.74,0 -1.74,-0.99 0,-1 0.89,-1 1.74,-1 z"
           id="path10352" /><path
           style="fill:#000000;stroke-width:0"
           inkscape:connector-curvature="0"
           d="m 527.16,426.47 -4.18,9.92 c -0.16,0.4 -0.25,0.59 -0.25,0.65 0,0.29 0.84,1.24 2.93,1.44 0.5,0.05 1,0.1 1,0.95 0,0.59 -0.6,0.59 -0.75,0.59 l -11.85,0 c -0.3,0 -0.9,0 -0.9,-0.99 0,-0.55 0.5,-0.55 1.15,-0.55 2.99,0 3.28,-0.5 3.73,-1.6 l 5.88,-13.9 -10.51,-11.3 -0.65,-0.55 c -2.44,-2.64 -4.78,-3.43 -7.32,-3.59 -0.65,-0.04 -1.1,-0.04 -1.1,-0.99 0,-0.05 0,-0.55 0.65,-0.55 l 10.26,0 c 0.3,0 0.9,0 0.9,1 0,0.5 -0.5,0.54 -0.6,0.54 -0.45,0.05 -1.99,0.16 -1.99,1.55 0,0.8 0.75,1.59 1.35,2.24 l 5.07,5.38 4.49,4.88 5.03,-11.9 c 0.2,-0.55 0.25,-0.6 0.25,-0.7 0,-0.4 -0.95,-1.25 -2.89,-1.45 -0.55,-0.04 -1,-0.09 -1,-0.94 0,-0.6 0.55,-0.6 0.75,-0.6 l 11.81,0 c 0.35,0 0.94,0 0.94,0.95 0,0.59 -0.49,0.59 -0.89,0.59 -3.34,0.05 -3.44,0.2 -4.29,2.19 -1.94,4.64 -5.28,12.41 -6.42,15.4 3.39,3.48 8.62,9.41 10.21,10.81 1.44,1.19 3.33,2.39 6.33,2.54 0.64,0.05 1.09,0.05 1.09,0.99 0,0.05 0,0.55 -0.65,0.55 l -10.21,0 c -0.3,0 -0.94,0 -0.94,-0.99 0,-0.35 0.25,-0.5 0.59,-0.55 0.45,-0.05 2,-0.15 2,-1.55 0,-0.69 -0.55,-1.34 -0.95,-1.79 z"
           id="path10354" /><path
           style="fill:#000000;stroke-width:0"
           inkscape:connector-curvature="0"
           d="m 563.4,418.45 -0.01,0.37 0,0.39 -0.01,0.39 -0.01,0.41 -0.04,0.84 -0.06,0.88 -0.09,0.92 -0.1,0.94 -0.14,0.98 -0.16,1 -0.2,1.02 -0.23,1.04 -0.27,1.05 -0.3,1.06 -0.35,1.06 -0.39,1.07 -0.22,0.53 -0.22,0.54 -0.24,0.53 -0.25,0.53 c -2.99,6.12 -7.27,9.36 -7.77,9.36 -0.3,0 -0.5,-0.2 -0.5,-0.5 0,-0.15 0,-0.25 0.94,-1.15 4.89,-4.92 7.73,-12.85 7.73,-23.26 0,-8.52 -1.85,-17.28 -8.02,-23.56 -0.65,-0.6 -0.65,-0.69 -0.65,-0.85 0,-0.29 0.2,-0.49 0.5,-0.49 0.5,0 4.98,3.38 7.92,9.71 2.54,5.48 3.14,11.01 3.14,15.19 z"
           id="path10356" /></g>    </g>
    <path
       inkscape:connector-curvature="0"
       sodipodi:nodetypes="cc"
       id="path4606"
       d="M 136.51424,463.77833 514.43363,331.95205"
       style="fill:none;stroke:#000000;stroke-width:2;stroke-linecap:butt;stroke-linejoin:miter;stroke-miterlimit:4;stroke-dasharray:none;stroke-opacity:1;marker-start:none;marker-end:url(#TriangleOutL-7-3)" />
    <g
       id="g10716"
       transform="translate(-95.089399,-97.250519)">
      <g
         word-spacing="normal"
         letter-spacing="normal"
         font-size-adjust="none"
         font-stretch="normal"
         font-weight="normal"
         font-variant="normal"
         font-style="normal"
         stroke-miterlimit="10.433"
         xml:space="preserve"
         transform="matrix(0.99,0,0,-0.99,-173.25,720)"
         id="g10718"
         style="font-style:normal;font-variant:normal;font-weight:normal;font-stretch:normal;letter-spacing:normal;word-spacing:normal;text-anchor:start;fill:none;fill-opacity:1;fill-rule:evenodd;stroke:#000000;stroke-linecap:butt;stroke-linejoin:miter;stroke-miterlimit:10.43299961;stroke-dasharray:none;stroke-dashoffset:0;stroke-opacity:1"><path
           id="path10720"
           d="m 481.75,435.64 -0.07,-0.06 -0.07,-0.07 -0.08,-0.07 -0.08,-0.07 -0.09,-0.08 -0.09,-0.08 -0.09,-0.09 -0.09,-0.09 -0.1,-0.09 -0.09,-0.09 -0.2,-0.19 -0.19,-0.19 -0.19,-0.21 -0.09,-0.1 -0.09,-0.1 -0.09,-0.1 -0.08,-0.11 -0.08,-0.1 -0.08,-0.1 -0.07,-0.1 -0.06,-0.1 -0.06,-0.1 -0.05,-0.1 -0.05,-0.1 -0.04,-0.09 -0.03,-0.1 -0.02,-0.09 -0.02,-0.09 0,-0.08 c 0,-0.5 0.5,-1 1,-1 0.44,0 0.69,0.35 0.94,0.65 0.6,0.75 1.74,2.14 3.94,3.24 0.35,0.2 0.84,0.45 0.84,1.05 0,0.49 -0.34,0.74 -0.69,0.99 -1.1,0.75 -1.65,1.64 -2.05,2.84 -0.1,0.45 -0.3,1.1 -0.99,1.1 -0.7,0 -1,-0.65 -1,-1.05 0,-0.25 0.4,-1.84 1.2,-2.89 l -16.79,0 c -0.85,0 -1.74,0 -1.74,-0.99 0,-1 0.89,-1 1.74,-1 z"
           inkscape:connector-curvature="0"
           style="fill:#000000;stroke-width:0" /><path
           id="path10722"
           d="m 473.43,408.79 0.06,-0.19 0.06,-0.19 0.07,-0.18 0.07,-0.17 0.09,-0.17 0.08,-0.17 0.1,-0.16 0.1,-0.15 0.1,-0.15 0.11,-0.15 0.12,-0.14 0.12,-0.13 0.13,-0.13 0.13,-0.13 0.14,-0.11 0.14,-0.12 0.15,-0.1 0.15,-0.1 0.16,-0.09 0.16,-0.09 0.16,-0.08 0.17,-0.07 0.17,-0.07 0.18,-0.06 0.18,-0.06 0.18,-0.04 0.19,-0.04 0.18,-0.04 0.2,-0.02 0.19,-0.02 0.2,-0.01 0.2,-0.01 c 1.74,0 2.89,1.15 3.68,2.74 0.85,1.79 1.5,4.83 1.5,4.93 0,0.5 -0.45,0.5 -0.6,0.5 -0.5,0 -0.55,-0.2 -0.7,-0.89 -0.7,-2.8 -1.64,-6.18 -3.73,-6.18 -1.05,0 -1.55,0.65 -1.55,2.29 0,1.09 0.6,3.44 1,5.18 l 1.39,5.38 c 0.16,0.75 0.65,2.64 0.85,3.39 0.25,1.14 0.75,3.03 0.75,3.33 0,0.9 -0.7,1.35 -1.44,1.35 -0.25,0 -1.55,-0.05 -1.95,-1.74 -0.95,-3.64 -3.14,-12.36 -3.73,-15 -0.05,-0.2 -2.05,-4.18 -5.68,-4.18 -2.59,0 -3.09,2.24 -3.09,4.08 0,2.79 1.39,6.73 2.69,10.16 0.6,1.5 0.85,2.19 0.85,3.14 0,2.25 -1.6,4.09 -4.09,4.09 -4.73,0 -6.57,-7.23 -6.57,-7.67 0,-0.5 0.49,-0.5 0.59,-0.5 0.5,0 0.55,0.1 0.8,0.9 1.25,4.33 3.14,6.17 5.03,6.17 0.45,0 1.25,-0.05 1.25,-1.64 0,-1.2 -0.55,-2.64 -0.85,-3.39 -1.84,-4.93 -2.89,-8.02 -2.89,-10.46 0,-4.73 3.44,-5.98 6.13,-5.98 3.28,0 5.08,2.25 5.92,3.34 z"
           inkscape:connector-curvature="0"
           style="fill:#000000;stroke-width:0" /><path
           id="path10724"
           d="m 500.49,394.04 0,0.03 0,0.03 -0.01,0.01 0,0.02 0,0.01 -0.01,0.02 0,0.02 -0.01,0.01 -0.01,0.02 -0.01,0.02 -0.01,0.03 -0.01,0.02 -0.02,0.02 -0.02,0.03 -0.02,0.03 -0.02,0.03 -0.03,0.03 -0.03,0.04 -0.01,0.02 -0.02,0.02 -0.02,0.02 -0.02,0.02 -0.02,0.02 -0.02,0.03 -0.02,0.02 -0.02,0.02 -0.02,0.03 -0.03,0.02 -0.02,0.03 -0.03,0.03 -0.02,0.03 -0.03,0.03 -0.03,0.03 -0.03,0.03 -0.03,0.03 -0.03,0.03 -0.04,0.04 -0.03,0.03 -0.04,0.04 -0.03,0.03 -0.04,0.04 -0.04,0.04 c -6.23,6.28 -7.82,15.69 -7.82,23.31 0,8.67 1.89,17.34 8.02,23.57 0.65,0.59 0.65,0.69 0.65,0.84 0,0.35 -0.2,0.5 -0.5,0.5 -0.5,0 -4.98,-3.39 -7.92,-9.72 -2.54,-5.47 -3.14,-11 -3.14,-15.19 0,-3.88 0.55,-9.91 3.29,-15.54 2.99,-6.12 7.27,-9.36 7.77,-9.36 0.3,0 0.5,0.15 0.5,0.49 z"
           inkscape:connector-curvature="0"
           style="fill:#000000;stroke-width:0" /><path
           id="path10726"
           d="m 540.75,448.64 -0.07,-0.06 -0.07,-0.07 -0.08,-0.07 -0.08,-0.07 -0.09,-0.08 -0.09,-0.08 -0.09,-0.09 -0.09,-0.09 -0.1,-0.09 -0.09,-0.09 -0.2,-0.19 -0.19,-0.19 -0.19,-0.21 -0.09,-0.1 -0.09,-0.1 -0.09,-0.1 -0.08,-0.11 -0.08,-0.1 -0.08,-0.1 -0.07,-0.1 -0.06,-0.1 -0.06,-0.1 -0.05,-0.1 -0.05,-0.1 -0.04,-0.09 -0.03,-0.1 -0.02,-0.09 -0.02,-0.09 0,-0.08 c 0,-0.5 0.5,-1 1,-1 0.44,0 0.69,0.35 0.94,0.65 0.6,0.75 1.74,2.14 3.93,3.24 0.36,0.2 0.85,0.45 0.85,1.05 0,0.49 -0.35,0.74 -0.69,0.99 -1.1,0.75 -1.65,1.64 -2.04,2.84 -0.11,0.45 -0.31,1.1 -1,1.1 -0.7,0 -1,-0.65 -1,-1.05 0,-0.25 0.4,-1.84 1.2,-2.89 l -16.79,0 c -0.85,0 -1.74,0 -1.74,-0.99 0,-1 0.89,-1 1.74,-1 z"
           inkscape:connector-curvature="0"
           style="fill:#000000;stroke-width:0" /><path
           id="path10728"
           d="m 527.16,426.47 -4.18,9.92 c -0.16,0.4 -0.25,0.59 -0.25,0.65 0,0.29 0.84,1.24 2.93,1.44 0.5,0.05 1,0.1 1,0.95 0,0.59 -0.6,0.59 -0.75,0.59 l -11.85,0 c -0.3,0 -0.9,0 -0.9,-0.99 0,-0.55 0.5,-0.55 1.15,-0.55 2.99,0 3.28,-0.5 3.73,-1.6 l 5.88,-13.9 -10.51,-11.3 -0.65,-0.55 c -2.44,-2.64 -4.78,-3.43 -7.32,-3.59 -0.65,-0.04 -1.1,-0.04 -1.1,-0.99 0,-0.05 0,-0.55 0.65,-0.55 l 10.26,0 c 0.3,0 0.9,0 0.9,1 0,0.5 -0.5,0.54 -0.6,0.54 -0.45,0.05 -1.99,0.16 -1.99,1.55 0,0.8 0.75,1.59 1.35,2.24 l 5.07,5.38 4.49,4.88 5.03,-11.9 c 0.2,-0.55 0.25,-0.6 0.25,-0.7 0,-0.4 -0.95,-1.25 -2.89,-1.45 -0.55,-0.04 -1,-0.09 -1,-0.94 0,-0.6 0.55,-0.6 0.75,-0.6 l 11.81,0 c 0.35,0 0.94,0 0.94,0.95 0,0.59 -0.49,0.59 -0.89,0.59 -3.34,0.05 -3.44,0.2 -4.29,2.19 -1.94,4.64 -5.28,12.41 -6.42,15.4 3.39,3.48 8.62,9.41 10.21,10.81 1.44,1.19 3.33,2.39 6.33,2.54 0.64,0.05 1.09,0.05 1.09,0.99 0,0.05 0,0.55 -0.65,0.55 l -10.21,0 c -0.3,0 -0.94,0 -0.94,-0.99 0,-0.35 0.25,-0.5 0.59,-0.55 0.45,-0.05 2,-0.15 2,-1.55 0,-0.69 -0.55,-1.34 -0.95,-1.79 z"
           inkscape:connector-curvature="0"
           style="fill:#000000;stroke-width:0" /><path
           id="path10730"
           d="m 580.38,417.46 13.89,0 c 0.7,0 1.64,0 1.64,0.99 0,1 -0.94,1 -1.64,1 l -13.89,0 0,13.95 c 0,0.69 0,1.64 -1,1.64 -1,0 -1,-0.95 -1,-1.64 l 0,-13.95 -13.95,0 c -0.7,0 -1.64,0 -1.64,-1 0,-0.99 0.94,-0.99 1.64,-0.99 l 13.95,0 0,-13.95 c 0,-0.7 0,-1.64 1,-1.64 1,0 1,0.94 1,1.64 z"
           inkscape:connector-curvature="0"
           style="fill:#000000;stroke-width:0" /><path
           id="path10732"
           d="m 634.7,440.02 0,0.01 0,0 0,0.01 0,0.01 0,0.01 0,0.01 0,0.02 0,0.02 -0.01,0.02 0,0.02 -0.01,0.02 0,0.02 -0.01,0.03 -0.01,0.02 -0.01,0.03 -0.01,0.02 -0.02,0.02 -0.01,0.03 -0.02,0.02 -0.02,0.03 -0.03,0.02 -0.01,0.01 -0.01,0.01 -0.01,0.01 -0.02,0.01 -0.01,0.01 -0.02,0.01 -0.01,0.01 -0.02,0.01 -0.02,0.01 -0.02,0.01 -0.01,0.01 -0.02,0 -0.03,0.01 -0.02,0.01 -0.02,0 -0.02,0.01 -0.02,0 -0.03,0.01 -0.02,0 -0.03,0 -0.03,0.01 -0.03,0 -0.03,0 -0.03,0 c -0.74,0 -5.47,-0.45 -6.32,-0.55 -0.4,-0.05 -0.7,-0.3 -0.7,-0.95 0,-0.59 0.45,-0.59 1.2,-0.59 2.39,0 2.49,-0.35 2.49,-0.85 l -0.15,-0.99 -2.99,-11.81 c -0.9,1.84 -2.34,3.19 -4.58,3.19 l 0.05,-1.1 c 3.23,0 3.93,-4.08 3.93,-4.38 0,-0.3 -0.1,-0.6 -0.15,-0.85 l -2.49,-9.76 c -0.25,-0.9 -0.25,-1 -0.99,-1.84 -2.19,-2.75 -4.24,-3.54 -5.63,-3.54 -2.49,0 -3.19,2.74 -3.19,4.68 0,2.49 1.59,8.62 2.74,10.91 1.54,2.94 3.78,4.78 5.78,4.78 l -0.05,1.1 c -5.83,0 -12.01,-7.32 -12.01,-14.6 0,-4.68 2.74,-7.97 6.63,-7.97 0.99,0 3.48,0.2 6.47,3.74 0.4,-2.09 2.14,-3.74 4.53,-3.74 1.75,0 2.9,1.15 3.69,2.74 0.85,1.79 1.5,4.83 1.5,4.93 0,0.5 -0.45,0.5 -0.6,0.5 -0.5,0 -0.55,-0.2 -0.7,-0.89 -0.85,-3.24 -1.74,-6.18 -3.78,-6.18 -1.35,0 -1.5,1.29 -1.5,2.29 0,1.2 0.1,1.54 0.3,2.39 z"
           inkscape:connector-curvature="0"
           style="fill:#000000;stroke-width:0" /><path
           id="path10734"
           d="m 672.75,448.64 -0.07,-0.06 -0.07,-0.07 -0.08,-0.07 -0.08,-0.07 -0.09,-0.08 -0.09,-0.08 -0.09,-0.09 -0.09,-0.09 -0.1,-0.09 -0.09,-0.09 -0.2,-0.19 -0.19,-0.19 -0.19,-0.21 -0.09,-0.1 -0.09,-0.1 -0.09,-0.1 -0.08,-0.11 -0.08,-0.1 -0.08,-0.1 -0.07,-0.1 -0.06,-0.1 -0.06,-0.1 -0.05,-0.1 -0.05,-0.1 -0.04,-0.09 -0.03,-0.1 -0.02,-0.09 -0.02,-0.09 0,-0.08 c 0,-0.5 0.5,-1 1,-1 0.44,0 0.69,0.35 0.94,0.65 0.6,0.75 1.74,2.14 3.93,3.24 0.36,0.2 0.85,0.45 0.85,1.05 0,0.49 -0.35,0.74 -0.69,0.99 -1.1,0.75 -1.65,1.64 -2.04,2.84 -0.11,0.45 -0.31,1.1 -1,1.1 -0.7,0 -1,-0.65 -1,-1.05 0,-0.25 0.4,-1.84 1.2,-2.89 l -16.79,0 c -0.85,0 -1.74,0 -1.74,-0.99 0,-1 0.89,-1 1.74,-1 z"
           inkscape:connector-curvature="0"
           style="fill:#000000;stroke-width:0" /><path
           id="path10736"
           d="m 659.16,426.47 -4.18,9.92 c -0.16,0.4 -0.25,0.59 -0.25,0.65 0,0.29 0.84,1.24 2.93,1.44 0.5,0.05 1,0.1 1,0.95 0,0.59 -0.6,0.59 -0.75,0.59 l -11.85,0 c -0.3,0 -0.9,0 -0.9,-0.99 0,-0.55 0.5,-0.55 1.15,-0.55 2.99,0 3.28,-0.5 3.73,-1.6 l 5.88,-13.9 -10.51,-11.3 -0.65,-0.55 c -2.44,-2.64 -4.78,-3.43 -7.32,-3.59 -0.65,-0.04 -1.1,-0.04 -1.1,-0.99 0,-0.05 0,-0.55 0.65,-0.55 l 10.26,0 c 0.3,0 0.9,0 0.9,1 0,0.5 -0.5,0.54 -0.6,0.54 -0.45,0.05 -1.99,0.16 -1.99,1.55 0,0.8 0.75,1.59 1.35,2.24 l 5.07,5.38 4.49,4.88 5.03,-11.9 c 0.2,-0.55 0.25,-0.6 0.25,-0.7 0,-0.4 -0.95,-1.25 -2.89,-1.45 -0.55,-0.04 -1,-0.09 -1,-0.94 0,-0.6 0.55,-0.6 0.75,-0.6 l 11.81,0 c 0.35,0 0.94,0 0.94,0.95 0,0.59 -0.49,0.59 -0.89,0.59 -3.34,0.05 -3.44,0.2 -4.29,2.19 -1.94,4.64 -5.28,12.41 -6.42,15.4 3.39,3.48 8.62,9.41 10.21,10.81 1.44,1.19 3.33,2.39 6.33,2.54 0.64,0.05 1.09,0.05 1.09,0.99 0,0.05 0,0.55 -0.65,0.55 l -10.21,0 c -0.3,0 -0.94,0 -0.94,-0.99 0,-0.35 0.25,-0.5 0.59,-0.55 0.45,-0.05 2,-0.15 2,-1.55 0,-0.69 -0.55,-1.34 -0.95,-1.79 z"
           inkscape:connector-curvature="0"
           style="fill:#000000;stroke-width:0" /><path
           id="path10738"
           d="m 695.4,418.45 -0.01,0.37 0,0.39 -0.01,0.39 -0.01,0.41 -0.04,0.84 -0.06,0.88 -0.09,0.92 -0.1,0.94 -0.14,0.98 -0.16,1 -0.2,1.02 -0.23,1.04 -0.27,1.05 -0.3,1.06 -0.35,1.06 -0.39,1.07 -0.22,0.53 -0.22,0.54 -0.24,0.53 -0.25,0.53 c -2.99,6.12 -7.27,9.36 -7.77,9.36 -0.3,0 -0.5,-0.2 -0.5,-0.5 0,-0.15 0,-0.25 0.94,-1.15 4.89,-4.92 7.73,-12.85 7.73,-23.26 0,-8.52 -1.85,-17.28 -8.02,-23.56 -0.65,-0.6 -0.65,-0.69 -0.65,-0.85 0,-0.29 0.2,-0.49 0.5,-0.49 0.5,0 4.98,3.38 7.92,9.71 2.54,5.48 3.14,11.01 3.14,15.19 z"
           inkscape:connector-curvature="0"
           style="fill:#000000;stroke-width:0" /></g>    </g>
  </g>
</svg>
