<?xml version="1.0" encoding="UTF-8" standalone="no"?>
<!-- Created with Inkscape (http://www.inkscape.org/) -->

<svg
   xmlns:dc="http://purl.org/dc/elements/1.1/"
   xmlns:cc="http://creativecommons.org/ns#"
   xmlns:rdf="http://www.w3.org/1999/02/22-rdf-syntax-ns#"
   xmlns:svg="http://www.w3.org/2000/svg"
   xmlns="http://www.w3.org/2000/svg"
   xmlns:sodipodi="http://sodipodi.sourceforge.net/DTD/sodipodi-0.dtd"
   xmlns:inkscape="http://www.inkscape.org/namespaces/inkscape"
   width="1052.3622"
   height="744.09448"
   id="svg2"
   version="1.1"
   inkscape:version="0.91 r13725"
   sodipodi:docname="svd_interpreted.svg"
   inkscape:export-filename="/home/ondro/Vyuka/Beamer_Sources/StrainModelling/figures/svd_interpreted.png"
   inkscape:export-xdpi="149.98689"
   inkscape:export-ydpi="149.98689">
  <sodipodi:namedview
     id="base"
     pagecolor="#ffffff"
     bordercolor="#666666"
     borderopacity="1.0"
     inkscape:pageopacity="0.0"
     inkscape:pageshadow="2"
     inkscape:zoom="0.99444664"
     inkscape:cx="555.22803"
     inkscape:cy="351.27013"
     inkscape:document-units="px"
     inkscape:current-layer="layer1"
     showgrid="false"
     showguides="true"
     inkscape:guide-bbox="true"
     inkscape:snap-object-midpoints="true"
     inkscape:object-nodes="true"
     inkscape:window-width="1867"
     inkscape:window-height="1176"
     inkscape:window-x="53"
     inkscape:window-y="24"
     inkscape:window-maximized="1" />
  <defs
     id="defs4">
    <marker
       inkscape:stockid="Arrow1Mstart"
       orient="auto"
       refY="0.0"
       refX="0.0"
       id="Arrow1Mstart"
       style="overflow:visible">
      <path
         id="path3771"
         d="M 0.0,0.0 L 5.0,-5.0 L -12.5,0.0 L 5.0,5.0 L 0.0,0.0 z "
         style="fill-rule:evenodd;stroke:#000000;stroke-width:1.0pt"
         transform="scale(0.4) translate(10,0)" />
    </marker>
    <marker
       inkscape:stockid="Arrow2Mend"
       orient="auto"
       refY="0"
       refX="0"
       id="Arrow2Mend"
       style="overflow:visible">
      <path
         inkscape:connector-curvature="0"
         id="path3792"
         style="fill-rule:evenodd;stroke-width:0.625;stroke-linejoin:round"
         d="M 8.7185878,4.0337352 -2.2072895,0.01601326 8.7185884,-4.0017078 c -1.7454984,2.3720609 -1.7354408,5.6174519 -6e-7,8.035443 z"
         transform="scale(-0.6,-0.6)" />
    </marker>
    <marker
       inkscape:stockid="Arrow1Mend"
       orient="auto"
       refY="0"
       refX="0"
       id="Arrow1Mend"
       style="overflow:visible">
      <path
         inkscape:connector-curvature="0"
         id="path3774"
         d="M 0,0 5,-5 -12.5,0 5,5 0,0 z"
         style="fill-rule:evenodd;stroke:#000000;stroke-width:1pt"
         transform="matrix(-0.4,0,0,-0.4,-4,0)" />
    </marker>
    <marker
       inkscape:stockid="Arrow1Mendx"
       orient="auto"
       refY="0"
       refX="0"
       id="Arrow1Mendx"
       style="overflow:visible">
      <path
         inkscape:connector-curvature="0"
         id="path4779"
         d="M 0,0 5,-5 -12.5,0 5,5 0,0 z"
         style="fill:#ff0000;fill-rule:evenodd;stroke:#ff0000;stroke-width:1pt"
         transform="matrix(-0.4,0,0,-0.4,-4,0)" />
    </marker>
    <marker
       inkscape:stockid="Arrow1MendJ"
       orient="auto"
       refY="0"
       refX="0"
       id="Arrow1MendJ"
       style="overflow:visible">
      <path
         inkscape:connector-curvature="0"
         id="path4815"
         d="M 0,0 5,-5 -12.5,0 5,5 0,0 z"
         style="fill:#008000;fill-rule:evenodd;stroke:#008000;stroke-width:1pt"
         transform="matrix(-0.4,0,0,-0.4,-4,0)" />
    </marker>
    <marker
       inkscape:stockid="Arrow1MendJ"
       orient="auto"
       refY="0"
       refX="0"
       id="Arrow1MendJ-5"
       style="overflow:visible">
      <path
         inkscape:connector-curvature="0"
         id="path4815-1"
         d="M 0,0 5,-5 -12.5,0 5,5 0,0 z"
         style="fill:#008000;fill-rule:evenodd;stroke:#008000;stroke-width:1pt"
         transform="matrix(-0.4,0,0,-0.4,-4,0)" />
    </marker>
    <marker
       inkscape:stockid="Arrow1Mendx"
       orient="auto"
       refY="0"
       refX="0"
       id="Arrow1Mendx-2"
       style="overflow:visible">
      <path
         inkscape:connector-curvature="0"
         id="path4779-9"
         d="M 0,0 5,-5 -12.5,0 5,5 0,0 z"
         style="fill:#ff0000;fill-rule:evenodd;stroke:#ff0000;stroke-width:1pt"
         transform="matrix(-0.4,0,0,-0.4,-4,0)" />
    </marker>
    <marker
       inkscape:stockid="Arrow1MendJe"
       orient="auto"
       refY="0"
       refX="0"
       id="Arrow1MendJe"
       style="overflow:visible">
      <path
         inkscape:connector-curvature="0"
         id="path4931"
         d="M 0,0 5,-5 -12.5,0 5,5 0,0 z"
         style="fill:#000000;fill-rule:evenodd;stroke:#000000;stroke-width:1pt"
         transform="matrix(-0.4,0,0,-0.4,-4,0)" />
    </marker>
    <marker
       inkscape:stockid="Arrow1Mendxl"
       orient="auto"
       refY="0"
       refX="0"
       id="Arrow1Mendxl"
       style="overflow:visible">
      <path
         inkscape:connector-curvature="0"
         id="path4934"
         d="M 0,0 5,-5 -12.5,0 5,5 0,0 z"
         style="fill:#000000;fill-rule:evenodd;stroke:#000000;stroke-width:1pt"
         transform="matrix(-0.4,0,0,-0.4,-4,0)" />
    </marker>
    <marker
       inkscape:stockid="Arrow1Mend"
       orient="auto"
       refY="0"
       refX="0"
       id="Arrow1Mend-0"
       style="overflow:visible">
      <path
         inkscape:connector-curvature="0"
         id="path3774-3"
         d="M 0,0 5,-5 -12.5,0 5,5 0,0 z"
         style="fill-rule:evenodd;stroke:#000000;stroke-width:1pt"
         transform="matrix(-0.4,0,0,-0.4,-4,0)" />
    </marker>
  </defs>
  <metadata
     id="metadata7">
    <rdf:RDF>
      <cc:Work
         rdf:about="">
        <dc:format>image/svg+xml</dc:format>
        <dc:type
           rdf:resource="http://purl.org/dc/dcmitype/StillImage" />
        <dc:title />
      </cc:Work>
    </rdf:RDF>
  </metadata>
  <g
     transform="translate(0,-308.2677)"
     inkscape:label="Layer 1"
     inkscape:groupmode="layer"
     id="layer1">
    <g
       id="g6548"
       transform="translate(0,80)">
      <path
         transform="matrix(0.80309077,0,0,0.80271496,-104.26387,95.994455)"
         d="M 408.57143,419.50504 A 98.571426,98.571426 0 0 1 310,518.07646 98.571426,98.571426 0 0 1 211.42857,419.50504 98.571426,98.571426 0 0 1 310,320.93361 a 98.571426,98.571426 0 0 1 98.57143,98.57143 z"
         sodipodi:ry="98.571426"
         sodipodi:rx="98.571426"
         sodipodi:cy="419.50504"
         sodipodi:cx="310"
         id="path2985"
         style="color:#000000;fill:#98b5ca;fill-opacity:1;stroke:#000000;stroke-width:1.24548066;stroke-linecap:butt;stroke-linejoin:miter;stroke-miterlimit:4;stroke-opacity:1;stroke-dasharray:none;stroke-dashoffset:0;marker:none;visibility:visible;display:inline;overflow:visible;enable-background:accumulate"
         sodipodi:type="arc" />
      <path
         sodipodi:nodetypes="cc"
         inkscape:connector-curvature="0"
         id="path2991"
         d="m 144.69427,432.73742 76.50661,0"
         style="fill:none;stroke:#ff0000;stroke-width:1.5;stroke-linecap:butt;stroke-linejoin:miter;stroke-miterlimit:4;stroke-opacity:1;stroke-dasharray:none;marker-end:url(#Arrow1Mendx)" />
      <path
         style="fill:none;stroke:#008000;stroke-width:1.5;stroke-linecap:butt;stroke-linejoin:miter;stroke-miterlimit:4;stroke-opacity:1;stroke-dasharray:none;marker-end:url(#Arrow1MendJ)"
         d="m 144.69427,432.73742 0,-76.47081"
         id="path4770"
         inkscape:connector-curvature="0"
         sodipodi:nodetypes="cc" />
      <path
         sodipodi:type="arc"
         style="color:#000000;fill:#98b5ca;fill-opacity:1;stroke:#000000;stroke-width:1.24548066;stroke-linecap:butt;stroke-linejoin:miter;stroke-miterlimit:4;stroke-opacity:1;stroke-dasharray:none;stroke-dashoffset:0;marker:none;visibility:visible;display:inline;overflow:visible;enable-background:accumulate"
         id="path4849"
         sodipodi:cx="310"
         sodipodi:cy="419.50504"
         sodipodi:rx="98.571426"
         sodipodi:ry="98.571426"
         d="M 408.57143,419.50504 A 98.571426,98.571426 0 0 1 310,518.07646 98.571426,98.571426 0 0 1 211.42857,419.50504 98.571426,98.571426 0 0 1 310,320.93361 a 98.571426,98.571426 0 0 1 98.57143,98.57143 z"
         transform="matrix(0.80309077,0,-0.80309077,0.80271496,453.89913,95.994455)" />
      <path
         style="fill:none;stroke:#ff0000;stroke-width:1.5;stroke-linecap:butt;stroke-linejoin:miter;stroke-miterlimit:4;stroke-opacity:1;stroke-dasharray:none;marker-end:url(#Arrow1Mendx)"
         d="m 365.95665,432.73742 76.50661,0"
         id="path4851"
         inkscape:connector-curvature="0"
         sodipodi:nodetypes="cc" />
      <path
         sodipodi:nodetypes="cc"
         inkscape:connector-curvature="0"
         id="path4853"
         d="m 365.95665,432.73742 76.50661,-76.47081"
         style="fill:none;stroke:#008000;stroke-width:1.5;stroke-linecap:butt;stroke-linejoin:miter;stroke-miterlimit:4;stroke-opacity:1;stroke-dasharray:none;marker-end:url(#Arrow1MendJ)" />
    </g>
    <g
       id="g6556"
       transform="translate(0,140)">
      <circle
         style="color:#000000;display:inline;overflow:visible;visibility:visible;fill:#98b5ca;fill-opacity:1;stroke:#000000;stroke-width:1.24548066;stroke-linecap:butt;stroke-linejoin:miter;stroke-miterlimit:4;stroke-dasharray:none;stroke-dashoffset:0;stroke-opacity:1;marker:none;enable-background:accumulate"
         id="path4857"
         transform="matrix(0.80309077,0,0,0.80271496,-104.26386,295.92388)"
         cx="310"
         cy="419.50504"
         r="98.571426" />
      <path
         style="fill:none;stroke:#ff0000;stroke-width:1.5;stroke-linecap:butt;stroke-linejoin:miter;stroke-miterlimit:4;stroke-dasharray:none;stroke-opacity:1;marker-end:url(#Arrow1Mendx)"
         d="m 144.69427,632.66685 76.50661,0"
         id="path4859"
         inkscape:connector-curvature="0"
         sodipodi:nodetypes="cc" />
      <path
         sodipodi:nodetypes="cc"
         inkscape:connector-curvature="0"
         id="path4861"
         d="m 144.69427,632.66685 0,-76.47081"
         style="fill:none;stroke:#008000;stroke-width:1.5;stroke-linecap:butt;stroke-linejoin:miter;stroke-miterlimit:4;stroke-dasharray:none;stroke-opacity:1;marker-end:url(#Arrow1MendJ)" />
      <circle
         transform="matrix(0.42242575,0.68311043,-0.68343025,0.42222807,521.70709,243.77583)"
         id="path4865"
         style="color:#000000;display:inline;overflow:visible;visibility:visible;fill:#98b5ca;fill-opacity:1;stroke:#000000;stroke-width:1.24493492;stroke-linecap:butt;stroke-linejoin:miter;stroke-miterlimit:4;stroke-dasharray:none;stroke-dashoffset:0;stroke-opacity:1;marker:none;enable-background:accumulate"
         cx="310"
         cy="419.50504"
         r="98.571426" />
      <path
         sodipodi:nodetypes="cc"
         inkscape:connector-curvature="0"
         id="path4867"
         d="m 365.95665,632.66686 40.24247,65.07666"
         style="fill:none;stroke:#ff0000;stroke-width:1.5;stroke-linecap:butt;stroke-linejoin:miter;stroke-miterlimit:4;stroke-dasharray:none;stroke-opacity:1;marker-end:url(#Arrow1Mendx)" />
      <path
         style="fill:none;stroke:#008000;stroke-width:1.5;stroke-linecap:butt;stroke-linejoin:miter;stroke-miterlimit:4;stroke-dasharray:none;stroke-opacity:1;marker-end:url(#Arrow1MendJ)"
         d="m 365.95665,632.66686 65.10712,-40.22365"
         id="path4869"
         inkscape:connector-curvature="0"
         sodipodi:nodetypes="cc" />
      <path
         sodipodi:nodetypes="cc"
         inkscape:connector-curvature="0"
         id="path2991-2"
         d="m 365.95665,632.66686 76.50661,0"
         style="fill:none;stroke:#000000;stroke-width:1.5;stroke-linecap:butt;stroke-linejoin:miter;stroke-miterlimit:4;stroke-dasharray:none;stroke-opacity:1;marker-end:url(#Arrow1Mendxl)" />
      <path
         style="fill:none;stroke:#000000;stroke-width:1.5;stroke-linecap:butt;stroke-linejoin:miter;stroke-miterlimit:4;stroke-dasharray:none;stroke-opacity:1;marker-end:url(#Arrow1MendJe)"
         d="m 365.95665,632.66686 0,-76.47081"
         id="path4770-1"
         inkscape:connector-curvature="0"
         sodipodi:nodetypes="cc" />
      <circle
         style="color:#000000;display:inline;overflow:visible;visibility:visible;fill:#98b5ca;fill-opacity:1;stroke:#000000;stroke-width:1.24498224;stroke-linecap:butt;stroke-linejoin:miter;stroke-miterlimit:4;stroke-dasharray:none;stroke-dashoffset:0;stroke-opacity:1;marker:none;enable-background:accumulate"
         id="path5007"
         transform="matrix(0.68348487,0.42216224,-1.1057902,0.26093694,859.78757,392.3322)"
         cx="310"
         cy="419.50504"
         r="98.571426" />
      <path
         style="fill:none;stroke:#ff0000;stroke-width:1.5;stroke-linecap:butt;stroke-linejoin:miter;stroke-miterlimit:4;stroke-dasharray:none;stroke-opacity:1;marker-end:url(#Arrow1Mendx)"
         d="m 607.78335,632.66685 65.11233,40.21738"
         id="path5009"
         inkscape:connector-curvature="0"
         sodipodi:nodetypes="cc" />
      <path
         sodipodi:nodetypes="cc"
         inkscape:connector-curvature="0"
         id="path5011"
         d="M 607.78335,632.66685 713.12667,607.80864"
         style="fill:none;stroke:#008000;stroke-width:1.5;stroke-linecap:butt;stroke-linejoin:miter;stroke-miterlimit:4;stroke-dasharray:none;stroke-opacity:1;marker-end:url(#Arrow1MendJ)" />
      <path
         style="fill:none;stroke:#000000;stroke-width:1.5;stroke-linecap:butt;stroke-linejoin:miter;stroke-miterlimit:4;stroke-dasharray:none;stroke-opacity:1;marker-end:url(#Arrow1Mendxl)"
         d="m 607.78335,632.66685 123.7877,0"
         id="path5013"
         inkscape:connector-curvature="0"
         sodipodi:nodetypes="cc" />
      <path
         sodipodi:nodetypes="cc"
         inkscape:connector-curvature="0"
         id="path5015"
         d="m 607.78335,632.66685 0,-47.25896"
         style="fill:none;stroke:#000000;stroke-width:1.5;stroke-linecap:butt;stroke-linejoin:miter;stroke-miterlimit:4;stroke-dasharray:none;stroke-opacity:1;marker-end:url(#Arrow1MendJe)" />
      <circle
         transform="matrix(0.8038069,-8.472902e-5,-0.80371028,0.80343076,955.38352,295.64988)"
         id="path5019"
         style="color:#000000;display:inline;overflow:visible;visibility:visible;fill:#98b5ca;fill-opacity:1;stroke:#000000;stroke-width:1.24443662;stroke-linecap:butt;stroke-linejoin:miter;stroke-miterlimit:4;stroke-dasharray:none;stroke-dashoffset:0;stroke-opacity:1;marker:none;enable-background:accumulate"
         cx="310"
         cy="419.50504"
         r="98.571426" />
      <path
         sodipodi:nodetypes="cc"
         inkscape:connector-curvature="0"
         id="path5021"
         d="m 867.40315,632.66685 76.57484,-0.008"
         style="fill:none;stroke:#ff0000;stroke-width:1.5;stroke-linecap:butt;stroke-linejoin:miter;stroke-miterlimit:4;stroke-dasharray:none;stroke-opacity:1;marker-end:url(#Arrow1Mendx)" />
      <path
         style="fill:none;stroke:#008000;stroke-width:1.5;stroke-linecap:butt;stroke-linejoin:miter;stroke-miterlimit:4;stroke-dasharray:none;stroke-opacity:1;marker-end:url(#Arrow1MendJ)"
         d="m 867.40315,632.66685 76.56563,-76.53899"
         id="path5023"
         inkscape:connector-curvature="0"
         sodipodi:nodetypes="cc" />
      <path
         sodipodi:nodetypes="cc"
         inkscape:connector-curvature="0"
         id="path5025"
         d="M 867.40315,632.66685 972.74648,567.585"
         style="fill:none;stroke:#000000;stroke-width:1.5;stroke-linecap:butt;stroke-linejoin:miter;stroke-miterlimit:4;stroke-dasharray:none;stroke-opacity:1;marker-end:url(#Arrow1Mendxl)" />
      <path
         style="fill:none;stroke:#000000;stroke-width:1.5;stroke-linecap:butt;stroke-linejoin:miter;stroke-miterlimit:4;stroke-dasharray:none;stroke-opacity:1;marker-end:url(#Arrow1MendJe)"
         d="M 867.40315,632.66685 842.5333,592.44948"
         id="path5027"
         inkscape:connector-curvature="0"
         sodipodi:nodetypes="cc" />
    </g>
    <rect
       ry="4.2226834"
       rx="4.2226834"
       y="407.00909"
       x="537.25238"
       height="153.24229"
       width="443.31"
       id="rect8826"
       style="color:#000000;display:inline;overflow:visible;visibility:visible;fill:#e6e6e6;stroke:#000000;stroke-width:1.5;stroke-linecap:butt;stroke-linejoin:miter;stroke-miterlimit:4;stroke-dasharray:none;stroke-dashoffset:0;stroke-opacity:1;marker:none;enable-background:accumulate" />
    <text
       sodipodi:linespacing="125%"
       id="text8912"
       y="663.41229"
       x="289.44232"
       style="font-style:normal;font-variant:normal;font-weight:normal;font-stretch:normal;font-size:28px;line-height:125%;font-family:Ubuntu;-inkscape-font-specification:Ubuntu;letter-spacing:0px;word-spacing:0px;fill:#000000;fill-opacity:1;stroke:none"
       xml:space="preserve"><tspan
         y="663.41229"
         x="289.44232"
         id="tspan8914"
         sodipodi:role="line">Rotation</tspan></text>
    <text
       xml:space="preserve"
       style="font-style:normal;font-variant:normal;font-weight:normal;font-stretch:normal;font-size:28px;line-height:125%;font-family:Ubuntu;-inkscape-font-specification:Ubuntu;letter-spacing:0px;word-spacing:0px;fill:#000000;fill-opacity:1;stroke:none"
       x="793.79901"
       y="663.41229"
       id="text8916"
       sodipodi:linespacing="125%"><tspan
         sodipodi:role="line"
         id="tspan8918"
         x="793.79901"
         y="663.41229">Rotation</tspan></text>
    <text
       sodipodi:linespacing="125%"
       id="text8920"
       y="663.94427"
       x="537.90948"
       style="font-style:normal;font-variant:normal;font-weight:normal;font-stretch:normal;font-size:28px;line-height:125%;font-family:Ubuntu;-inkscape-font-specification:Ubuntu;letter-spacing:0px;word-spacing:0px;fill:#000000;fill-opacity:1;stroke:none"
       xml:space="preserve"><tspan
         y="663.94427"
         x="537.90948"
         id="tspan8922"
         sodipodi:role="line">Stretch</tspan></text>
    <g
       id="g9475"
       transform="translate(-877.70357,104.96832)">
      <g
         id="g9477"
         transform="matrix(1.0629921,0,0,-1.0629921,-186.02362,789.27165)"
         xml:space="preserve"
         stroke-miterlimit="10.433"
         font-style="normal"
         font-variant="normal"
         font-weight="normal"
         font-stretch="normal"
         font-size-adjust="none"
         letter-spacing="normal"
         word-spacing="normal"
         style="font-style:normal;font-variant:normal;font-weight:normal;font-stretch:normal;letter-spacing:normal;word-spacing:normal;text-anchor:start;fill:none;stroke:#000000;stroke-linecap:butt;stroke-linejoin:miter;stroke-miterlimit:10.43299961;stroke-opacity:1;stroke-dasharray:none;stroke-dashoffset:0"><path
           d="m 1251.4,362.74 0.4,-0.33 0.4,-0.32 0.4,-0.31 0.4,-0.3 0.5,-0.28 0.4,-0.27 0.4,-0.26 0.4,-0.25 0.4,-0.23 0.4,-0.22 0.4,-0.21 0.4,-0.2 0.4,-0.19 0.3,-0.17 0.2,-0.08 0.2,-0.08 0.1,-0.07 0.2,-0.08 c -1.8,-0.79 -4.2,-2.09 -6.3,-3.82 h -31.6 c -0.9,0 -1.8,0 -1.8,-1 0,-1 0.9,-1 1.7,-1 h 29.5 c -2.4,-2.3 -5,-6.68 -5,-7.33 0,-0.55 0.6,-0.55 0.9,-0.55 0.4,0 0.8,0 1,0.41 1,1.89 2.4,4.53 5.7,7.42 3.4,3.03 6.7,4.37 9.3,5.12 0.9,0.3 0.9,0.36 1,0.46 0.1,0.04 0.1,0.2 0.1,0.29 0,0.11 0,0.21 0,0.3 l -0.2,0.11 c -0.1,0.05 -0.1,0.09 -1.1,0.39 -6.7,2 -11.7,6.53 -14.5,11.86 -0.5,1 -0.6,1.05 -1.3,1.05 -0.3,0 -0.9,0 -0.9,-0.55 0,-0.66 2.5,-4.98 5,-7.33 h -29.5 c -0.8,0 -1.7,0 -1.7,-1 0,-0.98 0.9,-0.98 1.8,-0.98 z"
           id="path9479"
           inkscape:connector-curvature="0"
           style="fill:#000000;stroke-width:0" /></g>    </g>
    <g
       transform="translate(-877.70357,332.96832)"
       id="g10029">
      <g
         style="font-style:normal;font-variant:normal;font-weight:normal;font-stretch:normal;letter-spacing:normal;word-spacing:normal;text-anchor:start;fill:none;stroke:#000000;stroke-linecap:butt;stroke-linejoin:miter;stroke-miterlimit:10.43299961;stroke-dasharray:none;stroke-dashoffset:0;stroke-opacity:1"
         word-spacing="normal"
         letter-spacing="normal"
         font-size-adjust="none"
         font-stretch="normal"
         font-weight="normal"
         font-variant="normal"
         font-style="normal"
         stroke-miterlimit="10.433"
         xml:space="preserve"
         transform="matrix(1.0629921,0,0,-1.0629921,-186.02362,789.27165)"
         id="g10031"><path
           style="fill:#000000;stroke-width:0"
           inkscape:connector-curvature="0"
           id="path10033"
           d="m 1251.4,362.74 0.4,-0.33 0.4,-0.32 0.4,-0.31 0.4,-0.3 0.5,-0.28 0.4,-0.27 0.4,-0.26 0.4,-0.25 0.4,-0.23 0.4,-0.22 0.4,-0.21 0.4,-0.2 0.4,-0.19 0.3,-0.17 0.2,-0.08 0.2,-0.08 0.1,-0.07 0.2,-0.08 c -1.8,-0.79 -4.2,-2.09 -6.3,-3.82 l -31.6,0 c -0.9,0 -1.8,0 -1.8,-1 0,-1 0.9,-1 1.7,-1 l 29.5,0 c -2.4,-2.3 -5,-6.68 -5,-7.33 0,-0.55 0.6,-0.55 0.9,-0.55 0.4,0 0.8,0 1,0.41 1,1.89 2.4,4.53 5.7,7.42 3.4,3.03 6.7,4.37 9.3,5.12 0.9,0.3 0.9,0.36 1,0.46 0.1,0.04 0.1,0.2 0.1,0.29 0,0.11 0,0.21 0,0.3 l -0.2,0.11 c -0.1,0.05 -0.1,0.09 -1.1,0.39 -6.7,2 -11.7,6.53 -14.5,11.86 -0.5,1 -0.6,1.05 -1.3,1.05 -0.3,0 -0.9,0 -0.9,-0.55 0,-0.66 2.5,-4.98 5,-7.33 l -29.5,0 c -0.8,0 -1.7,0 -1.7,-1 0,-0.98 0.9,-0.98 1.8,-0.98 z" /></g>    </g>
    <g
       transform="matrix(0.63623744,0,0,0.63623744,38.003307,480.54918)"
       id="g10035">
      <g
         style="font-style:normal;font-variant:normal;font-weight:normal;font-stretch:normal;letter-spacing:normal;word-spacing:normal;text-anchor:start;fill:none;stroke:#000000;stroke-width:1.57174027;stroke-linecap:butt;stroke-linejoin:miter;stroke-miterlimit:10.43299961;stroke-dasharray:none;stroke-dashoffset:0;stroke-opacity:1"
         id="g10037"
         transform="matrix(1.0629921,0,0,-1.0629921,-186.02362,789.27165)"
         xml:space="preserve"
         stroke-miterlimit="10.433"
         font-style="normal"
         font-variant="normal"
         font-weight="normal"
         font-stretch="normal"
         font-size-adjust="none"
         letter-spacing="normal"
         word-spacing="normal"><path
           style="fill:#000000;stroke-width:0"
           inkscape:connector-curvature="0"
           d="m 1241.1,357.89 13.9,0 c 0.7,0 1.7,0 1.7,1 0,1 -1,1 -1.7,1 l -13.9,0 0,13.96 c 0,0.69 0,1.64 -1,1.64 -0.9,0 -0.9,-0.95 -0.9,-1.64 l 0,-13.96 -14,0 c -0.7,0 -1.6,0 -1.6,-1 0,-1 0.9,-1 1.6,-1 l 14,0 0,-13.93 c 0,-0.71 0,-1.66 0.9,-1.66 1,0 1,0.95 1,1.66 z"
           id="path10039" /></g>    </g>
    <g
       id="g10041"
       transform="matrix(0.63623744,0,0,0.63623744,-257.99669,480.54918)">
      <g
         word-spacing="normal"
         letter-spacing="normal"
         font-size-adjust="none"
         font-stretch="normal"
         font-weight="normal"
         font-variant="normal"
         font-style="normal"
         stroke-miterlimit="10.433"
         xml:space="preserve"
         transform="matrix(1.0629921,0,0,-1.0629921,-186.02362,789.27165)"
         id="g10043"
         style="font-style:normal;font-variant:normal;font-weight:normal;font-stretch:normal;letter-spacing:normal;word-spacing:normal;text-anchor:start;fill:none;stroke:#000000;stroke-width:1.57174027;stroke-linecap:butt;stroke-linejoin:miter;stroke-miterlimit:10.43299961;stroke-dasharray:none;stroke-dashoffset:0;stroke-opacity:1"><path
           id="path10045"
           d="m 1241.1,357.89 13.9,0 c 0.7,0 1.7,0 1.7,1 0,1 -1,1 -1.7,1 l -13.9,0 0,13.96 c 0,0.69 0,1.64 -1,1.64 -0.9,0 -0.9,-0.95 -0.9,-1.64 l 0,-13.96 -14,0 c -0.7,0 -1.6,0 -1.6,-1 0,-1 0.9,-1 1.6,-1 l 14,0 0,-13.93 c 0,-0.71 0,-1.66 0.9,-1.66 1,0 1,0.95 1,1.66 z"
           inkscape:connector-curvature="0"
           style="fill:#000000;stroke-width:0" /></g>    </g>
    <path
       style="color:#000000;display:inline;overflow:visible;visibility:visible;fill:none;stroke:#000000;stroke-width:1.5;stroke-linecap:butt;stroke-linejoin:miter;stroke-miterlimit:4;stroke-dashoffset:0;stroke-opacity:1;marker:none;marker-end:url(#Arrow1Mend);enable-background:accumulate"
       d="m 366.45947,717.51354 c 18.71882,0 35.25307,9.35327 45.18414,23.64118"
       id="path10073"
       inkscape:connector-curvature="0"
       sodipodi:nodetypes="cc" />
    <path
       style="color:#000000;display:inline;overflow:visible;visibility:visible;fill:none;stroke:#000000;stroke-width:1.5;stroke-linecap:butt;stroke-linejoin:miter;stroke-miterlimit:4;stroke-dashoffset:0;stroke-opacity:1;marker:none;marker-start:url(#Arrow1Mstart);enable-background:accumulate"
       d="m 922.24987,741.85782 c 5.11457,9.05072 8.03349,19.50644 8.03349,30.64391"
       id="path10308"
       inkscape:connector-curvature="0"
       sodipodi:nodetypes="cc" />
    <g
       id="g4815"
       transform="translate(-2.2094727e-5,0.56629076)">
      <text
         sodipodi:linespacing="125%"
         id="text6576"
         y="452.41827"
         x="553.00519"
         style="font-style:normal;font-variant:normal;font-weight:normal;font-stretch:normal;font-size:8.44536686px;line-height:125%;font-family:Ubuntu;-inkscape-font-specification:Ubuntu;letter-spacing:0px;word-spacing:0px;fill:#000000;fill-opacity:1;stroke:none"
         xml:space="preserve"><tspan
           style="font-size:30.40332031px"
           y="452.41827"
           x="553.00519"
           id="tspan6578"
           sodipodi:role="line">Singular Value Decomposition</tspan></text>
      <g
         transform="matrix(1.4542559,0,0,1.4542559,131.04761,16.578779)"
         id="g4469">
        <g
           style="font-style:normal;font-variant:normal;font-weight:normal;font-stretch:normal;letter-spacing:normal;word-spacing:normal;text-anchor:start;fill:none;fill-opacity:1;fill-rule:evenodd;stroke:#000000;stroke-linecap:butt;stroke-linejoin:miter;stroke-miterlimit:10.43299961;stroke-dasharray:none;stroke-dashoffset:0;stroke-opacity:1"
           word-spacing="normal"
           letter-spacing="normal"
           font-size-adjust="none"
           font-stretch="normal"
           font-weight="normal"
           font-variant="normal"
           font-style="normal"
           stroke-miterlimit="10.433"
           xml:space="preserve"
           transform="matrix(1.0629921,0,0,-1.0629921,-186.02362,789.27165)"
           id="content"><path
             style="fill:#000000;stroke-width:0"
             inkscape:connector-curvature="0"
             id="path4472"
             d="m 487.6,440.07 -30.14,0 0,-2.34 5.39,0 0,-29.19 -5.39,0 0,-2.34 c 1.9,0.16 6.93,0.16 9.12,0.16 2.44,0 7.88,0 10.06,-0.16 l 0,2.34 -6.73,0 0,13.46 2.5,0 c 4.78,0 5.23,-2.14 5.23,-5.83 l 2.35,0 0,14 -2.35,0 c 0,-3.69 -0.4,-5.83 -5.23,-5.83 l -2.5,0 0,13.39 6.98,0 c 8.02,0 9.18,-3.83 9.91,-9.66 l 2.34,0 z" /><path
             style="fill:#000000;stroke-width:0"
             inkscape:connector-curvature="0"
             id="path4474"
             d="m 539.68,422.5 0.14,0 0.14,0 0.14,0 0.08,0.01 0.07,0 0.07,0.01 0.07,0.01 0.07,0.01 0.07,0.01 0.07,0.01 0.07,0.02 0.06,0.02 0.06,0.02 0.07,0.02 0.05,0.03 0.06,0.03 0.05,0.04 0.05,0.03 0.05,0.05 0.04,0.04 0.04,0.05 0.02,0.03 0.02,0.03 0.01,0.02 0.02,0.03 0.01,0.03 0.02,0.04 0.01,0.03 0.01,0.04 0.01,0.03 0.01,0.04 0.01,0.04 0,0.04 0.01,0.04 0,0.04 0,0.04 0,0.05 c 0,1 -0.95,1 -1.64,1 l -29.84,0 c -0.7,0 -1.64,0 -1.64,-1 0,-0.98 0.94,-0.98 1.69,-0.98 z" /><path
             style="fill:#000000;stroke-width:0"
             inkscape:connector-curvature="0"
             id="path4476"
             d="m 539.72,412.82 0.07,0 0.06,0 0.14,0.01 0.14,0 0.07,0 0.07,0.01 0.07,0.01 0.07,0 0.07,0.01 0.06,0.02 0.07,0.01 0.07,0.02 0.06,0.02 0.06,0.02 0.06,0.02 0.06,0.03 0.05,0.03 0.06,0.04 0.04,0.04 0.05,0.04 0.04,0.05 0.02,0.02 0.02,0.03 0.02,0.02 0.02,0.03 0.02,0.03 0.01,0.03 0.01,0.03 0.02,0.03 0.01,0.04 0.01,0.03 0.01,0.04 0.01,0.04 0.01,0.04 0,0.04 0.01,0.04 0,0.04 0,0.05 0,0.04 c 0,1 -0.95,1 -1.68,1 l -29.75,0 c -0.75,0 -1.69,0 -1.69,-1 0,-1 0.94,-1 1.64,-1 z" /><path
             style="fill:#000000;stroke-width:0"
             inkscape:connector-curvature="0"
             id="path4478"
             d="m 594.72,436.59 0,0.05 0,0.05 0,0.05 0,0.04 0,0.09 0,0.08 0,0.08 0.01,0.07 0.01,0.07 0,0.06 0.02,0.06 0.01,0.05 0.01,0.05 0.02,0.05 0.03,0.04 0.02,0.04 0.03,0.04 0.03,0.03 0.04,0.03 0.04,0.03 0.05,0.02 0.05,0.03 0.05,0.02 0.06,0.02 0.04,0.01 0.03,0.01 0.03,0 0.04,0.01 0.04,0.01 0.04,0.01 0.04,0.01 0.04,0 0.05,0.01 0.04,0.01 0.05,0 0.05,0.01 0.05,0.01 0.06,0 0.05,0.01 0.06,0.01 0.06,0.01 0.06,0 0.06,0.01 0.06,0.01 c 1.2,0.14 1.3,0.14 2.7,0.14 l 1.24,0 0,2.34 c -1.89,-0.14 -4.74,-0.14 -6.67,-0.14 -2.1,0 -4.69,0 -6.72,0.14 l 0,-2.34 1.23,0 c 0.91,0 1.75,-0.05 2.64,-0.14 1.46,-0.16 1.5,-0.21 1.5,-1.3 l 0,-18.78 c 0,-7.38 -5.43,-9.81 -10.85,-9.81 -8.72,0 -8.83,6.51 -8.83,9.31 l 0,20.72 5.39,0 0,2.34 c -1.89,-0.14 -6.78,-0.14 -8.93,-0.14 -2.13,0 -7.01,0 -8.92,0.14 l 0,-2.34 5.39,0 0,-20.32 c 0,-6.64 5.38,-12.06 15.69,-12.06 9.47,0 13.71,5.83 13.71,11.96 z" /><path
             style="fill:#000000;stroke-width:0"
             inkscape:connector-curvature="0"
             id="path4480"
             d="m 625.96,422.34 0.05,0.05 0.06,0.04 0.05,0.05 0.06,0.05 0.05,0.05 0.05,0.05 0.02,0.03 0.02,0.03 0.02,0.02 0.03,0.03 0.02,0.03 0.02,0.03 0.01,0.03 0.02,0.03 0.02,0.03 0.01,0.03 0.02,0.03 0.01,0.04 0.01,0.03 0.01,0.04 0.01,0.03 0.01,0.04 0,0.04 0.01,0.04 0,0.04 0,0.04 c 0,0.3 -0.2,0.55 -0.36,0.75 l -11.36,13.99 10.17,0 c 7.38,0 11.75,-1.35 12.86,-9.66 l 2.33,0 -1.53,12 -31.84,0 c -1,0 -1.6,0 -1.6,-1.19 0,-0.5 0,-0.59 0.5,-1.15 l 14.21,-17.49 -14.11,-12.5 c -0.3,-0.25 -0.6,-0.5 -0.6,-0.95 0,-0.89 0.85,-0.89 1.6,-0.89 l 31.84,0 1.53,12.95 -2.33,0 c -1.04,-8.62 -6.03,-9.67 -13.01,-9.67 l -13.39,0 z" /><path
             style="fill:#000000;stroke-width:0"
             inkscape:connector-curvature="0"
             id="path4482"
             d="m 680.31,436.93 0.05,0.12 0.06,0.12 0.03,0.05 0.04,0.06 0.04,0.05 0.04,0.05 0.04,0.05 0.05,0.05 0.06,0.04 0.06,0.05 0.08,0.04 0.07,0.04 0.09,0.04 0.1,0.04 0.1,0.03 0.12,0.03 0.13,0.04 0.14,0.02 0.07,0.02 0.08,0.01 0.08,0.01 0.08,0.02 0.09,0.01 0.09,0.01 0.1,0.01 0.1,0.01 0.1,0.01 0.1,0.01 0.11,0 0.12,0.01 0.11,0.01 0.13,0.01 0.12,0 0.13,0.01 0.14,0 0.14,0.01 0.14,0 0.15,0 0.15,0 0.16,0.01 0.17,0 0.16,0 0.96,0 0,2.34 c -1.89,-0.05 -4.29,-0.14 -5.64,-0.14 -1.99,0 -4.58,0 -6.52,0.14 l 0,-2.34 c 0.44,0 4.37,0 4.37,-0.6 0,-0.2 -0.13,-0.43 -0.18,-0.59 l -10.07,-22.67 -10.62,23.86 4.69,0 0,2.34 c -1.89,-0.14 -6.67,-0.14 -8.82,-0.14 -1.95,0 -6.12,0 -7.87,0.14 l 0,-2.34 4.58,0 13.75,-30.94 c 0.41,-0.89 0.61,-1.3 2,-1.3 0.79,0 1.44,0 1.98,1.21 z" /><path
             style="fill:#000000;stroke-width:0"
             inkscape:connector-curvature="0"
             id="path4484"
             d="m 698.85,435.39 0.27,0.12 0.25,0.11 0.25,0.11 0.23,0.1 0.23,0.1 0.22,0.1 0.22,0.09 0.2,0.08 0.2,0.09 0.19,0.08 0.18,0.08 0.18,0.07 0.17,0.07 0.16,0.07 0.16,0.07 0.15,0.06 0.14,0.06 0.14,0.06 0.14,0.06 0.13,0.05 0.12,0.06 0.12,0.05 0.11,0.05 0.11,0.04 0.11,0.05 0.1,0.04 0.19,0.09 0.18,0.08 0.17,0.08 c 0.67,0.27 0.98,0.41 0.98,1.08 0,0.59 -0.45,1.11 -1.08,1.11 -0.25,0 -0.31,0 -0.73,-0.31 l -4.74,-3.17 0.52,5.15 c 0.08,0.63 0,1.5 -1.05,1.5 -0.42,0 -1.07,-0.28 -1.07,-1.04 0,-0.32 0.14,-1.36 0.17,-1.71 0.08,-0.59 0.31,-3.11 0.39,-3.9 l -4.71,3.17 c -0.35,0.2 -0.45,0.31 -0.76,0.31 -0.64,0 -1.09,-0.52 -1.09,-1.11 0,-0.7 0.42,-0.87 0.73,-1.02 l 5.27,-2.18 c -2.86,-1.27 -4.15,-1.75 -5.02,-2.17 -0.66,-0.29 -0.98,-0.43 -0.98,-1.08 0,-0.6 0.45,-1.11 1.09,-1.11 0.23,0 0.31,0 0.72,0.31 l 4.75,3.17 -0.56,-5.61 c 0,-0.76 0.65,-1.04 1.07,-1.04 0.43,0 1.08,0.28 1.08,1.04 0,0.32 -0.14,1.36 -0.17,1.71 -0.06,0.59 -0.31,3.09 -0.38,3.9 l 4.18,-2.79 c 0.9,-0.69 0.98,-0.69 1.29,-0.69 0.63,0 1.08,0.51 1.08,1.11 0,0.7 -0.42,0.87 -0.73,1.01 z" /></g>      </g>
    </g>
    <path
       style="font-style:normal;font-variant:normal;font-weight:normal;font-stretch:normal;letter-spacing:normal;word-spacing:normal;text-anchor:start;fill:#000000;fill-opacity:1;fill-rule:evenodd;stroke:#000000;stroke-width:0;stroke-linecap:butt;stroke-linejoin:miter;stroke-miterlimit:10.43299961;stroke-dasharray:none;stroke-dashoffset:0;stroke-opacity:1"
       inkscape:connector-curvature="0"
       id="path4478-9"
       d="m 968.99526,632.29069 0,-0.077 0,-0.077 0,-0.077 0,-0.062 0,-0.1391 0,-0.1237 0,-0.1236 0.0155,-0.1082 0.0155,-0.1082 0,-0.093 0.0309,-0.093 0.0155,-0.077 0.0155,-0.077 0.0309,-0.077 0.0464,-0.062 0.0309,-0.062 0.0464,-0.062 0.0464,-0.046 0.0618,-0.046 0.0618,-0.046 0.0773,-0.031 0.0773,-0.046 0.0773,-0.031 0.0928,-0.031 0.0618,-0.015 0.0464,-0.015 0.0464,0 0.0618,-0.016 0.0618,-0.015 0.0618,-0.015 0.0618,-0.015 0.0618,0 0.0773,-0.015 0.0618,-0.015 0.0773,0 0.0773,-0.015 0.0773,-0.015 0.0927,0 0.0773,-0.015 0.0928,-0.015 0.0927,-0.016 0.0928,0 0.0927,-0.015 0.0928,-0.015 c 1.85503,-0.2165 2.00962,-0.2165 4.17383,-0.2165 l 1.91687,0 0,-3.6173 c -2.92168,0.2164 -7.32739,0.2164 -10.31091,0.2164 -3.24631,0 -7.25009,0 -10.38819,-0.2164 l 0,3.6173 1.90141,0 c 1.40673,0 2.70526,0.077 4.08108,0.2165 2.25695,0.2473 2.31879,0.3246 2.31879,2.0096 l 0,29.0313 c 0,11.4084 -8.39403,15.1649 -16.77261,15.1649 -13.47992,0 -13.64997,-10.0636 -13.64997,-14.392 l 0,-32.0303 8.3322,0 0,-3.6173 c -2.92168,0.2164 -10.48094,0.2164 -13.80455,0.2164 -3.29269,0 -10.83649,0 -13.78909,-0.2164 l 0,3.6173 8.3322,0 0,31.412 c 0,10.2645 8.31674,18.6431 24.25458,18.6431 14.63932,0 21.19377,-9.0124 21.19377,-18.4886 z" />
    <path
       style="font-style:normal;font-variant:normal;font-weight:normal;font-stretch:normal;letter-spacing:normal;word-spacing:normal;text-anchor:start;fill:#000000;fill-opacity:1;fill-rule:evenodd;stroke:#000000;stroke-width:0;stroke-linecap:butt;stroke-linejoin:miter;stroke-miterlimit:10.43299961;stroke-dasharray:none;stroke-dashoffset:0;stroke-opacity:1"
       inkscape:connector-curvature="0"
       id="path4480-6"
       d="m 672.00508,658.69064 0.0773,-0.077 0.0928,-0.062 0.0773,-0.077 0.0927,-0.077 0.0773,-0.077 0.0773,-0.077 0.0309,-0.046 0.0309,-0.046 0.0309,-0.031 0.0464,-0.046 0.0309,-0.046 0.0309,-0.046 0.0155,-0.046 0.0309,-0.046 0.0309,-0.046 0.0155,-0.046 0.0309,-0.046 0.0155,-0.062 0.0155,-0.046 0.0155,-0.062 0.0155,-0.046 0.0155,-0.062 0,-0.062 0.0155,-0.062 0,-0.062 0,-0.062 c 0,-0.4638 -0.30918,-0.8503 -0.55651,-1.1594 l -17.56124,-21.6266 15.72142,0 c 11.40847,0 18.16388,2.0869 19.87979,14.933 l 3.60186,0 -2.36517,-18.5503 -49.22026,0 c -1.54586,0 -2.47338,0 -2.47338,1.8395 0,0.773 0,0.9121 0.77294,1.7778 l 21.9667,27.0371 -21.81212,19.3233 c -0.46376,0.3865 -0.92752,0.7729 -0.92752,1.4686 0,1.3758 1.31399,1.3758 2.47338,1.3758 l 49.22026,0 2.36517,-20.0189 -3.60186,0 c -1.60769,13.3253 -9.32155,14.9485 -20.11167,14.9485 l -20.69909,0 z" />
    <g
       id="g4253"
       transform="translate(593.13285,-580.99716)">
      <path
         d="m -132.12837,1214.8452 0.0773,-0.1855 0.0927,-0.1855 0.0464,-0.077 0.0618,-0.093 0.0618,-0.077 0.0618,-0.077 0.0618,-0.077 0.0773,-0.077 0.0927,-0.062 0.0927,-0.077 0.12367,-0.062 0.10821,-0.062 0.13913,-0.062 0.15458,-0.062 0.15459,-0.046 0.1855,-0.046 0.20097,-0.062 0.21642,-0.031 0.10821,-0.031 0.12367,-0.015 0.12367,-0.015 0.12366,-0.031 0.13913,-0.015 0.13913,-0.015 0.15459,-0.016 0.15458,-0.015 0.15459,-0.015 0.15458,-0.015 0.17005,0 0.1855,-0.015 0.17005,-0.015 0.20096,-0.015 0.1855,0 0.20097,-0.015 0.21642,0 0.21642,-0.015 0.21642,0 0.23188,0 0.23188,0 0.24733,-0.015 0.2628,0 0.24734,0 1.48403,0 0,-3.6173 c -2.92168,0.077 -6.63175,0.2164 -8.71867,0.2164 -3.07626,0 -7.08005,0 -10.07902,-0.2164 l 0,3.6173 c 0.68018,0 6.75542,0 6.75542,0.9276 0,0.3091 -0.20096,0.6647 -0.27826,0.912 l -15.56658,35.0447 -16.41706,-36.8843 7.25009,0 0,-3.6173 c -2.92168,0.2164 -10.3109,0.2164 -13.6345,0.2164 -3.01444,0 -9.46068,0 -12.16594,-0.2164 l 0,3.6173 7.08005,0 21.25561,47.829 c 0.6338,1.3758 0.94297,2.0096 3.09172,2.0096 1.22123,0 2.22604,0 3.06081,-1.8704 z"
         id="path4482-0"
         inkscape:connector-curvature="0"
         style="font-style:normal;font-variant:normal;font-weight:normal;font-stretch:normal;letter-spacing:normal;word-spacing:normal;text-anchor:start;fill:#000000;fill-opacity:1;fill-rule:evenodd;stroke:#000000;stroke-width:0;stroke-linecap:butt;stroke-linejoin:miter;stroke-miterlimit:10.43299961;stroke-dasharray:none;stroke-dashoffset:0;stroke-opacity:1" />
      <path
         d="m -103.46808,1217.2259 0.41738,-0.1855 0.38646,-0.1701 0.38647,-0.17 0.35555,-0.1546 0.35555,-0.1546 0.34009,-0.1546 0.34009,-0.1391 0.30917,-0.1237 0.30917,-0.1391 0.293724,-0.1237 0.27825,-0.1236 0.27826,-0.1083 0.26279,-0.1082 0.24734,-0.1082 0.24734,-0.1082 0.23188,-0.093 0.21642,-0.093 0.21642,-0.093 0.21642,-0.093 0.20096,-0.077 0.18551,-0.093 0.1855,-0.077 0.17004,-0.077 0.17005,-0.062 0.17004,-0.077 0.15459,-0.062 0.29371,-0.1391 0.27826,-0.1237 0.2628,-0.1237 c 1.03572,-0.4173 1.51494,-0.6338 1.51494,-1.6695 0,-0.912 -0.69564,-1.7159 -1.66953,-1.7159 -0.38647,0 -0.47922,0 -1.12848,0.4792 l -7.327394,4.9004 0.80385,-7.9612 c 0.12367,-0.9739 0,-2.3188 -1.62316,-2.3188 -0.64926,0 -1.65407,0.4329 -1.65407,1.6077 0,0.4947 0.21642,2.1024 0.2628,2.6434 0.12367,0.9121 0.47922,4.8077 0.60288,6.0289 l -7.28101,-4.9004 c -0.54105,-0.3091 -0.69564,-0.4792 -1.17485,-0.4792 -0.98936,0 -1.68499,0.8039 -1.68499,1.7159 0,1.0821 0.64926,1.3449 1.12848,1.5768 l 8.14669,3.37 c -4.42116,1.9632 -6.41533,2.7052 -7.76023,3.3545 -1.02027,0.4483 -1.51494,0.6647 -1.51494,1.6695 0,0.9275 0.69563,1.7159 1.68499,1.7159 0.35555,0 0.47921,0 1.11302,-0.4792 l 7.34284,-4.9004 -0.86568,8.6723 c 0,1.1749 1.00481,1.6077 1.65407,1.6077 0.66473,0 1.66954,-0.4328 1.66954,-1.6077 0,-0.4947 -0.21642,-2.1024 -0.2628,-2.6434 -0.0927,-0.9121 -0.47922,-4.7767 -0.58743,-6.0289 l 6.461714,4.313 c 1.39127,1.0666 1.51494,1.0666 1.99416,1.0666 0.97389,0 1.66953,-0.7884 1.66953,-1.7159 0,-1.0821 -0.64926,-1.3449 -1.12848,-1.5613 z"
         id="path4484-9"
         inkscape:connector-curvature="0"
         style="font-style:normal;font-variant:normal;font-weight:normal;font-stretch:normal;letter-spacing:normal;word-spacing:normal;text-anchor:start;fill:#000000;fill-opacity:1;fill-rule:evenodd;stroke:#000000;stroke-width:0;stroke-linecap:butt;stroke-linejoin:miter;stroke-miterlimit:10.43299961;stroke-dasharray:none;stroke-dashoffset:0;stroke-opacity:1" />
    </g>
  </g>
</svg>
