<?xml version="1.0" encoding="UTF-8" standalone="no"?>
<svg
   xmlns:dc="http://purl.org/dc/elements/1.1/"
   xmlns:cc="http://creativecommons.org/ns#"
   xmlns:rdf="http://www.w3.org/1999/02/22-rdf-syntax-ns#"
   xmlns:svg="http://www.w3.org/2000/svg"
   xmlns="http://www.w3.org/2000/svg"
   xmlns:xlink="http://www.w3.org/1999/xlink"
   xmlns:sodipodi="http://sodipodi.sourceforge.net/DTD/sodipodi-0.dtd"
   xmlns:inkscape="http://www.inkscape.org/namespaces/inkscape"
   width="210mm"
   height="297mm"
   viewBox="0 0 210 297"
   version="1.1"
   id="svg8"
   sodipodi:docname="vector_pair.svg"
   inkscape:version="1.0.1 (1.0.1+r73)"
   inkscape:export-filename="/home/ondro/Vyuka/Beamer_Sources/StrainModelling/figures/vector_pair.png"
   inkscape:export-xdpi="150"
   inkscape:export-ydpi="150">
  <defs
     id="defs2">
    <marker
       style="overflow:visible;"
       id="marker1584"
       refX="0.0"
       refY="0.0"
       orient="auto"
       inkscape:stockid="Arrow1Mend"
       inkscape:isstock="true">
      <path
         transform="scale(0.4) rotate(180) translate(10,0)"
         style="fill-rule:evenodd;stroke:#000000;stroke-width:1pt;stroke-opacity:1;fill:#000000;fill-opacity:1"
         d="M 0.0,0.0 L 5.0,-5.0 L -12.5,0.0 L 5.0,5.0 L 0.0,0.0 z "
         id="path1582" />
    </marker>
    <marker
       style="overflow:visible;"
       id="marker1574"
       refX="0.0"
       refY="0.0"
       orient="auto"
       inkscape:stockid="Arrow1Mend"
       inkscape:isstock="true">
      <path
         transform="scale(0.4) rotate(180) translate(10,0)"
         style="fill-rule:evenodd;stroke:#000000;stroke-width:1pt;stroke-opacity:1;fill:#000000;fill-opacity:1"
         d="M 0.0,0.0 L 5.0,-5.0 L -12.5,0.0 L 5.0,5.0 L 0.0,0.0 z "
         id="path1572" />
    </marker>
    <marker
       style="overflow:visible;"
       id="marker1154"
       refX="0.0"
       refY="0.0"
       orient="auto"
       inkscape:stockid="Arrow1Mend"
       inkscape:isstock="true"
       inkscape:collect="always">
      <path
         transform="scale(0.4) rotate(180) translate(10,0)"
         style="fill-rule:evenodd;stroke:#000000;stroke-width:1pt;stroke-opacity:1;fill:#000000;fill-opacity:1"
         d="M 0.0,0.0 L 5.0,-5.0 L -12.5,0.0 L 5.0,5.0 L 0.0,0.0 z "
         id="path1152" />
    </marker>
    <marker
       style="overflow:visible;"
       id="Arrow1Mend"
       refX="0.0"
       refY="0.0"
       orient="auto"
       inkscape:stockid="Arrow1Mend"
       inkscape:isstock="true"
       inkscape:collect="always">
      <path
         transform="scale(0.4) rotate(180) translate(10,0)"
         style="fill-rule:evenodd;stroke:#000000;stroke-width:1pt;stroke-opacity:1;fill:#000000;fill-opacity:1"
         d="M 0.0,0.0 L 5.0,-5.0 L -12.5,0.0 L 5.0,5.0 L 0.0,0.0 z "
         id="path851" />
    </marker>
    <marker
       style="overflow:visible;"
       id="Arrow1Send"
       refX="0.0"
       refY="0.0"
       orient="auto"
       inkscape:stockid="Arrow1Send"
       inkscape:isstock="true">
      <path
         transform="scale(0.2) rotate(180) translate(6,0)"
         style="fill-rule:evenodd;stroke:#000000;stroke-width:1pt;stroke-opacity:1;fill:#000000;fill-opacity:1"
         d="M 0.0,0.0 L 5.0,-5.0 L -12.5,0.0 L 5.0,5.0 L 0.0,0.0 z "
         id="path857" />
    </marker>
    <g
       id="g8253">
      <symbol
         overflow="visible"
         id="symbol3164">
        <path
           style="stroke:none;"
           d=""
           id="path9734" />
      </symbol>
      <symbol
         overflow="visible"
         id="symbol951">
        <path
           style="stroke:none;"
           d="M 5.359375 -5.9375 C 5.21875 -5.796875 4.890625 -5.515625 4.890625 -5.34375 C 4.890625 -5.25 4.984375 -5.140625 5.078125 -5.140625 C 5.171875 -5.140625 5.21875 -5.21875 5.28125 -5.28125 C 5.390625 -5.421875 5.625 -5.703125 6.0625 -5.921875 C 6.125 -5.96875 6.234375 -6.015625 6.234375 -6.125 C 6.234375 -6.234375 6.15625 -6.28125 6.09375 -6.328125 C 5.875 -6.484375 5.765625 -6.65625 5.6875 -6.890625 C 5.65625 -6.984375 5.625 -7.125 5.484375 -7.125 C 5.34375 -7.125 5.28125 -6.984375 5.28125 -6.90625 C 5.28125 -6.859375 5.359375 -6.546875 5.515625 -6.328125 L 2.15625 -6.328125 C 2 -6.328125 1.8125 -6.328125 1.8125 -6.125 C 1.8125 -5.9375 2 -5.9375 2.15625 -5.9375 Z M 5.359375 -5.9375 "
           id="path5422" />
      </symbol>
      <symbol
         overflow="visible"
         id="symbol7356">
        <path
           style="stroke:none;"
           d="M 4.828125 -4.09375 L 4 -6.078125 C 3.96875 -6.15625 3.953125 -6.203125 3.953125 -6.203125 C 3.953125 -6.265625 4.109375 -6.453125 4.53125 -6.5 C 4.640625 -6.515625 4.734375 -6.515625 4.734375 -6.6875 C 4.734375 -6.8125 4.609375 -6.8125 4.578125 -6.8125 C 4.171875 -6.8125 3.75 -6.78125 3.328125 -6.78125 C 3.078125 -6.78125 2.46875 -6.8125 2.21875 -6.8125 C 2.15625 -6.8125 2.03125 -6.8125 2.03125 -6.609375 C 2.03125 -6.5 2.140625 -6.5 2.265625 -6.5 C 2.859375 -6.5 2.921875 -6.40625 3.015625 -6.1875 L 4.1875 -3.40625 L 2.078125 -1.140625 L 1.953125 -1.03125 C 1.46875 -0.5 1 -0.34375 0.484375 -0.3125 C 0.359375 -0.296875 0.265625 -0.296875 0.265625 -0.109375 C 0.265625 -0.09375 0.265625 0 0.40625 0 C 0.703125 0 1.03125 -0.03125 1.328125 -0.03125 C 1.703125 -0.03125 2.09375 0 2.453125 0 C 2.515625 0 2.625 0 2.625 -0.203125 C 2.625 -0.296875 2.53125 -0.3125 2.515625 -0.3125 C 2.421875 -0.3125 2.109375 -0.34375 2.109375 -0.625 C 2.109375 -0.78125 2.265625 -0.9375 2.375 -1.0625 L 3.40625 -2.140625 L 4.296875 -3.125 L 5.296875 -0.734375 C 5.34375 -0.625 5.359375 -0.625 5.359375 -0.59375 C 5.359375 -0.515625 5.15625 -0.34375 4.78125 -0.3125 C 4.671875 -0.296875 4.578125 -0.296875 4.578125 -0.125 C 4.578125 0 4.6875 0 4.71875 0 C 5 0 5.703125 -0.03125 5.984375 -0.03125 C 6.234375 -0.03125 6.84375 0 7.09375 0 C 7.15625 0 7.28125 0 7.28125 -0.1875 C 7.28125 -0.3125 7.171875 -0.3125 7.09375 -0.3125 C 6.4375 -0.3125 6.40625 -0.34375 6.234375 -0.75 C 5.859375 -1.671875 5.1875 -3.234375 4.953125 -3.828125 C 5.625 -4.53125 6.671875 -5.71875 7 -5.984375 C 7.28125 -6.234375 7.671875 -6.46875 8.265625 -6.5 C 8.390625 -6.515625 8.484375 -6.515625 8.484375 -6.703125 C 8.484375 -6.703125 8.484375 -6.8125 8.359375 -6.8125 C 8.0625 -6.8125 7.71875 -6.78125 7.421875 -6.78125 C 7.046875 -6.78125 6.671875 -6.8125 6.3125 -6.8125 C 6.25 -6.8125 6.125 -6.8125 6.125 -6.609375 C 6.125 -6.546875 6.171875 -6.515625 6.234375 -6.5 C 6.328125 -6.484375 6.640625 -6.46875 6.640625 -6.1875 C 6.640625 -6.046875 6.53125 -5.921875 6.453125 -5.828125 Z M 4.828125 -4.09375 "
           id="path279" />
      </symbol>
      <symbol
         overflow="visible"
         id="symbol1332">
        <path
           style="stroke:none;"
           d=""
           id="path2159" />
      </symbol>
      <symbol
         overflow="visible"
         id="symbol3436">
        <path
           style="stroke:none;"
           d="M 2.328125 -4.4375 C 2.328125 -4.625 2.328125 -4.625 2.125 -4.625 C 1.671875 -4.1875 1.046875 -4.1875 0.765625 -4.1875 L 0.765625 -3.9375 C 0.921875 -3.9375 1.390625 -3.9375 1.765625 -4.125 L 1.765625 -0.578125 C 1.765625 -0.34375 1.765625 -0.25 1.078125 -0.25 L 0.8125 -0.25 L 0.8125 0 C 0.9375 0 1.796875 -0.03125 2.046875 -0.03125 C 2.265625 -0.03125 3.140625 0 3.296875 0 L 3.296875 -0.25 L 3.03125 -0.25 C 2.328125 -0.25 2.328125 -0.34375 2.328125 -0.578125 Z M 2.328125 -4.4375 "
           id="path9476" />
      </symbol>
    </g>
    <g
       id="g3676">
      <symbol
         overflow="visible"
         id="symbol1812">
        <path
           style="stroke:none;"
           d=""
           id="path2122" />
      </symbol>
      <symbol
         overflow="visible"
         id="symbol8486">
        <path
           style="stroke:none;"
           d="M 5.359375 -5.9375 C 5.21875 -5.796875 4.890625 -5.515625 4.890625 -5.34375 C 4.890625 -5.25 4.984375 -5.140625 5.078125 -5.140625 C 5.171875 -5.140625 5.21875 -5.21875 5.28125 -5.28125 C 5.390625 -5.421875 5.625 -5.703125 6.0625 -5.921875 C 6.125 -5.96875 6.234375 -6.015625 6.234375 -6.125 C 6.234375 -6.234375 6.15625 -6.28125 6.09375 -6.328125 C 5.875 -6.484375 5.765625 -6.65625 5.6875 -6.890625 C 5.65625 -6.984375 5.625 -7.125 5.484375 -7.125 C 5.34375 -7.125 5.28125 -6.984375 5.28125 -6.90625 C 5.28125 -6.859375 5.359375 -6.546875 5.515625 -6.328125 L 2.15625 -6.328125 C 2 -6.328125 1.8125 -6.328125 1.8125 -6.125 C 1.8125 -5.9375 2 -5.9375 2.15625 -5.9375 Z M 5.359375 -5.9375 "
           id="path6284" />
      </symbol>
      <symbol
         overflow="visible"
         id="symbol2415">
        <path
           style="stroke:none;"
           d="M 4.828125 -4.09375 L 4 -6.078125 C 3.96875 -6.15625 3.953125 -6.203125 3.953125 -6.203125 C 3.953125 -6.265625 4.109375 -6.453125 4.53125 -6.5 C 4.640625 -6.515625 4.734375 -6.515625 4.734375 -6.6875 C 4.734375 -6.8125 4.609375 -6.8125 4.578125 -6.8125 C 4.171875 -6.8125 3.75 -6.78125 3.328125 -6.78125 C 3.078125 -6.78125 2.46875 -6.8125 2.21875 -6.8125 C 2.15625 -6.8125 2.03125 -6.8125 2.03125 -6.609375 C 2.03125 -6.5 2.140625 -6.5 2.265625 -6.5 C 2.859375 -6.5 2.921875 -6.40625 3.015625 -6.1875 L 4.1875 -3.40625 L 2.078125 -1.140625 L 1.953125 -1.03125 C 1.46875 -0.5 1 -0.34375 0.484375 -0.3125 C 0.359375 -0.296875 0.265625 -0.296875 0.265625 -0.109375 C 0.265625 -0.09375 0.265625 0 0.40625 0 C 0.703125 0 1.03125 -0.03125 1.328125 -0.03125 C 1.703125 -0.03125 2.09375 0 2.453125 0 C 2.515625 0 2.625 0 2.625 -0.203125 C 2.625 -0.296875 2.53125 -0.3125 2.515625 -0.3125 C 2.421875 -0.3125 2.109375 -0.34375 2.109375 -0.625 C 2.109375 -0.78125 2.265625 -0.9375 2.375 -1.0625 L 3.40625 -2.140625 L 4.296875 -3.125 L 5.296875 -0.734375 C 5.34375 -0.625 5.359375 -0.625 5.359375 -0.59375 C 5.359375 -0.515625 5.15625 -0.34375 4.78125 -0.3125 C 4.671875 -0.296875 4.578125 -0.296875 4.578125 -0.125 C 4.578125 0 4.6875 0 4.71875 0 C 5 0 5.703125 -0.03125 5.984375 -0.03125 C 6.234375 -0.03125 6.84375 0 7.09375 0 C 7.15625 0 7.28125 0 7.28125 -0.1875 C 7.28125 -0.3125 7.171875 -0.3125 7.09375 -0.3125 C 6.4375 -0.3125 6.40625 -0.34375 6.234375 -0.75 C 5.859375 -1.671875 5.1875 -3.234375 4.953125 -3.828125 C 5.625 -4.53125 6.671875 -5.71875 7 -5.984375 C 7.28125 -6.234375 7.671875 -6.46875 8.265625 -6.5 C 8.390625 -6.515625 8.484375 -6.515625 8.484375 -6.703125 C 8.484375 -6.703125 8.484375 -6.8125 8.359375 -6.8125 C 8.0625 -6.8125 7.71875 -6.78125 7.421875 -6.78125 C 7.046875 -6.78125 6.671875 -6.8125 6.3125 -6.8125 C 6.25 -6.8125 6.125 -6.8125 6.125 -6.609375 C 6.125 -6.546875 6.171875 -6.515625 6.234375 -6.5 C 6.328125 -6.484375 6.640625 -6.46875 6.640625 -6.1875 C 6.640625 -6.046875 6.53125 -5.921875 6.453125 -5.828125 Z M 4.828125 -4.09375 "
           id="path9955" />
      </symbol>
      <symbol
         overflow="visible"
         id="symbol9771">
        <path
           style="stroke:none;"
           d=""
           id="path4233" />
      </symbol>
      <symbol
         overflow="visible"
         id="symbol63">
        <path
           style="stroke:none;"
           d="M 3.515625 -1.265625 L 3.28125 -1.265625 C 3.265625 -1.109375 3.1875 -0.703125 3.09375 -0.640625 C 3.046875 -0.59375 2.515625 -0.59375 2.40625 -0.59375 L 1.125 -0.59375 C 1.859375 -1.234375 2.109375 -1.4375 2.515625 -1.765625 C 3.03125 -2.171875 3.515625 -2.609375 3.515625 -3.265625 C 3.515625 -4.109375 2.78125 -4.625 1.890625 -4.625 C 1.03125 -4.625 0.4375 -4.015625 0.4375 -3.375 C 0.4375 -3.03125 0.734375 -2.984375 0.8125 -2.984375 C 0.96875 -2.984375 1.171875 -3.109375 1.171875 -3.359375 C 1.171875 -3.484375 1.125 -3.734375 0.765625 -3.734375 C 0.984375 -4.21875 1.453125 -4.375 1.78125 -4.375 C 2.484375 -4.375 2.84375 -3.828125 2.84375 -3.265625 C 2.84375 -2.65625 2.40625 -2.1875 2.1875 -1.9375 L 0.515625 -0.265625 C 0.4375 -0.203125 0.4375 -0.1875 0.4375 0 L 3.3125 0 Z M 3.515625 -1.265625 "
           id="path2234" />
      </symbol>
    </g>
    <g
       id="g1413">
      <symbol
         overflow="visible"
         id="symbol6759">
        <path
           style="stroke:none;"
           d=""
           id="path6805" />
      </symbol>
      <symbol
         overflow="visible"
         id="symbol910">
        <path
           style="stroke:none;"
           d="M 5.359375 -5.9375 C 5.21875 -5.796875 4.890625 -5.515625 4.890625 -5.34375 C 4.890625 -5.25 4.984375 -5.140625 5.078125 -5.140625 C 5.171875 -5.140625 5.21875 -5.21875 5.28125 -5.28125 C 5.390625 -5.421875 5.625 -5.703125 6.0625 -5.921875 C 6.125 -5.96875 6.234375 -6.015625 6.234375 -6.125 C 6.234375 -6.234375 6.15625 -6.28125 6.09375 -6.328125 C 5.875 -6.484375 5.765625 -6.65625 5.6875 -6.890625 C 5.65625 -6.984375 5.625 -7.125 5.484375 -7.125 C 5.34375 -7.125 5.28125 -6.984375 5.28125 -6.90625 C 5.28125 -6.859375 5.359375 -6.546875 5.515625 -6.328125 L 2.15625 -6.328125 C 2 -6.328125 1.8125 -6.328125 1.8125 -6.125 C 1.8125 -5.9375 2 -5.9375 2.15625 -5.9375 Z M 5.359375 -5.9375 "
           id="path7192" />
      </symbol>
      <symbol
         overflow="visible"
         id="symbol3177">
        <path
           style="stroke:none;"
           d="M 3.328125 -3.015625 C 3.390625 -3.265625 3.625 -4.1875 4.3125 -4.1875 C 4.359375 -4.1875 4.609375 -4.1875 4.8125 -4.0625 C 4.53125 -4 4.34375 -3.765625 4.34375 -3.515625 C 4.34375 -3.359375 4.453125 -3.171875 4.71875 -3.171875 C 4.9375 -3.171875 5.25 -3.34375 5.25 -3.75 C 5.25 -4.265625 4.671875 -4.40625 4.328125 -4.40625 C 3.75 -4.40625 3.40625 -3.875 3.28125 -3.65625 C 3.03125 -4.3125 2.5 -4.40625 2.203125 -4.40625 C 1.171875 -4.40625 0.59375 -3.125 0.59375 -2.875 C 0.59375 -2.765625 0.703125 -2.765625 0.71875 -2.765625 C 0.796875 -2.765625 0.828125 -2.796875 0.84375 -2.875 C 1.1875 -3.9375 1.84375 -4.1875 2.1875 -4.1875 C 2.375 -4.1875 2.71875 -4.09375 2.71875 -3.515625 C 2.71875 -3.203125 2.546875 -2.546875 2.1875 -1.140625 C 2.03125 -0.53125 1.671875 -0.109375 1.234375 -0.109375 C 1.171875 -0.109375 0.953125 -0.109375 0.734375 -0.234375 C 0.984375 -0.296875 1.203125 -0.5 1.203125 -0.78125 C 1.203125 -1.046875 0.984375 -1.125 0.84375 -1.125 C 0.53125 -1.125 0.296875 -0.875 0.296875 -0.546875 C 0.296875 -0.09375 0.78125 0.109375 1.21875 0.109375 C 1.890625 0.109375 2.25 -0.59375 2.265625 -0.640625 C 2.390625 -0.28125 2.75 0.109375 3.34375 0.109375 C 4.375 0.109375 4.9375 -1.171875 4.9375 -1.421875 C 4.9375 -1.53125 4.859375 -1.53125 4.828125 -1.53125 C 4.734375 -1.53125 4.71875 -1.484375 4.6875 -1.421875 C 4.359375 -0.34375 3.6875 -0.109375 3.375 -0.109375 C 2.984375 -0.109375 2.828125 -0.421875 2.828125 -0.765625 C 2.828125 -0.984375 2.875 -1.203125 2.984375 -1.640625 Z M 3.328125 -3.015625 "
           id="path9446" />
      </symbol>
      <symbol
         overflow="visible"
         id="symbol7245">
        <path
           style="stroke:none;"
           d=""
           id="path1842" />
      </symbol>
      <symbol
         overflow="visible"
         id="symbol1641">
        <path
           style="stroke:none;"
           d="M 3.515625 -1.265625 L 3.28125 -1.265625 C 3.265625 -1.109375 3.1875 -0.703125 3.09375 -0.640625 C 3.046875 -0.59375 2.515625 -0.59375 2.40625 -0.59375 L 1.125 -0.59375 C 1.859375 -1.234375 2.109375 -1.4375 2.515625 -1.765625 C 3.03125 -2.171875 3.515625 -2.609375 3.515625 -3.265625 C 3.515625 -4.109375 2.78125 -4.625 1.890625 -4.625 C 1.03125 -4.625 0.4375 -4.015625 0.4375 -3.375 C 0.4375 -3.03125 0.734375 -2.984375 0.8125 -2.984375 C 0.96875 -2.984375 1.171875 -3.109375 1.171875 -3.359375 C 1.171875 -3.484375 1.125 -3.734375 0.765625 -3.734375 C 0.984375 -4.21875 1.453125 -4.375 1.78125 -4.375 C 2.484375 -4.375 2.84375 -3.828125 2.84375 -3.265625 C 2.84375 -2.65625 2.40625 -2.1875 2.1875 -1.9375 L 0.515625 -0.265625 C 0.4375 -0.203125 0.4375 -0.1875 0.4375 0 L 3.3125 0 Z M 3.515625 -1.265625 "
           id="path1284" />
      </symbol>
    </g>
    <g
       id="g5412">
      <symbol
         overflow="visible"
         id="symbol6412">
        <path
           style="stroke:none;"
           d=""
           id="path8283" />
      </symbol>
      <symbol
         overflow="visible"
         id="symbol7791">
        <path
           style="stroke:none;"
           d="M 5.359375 -5.9375 C 5.21875 -5.796875 4.890625 -5.515625 4.890625 -5.34375 C 4.890625 -5.25 4.984375 -5.140625 5.078125 -5.140625 C 5.171875 -5.140625 5.21875 -5.21875 5.28125 -5.28125 C 5.390625 -5.421875 5.625 -5.703125 6.0625 -5.921875 C 6.125 -5.96875 6.234375 -6.015625 6.234375 -6.125 C 6.234375 -6.234375 6.15625 -6.28125 6.09375 -6.328125 C 5.875 -6.484375 5.765625 -6.65625 5.6875 -6.890625 C 5.65625 -6.984375 5.625 -7.125 5.484375 -7.125 C 5.34375 -7.125 5.28125 -6.984375 5.28125 -6.90625 C 5.28125 -6.859375 5.359375 -6.546875 5.515625 -6.328125 L 2.15625 -6.328125 C 2 -6.328125 1.8125 -6.328125 1.8125 -6.125 C 1.8125 -5.9375 2 -5.9375 2.15625 -5.9375 Z M 5.359375 -5.9375 "
           id="path4210" />
      </symbol>
      <symbol
         overflow="visible"
         id="symbol3859">
        <path
           style="stroke:none;"
           d="M 3.328125 -3.015625 C 3.390625 -3.265625 3.625 -4.1875 4.3125 -4.1875 C 4.359375 -4.1875 4.609375 -4.1875 4.8125 -4.0625 C 4.53125 -4 4.34375 -3.765625 4.34375 -3.515625 C 4.34375 -3.359375 4.453125 -3.171875 4.71875 -3.171875 C 4.9375 -3.171875 5.25 -3.34375 5.25 -3.75 C 5.25 -4.265625 4.671875 -4.40625 4.328125 -4.40625 C 3.75 -4.40625 3.40625 -3.875 3.28125 -3.65625 C 3.03125 -4.3125 2.5 -4.40625 2.203125 -4.40625 C 1.171875 -4.40625 0.59375 -3.125 0.59375 -2.875 C 0.59375 -2.765625 0.703125 -2.765625 0.71875 -2.765625 C 0.796875 -2.765625 0.828125 -2.796875 0.84375 -2.875 C 1.1875 -3.9375 1.84375 -4.1875 2.1875 -4.1875 C 2.375 -4.1875 2.71875 -4.09375 2.71875 -3.515625 C 2.71875 -3.203125 2.546875 -2.546875 2.1875 -1.140625 C 2.03125 -0.53125 1.671875 -0.109375 1.234375 -0.109375 C 1.171875 -0.109375 0.953125 -0.109375 0.734375 -0.234375 C 0.984375 -0.296875 1.203125 -0.5 1.203125 -0.78125 C 1.203125 -1.046875 0.984375 -1.125 0.84375 -1.125 C 0.53125 -1.125 0.296875 -0.875 0.296875 -0.546875 C 0.296875 -0.09375 0.78125 0.109375 1.21875 0.109375 C 1.890625 0.109375 2.25 -0.59375 2.265625 -0.640625 C 2.390625 -0.28125 2.75 0.109375 3.34375 0.109375 C 4.375 0.109375 4.9375 -1.171875 4.9375 -1.421875 C 4.9375 -1.53125 4.859375 -1.53125 4.828125 -1.53125 C 4.734375 -1.53125 4.71875 -1.484375 4.6875 -1.421875 C 4.359375 -0.34375 3.6875 -0.109375 3.375 -0.109375 C 2.984375 -0.109375 2.828125 -0.421875 2.828125 -0.765625 C 2.828125 -0.984375 2.875 -1.203125 2.984375 -1.640625 Z M 3.328125 -3.015625 "
           id="path1741" />
      </symbol>
      <symbol
         overflow="visible"
         id="symbol3118">
        <path
           style="stroke:none;"
           d=""
           id="path5048" />
      </symbol>
      <symbol
         overflow="visible"
         id="symbol4207">
        <path
           style="stroke:none;"
           d="M 2.328125 -4.4375 C 2.328125 -4.625 2.328125 -4.625 2.125 -4.625 C 1.671875 -4.1875 1.046875 -4.1875 0.765625 -4.1875 L 0.765625 -3.9375 C 0.921875 -3.9375 1.390625 -3.9375 1.765625 -4.125 L 1.765625 -0.578125 C 1.765625 -0.34375 1.765625 -0.25 1.078125 -0.25 L 0.8125 -0.25 L 0.8125 0 C 0.9375 0 1.796875 -0.03125 2.046875 -0.03125 C 2.265625 -0.03125 3.140625 0 3.296875 0 L 3.296875 -0.25 L 3.03125 -0.25 C 2.328125 -0.25 2.328125 -0.34375 2.328125 -0.578125 Z M 2.328125 -4.4375 "
           id="path6258" />
      </symbol>
    </g>
    <g
       id="g3578">
      <symbol
         overflow="visible"
         id="symbol9086">
        <path
           style="stroke:none;"
           d=""
           id="path1791" />
      </symbol>
      <symbol
         overflow="visible"
         id="symbol9554">
        <path
           style="stroke:none;"
           d="M 4.53125 -4.984375 C 4.53125 -5.640625 4.359375 -7.03125 3.34375 -7.03125 C 1.953125 -7.03125 0.421875 -4.21875 0.421875 -1.9375 C 0.421875 -1 0.703125 0.109375 1.609375 0.109375 C 3.015625 0.109375 4.53125 -2.75 4.53125 -4.984375 Z M 1.46875 -3.625 C 1.640625 -4.25 1.84375 -5.046875 2.25 -5.765625 C 2.515625 -6.25 2.875 -6.8125 3.328125 -6.8125 C 3.8125 -6.8125 3.875 -6.171875 3.875 -5.609375 C 3.875 -5.109375 3.796875 -4.609375 3.5625 -3.625 Z M 3.46875 -3.296875 C 3.359375 -2.84375 3.15625 -2 2.765625 -1.28125 C 2.421875 -0.59375 2.046875 -0.109375 1.609375 -0.109375 C 1.28125 -0.109375 1.078125 -0.40625 1.078125 -1.328125 C 1.078125 -1.75 1.140625 -2.328125 1.390625 -3.296875 Z M 3.46875 -3.296875 "
           id="path7365" />
      </symbol>
    </g>
    <g
       id="g1136">
      <symbol
         overflow="visible"
         id="symbol3660">
        <path
           style="stroke:none;"
           d=""
           id="path2538" />
      </symbol>
      <symbol
         overflow="visible"
         id="symbol7642">
        <path
           style="stroke:none;"
           d="M 4.359375 -6.671875 C 4.359375 -6.703125 4.390625 -6.8125 4.390625 -6.8125 C 4.390625 -6.828125 4.390625 -6.921875 4.265625 -6.921875 C 4.171875 -6.921875 4.15625 -6.890625 4.109375 -6.71875 L 3.53125 -4.421875 C 1.953125 -4.359375 0.484375 -3.046875 0.484375 -1.6875 C 0.484375 -0.734375 1.1875 0.046875 2.40625 0.125 C 2.328125 0.421875 2.25 0.75 2.171875 1.0625 C 2.046875 1.53125 1.953125 1.90625 1.953125 1.9375 C 1.953125 2.03125 2.03125 2.046875 2.078125 2.046875 C 2.125 2.046875 2.140625 2.03125 2.171875 2 C 2.1875 1.984375 2.25 1.75 2.28125 1.609375 L 2.65625 0.125 C 4.265625 0.0625 5.71875 -1.28125 5.71875 -2.609375 C 5.71875 -3.40625 5.1875 -4.3125 3.796875 -4.421875 Z M 2.453125 -0.09375 C 1.859375 -0.125 1.140625 -0.484375 1.140625 -1.46875 C 1.140625 -2.671875 2 -4.0625 3.484375 -4.203125 Z M 3.734375 -4.203125 C 4.5 -4.15625 5.0625 -3.703125 5.0625 -2.828125 C 5.0625 -1.640625 4.203125 -0.21875 2.71875 -0.09375 Z M 3.734375 -4.203125 "
           id="path1809" />
      </symbol>
    </g>
    <g
       id="g1433">
      <symbol
         overflow="visible"
         id="symbol3938">
        <path
           style="stroke:none;"
           d=""
           id="path8806" />
      </symbol>
      <symbol
         overflow="visible"
         id="symbol3925">
        <path
           style="stroke:none;"
           d="M 4.359375 -6.671875 C 4.359375 -6.703125 4.390625 -6.8125 4.390625 -6.8125 C 4.390625 -6.828125 4.390625 -6.921875 4.265625 -6.921875 C 4.171875 -6.921875 4.15625 -6.890625 4.109375 -6.71875 L 3.53125 -4.421875 C 1.953125 -4.359375 0.484375 -3.046875 0.484375 -1.6875 C 0.484375 -0.734375 1.1875 0.046875 2.40625 0.125 C 2.328125 0.421875 2.25 0.75 2.171875 1.0625 C 2.046875 1.53125 1.953125 1.90625 1.953125 1.9375 C 1.953125 2.03125 2.03125 2.046875 2.078125 2.046875 C 2.125 2.046875 2.140625 2.03125 2.171875 2 C 2.1875 1.984375 2.25 1.75 2.28125 1.609375 L 2.65625 0.125 C 4.265625 0.0625 5.71875 -1.28125 5.71875 -2.609375 C 5.71875 -3.40625 5.1875 -4.3125 3.796875 -4.421875 Z M 2.453125 -0.09375 C 1.859375 -0.125 1.140625 -0.484375 1.140625 -1.46875 C 1.140625 -2.671875 2 -4.0625 3.484375 -4.203125 Z M 3.734375 -4.203125 C 4.5 -4.15625 5.0625 -3.703125 5.0625 -2.828125 C 5.0625 -1.640625 4.203125 -0.21875 2.71875 -0.09375 Z M 3.734375 -4.203125 "
           id="path6533" />
      </symbol>
    </g>
  </defs>
  <sodipodi:namedview
     id="base"
     pagecolor="#ffffff"
     bordercolor="#666666"
     borderopacity="1.0"
     inkscape:pageopacity="0.0"
     inkscape:pageshadow="2"
     inkscape:zoom="1.7004471"
     inkscape:cx="309.72857"
     inkscape:cy="438.40614"
     inkscape:document-units="mm"
     inkscape:current-layer="layer1"
     inkscape:document-rotation="0"
     showgrid="false"
     showguides="true"
     inkscape:guide-bbox="true"
     inkscape:snap-object-midpoints="true"
     inkscape:snap-global="true"
     inkscape:window-width="1862"
     inkscape:window-height="1016"
     inkscape:window-x="58"
     inkscape:window-y="27"
     inkscape:window-maximized="1" />
  <metadata
     id="metadata5">
    <rdf:RDF>
      <cc:Work
         rdf:about="">
        <dc:format>image/svg+xml</dc:format>
        <dc:type
           rdf:resource="http://purl.org/dc/dcmitype/StillImage" />
        <dc:title></dc:title>
      </cc:Work>
    </rdf:RDF>
  </metadata>
  <g
     inkscape:label="Layer 1"
     inkscape:groupmode="layer"
     id="layer1">
    <path
       id="path833"
       style="fill:#ececec;fill-rule:evenodd;stroke:#000000;stroke-width:0.132292;stop-color:#000000"
       d="M 121.97409,82.621648 A 23.170424,23.170424 0 0 1 98.80367,105.79208 23.170424,23.170424 0 0 1 75.633247,82.621648 23.170424,23.170424 0 0 1 98.80367,59.451224 23.170424,23.170424 0 0 1 121.97409,82.621648 Z" />
    <path
       style="font-variation-settings:normal;opacity:1;vector-effect:none;fill:none;fill-opacity:1;stroke:#000000;stroke-width:0.25;stroke-linecap:butt;stroke-linejoin:miter;stroke-miterlimit:4;stroke-dasharray:none;stroke-dashoffset:0;stroke-opacity:1;marker:none;marker-start:none;marker-mid:none;marker-end:url(#Arrow1Mend);stop-color:#000000;stop-opacity:1"
       d="M 98.803668,82.621651 88.782306,62.34441"
       id="path840"
       sodipodi:nodetypes="cc"
       inkscape:transform-center-x="5.0087785"
       inkscape:transform-center-y="-10.136373" />
    <path
       style="font-variation-settings:normal;opacity:1;vector-effect:none;fill:none;fill-opacity:1;stroke:#000000;stroke-width:0.25;stroke-linecap:butt;stroke-linejoin:miter;stroke-miterlimit:4;stroke-dasharray:none;stroke-dashoffset:0;stroke-opacity:1;marker:none;marker-start:none;marker-mid:none;marker-end:url(#marker1154);stop-color:#000000;stop-opacity:1"
       d="M 98.800774,82.622178 111.32169,63.785489"
       id="path1150"
       sodipodi:nodetypes="cc"
       inkscape:transform-center-x="-6.2594665"
       inkscape:transform-center-y="-9.41557" />
    <g
       inkscape:label=""
       transform="matrix(0.65334355,0,0,0.65334355,-109.28015,15.093631)"
       id="g1224"
       style="stroke-width:1.53059">
      <g
         id="g3307"
         style="stroke-width:1.53059">
        <g
           style="fill:#000000;fill-opacity:1;stroke-width:1.53059"
           id="g2744">
          <use
             xlink:href="#symbol951"
             x="301.73001"
             y="91.400002"
             id="use6500"
             width="100%"
             height="100%"
             style="stroke-width:1.53059" />
        </g>
        <g
           style="fill:#000000;fill-opacity:1;stroke-width:1.53059"
           id="g7160">
          <use
             xlink:href="#symbol7356"
             x="299.638"
             y="93.917999"
             id="use2872"
             width="100%"
             height="100%"
             style="stroke-width:1.53059" />
        </g>
        <g
           style="fill:#000000;fill-opacity:1;stroke-width:1.53059"
           id="g8138">
          <use
             xlink:href="#symbol3436"
             x="307.892"
             y="95.412003"
             id="use8946"
             width="100%"
             height="100%"
             style="stroke-width:1.53059" />
        </g>
      </g>
    </g>
    <g
       inkscape:label=""
       transform="matrix(0.65334355,0,0,0.65334355,-91.359139,16.227069)"
       id="g1300"
       style="stroke-width:1.53059">
      <g
         id="g9574"
         style="stroke-width:1.53059">
        <g
           style="fill:#000000;fill-opacity:1;stroke-width:1.53059"
           id="g2186">
          <use
             xlink:href="#symbol8486"
             x="301.73001"
             y="91.400002"
             id="use3763"
             width="100%"
             height="100%"
             style="stroke-width:1.53059" />
        </g>
        <g
           style="fill:#000000;fill-opacity:1;stroke-width:1.53059"
           id="g928">
          <use
             xlink:href="#symbol2415"
             x="299.638"
             y="93.917999"
             id="use2235"
             width="100%"
             height="100%"
             style="stroke-width:1.53059" />
        </g>
        <g
           style="fill:#000000;fill-opacity:1;stroke-width:1.53059"
           id="g4952">
          <use
             xlink:href="#symbol63"
             x="307.892"
             y="95.412003"
             id="use6521"
             width="100%"
             height="100%"
             style="stroke-width:1.53059" />
        </g>
      </g>
    </g>
    <path
       id="path1566"
       style="fill:#cccccc;fill-rule:evenodd;stroke:#000000;stroke-width:0.132292;stop-color:#000000"
       d="M 110.46436,178.56362 A 35.278044,15.215908 58.141782 0 1 79.366323,142.9531 35.278044,15.215908 58.141782 0 1 87.138,117.3302 a 35.278044,15.215908 58.141782 0 1 31.09802,35.61051 35.278044,15.215908 58.141782 0 1 -7.77166,25.62291 z" />
    <g
       inkscape:label=""
       transform="matrix(0.65334355,0,0,0.65334355,-92.944248,101.68432)"
       id="g1395"
       style="stroke-width:1.53059">
      <g
         id="g8708"
         style="stroke-width:1.53059">
        <g
           style="fill:#000000;fill-opacity:1;stroke-width:1.53059"
           id="g1187">
          <use
             xlink:href="#symbol910"
             x="300.785"
             y="93.917999"
             id="use8178"
             width="100%"
             height="100%"
             style="stroke-width:1.53059" />
        </g>
        <g
           style="fill:#000000;fill-opacity:1;stroke-width:1.53059"
           id="g9042">
          <use
             xlink:href="#symbol3177"
             x="300.91452"
             y="93.917999"
             id="use7302"
             width="100%"
             height="100%"
             style="stroke-width:1.53059" />
        </g>
        <g
           style="fill:#000000;fill-opacity:1;stroke-width:1.53059"
           id="g9008">
          <use
             xlink:href="#symbol1641"
             x="306.612"
             y="95.412003"
             id="use6587"
             width="100%"
             height="100%"
             style="stroke-width:1.53059" />
        </g>
      </g>
    </g>
    <path
       style="font-variation-settings:normal;opacity:1;vector-effect:none;fill:none;fill-opacity:1;stroke:#000000;stroke-width:0.25;stroke-linecap:butt;stroke-linejoin:miter;stroke-miterlimit:4;stroke-dasharray:none;stroke-dashoffset:0;stroke-opacity:1;marker:none;marker-start:none;marker-mid:none;marker-end:url(#marker1584);stop-color:#000000;stop-opacity:1"
       d="m 98.801169,147.94691 11.963711,-8.87168"
       id="path1568"
       sodipodi:nodetypes="cc"
       inkscape:transform-center-x="-5.9809242"
       inkscape:transform-center-y="-4.4338076" />
    <g
       inkscape:label=""
       transform="matrix(0.65334355,0,0,0.65334355,-95.97513,78.406534)"
       id="g1509"
       style="stroke-width:1.53059">
      <g
         id="g5092"
         style="stroke-width:1.53059">
        <g
           style="fill:#000000;fill-opacity:1;stroke-width:1.53059"
           id="g4256">
          <use
             xlink:href="#symbol7791"
             x="300.785"
             y="93.917999"
             id="use5496"
             width="100%"
             height="100%"
             style="stroke-width:1.53059" />
        </g>
        <g
           style="fill:#000000;fill-opacity:1;stroke-width:1.53059"
           id="g986">
          <use
             xlink:href="#symbol3859"
             x="300.91452"
             y="93.917999"
             id="use2056"
             width="100%"
             height="100%"
             style="stroke-width:1.53059" />
        </g>
        <g
           style="fill:#000000;fill-opacity:1;stroke-width:1.53059"
           id="g4928">
          <use
             xlink:href="#symbol4207"
             x="306.612"
             y="95.412003"
             id="use8315"
             width="100%"
             height="100%"
             style="stroke-width:1.53059" />
        </g>
      </g>
    </g>
    <path
       style="font-variation-settings:normal;opacity:1;vector-effect:none;fill:none;fill-opacity:1;stroke:#000000;stroke-width:0.25;stroke-linecap:butt;stroke-linejoin:miter;stroke-miterlimit:4;stroke-dasharray:none;stroke-dashoffset:0;stroke-opacity:1;marker:none;marker-start:none;marker-mid:none;marker-end:url(#marker1574);stop-color:#000000;stop-opacity:1"
       d="m 98.799285,147.94297 22.102395,20.60454"
       id="path1570"
       sodipodi:nodetypes="cc"
       inkscape:transform-center-x="-11.048376"
       inkscape:transform-center-y="10.300361" />
    <path
       id="path1704"
       style="fill:#000000;fill-rule:evenodd;stroke:#000000;stroke-width:0.25;stroke-miterlimit:4;stroke-dasharray:none;stop-color:#000000"
       inkscape:transform-center-y="0.58081348"
       d="m 98.34759,109.91418 v 5.58465 l -1.025091,-0.55012 0.740588,1.74229 0.740583,1.74264 0.74059,-1.74264 0.74085,-1.74229 -1.02535,0.55012 v -5.58465 z"
       sodipodi:nodetypes="cccccccccc" />
    <g
       inkscape:label=""
       transform="matrix(0.67657148,0,0,0.67657148,-101.02109,86.881861)"
       id="g1848"
       style="stroke-width:1.47804">
      <g
         id="g9709"
         style="stroke-width:1.47804">
        <g
           style="fill:#000000;fill-opacity:1;stroke-width:1.47804"
           id="g9567">
          <use
             xlink:href="#symbol9554"
             x="303.52301"
             y="93.917999"
             id="use8054"
             width="100%"
             height="100%"
             style="stroke-width:1.47804" />
        </g>
      </g>
    </g>
    <g
       inkscape:label=""
       transform="matrix(0.67657148,0,0,0.67657148,-108.01115,12.9386)"
       id="g2121"
       style="stroke-width:1.47804">
      <g
         id="g7449"
         style="stroke-width:1.47804">
        <g
           style="fill:#000000;fill-opacity:1;stroke-width:1.47804"
           id="g3257">
          <use
             xlink:href="#symbol3925"
             x="303.03201"
             y="93.917999"
             id="use2562"
             width="100%"
             height="100%"
             style="stroke-width:1.47804" />
        </g>
      </g>
    </g>
    <path
       style="fill:none;fill-rule:evenodd;stroke:#000000;stroke-width:0.25;stroke-miterlimit:4;stroke-dasharray:none;stop-color:#000000"
       d="m 93.318462,71.579552 c 1.651273,-0.821385 3.512851,-1.283289 5.482312,-1.283289 2.543796,0 4.907616,0.770588 6.870756,2.091066"
       id="path2139" />
    <path
       style="fill:none;fill-rule:evenodd;stroke:#000000;stroke-width:0.25;stroke-miterlimit:4;stroke-dasharray:none;stop-color:#000000"
       d="m 108.74016,140.6541 c 1.49938,2.04148 2.38504,4.56175 2.38504,7.28887 0,3.21766 -1.23292,6.14735 -3.25212,8.34242"
       id="path2164" />
  </g>
</svg>
